%TF.GenerationSoftware,KiCad,Pcbnew,10.0.1*%
%TF.CreationDate,2026-04-21T18:00:48-07:00*%
%TF.ProjectId,paypi,70617970-692e-46b6-9963-61645f706362,rev?*%
%TF.SameCoordinates,Original*%
%TF.FileFunction,Drillmap*%
%TF.FilePolarity,Positive*%
%FSLAX45Y45*%
G04 Gerber Fmt 4.5, Leading zero omitted, Abs format (unit mm)*
G04 Created by KiCad (PCBNEW 10.0.1) date 2026-04-21 18:00:48*
%MOMM*%
%LPD*%
G01*
G04 APERTURE LIST*
%ADD10C,0.100000*%
%ADD11C,0.200000*%
%ADD12C,0.270000*%
G04 APERTURE END LIST*
D10*
X11650000Y-7100000D02*
G75*
G02*
X12000000Y-6750000I350000J0D01*
G01*
X11650000Y-12900000D02*
X11650000Y-7100000D01*
X12000000Y-6750000D02*
X14300000Y-6750000D01*
X12000000Y-13250000D02*
G75*
G02*
X11650000Y-12900000I0J350000D01*
G01*
X12000000Y-13250000D02*
X14300000Y-13250000D01*
X14300000Y-6750000D02*
G75*
G02*
X14650000Y-7100000I0J-350000D01*
G01*
X14650000Y-12900000D02*
G75*
G02*
X14300000Y-13250000I-350000J0D01*
G01*
X14650000Y-12900000D02*
X14650000Y-7100000D01*
D11*
D12*
X11865000Y-6965000D02*
X12135000Y-7235000D01*
X12135000Y-6965000D02*
X11865000Y-7235000D01*
X11865000Y-12765000D02*
X12135000Y-13035000D01*
X12135000Y-12765000D02*
X11865000Y-13035000D01*
X14165000Y-6965000D02*
X14435000Y-7235000D01*
X14435000Y-6965000D02*
X14165000Y-7235000D01*
X14165000Y-12765000D02*
X14435000Y-13035000D01*
X14435000Y-12765000D02*
X14165000Y-13035000D01*
D11*
X11905777Y-13566484D02*
X11905777Y-13366484D01*
X11905777Y-13366484D02*
X11953396Y-13366484D01*
X11953396Y-13366484D02*
X11981967Y-13376008D01*
X11981967Y-13376008D02*
X12001015Y-13395055D01*
X12001015Y-13395055D02*
X12010539Y-13414103D01*
X12010539Y-13414103D02*
X12020062Y-13452198D01*
X12020062Y-13452198D02*
X12020062Y-13480769D01*
X12020062Y-13480769D02*
X12010539Y-13518865D01*
X12010539Y-13518865D02*
X12001015Y-13537912D01*
X12001015Y-13537912D02*
X11981967Y-13556960D01*
X11981967Y-13556960D02*
X11953396Y-13566484D01*
X11953396Y-13566484D02*
X11905777Y-13566484D01*
X12105777Y-13566484D02*
X12105777Y-13433150D01*
X12105777Y-13471246D02*
X12115301Y-13452198D01*
X12115301Y-13452198D02*
X12124824Y-13442674D01*
X12124824Y-13442674D02*
X12143872Y-13433150D01*
X12143872Y-13433150D02*
X12162920Y-13433150D01*
X12229586Y-13566484D02*
X12229586Y-13433150D01*
X12229586Y-13366484D02*
X12220062Y-13376008D01*
X12220062Y-13376008D02*
X12229586Y-13385531D01*
X12229586Y-13385531D02*
X12239110Y-13376008D01*
X12239110Y-13376008D02*
X12229586Y-13366484D01*
X12229586Y-13366484D02*
X12229586Y-13385531D01*
X12353396Y-13566484D02*
X12334348Y-13556960D01*
X12334348Y-13556960D02*
X12324824Y-13537912D01*
X12324824Y-13537912D02*
X12324824Y-13366484D01*
X12458158Y-13566484D02*
X12439110Y-13556960D01*
X12439110Y-13556960D02*
X12429586Y-13537912D01*
X12429586Y-13537912D02*
X12429586Y-13366484D01*
X12686729Y-13566484D02*
X12686729Y-13366484D01*
X12686729Y-13366484D02*
X12753396Y-13509341D01*
X12753396Y-13509341D02*
X12820062Y-13366484D01*
X12820062Y-13366484D02*
X12820062Y-13566484D01*
X13001015Y-13566484D02*
X13001015Y-13461722D01*
X13001015Y-13461722D02*
X12991491Y-13442674D01*
X12991491Y-13442674D02*
X12972443Y-13433150D01*
X12972443Y-13433150D02*
X12934348Y-13433150D01*
X12934348Y-13433150D02*
X12915301Y-13442674D01*
X13001015Y-13556960D02*
X12981967Y-13566484D01*
X12981967Y-13566484D02*
X12934348Y-13566484D01*
X12934348Y-13566484D02*
X12915301Y-13556960D01*
X12915301Y-13556960D02*
X12905777Y-13537912D01*
X12905777Y-13537912D02*
X12905777Y-13518865D01*
X12905777Y-13518865D02*
X12915301Y-13499817D01*
X12915301Y-13499817D02*
X12934348Y-13490293D01*
X12934348Y-13490293D02*
X12981967Y-13490293D01*
X12981967Y-13490293D02*
X13001015Y-13480769D01*
X13096253Y-13433150D02*
X13096253Y-13633150D01*
X13096253Y-13442674D02*
X13115301Y-13433150D01*
X13115301Y-13433150D02*
X13153396Y-13433150D01*
X13153396Y-13433150D02*
X13172443Y-13442674D01*
X13172443Y-13442674D02*
X13181967Y-13452198D01*
X13181967Y-13452198D02*
X13191491Y-13471246D01*
X13191491Y-13471246D02*
X13191491Y-13528388D01*
X13191491Y-13528388D02*
X13181967Y-13547436D01*
X13181967Y-13547436D02*
X13172443Y-13556960D01*
X13172443Y-13556960D02*
X13153396Y-13566484D01*
X13153396Y-13566484D02*
X13115301Y-13566484D01*
X13115301Y-13566484D02*
X13096253Y-13556960D01*
X13277205Y-13547436D02*
X13286729Y-13556960D01*
X13286729Y-13556960D02*
X13277205Y-13566484D01*
X13277205Y-13566484D02*
X13267682Y-13556960D01*
X13267682Y-13556960D02*
X13277205Y-13547436D01*
X13277205Y-13547436D02*
X13277205Y-13566484D01*
X13277205Y-13442674D02*
X13286729Y-13452198D01*
X13286729Y-13452198D02*
X13277205Y-13461722D01*
X13277205Y-13461722D02*
X13267682Y-13452198D01*
X13267682Y-13452198D02*
X13277205Y-13442674D01*
X13277205Y-13442674D02*
X13277205Y-13461722D01*
X11445000Y-13795000D02*
X11645000Y-13995000D01*
X11645000Y-13795000D02*
X11445000Y-13995000D01*
X11896253Y-13805531D02*
X11905777Y-13796008D01*
X11905777Y-13796008D02*
X11924824Y-13786484D01*
X11924824Y-13786484D02*
X11972443Y-13786484D01*
X11972443Y-13786484D02*
X11991491Y-13796008D01*
X11991491Y-13796008D02*
X12001015Y-13805531D01*
X12001015Y-13805531D02*
X12010539Y-13824579D01*
X12010539Y-13824579D02*
X12010539Y-13843627D01*
X12010539Y-13843627D02*
X12001015Y-13872198D01*
X12001015Y-13872198D02*
X11886729Y-13986484D01*
X11886729Y-13986484D02*
X12010539Y-13986484D01*
X12096253Y-13967436D02*
X12105777Y-13976960D01*
X12105777Y-13976960D02*
X12096253Y-13986484D01*
X12096253Y-13986484D02*
X12086729Y-13976960D01*
X12086729Y-13976960D02*
X12096253Y-13967436D01*
X12096253Y-13967436D02*
X12096253Y-13986484D01*
X12172443Y-13786484D02*
X12305777Y-13786484D01*
X12305777Y-13786484D02*
X12220062Y-13986484D01*
X12420062Y-13786484D02*
X12439110Y-13786484D01*
X12439110Y-13786484D02*
X12458158Y-13796008D01*
X12458158Y-13796008D02*
X12467682Y-13805531D01*
X12467682Y-13805531D02*
X12477205Y-13824579D01*
X12477205Y-13824579D02*
X12486729Y-13862674D01*
X12486729Y-13862674D02*
X12486729Y-13910293D01*
X12486729Y-13910293D02*
X12477205Y-13948388D01*
X12477205Y-13948388D02*
X12467682Y-13967436D01*
X12467682Y-13967436D02*
X12458158Y-13976960D01*
X12458158Y-13976960D02*
X12439110Y-13986484D01*
X12439110Y-13986484D02*
X12420062Y-13986484D01*
X12420062Y-13986484D02*
X12401015Y-13976960D01*
X12401015Y-13976960D02*
X12391491Y-13967436D01*
X12391491Y-13967436D02*
X12381967Y-13948388D01*
X12381967Y-13948388D02*
X12372443Y-13910293D01*
X12372443Y-13910293D02*
X12372443Y-13862674D01*
X12372443Y-13862674D02*
X12381967Y-13824579D01*
X12381967Y-13824579D02*
X12391491Y-13805531D01*
X12391491Y-13805531D02*
X12401015Y-13796008D01*
X12401015Y-13796008D02*
X12420062Y-13786484D01*
X12610539Y-13786484D02*
X12629586Y-13786484D01*
X12629586Y-13786484D02*
X12648634Y-13796008D01*
X12648634Y-13796008D02*
X12658158Y-13805531D01*
X12658158Y-13805531D02*
X12667682Y-13824579D01*
X12667682Y-13824579D02*
X12677205Y-13862674D01*
X12677205Y-13862674D02*
X12677205Y-13910293D01*
X12677205Y-13910293D02*
X12667682Y-13948388D01*
X12667682Y-13948388D02*
X12658158Y-13967436D01*
X12658158Y-13967436D02*
X12648634Y-13976960D01*
X12648634Y-13976960D02*
X12629586Y-13986484D01*
X12629586Y-13986484D02*
X12610539Y-13986484D01*
X12610539Y-13986484D02*
X12591491Y-13976960D01*
X12591491Y-13976960D02*
X12581967Y-13967436D01*
X12581967Y-13967436D02*
X12572443Y-13948388D01*
X12572443Y-13948388D02*
X12562920Y-13910293D01*
X12562920Y-13910293D02*
X12562920Y-13862674D01*
X12562920Y-13862674D02*
X12572443Y-13824579D01*
X12572443Y-13824579D02*
X12581967Y-13805531D01*
X12581967Y-13805531D02*
X12591491Y-13796008D01*
X12591491Y-13796008D02*
X12610539Y-13786484D01*
X12762920Y-13986484D02*
X12762920Y-13853150D01*
X12762920Y-13872198D02*
X12772443Y-13862674D01*
X12772443Y-13862674D02*
X12791491Y-13853150D01*
X12791491Y-13853150D02*
X12820063Y-13853150D01*
X12820063Y-13853150D02*
X12839110Y-13862674D01*
X12839110Y-13862674D02*
X12848634Y-13881722D01*
X12848634Y-13881722D02*
X12848634Y-13986484D01*
X12848634Y-13881722D02*
X12858158Y-13862674D01*
X12858158Y-13862674D02*
X12877205Y-13853150D01*
X12877205Y-13853150D02*
X12905777Y-13853150D01*
X12905777Y-13853150D02*
X12924824Y-13862674D01*
X12924824Y-13862674D02*
X12934348Y-13881722D01*
X12934348Y-13881722D02*
X12934348Y-13986484D01*
X13029586Y-13986484D02*
X13029586Y-13853150D01*
X13029586Y-13872198D02*
X13039110Y-13862674D01*
X13039110Y-13862674D02*
X13058158Y-13853150D01*
X13058158Y-13853150D02*
X13086729Y-13853150D01*
X13086729Y-13853150D02*
X13105777Y-13862674D01*
X13105777Y-13862674D02*
X13115301Y-13881722D01*
X13115301Y-13881722D02*
X13115301Y-13986484D01*
X13115301Y-13881722D02*
X13124824Y-13862674D01*
X13124824Y-13862674D02*
X13143872Y-13853150D01*
X13143872Y-13853150D02*
X13172443Y-13853150D01*
X13172443Y-13853150D02*
X13191491Y-13862674D01*
X13191491Y-13862674D02*
X13201015Y-13881722D01*
X13201015Y-13881722D02*
X13201015Y-13986484D01*
X13591491Y-13776960D02*
X13420063Y-14034103D01*
X13848634Y-13786484D02*
X13867682Y-13786484D01*
X13867682Y-13786484D02*
X13886729Y-13796008D01*
X13886729Y-13796008D02*
X13896253Y-13805531D01*
X13896253Y-13805531D02*
X13905777Y-13824579D01*
X13905777Y-13824579D02*
X13915301Y-13862674D01*
X13915301Y-13862674D02*
X13915301Y-13910293D01*
X13915301Y-13910293D02*
X13905777Y-13948388D01*
X13905777Y-13948388D02*
X13896253Y-13967436D01*
X13896253Y-13967436D02*
X13886729Y-13976960D01*
X13886729Y-13976960D02*
X13867682Y-13986484D01*
X13867682Y-13986484D02*
X13848634Y-13986484D01*
X13848634Y-13986484D02*
X13829586Y-13976960D01*
X13829586Y-13976960D02*
X13820063Y-13967436D01*
X13820063Y-13967436D02*
X13810539Y-13948388D01*
X13810539Y-13948388D02*
X13801015Y-13910293D01*
X13801015Y-13910293D02*
X13801015Y-13862674D01*
X13801015Y-13862674D02*
X13810539Y-13824579D01*
X13810539Y-13824579D02*
X13820063Y-13805531D01*
X13820063Y-13805531D02*
X13829586Y-13796008D01*
X13829586Y-13796008D02*
X13848634Y-13786484D01*
X14001015Y-13967436D02*
X14010539Y-13976960D01*
X14010539Y-13976960D02*
X14001015Y-13986484D01*
X14001015Y-13986484D02*
X13991491Y-13976960D01*
X13991491Y-13976960D02*
X14001015Y-13967436D01*
X14001015Y-13967436D02*
X14001015Y-13986484D01*
X14201015Y-13986484D02*
X14086729Y-13986484D01*
X14143872Y-13986484D02*
X14143872Y-13786484D01*
X14143872Y-13786484D02*
X14124825Y-13815055D01*
X14124825Y-13815055D02*
X14105777Y-13834103D01*
X14105777Y-13834103D02*
X14086729Y-13843627D01*
X14324825Y-13786484D02*
X14343872Y-13786484D01*
X14343872Y-13786484D02*
X14362920Y-13796008D01*
X14362920Y-13796008D02*
X14372444Y-13805531D01*
X14372444Y-13805531D02*
X14381967Y-13824579D01*
X14381967Y-13824579D02*
X14391491Y-13862674D01*
X14391491Y-13862674D02*
X14391491Y-13910293D01*
X14391491Y-13910293D02*
X14381967Y-13948388D01*
X14381967Y-13948388D02*
X14372444Y-13967436D01*
X14372444Y-13967436D02*
X14362920Y-13976960D01*
X14362920Y-13976960D02*
X14343872Y-13986484D01*
X14343872Y-13986484D02*
X14324825Y-13986484D01*
X14324825Y-13986484D02*
X14305777Y-13976960D01*
X14305777Y-13976960D02*
X14296253Y-13967436D01*
X14296253Y-13967436D02*
X14286729Y-13948388D01*
X14286729Y-13948388D02*
X14277206Y-13910293D01*
X14277206Y-13910293D02*
X14277206Y-13862674D01*
X14277206Y-13862674D02*
X14286729Y-13824579D01*
X14286729Y-13824579D02*
X14296253Y-13805531D01*
X14296253Y-13805531D02*
X14305777Y-13796008D01*
X14305777Y-13796008D02*
X14324825Y-13786484D01*
X14562920Y-13786484D02*
X14524825Y-13786484D01*
X14524825Y-13786484D02*
X14505777Y-13796008D01*
X14505777Y-13796008D02*
X14496253Y-13805531D01*
X14496253Y-13805531D02*
X14477206Y-13834103D01*
X14477206Y-13834103D02*
X14467682Y-13872198D01*
X14467682Y-13872198D02*
X14467682Y-13948388D01*
X14467682Y-13948388D02*
X14477206Y-13967436D01*
X14477206Y-13967436D02*
X14486729Y-13976960D01*
X14486729Y-13976960D02*
X14505777Y-13986484D01*
X14505777Y-13986484D02*
X14543872Y-13986484D01*
X14543872Y-13986484D02*
X14562920Y-13976960D01*
X14562920Y-13976960D02*
X14572444Y-13967436D01*
X14572444Y-13967436D02*
X14581967Y-13948388D01*
X14581967Y-13948388D02*
X14581967Y-13900769D01*
X14581967Y-13900769D02*
X14572444Y-13881722D01*
X14572444Y-13881722D02*
X14562920Y-13872198D01*
X14562920Y-13872198D02*
X14543872Y-13862674D01*
X14543872Y-13862674D02*
X14505777Y-13862674D01*
X14505777Y-13862674D02*
X14486729Y-13872198D01*
X14486729Y-13872198D02*
X14477206Y-13881722D01*
X14477206Y-13881722D02*
X14467682Y-13900769D01*
X14648634Y-13786484D02*
X14772444Y-13786484D01*
X14772444Y-13786484D02*
X14705777Y-13862674D01*
X14705777Y-13862674D02*
X14734348Y-13862674D01*
X14734348Y-13862674D02*
X14753396Y-13872198D01*
X14753396Y-13872198D02*
X14762920Y-13881722D01*
X14762920Y-13881722D02*
X14772444Y-13900769D01*
X14772444Y-13900769D02*
X14772444Y-13948388D01*
X14772444Y-13948388D02*
X14762920Y-13967436D01*
X14762920Y-13967436D02*
X14753396Y-13976960D01*
X14753396Y-13976960D02*
X14734348Y-13986484D01*
X14734348Y-13986484D02*
X14677206Y-13986484D01*
X14677206Y-13986484D02*
X14658158Y-13976960D01*
X14658158Y-13976960D02*
X14648634Y-13967436D01*
X14848634Y-13786484D02*
X14848634Y-13824579D01*
X14924825Y-13786484D02*
X14924825Y-13824579D01*
X15220063Y-14062674D02*
X15210539Y-14053150D01*
X15210539Y-14053150D02*
X15191491Y-14024579D01*
X15191491Y-14024579D02*
X15181968Y-14005531D01*
X15181968Y-14005531D02*
X15172444Y-13976960D01*
X15172444Y-13976960D02*
X15162920Y-13929341D01*
X15162920Y-13929341D02*
X15162920Y-13891246D01*
X15162920Y-13891246D02*
X15172444Y-13843627D01*
X15172444Y-13843627D02*
X15181968Y-13815055D01*
X15181968Y-13815055D02*
X15191491Y-13796008D01*
X15191491Y-13796008D02*
X15210539Y-13767436D01*
X15210539Y-13767436D02*
X15220063Y-13757912D01*
X15381968Y-13853150D02*
X15381968Y-13986484D01*
X15334348Y-13776960D02*
X15286729Y-13919817D01*
X15286729Y-13919817D02*
X15410539Y-13919817D01*
X15639110Y-13986484D02*
X15639110Y-13786484D01*
X15724825Y-13986484D02*
X15724825Y-13881722D01*
X15724825Y-13881722D02*
X15715301Y-13862674D01*
X15715301Y-13862674D02*
X15696253Y-13853150D01*
X15696253Y-13853150D02*
X15667682Y-13853150D01*
X15667682Y-13853150D02*
X15648634Y-13862674D01*
X15648634Y-13862674D02*
X15639110Y-13872198D01*
X15848634Y-13986484D02*
X15829587Y-13976960D01*
X15829587Y-13976960D02*
X15820063Y-13967436D01*
X15820063Y-13967436D02*
X15810539Y-13948388D01*
X15810539Y-13948388D02*
X15810539Y-13891246D01*
X15810539Y-13891246D02*
X15820063Y-13872198D01*
X15820063Y-13872198D02*
X15829587Y-13862674D01*
X15829587Y-13862674D02*
X15848634Y-13853150D01*
X15848634Y-13853150D02*
X15877206Y-13853150D01*
X15877206Y-13853150D02*
X15896253Y-13862674D01*
X15896253Y-13862674D02*
X15905777Y-13872198D01*
X15905777Y-13872198D02*
X15915301Y-13891246D01*
X15915301Y-13891246D02*
X15915301Y-13948388D01*
X15915301Y-13948388D02*
X15905777Y-13967436D01*
X15905777Y-13967436D02*
X15896253Y-13976960D01*
X15896253Y-13976960D02*
X15877206Y-13986484D01*
X15877206Y-13986484D02*
X15848634Y-13986484D01*
X16029587Y-13986484D02*
X16010539Y-13976960D01*
X16010539Y-13976960D02*
X16001015Y-13957912D01*
X16001015Y-13957912D02*
X16001015Y-13786484D01*
X16181968Y-13976960D02*
X16162920Y-13986484D01*
X16162920Y-13986484D02*
X16124825Y-13986484D01*
X16124825Y-13986484D02*
X16105777Y-13976960D01*
X16105777Y-13976960D02*
X16096253Y-13957912D01*
X16096253Y-13957912D02*
X16096253Y-13881722D01*
X16096253Y-13881722D02*
X16105777Y-13862674D01*
X16105777Y-13862674D02*
X16124825Y-13853150D01*
X16124825Y-13853150D02*
X16162920Y-13853150D01*
X16162920Y-13853150D02*
X16181968Y-13862674D01*
X16181968Y-13862674D02*
X16191491Y-13881722D01*
X16191491Y-13881722D02*
X16191491Y-13900769D01*
X16191491Y-13900769D02*
X16096253Y-13919817D01*
X16267682Y-13976960D02*
X16286730Y-13986484D01*
X16286730Y-13986484D02*
X16324825Y-13986484D01*
X16324825Y-13986484D02*
X16343872Y-13976960D01*
X16343872Y-13976960D02*
X16353396Y-13957912D01*
X16353396Y-13957912D02*
X16353396Y-13948388D01*
X16353396Y-13948388D02*
X16343872Y-13929341D01*
X16343872Y-13929341D02*
X16324825Y-13919817D01*
X16324825Y-13919817D02*
X16296253Y-13919817D01*
X16296253Y-13919817D02*
X16277206Y-13910293D01*
X16277206Y-13910293D02*
X16267682Y-13891246D01*
X16267682Y-13891246D02*
X16267682Y-13881722D01*
X16267682Y-13881722D02*
X16277206Y-13862674D01*
X16277206Y-13862674D02*
X16296253Y-13853150D01*
X16296253Y-13853150D02*
X16324825Y-13853150D01*
X16324825Y-13853150D02*
X16343872Y-13862674D01*
X16420063Y-14062674D02*
X16429587Y-14053150D01*
X16429587Y-14053150D02*
X16448634Y-14024579D01*
X16448634Y-14024579D02*
X16458158Y-14005531D01*
X16458158Y-14005531D02*
X16467682Y-13976960D01*
X16467682Y-13976960D02*
X16477206Y-13929341D01*
X16477206Y-13929341D02*
X16477206Y-13891246D01*
X16477206Y-13891246D02*
X16467682Y-13843627D01*
X16467682Y-13843627D02*
X16458158Y-13815055D01*
X16458158Y-13815055D02*
X16448634Y-13796008D01*
X16448634Y-13796008D02*
X16429587Y-13767436D01*
X16429587Y-13767436D02*
X16420063Y-13757912D01*
X16781968Y-14062674D02*
X16772444Y-14053150D01*
X16772444Y-14053150D02*
X16753396Y-14024579D01*
X16753396Y-14024579D02*
X16743872Y-14005531D01*
X16743872Y-14005531D02*
X16734349Y-13976960D01*
X16734349Y-13976960D02*
X16724825Y-13929341D01*
X16724825Y-13929341D02*
X16724825Y-13891246D01*
X16724825Y-13891246D02*
X16734349Y-13843627D01*
X16734349Y-13843627D02*
X16743872Y-13815055D01*
X16743872Y-13815055D02*
X16753396Y-13796008D01*
X16753396Y-13796008D02*
X16772444Y-13767436D01*
X16772444Y-13767436D02*
X16781968Y-13757912D01*
X16858158Y-13853150D02*
X16858158Y-13986484D01*
X16858158Y-13872198D02*
X16867682Y-13862674D01*
X16867682Y-13862674D02*
X16886730Y-13853150D01*
X16886730Y-13853150D02*
X16915301Y-13853150D01*
X16915301Y-13853150D02*
X16934349Y-13862674D01*
X16934349Y-13862674D02*
X16943873Y-13881722D01*
X16943873Y-13881722D02*
X16943873Y-13986484D01*
X17067682Y-13986484D02*
X17048634Y-13976960D01*
X17048634Y-13976960D02*
X17039111Y-13967436D01*
X17039111Y-13967436D02*
X17029587Y-13948388D01*
X17029587Y-13948388D02*
X17029587Y-13891246D01*
X17029587Y-13891246D02*
X17039111Y-13872198D01*
X17039111Y-13872198D02*
X17048634Y-13862674D01*
X17048634Y-13862674D02*
X17067682Y-13853150D01*
X17067682Y-13853150D02*
X17096254Y-13853150D01*
X17096254Y-13853150D02*
X17115301Y-13862674D01*
X17115301Y-13862674D02*
X17124825Y-13872198D01*
X17124825Y-13872198D02*
X17134349Y-13891246D01*
X17134349Y-13891246D02*
X17134349Y-13948388D01*
X17134349Y-13948388D02*
X17124825Y-13967436D01*
X17124825Y-13967436D02*
X17115301Y-13976960D01*
X17115301Y-13976960D02*
X17096254Y-13986484D01*
X17096254Y-13986484D02*
X17067682Y-13986484D01*
X17191492Y-13853150D02*
X17267682Y-13853150D01*
X17220063Y-13786484D02*
X17220063Y-13957912D01*
X17220063Y-13957912D02*
X17229587Y-13976960D01*
X17229587Y-13976960D02*
X17248634Y-13986484D01*
X17248634Y-13986484D02*
X17267682Y-13986484D01*
X17486730Y-13853150D02*
X17486730Y-14053150D01*
X17486730Y-13862674D02*
X17505777Y-13853150D01*
X17505777Y-13853150D02*
X17543873Y-13853150D01*
X17543873Y-13853150D02*
X17562920Y-13862674D01*
X17562920Y-13862674D02*
X17572444Y-13872198D01*
X17572444Y-13872198D02*
X17581968Y-13891246D01*
X17581968Y-13891246D02*
X17581968Y-13948388D01*
X17581968Y-13948388D02*
X17572444Y-13967436D01*
X17572444Y-13967436D02*
X17562920Y-13976960D01*
X17562920Y-13976960D02*
X17543873Y-13986484D01*
X17543873Y-13986484D02*
X17505777Y-13986484D01*
X17505777Y-13986484D02*
X17486730Y-13976960D01*
X17696254Y-13986484D02*
X17677206Y-13976960D01*
X17677206Y-13976960D02*
X17667682Y-13957912D01*
X17667682Y-13957912D02*
X17667682Y-13786484D01*
X17858158Y-13986484D02*
X17858158Y-13881722D01*
X17858158Y-13881722D02*
X17848635Y-13862674D01*
X17848635Y-13862674D02*
X17829587Y-13853150D01*
X17829587Y-13853150D02*
X17791492Y-13853150D01*
X17791492Y-13853150D02*
X17772444Y-13862674D01*
X17858158Y-13976960D02*
X17839111Y-13986484D01*
X17839111Y-13986484D02*
X17791492Y-13986484D01*
X17791492Y-13986484D02*
X17772444Y-13976960D01*
X17772444Y-13976960D02*
X17762920Y-13957912D01*
X17762920Y-13957912D02*
X17762920Y-13938865D01*
X17762920Y-13938865D02*
X17772444Y-13919817D01*
X17772444Y-13919817D02*
X17791492Y-13910293D01*
X17791492Y-13910293D02*
X17839111Y-13910293D01*
X17839111Y-13910293D02*
X17858158Y-13900769D01*
X17924825Y-13853150D02*
X18001015Y-13853150D01*
X17953396Y-13786484D02*
X17953396Y-13957912D01*
X17953396Y-13957912D02*
X17962920Y-13976960D01*
X17962920Y-13976960D02*
X17981968Y-13986484D01*
X17981968Y-13986484D02*
X18001015Y-13986484D01*
X18143873Y-13976960D02*
X18124825Y-13986484D01*
X18124825Y-13986484D02*
X18086730Y-13986484D01*
X18086730Y-13986484D02*
X18067682Y-13976960D01*
X18067682Y-13976960D02*
X18058158Y-13957912D01*
X18058158Y-13957912D02*
X18058158Y-13881722D01*
X18058158Y-13881722D02*
X18067682Y-13862674D01*
X18067682Y-13862674D02*
X18086730Y-13853150D01*
X18086730Y-13853150D02*
X18124825Y-13853150D01*
X18124825Y-13853150D02*
X18143873Y-13862674D01*
X18143873Y-13862674D02*
X18153396Y-13881722D01*
X18153396Y-13881722D02*
X18153396Y-13900769D01*
X18153396Y-13900769D02*
X18058158Y-13919817D01*
X18324825Y-13986484D02*
X18324825Y-13786484D01*
X18324825Y-13976960D02*
X18305777Y-13986484D01*
X18305777Y-13986484D02*
X18267682Y-13986484D01*
X18267682Y-13986484D02*
X18248635Y-13976960D01*
X18248635Y-13976960D02*
X18239111Y-13967436D01*
X18239111Y-13967436D02*
X18229587Y-13948388D01*
X18229587Y-13948388D02*
X18229587Y-13891246D01*
X18229587Y-13891246D02*
X18239111Y-13872198D01*
X18239111Y-13872198D02*
X18248635Y-13862674D01*
X18248635Y-13862674D02*
X18267682Y-13853150D01*
X18267682Y-13853150D02*
X18305777Y-13853150D01*
X18305777Y-13853150D02*
X18324825Y-13862674D01*
X18401016Y-14062674D02*
X18410539Y-14053150D01*
X18410539Y-14053150D02*
X18429587Y-14024579D01*
X18429587Y-14024579D02*
X18439111Y-14005531D01*
X18439111Y-14005531D02*
X18448635Y-13976960D01*
X18448635Y-13976960D02*
X18458158Y-13929341D01*
X18458158Y-13929341D02*
X18458158Y-13891246D01*
X18458158Y-13891246D02*
X18448635Y-13843627D01*
X18448635Y-13843627D02*
X18439111Y-13815055D01*
X18439111Y-13815055D02*
X18429587Y-13796008D01*
X18429587Y-13796008D02*
X18410539Y-13767436D01*
X18410539Y-13767436D02*
X18401016Y-13757912D01*
M02*
