%TF.GenerationSoftware,KiCad,Pcbnew,10.0.1*%
%TF.CreationDate,2026-04-21T18:09:16-07:00*%
%TF.ProjectId,paypi,70617970-692e-46b6-9963-61645f706362,rev?*%
%TF.SameCoordinates,Original*%
%TF.FileFunction,Copper,L2,Inr*%
%TF.FilePolarity,Positive*%
%FSLAX46Y46*%
G04 Gerber Fmt 4.6, Leading zero omitted, Abs format (unit mm)*
G04 Created by KiCad (PCBNEW 10.0.1) date 2026-04-21 18:09:16*
%MOMM*%
%LPD*%
G01*
G04 APERTURE LIST*
G04 Aperture macros list*
%AMRoundRect*
0 Rectangle with rounded corners*
0 $1 Rounding radius*
0 $2 $3 $4 $5 $6 $7 $8 $9 X,Y pos of 4 corners*
0 Add a 4 corners polygon primitive as box body*
4,1,4,$2,$3,$4,$5,$6,$7,$8,$9,$2,$3,0*
0 Add four circle primitives for the rounded corners*
1,1,$1+$1,$2,$3*
1,1,$1+$1,$4,$5*
1,1,$1+$1,$6,$7*
1,1,$1+$1,$8,$9*
0 Add four rect primitives between the rounded corners*
20,1,$1+$1,$2,$3,$4,$5,0*
20,1,$1+$1,$4,$5,$6,$7,0*
20,1,$1+$1,$6,$7,$8,$9,0*
20,1,$1+$1,$8,$9,$2,$3,0*%
G04 Aperture macros list end*
%TA.AperFunction,ComponentPad*%
%ADD10RoundRect,0.250000X1.050000X-1.050000X1.050000X1.050000X-1.050000X1.050000X-1.050000X-1.050000X0*%
%TD*%
%TA.AperFunction,ComponentPad*%
%ADD11C,2.600000*%
%TD*%
%TA.AperFunction,ComponentPad*%
%ADD12R,1.700000X1.700000*%
%TD*%
%TA.AperFunction,ComponentPad*%
%ADD13C,1.700000*%
%TD*%
%TA.AperFunction,ViaPad*%
%ADD14C,0.800000*%
%TD*%
G04 APERTURE END LIST*
D10*
%TO.N,GPIO*%
%TO.C,J2*%
X140417500Y-99045000D03*
D11*
%TO.N,GND*%
X140417500Y-93965000D03*
%TD*%
D12*
%TO.N,GND*%
%TO.C,J3*%
X144250000Y-124040000D03*
D13*
%TO.N,+5V*%
X144250000Y-121500000D03*
%TO.N,/SDA*%
X144250000Y-118960000D03*
%TO.N,/SCL*%
X144250000Y-116420000D03*
%TD*%
D10*
%TO.N,BTN*%
%TO.C,SW2*%
X140417500Y-82545000D03*
D11*
%TO.N,GND*%
X140417500Y-77465000D03*
%TD*%
D12*
%TO.N,+3V3*%
%TO.C,J1*%
X121270000Y-124130000D03*
D13*
%TO.N,+5V*%
X118730000Y-124130000D03*
%TO.N,PI_SDA*%
X121270000Y-121590000D03*
%TO.N,+5V*%
X118730000Y-121590000D03*
%TO.N,PI_SCL*%
X121270000Y-119050000D03*
%TO.N,GND*%
X118730000Y-119050000D03*
%TO.N,unconnected-(J1-Pin_7-Pad7)*%
X121270000Y-116510000D03*
%TO.N,/TX*%
X118730000Y-116510000D03*
%TO.N,GND*%
X121270000Y-113970000D03*
%TO.N,/RX*%
X118730000Y-113970000D03*
%TO.N,unconnected-(J1-Pin_11-Pad11)*%
X121270000Y-111430000D03*
%TO.N,unconnected-(J1-Pin_12-Pad12)*%
X118730000Y-111430000D03*
%TO.N,unconnected-(J1-Pin_13-Pad13)*%
X121270000Y-108890000D03*
%TO.N,GND*%
X118730000Y-108890000D03*
%TO.N,unconnected-(J1-Pin_15-Pad15)*%
X121270000Y-106350000D03*
%TO.N,unconnected-(J1-Pin_16-Pad16)*%
X118730000Y-106350000D03*
%TO.N,+3V3*%
X121270000Y-103810000D03*
%TO.N,unconnected-(J1-Pin_18-Pad18)*%
X118730000Y-103810000D03*
%TO.N,STATUS*%
X121270000Y-101270000D03*
%TO.N,GND*%
X118730000Y-101270000D03*
%TO.N,/CIPO*%
X121270000Y-98730000D03*
%TO.N,unconnected-(J1-Pin_22-Pad22)*%
X118730000Y-98730000D03*
%TO.N,/SCLK*%
X121270000Y-96190000D03*
%TO.N,/CS0*%
X118730000Y-96190000D03*
%TO.N,GND*%
X121270000Y-93650000D03*
%TO.N,/CS1*%
X118730000Y-93650000D03*
%TO.N,unconnected-(J1-Pin_27-Pad27)*%
X121270000Y-91110000D03*
%TO.N,unconnected-(J1-Pin_28-Pad28)*%
X118730000Y-91110000D03*
%TO.N,GPIO*%
X121270000Y-88570000D03*
%TO.N,GND*%
X118730000Y-88570000D03*
%TO.N,unconnected-(J1-Pin_31-Pad31)*%
X121270000Y-86030000D03*
%TO.N,unconnected-(J1-Pin_32-Pad32)*%
X118730000Y-86030000D03*
%TO.N,unconnected-(J1-Pin_33-Pad33)*%
X121270000Y-83490000D03*
%TO.N,GND*%
X118730000Y-83490000D03*
%TO.N,unconnected-(J1-Pin_35-Pad35)*%
X121270000Y-80950000D03*
%TO.N,unconnected-(J1-Pin_36-Pad36)*%
X118730000Y-80950000D03*
%TO.N,BTN*%
X121270000Y-78410000D03*
%TO.N,unconnected-(J1-Pin_38-Pad38)*%
X118730000Y-78410000D03*
%TO.N,GND*%
X121270000Y-75870000D03*
%TO.N,PWR*%
X118730000Y-75870000D03*
%TD*%
D14*
%TO.N,+3V3*%
X137250000Y-71000000D03*
X134750000Y-118500000D03*
X134750000Y-115000000D03*
%TO.N,GND*%
X136000000Y-74500000D03*
X137250000Y-105000000D03*
X140250000Y-109250000D03*
%TO.N,+5V*%
X141750000Y-113000000D03*
X143750000Y-111500000D03*
X141750000Y-122750000D03*
X140500000Y-106250000D03*
%TD*%
%TA.AperFunction,Conductor*%
%TO.N,+3V3*%
G36*
X120804075Y-104002993D02*
G01*
X120869901Y-104117007D01*
X120962993Y-104210099D01*
X121077007Y-104275925D01*
X121140590Y-104292962D01*
X120508282Y-104925269D01*
X120508282Y-104925270D01*
X120562449Y-104964624D01*
X120562682Y-104964743D01*
X120562755Y-104964812D01*
X120566604Y-104967171D01*
X120566108Y-104967979D01*
X120613479Y-105012716D01*
X120630275Y-105080537D01*
X120607739Y-105146672D01*
X120562693Y-105185709D01*
X120557994Y-105188103D01*
X120384993Y-105313796D01*
X120233796Y-105464993D01*
X120108105Y-105637991D01*
X120105727Y-105641873D01*
X120053914Y-105688748D01*
X119984984Y-105700169D01*
X119920822Y-105672512D01*
X119894273Y-105641873D01*
X119891894Y-105637991D01*
X119849135Y-105579138D01*
X119766206Y-105464996D01*
X119615004Y-105313794D01*
X119442009Y-105188106D01*
X119442005Y-105188103D01*
X119438132Y-105185730D01*
X119391254Y-105133920D01*
X119379829Y-105064991D01*
X119407483Y-105000827D01*
X119438132Y-104974270D01*
X119442005Y-104971896D01*
X119442004Y-104971896D01*
X119442009Y-104971894D01*
X119615004Y-104846206D01*
X119766206Y-104695004D01*
X119891894Y-104522009D01*
X119894283Y-104517319D01*
X119942254Y-104466522D01*
X120010074Y-104449724D01*
X120076210Y-104472258D01*
X120112196Y-104513783D01*
X120112829Y-104513396D01*
X120115167Y-104517211D01*
X120115251Y-104517308D01*
X120115371Y-104517545D01*
X120115373Y-104517547D01*
X120154728Y-104571716D01*
X120787037Y-103939408D01*
X120804075Y-104002993D01*
G37*
%TD.AperFunction*%
%TA.AperFunction,Conductor*%
G36*
X120079173Y-101947483D02*
G01*
X120105730Y-101978132D01*
X120108103Y-101982005D01*
X120108106Y-101982009D01*
X120233794Y-102155004D01*
X120384996Y-102306206D01*
X120557991Y-102431894D01*
X120562680Y-102434283D01*
X120613478Y-102482254D01*
X120630276Y-102550074D01*
X120607742Y-102616210D01*
X120566205Y-102652209D01*
X120566590Y-102652838D01*
X120562804Y-102655157D01*
X120562702Y-102655246D01*
X120562449Y-102655374D01*
X120562440Y-102655380D01*
X120508282Y-102694727D01*
X120508282Y-102694728D01*
X121140591Y-103327037D01*
X121077007Y-103344075D01*
X120962993Y-103409901D01*
X120869901Y-103502993D01*
X120804075Y-103617007D01*
X120787037Y-103680591D01*
X120154728Y-103048282D01*
X120154727Y-103048282D01*
X120115380Y-103102440D01*
X120115374Y-103102449D01*
X120115246Y-103102702D01*
X120115172Y-103102780D01*
X120112838Y-103106590D01*
X120112036Y-103106099D01*
X120067264Y-103153490D01*
X119999441Y-103170275D01*
X119933309Y-103147728D01*
X119894283Y-103102680D01*
X119891894Y-103097991D01*
X119766206Y-102924996D01*
X119615004Y-102773794D01*
X119452011Y-102655373D01*
X119442005Y-102648103D01*
X119438132Y-102645730D01*
X119391254Y-102593920D01*
X119379829Y-102524991D01*
X119407483Y-102460827D01*
X119438132Y-102434270D01*
X119442005Y-102431896D01*
X119442004Y-102431896D01*
X119442009Y-102431894D01*
X119615004Y-102306206D01*
X119766206Y-102155004D01*
X119891894Y-101982009D01*
X119891896Y-101982004D01*
X119894270Y-101978132D01*
X119946080Y-101931254D01*
X120015009Y-101919829D01*
X120079173Y-101947483D01*
G37*
%TD.AperFunction*%
%TA.AperFunction,Conductor*%
G36*
X143003033Y-67550649D02*
G01*
X143332028Y-67566811D01*
X143344136Y-67568004D01*
X143445588Y-67583053D01*
X143666944Y-67615888D01*
X143678866Y-67618259D01*
X143995434Y-67697555D01*
X144007057Y-67701080D01*
X144314342Y-67811028D01*
X144325563Y-67815676D01*
X144620593Y-67955215D01*
X144631301Y-67960939D01*
X144911210Y-68128710D01*
X144921328Y-68135470D01*
X145183451Y-68329874D01*
X145192857Y-68337594D01*
X145434658Y-68556750D01*
X145443249Y-68565341D01*
X145486222Y-68612754D01*
X145662405Y-68807142D01*
X145670125Y-68816548D01*
X145864529Y-69078671D01*
X145871289Y-69088789D01*
X146039053Y-69368686D01*
X146044788Y-69379414D01*
X146109747Y-69516759D01*
X146184318Y-69674425D01*
X146188975Y-69685668D01*
X146298915Y-69992931D01*
X146302447Y-70004576D01*
X146381738Y-70321125D01*
X146384112Y-70333060D01*
X146431995Y-70655863D01*
X146433188Y-70667972D01*
X146449351Y-70996965D01*
X146449500Y-71003050D01*
X146449500Y-128996949D01*
X146449351Y-129003033D01*
X146433190Y-129332030D01*
X146431997Y-129344140D01*
X146384115Y-129666940D01*
X146381741Y-129678875D01*
X146302452Y-129995426D01*
X146298919Y-130007071D01*
X146188977Y-130314338D01*
X146184321Y-130325580D01*
X146044798Y-130620580D01*
X146039061Y-130631313D01*
X145871295Y-130911215D01*
X145864535Y-130921333D01*
X145670131Y-131183456D01*
X145662411Y-131192862D01*
X145443262Y-131434657D01*
X145434657Y-131443262D01*
X145192863Y-131662411D01*
X145183457Y-131670131D01*
X144921336Y-131864533D01*
X144911217Y-131871294D01*
X144631313Y-132039060D01*
X144620582Y-132044796D01*
X144325577Y-132184323D01*
X144314334Y-132188980D01*
X144007071Y-132298919D01*
X143995426Y-132302451D01*
X143678875Y-132381741D01*
X143666940Y-132384115D01*
X143344140Y-132431996D01*
X143332030Y-132433189D01*
X143003033Y-132449350D01*
X142996949Y-132449499D01*
X120003050Y-132449499D01*
X119996966Y-132449350D01*
X119667972Y-132433188D01*
X119655861Y-132431995D01*
X119333059Y-132384112D01*
X119321125Y-132381738D01*
X119004576Y-132302447D01*
X118992931Y-132298915D01*
X118685668Y-132188975D01*
X118674425Y-132184318D01*
X118379414Y-132044788D01*
X118368691Y-132039055D01*
X118088789Y-131871289D01*
X118078671Y-131864529D01*
X117816548Y-131670125D01*
X117807142Y-131662405D01*
X117565355Y-131443262D01*
X117565341Y-131443249D01*
X117556749Y-131434657D01*
X117337594Y-131192857D01*
X117329874Y-131183451D01*
X117135470Y-130921328D01*
X117128710Y-130911210D01*
X117078550Y-130827523D01*
X116960939Y-130631301D01*
X116955215Y-130620593D01*
X116815676Y-130325563D01*
X116811027Y-130314338D01*
X116701080Y-130007057D01*
X116697553Y-129995426D01*
X116618259Y-129678866D01*
X116615887Y-129666939D01*
X116568004Y-129344136D01*
X116566811Y-129332026D01*
X116550649Y-129003033D01*
X116550500Y-128996949D01*
X116550500Y-128874038D01*
X118399500Y-128874038D01*
X118399500Y-129125961D01*
X118438910Y-129374785D01*
X118516760Y-129614383D01*
X118631132Y-129838848D01*
X118779201Y-130042649D01*
X118779205Y-130042654D01*
X118957345Y-130220794D01*
X118957350Y-130220798D01*
X119086088Y-130314331D01*
X119161155Y-130368870D01*
X119304184Y-130441747D01*
X119385616Y-130483239D01*
X119385618Y-130483239D01*
X119385621Y-130483241D01*
X119625215Y-130561090D01*
X119874038Y-130600500D01*
X119874039Y-130600500D01*
X120125961Y-130600500D01*
X120125962Y-130600500D01*
X120374785Y-130561090D01*
X120614379Y-130483241D01*
X120838845Y-130368870D01*
X121042656Y-130220793D01*
X121220793Y-130042656D01*
X121368870Y-129838845D01*
X121483241Y-129614379D01*
X121561090Y-129374785D01*
X121600500Y-129125962D01*
X121600500Y-128874038D01*
X141399500Y-128874038D01*
X141399500Y-129125961D01*
X141438910Y-129374785D01*
X141516760Y-129614383D01*
X141631132Y-129838848D01*
X141779201Y-130042649D01*
X141779205Y-130042654D01*
X141957345Y-130220794D01*
X141957350Y-130220798D01*
X142086088Y-130314331D01*
X142161155Y-130368870D01*
X142304184Y-130441747D01*
X142385616Y-130483239D01*
X142385618Y-130483239D01*
X142385621Y-130483241D01*
X142625215Y-130561090D01*
X142874038Y-130600500D01*
X142874039Y-130600500D01*
X143125961Y-130600500D01*
X143125962Y-130600500D01*
X143374785Y-130561090D01*
X143614379Y-130483241D01*
X143838845Y-130368870D01*
X144042656Y-130220793D01*
X144220793Y-130042656D01*
X144368870Y-129838845D01*
X144483241Y-129614379D01*
X144561090Y-129374785D01*
X144600500Y-129125962D01*
X144600500Y-128874038D01*
X144561090Y-128625215D01*
X144483241Y-128385621D01*
X144483239Y-128385618D01*
X144483239Y-128385616D01*
X144441747Y-128304184D01*
X144368870Y-128161155D01*
X144349952Y-128135117D01*
X144220798Y-127957350D01*
X144220794Y-127957345D01*
X144042654Y-127779205D01*
X144042649Y-127779201D01*
X143838848Y-127631132D01*
X143838847Y-127631131D01*
X143838845Y-127631130D01*
X143768747Y-127595413D01*
X143614383Y-127516760D01*
X143374785Y-127438910D01*
X143125962Y-127399500D01*
X142874038Y-127399500D01*
X142749626Y-127419205D01*
X142625214Y-127438910D01*
X142385616Y-127516760D01*
X142161151Y-127631132D01*
X141957350Y-127779201D01*
X141957345Y-127779205D01*
X141779205Y-127957345D01*
X141779201Y-127957350D01*
X141631132Y-128161151D01*
X141516760Y-128385616D01*
X141438910Y-128625214D01*
X141399500Y-128874038D01*
X121600500Y-128874038D01*
X121561090Y-128625215D01*
X121483241Y-128385621D01*
X121483239Y-128385618D01*
X121483239Y-128385616D01*
X121441747Y-128304184D01*
X121368870Y-128161155D01*
X121349952Y-128135117D01*
X121220798Y-127957350D01*
X121220794Y-127957345D01*
X121042654Y-127779205D01*
X121042649Y-127779201D01*
X120838848Y-127631132D01*
X120838847Y-127631131D01*
X120838845Y-127631130D01*
X120768747Y-127595413D01*
X120614383Y-127516760D01*
X120374785Y-127438910D01*
X120125962Y-127399500D01*
X119874038Y-127399500D01*
X119749626Y-127419205D01*
X119625214Y-127438910D01*
X119385616Y-127516760D01*
X119161151Y-127631132D01*
X118957350Y-127779201D01*
X118957345Y-127779205D01*
X118779205Y-127957345D01*
X118779201Y-127957350D01*
X118631132Y-128161151D01*
X118516760Y-128385616D01*
X118438910Y-128625214D01*
X118399500Y-128874038D01*
X116550500Y-128874038D01*
X116550500Y-75763084D01*
X117371500Y-75763084D01*
X117371500Y-75976915D01*
X117404951Y-76188117D01*
X117471026Y-76391480D01*
X117471027Y-76391483D01*
X117542245Y-76531254D01*
X117568106Y-76582009D01*
X117693794Y-76755004D01*
X117844996Y-76906206D01*
X118017991Y-77031894D01*
X118021873Y-77034273D01*
X118068748Y-77086086D01*
X118080169Y-77155016D01*
X118052512Y-77219178D01*
X118021873Y-77245727D01*
X118017991Y-77248105D01*
X117844993Y-77373796D01*
X117693796Y-77524993D01*
X117568106Y-77697990D01*
X117471027Y-77888516D01*
X117471026Y-77888519D01*
X117404951Y-78091882D01*
X117371500Y-78303084D01*
X117371500Y-78516915D01*
X117404951Y-78728117D01*
X117471026Y-78931480D01*
X117471027Y-78931483D01*
X117566131Y-79118132D01*
X117568106Y-79122009D01*
X117693794Y-79295004D01*
X117844996Y-79446206D01*
X118017991Y-79571894D01*
X118021873Y-79574273D01*
X118068748Y-79626086D01*
X118080169Y-79695016D01*
X118052512Y-79759178D01*
X118021873Y-79785727D01*
X118017991Y-79788105D01*
X117844993Y-79913796D01*
X117693796Y-80064993D01*
X117568106Y-80237990D01*
X117471027Y-80428516D01*
X117471026Y-80428519D01*
X117404951Y-80631882D01*
X117371500Y-80843084D01*
X117371500Y-81056915D01*
X117404951Y-81268117D01*
X117471026Y-81471480D01*
X117471027Y-81471483D01*
X117542245Y-81611254D01*
X117568106Y-81662009D01*
X117693794Y-81835004D01*
X117844996Y-81986206D01*
X118017991Y-82111894D01*
X118021873Y-82114273D01*
X118068748Y-82166086D01*
X118080169Y-82235016D01*
X118052512Y-82299178D01*
X118021873Y-82325727D01*
X118017991Y-82328105D01*
X117844993Y-82453796D01*
X117693796Y-82604993D01*
X117568106Y-82777990D01*
X117471027Y-82968516D01*
X117471026Y-82968519D01*
X117404951Y-83171882D01*
X117371500Y-83383084D01*
X117371500Y-83596915D01*
X117404951Y-83808117D01*
X117471026Y-84011480D01*
X117471027Y-84011483D01*
X117542245Y-84151254D01*
X117568106Y-84202009D01*
X117693794Y-84375004D01*
X117844996Y-84526206D01*
X118017991Y-84651894D01*
X118021873Y-84654273D01*
X118068748Y-84706086D01*
X118080169Y-84775016D01*
X118052512Y-84839178D01*
X118021873Y-84865727D01*
X118017991Y-84868105D01*
X117844993Y-84993796D01*
X117693796Y-85144993D01*
X117568106Y-85317990D01*
X117471027Y-85508516D01*
X117471026Y-85508519D01*
X117404951Y-85711882D01*
X117371500Y-85923084D01*
X117371500Y-86136915D01*
X117404951Y-86348117D01*
X117471026Y-86551480D01*
X117471027Y-86551483D01*
X117542245Y-86691254D01*
X117568106Y-86742009D01*
X117693794Y-86915004D01*
X117844996Y-87066206D01*
X118017991Y-87191894D01*
X118021873Y-87194273D01*
X118068748Y-87246086D01*
X118080169Y-87315016D01*
X118052512Y-87379178D01*
X118021873Y-87405727D01*
X118017991Y-87408105D01*
X117844993Y-87533796D01*
X117693796Y-87684993D01*
X117568106Y-87857990D01*
X117471027Y-88048516D01*
X117471026Y-88048519D01*
X117404951Y-88251882D01*
X117371500Y-88463084D01*
X117371500Y-88676915D01*
X117404951Y-88888117D01*
X117471026Y-89091480D01*
X117471027Y-89091483D01*
X117542245Y-89231254D01*
X117568106Y-89282009D01*
X117693794Y-89455004D01*
X117844996Y-89606206D01*
X118017991Y-89731894D01*
X118021873Y-89734273D01*
X118068748Y-89786086D01*
X118080169Y-89855016D01*
X118052512Y-89919178D01*
X118021873Y-89945727D01*
X118017991Y-89948105D01*
X117844993Y-90073796D01*
X117693796Y-90224993D01*
X117568106Y-90397990D01*
X117471027Y-90588516D01*
X117471026Y-90588519D01*
X117404951Y-90791882D01*
X117371500Y-91003084D01*
X117371500Y-91216915D01*
X117404951Y-91428117D01*
X117471026Y-91631480D01*
X117471027Y-91631483D01*
X117542245Y-91771254D01*
X117568106Y-91822009D01*
X117693794Y-91995004D01*
X117844996Y-92146206D01*
X117986209Y-92248803D01*
X118017991Y-92271894D01*
X118021873Y-92274273D01*
X118068748Y-92326086D01*
X118080169Y-92395016D01*
X118052512Y-92459178D01*
X118021873Y-92485727D01*
X118017991Y-92488105D01*
X117844993Y-92613796D01*
X117693796Y-92764993D01*
X117568106Y-92937990D01*
X117471027Y-93128516D01*
X117471026Y-93128519D01*
X117404951Y-93331882D01*
X117371500Y-93543084D01*
X117371500Y-93756915D01*
X117404951Y-93968117D01*
X117471026Y-94171480D01*
X117471027Y-94171483D01*
X117545977Y-94318578D01*
X117568106Y-94362009D01*
X117693794Y-94535004D01*
X117844996Y-94686206D01*
X117955645Y-94766597D01*
X118017991Y-94811894D01*
X118021873Y-94814273D01*
X118068748Y-94866086D01*
X118080169Y-94935016D01*
X118052512Y-94999178D01*
X118021873Y-95025727D01*
X118017991Y-95028105D01*
X117844993Y-95153796D01*
X117693796Y-95304993D01*
X117568106Y-95477990D01*
X117471027Y-95668516D01*
X117471026Y-95668519D01*
X117404951Y-95871882D01*
X117371500Y-96083084D01*
X117371500Y-96296915D01*
X117404951Y-96508117D01*
X117471026Y-96711480D01*
X117471027Y-96711483D01*
X117542245Y-96851254D01*
X117568106Y-96902009D01*
X117693794Y-97075004D01*
X117844996Y-97226206D01*
X118017991Y-97351894D01*
X118021873Y-97354273D01*
X118068748Y-97406086D01*
X118080169Y-97475016D01*
X118052512Y-97539178D01*
X118021873Y-97565727D01*
X118017991Y-97568105D01*
X117844993Y-97693796D01*
X117693796Y-97844993D01*
X117568106Y-98017990D01*
X117471027Y-98208516D01*
X117471026Y-98208519D01*
X117404951Y-98411882D01*
X117371500Y-98623084D01*
X117371500Y-98836915D01*
X117404951Y-99048117D01*
X117471026Y-99251480D01*
X117471027Y-99251483D01*
X117542245Y-99391254D01*
X117568106Y-99442009D01*
X117693794Y-99615004D01*
X117844996Y-99766206D01*
X118017991Y-99891894D01*
X118021873Y-99894273D01*
X118068748Y-99946086D01*
X118080169Y-100015016D01*
X118052512Y-100079178D01*
X118021873Y-100105727D01*
X118017991Y-100108105D01*
X117844993Y-100233796D01*
X117693796Y-100384993D01*
X117568106Y-100557990D01*
X117471027Y-100748516D01*
X117471026Y-100748519D01*
X117404951Y-100951882D01*
X117371500Y-101163084D01*
X117371500Y-101376915D01*
X117404951Y-101588117D01*
X117471026Y-101791480D01*
X117471027Y-101791483D01*
X117542245Y-101931254D01*
X117568106Y-101982009D01*
X117693794Y-102155004D01*
X117844996Y-102306206D01*
X118017988Y-102431892D01*
X118017991Y-102431894D01*
X118021873Y-102434273D01*
X118068748Y-102486086D01*
X118080169Y-102555016D01*
X118052512Y-102619178D01*
X118021873Y-102645727D01*
X118017991Y-102648105D01*
X117844993Y-102773796D01*
X117693796Y-102924993D01*
X117568106Y-103097990D01*
X117471027Y-103288516D01*
X117471026Y-103288519D01*
X117404951Y-103491882D01*
X117371500Y-103703084D01*
X117371500Y-103916915D01*
X117404951Y-104128117D01*
X117471026Y-104331480D01*
X117471027Y-104331483D01*
X117563717Y-104513396D01*
X117568106Y-104522009D01*
X117693794Y-104695004D01*
X117844996Y-104846206D01*
X118011490Y-104967171D01*
X118017991Y-104971894D01*
X118021873Y-104974273D01*
X118068748Y-105026086D01*
X118080169Y-105095016D01*
X118052512Y-105159178D01*
X118021873Y-105185727D01*
X118017991Y-105188105D01*
X117844993Y-105313796D01*
X117693796Y-105464993D01*
X117568106Y-105637990D01*
X117471027Y-105828516D01*
X117471026Y-105828519D01*
X117404951Y-106031882D01*
X117371500Y-106243084D01*
X117371500Y-106456915D01*
X117404951Y-106668117D01*
X117471026Y-106871480D01*
X117471027Y-106871483D01*
X117542245Y-107011254D01*
X117568106Y-107062009D01*
X117693794Y-107235004D01*
X117844996Y-107386206D01*
X118017991Y-107511894D01*
X118021873Y-107514273D01*
X118068748Y-107566086D01*
X118080169Y-107635016D01*
X118052512Y-107699178D01*
X118021873Y-107725727D01*
X118017991Y-107728105D01*
X117844993Y-107853796D01*
X117693796Y-108004993D01*
X117568106Y-108177990D01*
X117471027Y-108368516D01*
X117471026Y-108368519D01*
X117404951Y-108571882D01*
X117371500Y-108783084D01*
X117371500Y-108996915D01*
X117404951Y-109208117D01*
X117471026Y-109411480D01*
X117471027Y-109411483D01*
X117542245Y-109551254D01*
X117568106Y-109602009D01*
X117693794Y-109775004D01*
X117844996Y-109926206D01*
X118017991Y-110051894D01*
X118021873Y-110054273D01*
X118068748Y-110106086D01*
X118080169Y-110175016D01*
X118052512Y-110239178D01*
X118021873Y-110265727D01*
X118017991Y-110268105D01*
X117844993Y-110393796D01*
X117693796Y-110544993D01*
X117568106Y-110717990D01*
X117471027Y-110908516D01*
X117471026Y-110908519D01*
X117404951Y-111111882D01*
X117371500Y-111323084D01*
X117371500Y-111536915D01*
X117404951Y-111748117D01*
X117471026Y-111951480D01*
X117471027Y-111951483D01*
X117542245Y-112091254D01*
X117568106Y-112142009D01*
X117693794Y-112315004D01*
X117844996Y-112466206D01*
X117987394Y-112569664D01*
X118017991Y-112591894D01*
X118021873Y-112594273D01*
X118068748Y-112646086D01*
X118080169Y-112715016D01*
X118052512Y-112779178D01*
X118021873Y-112805727D01*
X118017991Y-112808105D01*
X117844993Y-112933796D01*
X117693796Y-113084993D01*
X117568106Y-113257990D01*
X117471027Y-113448516D01*
X117471026Y-113448519D01*
X117404951Y-113651882D01*
X117371500Y-113863084D01*
X117371500Y-114076915D01*
X117404951Y-114288117D01*
X117471026Y-114491480D01*
X117471027Y-114491483D01*
X117542245Y-114631254D01*
X117568106Y-114682009D01*
X117693794Y-114855004D01*
X117844996Y-115006206D01*
X118017991Y-115131894D01*
X118021873Y-115134273D01*
X118068748Y-115186086D01*
X118080169Y-115255016D01*
X118052512Y-115319178D01*
X118021873Y-115345727D01*
X118017991Y-115348105D01*
X117844993Y-115473796D01*
X117693796Y-115624993D01*
X117568106Y-115797990D01*
X117471027Y-115988516D01*
X117471026Y-115988519D01*
X117404951Y-116191882D01*
X117371500Y-116403084D01*
X117371500Y-116616915D01*
X117404951Y-116828117D01*
X117471026Y-117031480D01*
X117471027Y-117031483D01*
X117542245Y-117171254D01*
X117568106Y-117222009D01*
X117693794Y-117395004D01*
X117844996Y-117546206D01*
X118017991Y-117671894D01*
X118021873Y-117674273D01*
X118068748Y-117726086D01*
X118080169Y-117795016D01*
X118052512Y-117859178D01*
X118021873Y-117885727D01*
X118017991Y-117888105D01*
X117844993Y-118013796D01*
X117693796Y-118164993D01*
X117568106Y-118337990D01*
X117471027Y-118528516D01*
X117471026Y-118528519D01*
X117404951Y-118731882D01*
X117371500Y-118943084D01*
X117371500Y-119156915D01*
X117404951Y-119368117D01*
X117471026Y-119571480D01*
X117471027Y-119571483D01*
X117542245Y-119711254D01*
X117568106Y-119762009D01*
X117693794Y-119935004D01*
X117844996Y-120086206D01*
X118017991Y-120211894D01*
X118021873Y-120214273D01*
X118068748Y-120266086D01*
X118080169Y-120335016D01*
X118052512Y-120399178D01*
X118021873Y-120425727D01*
X118017991Y-120428105D01*
X117844993Y-120553796D01*
X117693796Y-120704993D01*
X117568106Y-120877990D01*
X117471027Y-121068516D01*
X117471026Y-121068519D01*
X117404951Y-121271882D01*
X117371500Y-121483084D01*
X117371500Y-121696915D01*
X117404951Y-121908117D01*
X117471026Y-122111480D01*
X117471027Y-122111483D01*
X117542245Y-122251254D01*
X117568106Y-122302009D01*
X117693794Y-122475004D01*
X117844996Y-122626206D01*
X117938366Y-122694043D01*
X118017991Y-122751894D01*
X118021873Y-122754273D01*
X118068748Y-122806086D01*
X118080169Y-122875016D01*
X118052512Y-122939178D01*
X118021873Y-122965727D01*
X118017991Y-122968105D01*
X117844993Y-123093796D01*
X117693796Y-123244993D01*
X117568106Y-123417990D01*
X117471027Y-123608516D01*
X117471026Y-123608519D01*
X117404951Y-123811882D01*
X117371500Y-124023084D01*
X117371500Y-124236915D01*
X117404951Y-124448117D01*
X117471026Y-124651480D01*
X117471027Y-124651483D01*
X117568106Y-124842009D01*
X117693794Y-125015004D01*
X117844996Y-125166206D01*
X118017991Y-125291894D01*
X118106883Y-125337187D01*
X118208516Y-125388972D01*
X118208519Y-125388973D01*
X118310200Y-125422010D01*
X118411884Y-125455049D01*
X118623084Y-125488500D01*
X118623085Y-125488500D01*
X118836915Y-125488500D01*
X118836916Y-125488500D01*
X119048116Y-125455049D01*
X119251483Y-125388972D01*
X119442009Y-125291894D01*
X119615004Y-125166206D01*
X119726791Y-125054418D01*
X119788110Y-125020936D01*
X119857802Y-125025920D01*
X119913736Y-125067791D01*
X119930651Y-125098769D01*
X119976645Y-125222086D01*
X119976649Y-125222093D01*
X120062809Y-125337187D01*
X120062812Y-125337190D01*
X120177906Y-125423350D01*
X120177913Y-125423354D01*
X120312620Y-125473596D01*
X120312627Y-125473598D01*
X120372155Y-125479999D01*
X120372172Y-125480000D01*
X121020000Y-125480000D01*
X121020000Y-124563012D01*
X121077007Y-124595925D01*
X121204174Y-124630000D01*
X121335826Y-124630000D01*
X121462993Y-124595925D01*
X121520000Y-124563012D01*
X121520000Y-125480000D01*
X122167828Y-125480000D01*
X122167844Y-125479999D01*
X122227372Y-125473598D01*
X122227379Y-125473596D01*
X122362086Y-125423354D01*
X122362093Y-125423350D01*
X122477187Y-125337190D01*
X122477190Y-125337187D01*
X122563350Y-125222093D01*
X122563354Y-125222086D01*
X122613596Y-125087379D01*
X122613598Y-125087372D01*
X122619999Y-125027844D01*
X122620000Y-125027827D01*
X122620000Y-124380000D01*
X121703012Y-124380000D01*
X121735925Y-124322993D01*
X121770000Y-124195826D01*
X121770000Y-124064174D01*
X121735925Y-123937007D01*
X121703012Y-123880000D01*
X122620000Y-123880000D01*
X122620000Y-123232172D01*
X122619999Y-123232155D01*
X122613598Y-123172627D01*
X122613596Y-123172620D01*
X122563354Y-123037913D01*
X122563350Y-123037906D01*
X122477190Y-122922812D01*
X122477187Y-122922809D01*
X122362093Y-122836649D01*
X122362086Y-122836645D01*
X122238769Y-122790651D01*
X122238768Y-122790651D01*
X122196146Y-122758744D01*
X122182835Y-122748780D01*
X122158418Y-122683315D01*
X122163378Y-122660516D01*
X140841500Y-122660516D01*
X140841500Y-122839483D01*
X140876411Y-123014992D01*
X140876413Y-123015000D01*
X140944896Y-123180332D01*
X140944901Y-123180342D01*
X141044321Y-123329134D01*
X141044324Y-123329138D01*
X141170861Y-123455675D01*
X141170865Y-123455678D01*
X141319657Y-123555098D01*
X141319661Y-123555100D01*
X141319664Y-123555102D01*
X141485000Y-123623587D01*
X141660516Y-123658499D01*
X141660520Y-123658500D01*
X141660521Y-123658500D01*
X141839480Y-123658500D01*
X141839481Y-123658499D01*
X142015000Y-123623587D01*
X142180336Y-123555102D01*
X142329135Y-123455678D01*
X142455678Y-123329135D01*
X142555102Y-123180336D01*
X142623587Y-123015000D01*
X142658500Y-122839479D01*
X142658500Y-122660521D01*
X142623587Y-122485000D01*
X142555102Y-122319664D01*
X142555100Y-122319661D01*
X142555098Y-122319657D01*
X142455678Y-122170865D01*
X142455675Y-122170861D01*
X142329138Y-122044324D01*
X142329134Y-122044321D01*
X142180342Y-121944901D01*
X142180332Y-121944896D01*
X142015000Y-121876413D01*
X142014992Y-121876411D01*
X141839483Y-121841500D01*
X141839479Y-121841500D01*
X141660521Y-121841500D01*
X141660516Y-121841500D01*
X141485007Y-121876411D01*
X141484999Y-121876413D01*
X141319667Y-121944896D01*
X141319657Y-121944901D01*
X141170865Y-122044321D01*
X141170861Y-122044324D01*
X141044324Y-122170861D01*
X141044321Y-122170865D01*
X140944901Y-122319657D01*
X140944896Y-122319667D01*
X140876413Y-122484999D01*
X140876411Y-122485007D01*
X140841500Y-122660516D01*
X122163378Y-122660516D01*
X122173270Y-122615042D01*
X122194418Y-122586791D01*
X122306206Y-122475004D01*
X122431894Y-122302009D01*
X122528972Y-122111483D01*
X122595049Y-121908116D01*
X122628500Y-121696916D01*
X122628500Y-121483084D01*
X122595049Y-121271884D01*
X122528972Y-121068517D01*
X122528972Y-121068516D01*
X122431893Y-120877990D01*
X122366505Y-120787991D01*
X122306206Y-120704996D01*
X122155004Y-120553794D01*
X121982009Y-120428106D01*
X121982005Y-120428103D01*
X121978132Y-120425730D01*
X121931254Y-120373920D01*
X121919829Y-120304991D01*
X121947483Y-120240827D01*
X121978132Y-120214270D01*
X121982005Y-120211896D01*
X121982004Y-120211896D01*
X121982009Y-120211894D01*
X122155004Y-120086206D01*
X122306206Y-119935004D01*
X122431894Y-119762009D01*
X122528972Y-119571483D01*
X122595049Y-119368116D01*
X122628500Y-119156916D01*
X122628500Y-118943084D01*
X122595049Y-118731884D01*
X122528972Y-118528517D01*
X122528972Y-118528516D01*
X122431893Y-118337990D01*
X122366505Y-118247991D01*
X122306206Y-118164996D01*
X122155004Y-118013794D01*
X121982009Y-117888106D01*
X121982005Y-117888103D01*
X121978132Y-117885730D01*
X121931254Y-117833920D01*
X121919829Y-117764991D01*
X121947483Y-117700827D01*
X121978132Y-117674270D01*
X121982005Y-117671896D01*
X121982004Y-117671896D01*
X121982009Y-117671894D01*
X122155004Y-117546206D01*
X122306206Y-117395004D01*
X122431894Y-117222009D01*
X122528972Y-117031483D01*
X122595049Y-116828116D01*
X122628500Y-116616916D01*
X122628500Y-116403084D01*
X122614245Y-116313084D01*
X142891500Y-116313084D01*
X142891500Y-116526915D01*
X142924951Y-116738117D01*
X142991026Y-116941480D01*
X142991027Y-116941483D01*
X143036885Y-117031483D01*
X143088106Y-117132009D01*
X143213794Y-117305004D01*
X143364996Y-117456206D01*
X143488871Y-117546206D01*
X143537991Y-117581894D01*
X143541873Y-117584273D01*
X143588748Y-117636086D01*
X143600169Y-117705016D01*
X143572512Y-117769178D01*
X143541873Y-117795727D01*
X143537991Y-117798105D01*
X143364993Y-117923796D01*
X143213796Y-118074993D01*
X143088106Y-118247990D01*
X142991027Y-118438516D01*
X142991026Y-118438519D01*
X142924951Y-118641882D01*
X142891500Y-118853084D01*
X142891500Y-119066915D01*
X142924951Y-119278117D01*
X142991026Y-119481480D01*
X142991027Y-119481483D01*
X143036885Y-119571483D01*
X143088106Y-119672009D01*
X143213794Y-119845004D01*
X143364996Y-119996206D01*
X143488871Y-120086206D01*
X143537991Y-120121894D01*
X143541873Y-120124273D01*
X143588748Y-120176086D01*
X143600169Y-120245016D01*
X143572512Y-120309178D01*
X143541873Y-120335727D01*
X143537991Y-120338105D01*
X143364993Y-120463796D01*
X143213796Y-120614993D01*
X143088106Y-120787990D01*
X142991027Y-120978516D01*
X142991026Y-120978519D01*
X142924951Y-121181882D01*
X142891500Y-121393084D01*
X142891500Y-121606915D01*
X142924951Y-121818117D01*
X142991026Y-122021480D01*
X142991027Y-122021483D01*
X143036885Y-122111483D01*
X143088106Y-122212009D01*
X143213794Y-122385004D01*
X143213796Y-122385006D01*
X143318971Y-122490181D01*
X143352456Y-122551504D01*
X143347472Y-122621196D01*
X143305600Y-122677129D01*
X143274625Y-122694043D01*
X143153795Y-122739111D01*
X143036739Y-122826739D01*
X142949111Y-122943795D01*
X142898011Y-123080795D01*
X142898011Y-123080797D01*
X142891500Y-123141345D01*
X142891500Y-124938654D01*
X142898011Y-124999202D01*
X142898011Y-124999204D01*
X142930897Y-125087372D01*
X142949111Y-125136204D01*
X143036739Y-125253261D01*
X143153796Y-125340889D01*
X143290799Y-125391989D01*
X143318050Y-125394918D01*
X143351345Y-125398499D01*
X143351362Y-125398500D01*
X145148638Y-125398500D01*
X145148654Y-125398499D01*
X145175692Y-125395591D01*
X145209201Y-125391989D01*
X145346204Y-125340889D01*
X145463261Y-125253261D01*
X145550889Y-125136204D01*
X145601989Y-124999201D01*
X145605591Y-124965692D01*
X145608499Y-124938654D01*
X145608500Y-124938637D01*
X145608500Y-123141362D01*
X145608499Y-123141345D01*
X145603386Y-123093794D01*
X145601989Y-123080799D01*
X145550889Y-122943796D01*
X145463261Y-122826739D01*
X145346204Y-122739111D01*
X145346202Y-122739110D01*
X145346204Y-122739110D01*
X145225375Y-122694043D01*
X145169441Y-122652172D01*
X145145025Y-122586707D01*
X145159877Y-122518434D01*
X145181022Y-122490187D01*
X145286206Y-122385004D01*
X145411894Y-122212009D01*
X145508972Y-122021483D01*
X145575049Y-121818116D01*
X145608500Y-121606916D01*
X145608500Y-121393084D01*
X145575049Y-121181884D01*
X145508972Y-120978517D01*
X145508972Y-120978516D01*
X145411893Y-120787990D01*
X145286206Y-120614996D01*
X145135004Y-120463794D01*
X144962009Y-120338106D01*
X144962005Y-120338103D01*
X144958132Y-120335730D01*
X144911254Y-120283920D01*
X144899829Y-120214991D01*
X144927483Y-120150827D01*
X144958132Y-120124270D01*
X144962005Y-120121896D01*
X144962004Y-120121896D01*
X144962009Y-120121894D01*
X145135004Y-119996206D01*
X145286206Y-119845004D01*
X145411894Y-119672009D01*
X145508972Y-119481483D01*
X145575049Y-119278116D01*
X145608500Y-119066916D01*
X145608500Y-118853084D01*
X145575049Y-118641884D01*
X145508972Y-118438517D01*
X145508972Y-118438516D01*
X145411893Y-118247990D01*
X145286206Y-118074996D01*
X145135004Y-117923794D01*
X144962009Y-117798106D01*
X144962005Y-117798103D01*
X144958132Y-117795730D01*
X144911254Y-117743920D01*
X144899829Y-117674991D01*
X144927483Y-117610827D01*
X144958132Y-117584270D01*
X144962005Y-117581896D01*
X144962004Y-117581896D01*
X144962009Y-117581894D01*
X145135004Y-117456206D01*
X145286206Y-117305004D01*
X145411894Y-117132009D01*
X145508972Y-116941483D01*
X145575049Y-116738116D01*
X145608500Y-116526916D01*
X145608500Y-116313084D01*
X145575049Y-116101884D01*
X145508972Y-115898517D01*
X145508972Y-115898516D01*
X145411893Y-115707990D01*
X145286206Y-115534996D01*
X145135004Y-115383794D01*
X144962009Y-115258106D01*
X144926474Y-115240000D01*
X144771483Y-115161027D01*
X144771480Y-115161026D01*
X144568117Y-115094951D01*
X144462516Y-115078225D01*
X144356916Y-115061500D01*
X144143084Y-115061500D01*
X144072684Y-115072650D01*
X143931882Y-115094951D01*
X143728519Y-115161026D01*
X143728516Y-115161027D01*
X143537990Y-115258106D01*
X143364993Y-115383796D01*
X143213796Y-115534993D01*
X143088106Y-115707990D01*
X142991027Y-115898516D01*
X142991026Y-115898519D01*
X142924951Y-116101882D01*
X142891500Y-116313084D01*
X122614245Y-116313084D01*
X122595049Y-116191884D01*
X122528972Y-115988517D01*
X122528972Y-115988516D01*
X122431893Y-115797990D01*
X122366505Y-115707991D01*
X122306206Y-115624996D01*
X122155004Y-115473794D01*
X121982009Y-115348106D01*
X121982005Y-115348103D01*
X121978132Y-115345730D01*
X121931254Y-115293920D01*
X121919829Y-115224991D01*
X121947483Y-115160827D01*
X121978132Y-115134270D01*
X121982005Y-115131896D01*
X121982004Y-115131896D01*
X121982009Y-115131894D01*
X122155004Y-115006206D01*
X122306206Y-114855004D01*
X122431894Y-114682009D01*
X122528972Y-114491483D01*
X122595049Y-114288116D01*
X122628500Y-114076916D01*
X122628500Y-113863084D01*
X122595049Y-113651884D01*
X122528972Y-113448517D01*
X122528972Y-113448516D01*
X122431893Y-113257990D01*
X122306206Y-113084996D01*
X122155004Y-112933794D01*
X122122965Y-112910516D01*
X140841500Y-112910516D01*
X140841500Y-113089483D01*
X140876411Y-113264992D01*
X140876413Y-113265000D01*
X140944896Y-113430332D01*
X140944901Y-113430342D01*
X141044321Y-113579134D01*
X141044324Y-113579138D01*
X141170861Y-113705675D01*
X141170865Y-113705678D01*
X141319657Y-113805098D01*
X141319661Y-113805100D01*
X141319664Y-113805102D01*
X141485000Y-113873587D01*
X141660516Y-113908499D01*
X141660520Y-113908500D01*
X141660521Y-113908500D01*
X141839480Y-113908500D01*
X141839481Y-113908499D01*
X142015000Y-113873587D01*
X142180336Y-113805102D01*
X142329135Y-113705678D01*
X142455678Y-113579135D01*
X142555102Y-113430336D01*
X142623587Y-113265000D01*
X142658500Y-113089479D01*
X142658500Y-112910521D01*
X142623587Y-112735000D01*
X142555102Y-112569664D01*
X142555100Y-112569661D01*
X142555098Y-112569657D01*
X142455678Y-112420865D01*
X142455675Y-112420861D01*
X142329138Y-112294324D01*
X142329134Y-112294321D01*
X142180342Y-112194901D01*
X142180332Y-112194896D01*
X142015000Y-112126413D01*
X142014992Y-112126411D01*
X141839483Y-112091500D01*
X141839479Y-112091500D01*
X141660521Y-112091500D01*
X141660516Y-112091500D01*
X141485007Y-112126411D01*
X141484999Y-112126413D01*
X141319667Y-112194896D01*
X141319657Y-112194901D01*
X141170865Y-112294321D01*
X141170861Y-112294324D01*
X141044324Y-112420861D01*
X141044321Y-112420865D01*
X140944901Y-112569657D01*
X140944896Y-112569667D01*
X140876413Y-112734999D01*
X140876411Y-112735007D01*
X140841500Y-112910516D01*
X122122965Y-112910516D01*
X121982009Y-112808106D01*
X121982005Y-112808103D01*
X121978132Y-112805730D01*
X121931254Y-112753920D01*
X121919829Y-112684991D01*
X121947483Y-112620827D01*
X121978132Y-112594270D01*
X121982005Y-112591896D01*
X121982004Y-112591896D01*
X121982009Y-112591894D01*
X122155004Y-112466206D01*
X122306206Y-112315004D01*
X122431894Y-112142009D01*
X122528972Y-111951483D01*
X122595049Y-111748116D01*
X122628500Y-111536916D01*
X122628500Y-111410516D01*
X142841500Y-111410516D01*
X142841500Y-111589483D01*
X142876411Y-111764992D01*
X142876413Y-111765000D01*
X142944896Y-111930332D01*
X142944901Y-111930342D01*
X143044321Y-112079134D01*
X143044324Y-112079138D01*
X143170861Y-112205675D01*
X143170865Y-112205678D01*
X143319657Y-112305098D01*
X143319661Y-112305100D01*
X143319664Y-112305102D01*
X143485000Y-112373587D01*
X143660516Y-112408499D01*
X143660520Y-112408500D01*
X143660521Y-112408500D01*
X143839480Y-112408500D01*
X143839481Y-112408499D01*
X144015000Y-112373587D01*
X144180336Y-112305102D01*
X144329135Y-112205678D01*
X144455678Y-112079135D01*
X144555102Y-111930336D01*
X144623587Y-111765000D01*
X144658500Y-111589479D01*
X144658500Y-111410521D01*
X144623587Y-111235000D01*
X144555102Y-111069664D01*
X144555100Y-111069661D01*
X144555098Y-111069657D01*
X144455678Y-110920865D01*
X144455675Y-110920861D01*
X144329138Y-110794324D01*
X144329134Y-110794321D01*
X144180342Y-110694901D01*
X144180332Y-110694896D01*
X144015000Y-110626413D01*
X144014992Y-110626411D01*
X143839483Y-110591500D01*
X143839479Y-110591500D01*
X143660521Y-110591500D01*
X143660516Y-110591500D01*
X143485007Y-110626411D01*
X143484999Y-110626413D01*
X143319667Y-110694896D01*
X143319657Y-110694901D01*
X143170865Y-110794321D01*
X143170861Y-110794324D01*
X143044324Y-110920861D01*
X143044321Y-110920865D01*
X142944901Y-111069657D01*
X142944896Y-111069667D01*
X142876413Y-111234999D01*
X142876411Y-111235007D01*
X142841500Y-111410516D01*
X122628500Y-111410516D01*
X122628500Y-111323084D01*
X122595049Y-111111884D01*
X122528972Y-110908517D01*
X122528972Y-110908516D01*
X122431893Y-110717990D01*
X122415116Y-110694898D01*
X122306206Y-110544996D01*
X122155004Y-110393794D01*
X121982009Y-110268106D01*
X121982005Y-110268103D01*
X121978132Y-110265730D01*
X121931254Y-110213920D01*
X121919829Y-110144991D01*
X121947483Y-110080827D01*
X121978132Y-110054270D01*
X121982005Y-110051896D01*
X121982004Y-110051896D01*
X121982009Y-110051894D01*
X122155004Y-109926206D01*
X122306206Y-109775004D01*
X122431894Y-109602009D01*
X122528972Y-109411483D01*
X122595049Y-109208116D01*
X122602588Y-109160516D01*
X139341500Y-109160516D01*
X139341500Y-109339483D01*
X139376411Y-109514992D01*
X139376413Y-109515000D01*
X139444896Y-109680332D01*
X139444901Y-109680342D01*
X139544321Y-109829134D01*
X139544324Y-109829138D01*
X139670861Y-109955675D01*
X139670865Y-109955678D01*
X139819657Y-110055098D01*
X139819661Y-110055100D01*
X139819664Y-110055102D01*
X139985000Y-110123587D01*
X140160516Y-110158499D01*
X140160520Y-110158500D01*
X140160521Y-110158500D01*
X140339480Y-110158500D01*
X140339481Y-110158499D01*
X140515000Y-110123587D01*
X140680336Y-110055102D01*
X140829135Y-109955678D01*
X140955678Y-109829135D01*
X141055102Y-109680336D01*
X141123587Y-109515000D01*
X141158500Y-109339479D01*
X141158500Y-109160521D01*
X141123587Y-108985000D01*
X141055102Y-108819664D01*
X141055100Y-108819661D01*
X141055098Y-108819657D01*
X140955678Y-108670865D01*
X140955675Y-108670861D01*
X140829138Y-108544324D01*
X140829134Y-108544321D01*
X140680342Y-108444901D01*
X140680332Y-108444896D01*
X140515000Y-108376413D01*
X140514992Y-108376411D01*
X140339483Y-108341500D01*
X140339479Y-108341500D01*
X140160521Y-108341500D01*
X140160516Y-108341500D01*
X139985007Y-108376411D01*
X139984999Y-108376413D01*
X139819667Y-108444896D01*
X139819657Y-108444901D01*
X139670865Y-108544321D01*
X139670861Y-108544324D01*
X139544324Y-108670861D01*
X139544321Y-108670865D01*
X139444901Y-108819657D01*
X139444896Y-108819667D01*
X139376413Y-108984999D01*
X139376411Y-108985007D01*
X139341500Y-109160516D01*
X122602588Y-109160516D01*
X122628500Y-108996916D01*
X122628500Y-108783084D01*
X122595049Y-108571884D01*
X122528972Y-108368517D01*
X122528972Y-108368516D01*
X122431893Y-108177990D01*
X122306206Y-108004996D01*
X122155004Y-107853794D01*
X121982009Y-107728106D01*
X121982005Y-107728103D01*
X121978132Y-107725730D01*
X121931254Y-107673920D01*
X121919829Y-107604991D01*
X121947483Y-107540827D01*
X121978132Y-107514270D01*
X121982005Y-107511896D01*
X121982004Y-107511896D01*
X121982009Y-107511894D01*
X122155004Y-107386206D01*
X122306206Y-107235004D01*
X122431894Y-107062009D01*
X122528972Y-106871483D01*
X122595049Y-106668116D01*
X122628500Y-106456916D01*
X122628500Y-106243084D01*
X122615423Y-106160521D01*
X122615422Y-106160516D01*
X139591500Y-106160516D01*
X139591500Y-106339483D01*
X139626411Y-106514992D01*
X139626413Y-106515000D01*
X139694896Y-106680332D01*
X139694901Y-106680342D01*
X139794321Y-106829134D01*
X139794324Y-106829138D01*
X139920861Y-106955675D01*
X139920865Y-106955678D01*
X140069657Y-107055098D01*
X140069661Y-107055100D01*
X140069664Y-107055102D01*
X140235000Y-107123587D01*
X140410516Y-107158499D01*
X140410520Y-107158500D01*
X140410521Y-107158500D01*
X140589480Y-107158500D01*
X140589481Y-107158499D01*
X140765000Y-107123587D01*
X140930336Y-107055102D01*
X141079135Y-106955678D01*
X141205678Y-106829135D01*
X141305102Y-106680336D01*
X141373587Y-106515000D01*
X141408500Y-106339479D01*
X141408500Y-106160521D01*
X141373587Y-105985000D01*
X141305102Y-105819664D01*
X141305100Y-105819661D01*
X141305098Y-105819657D01*
X141205678Y-105670865D01*
X141205675Y-105670861D01*
X141079138Y-105544324D01*
X141079134Y-105544321D01*
X140930342Y-105444901D01*
X140930332Y-105444896D01*
X140765000Y-105376413D01*
X140764992Y-105376411D01*
X140589483Y-105341500D01*
X140589479Y-105341500D01*
X140410521Y-105341500D01*
X140410516Y-105341500D01*
X140235007Y-105376411D01*
X140234999Y-105376413D01*
X140069667Y-105444896D01*
X140069657Y-105444901D01*
X139920865Y-105544321D01*
X139920861Y-105544324D01*
X139794324Y-105670861D01*
X139794321Y-105670865D01*
X139694901Y-105819657D01*
X139694896Y-105819667D01*
X139626413Y-105984999D01*
X139626411Y-105985007D01*
X139591500Y-106160516D01*
X122615422Y-106160516D01*
X122608517Y-106116921D01*
X122595049Y-106031884D01*
X122528972Y-105828517D01*
X122528972Y-105828516D01*
X122431893Y-105637990D01*
X122306206Y-105464996D01*
X122155004Y-105313794D01*
X121982009Y-105188106D01*
X121982010Y-105188106D01*
X121982008Y-105188105D01*
X121977311Y-105185712D01*
X121926517Y-105137735D01*
X121909724Y-105069914D01*
X121932264Y-105003780D01*
X121933302Y-105002329D01*
X122000027Y-104910516D01*
X136341500Y-104910516D01*
X136341500Y-105089483D01*
X136376411Y-105264992D01*
X136376413Y-105265000D01*
X136444896Y-105430332D01*
X136444901Y-105430342D01*
X136544321Y-105579134D01*
X136544324Y-105579138D01*
X136670861Y-105705675D01*
X136670865Y-105705678D01*
X136819657Y-105805098D01*
X136819661Y-105805100D01*
X136819664Y-105805102D01*
X136985000Y-105873587D01*
X137160516Y-105908499D01*
X137160520Y-105908500D01*
X137160521Y-105908500D01*
X137339480Y-105908500D01*
X137339481Y-105908499D01*
X137515000Y-105873587D01*
X137680336Y-105805102D01*
X137829135Y-105705678D01*
X137955678Y-105579135D01*
X138055102Y-105430336D01*
X138123587Y-105265000D01*
X138158500Y-105089479D01*
X138158500Y-104910521D01*
X138123587Y-104735000D01*
X138055102Y-104569664D01*
X138055100Y-104569661D01*
X138055098Y-104569657D01*
X137955678Y-104420865D01*
X137955675Y-104420861D01*
X137829138Y-104294324D01*
X137829134Y-104294321D01*
X137680342Y-104194901D01*
X137680332Y-104194896D01*
X137515000Y-104126413D01*
X137514992Y-104126411D01*
X137339483Y-104091500D01*
X137339479Y-104091500D01*
X137160521Y-104091500D01*
X137160516Y-104091500D01*
X136985007Y-104126411D01*
X136984999Y-104126413D01*
X136819667Y-104194896D01*
X136819657Y-104194901D01*
X136670865Y-104294321D01*
X136670861Y-104294324D01*
X136544324Y-104420861D01*
X136544321Y-104420865D01*
X136444901Y-104569657D01*
X136444896Y-104569667D01*
X136376413Y-104734999D01*
X136376411Y-104735007D01*
X136341500Y-104910516D01*
X122000027Y-104910516D01*
X122007155Y-104900708D01*
X121399408Y-104292962D01*
X121462993Y-104275925D01*
X121577007Y-104210099D01*
X121670099Y-104117007D01*
X121735925Y-104002993D01*
X121752962Y-103939409D01*
X122385270Y-104571717D01*
X122385270Y-104571716D01*
X122424622Y-104517554D01*
X122521095Y-104328217D01*
X122586757Y-104126130D01*
X122586757Y-104126127D01*
X122620000Y-103916246D01*
X122620000Y-103703753D01*
X122586757Y-103493872D01*
X122586757Y-103493869D01*
X122521095Y-103291782D01*
X122424624Y-103102449D01*
X122385270Y-103048282D01*
X122385269Y-103048282D01*
X121752962Y-103680590D01*
X121735925Y-103617007D01*
X121670099Y-103502993D01*
X121577007Y-103409901D01*
X121462993Y-103344075D01*
X121399409Y-103327037D01*
X122031716Y-102694728D01*
X121977547Y-102655373D01*
X121977545Y-102655371D01*
X121977308Y-102655251D01*
X121977234Y-102655181D01*
X121973396Y-102652829D01*
X121973890Y-102652022D01*
X121926515Y-102607274D01*
X121909724Y-102539451D01*
X121932266Y-102473318D01*
X121977319Y-102434283D01*
X121982009Y-102431894D01*
X122155004Y-102306206D01*
X122306206Y-102155004D01*
X122431894Y-101982009D01*
X122528972Y-101791483D01*
X122595049Y-101588116D01*
X122628500Y-101376916D01*
X122628500Y-101163084D01*
X122595049Y-100951884D01*
X122541513Y-100787115D01*
X122528973Y-100748519D01*
X122528972Y-100748516D01*
X122449483Y-100592512D01*
X122431894Y-100557991D01*
X122306206Y-100384996D01*
X122155004Y-100233794D01*
X121982009Y-100108106D01*
X121982005Y-100108103D01*
X121978132Y-100105730D01*
X121931254Y-100053920D01*
X121919829Y-99984991D01*
X121947483Y-99920827D01*
X121978132Y-99894270D01*
X121982005Y-99891896D01*
X121982004Y-99891896D01*
X121982009Y-99891894D01*
X122155004Y-99766206D01*
X122306206Y-99615004D01*
X122431894Y-99442009D01*
X122528972Y-99251483D01*
X122595049Y-99048116D01*
X122628500Y-98836916D01*
X122628500Y-98623084D01*
X122595049Y-98411884D01*
X122528972Y-98208517D01*
X122528972Y-98208516D01*
X122431893Y-98017990D01*
X122429128Y-98014184D01*
X122378472Y-97944462D01*
X122378461Y-97944447D01*
X138609000Y-97944447D01*
X138609000Y-100145537D01*
X138609001Y-100145553D01*
X138618016Y-100233794D01*
X138619613Y-100249426D01*
X138675385Y-100417738D01*
X138768470Y-100568652D01*
X138893848Y-100694030D01*
X139044762Y-100787115D01*
X139213074Y-100842887D01*
X139316955Y-100853500D01*
X141518044Y-100853499D01*
X141621926Y-100842887D01*
X141790238Y-100787115D01*
X141941152Y-100694030D01*
X142066530Y-100568652D01*
X142159615Y-100417738D01*
X142215387Y-100249426D01*
X142226000Y-100145545D01*
X142225999Y-97944456D01*
X142215387Y-97840574D01*
X142159615Y-97672262D01*
X142066530Y-97521348D01*
X141941152Y-97395970D01*
X141790238Y-97302885D01*
X141790235Y-97302884D01*
X141621927Y-97247113D01*
X141518045Y-97236500D01*
X139316962Y-97236500D01*
X139316946Y-97236501D01*
X139213072Y-97247113D01*
X139044764Y-97302884D01*
X139044759Y-97302886D01*
X138893846Y-97395971D01*
X138768471Y-97521346D01*
X138675386Y-97672259D01*
X138675384Y-97672264D01*
X138619613Y-97840572D01*
X138609000Y-97944447D01*
X122378461Y-97944447D01*
X122306206Y-97844996D01*
X122155004Y-97693794D01*
X121982009Y-97568106D01*
X121982005Y-97568103D01*
X121978132Y-97565730D01*
X121931254Y-97513920D01*
X121919829Y-97444991D01*
X121947483Y-97380827D01*
X121978132Y-97354270D01*
X121982005Y-97351896D01*
X121982004Y-97351896D01*
X121982009Y-97351894D01*
X122155004Y-97226206D01*
X122306206Y-97075004D01*
X122431894Y-96902009D01*
X122528972Y-96711483D01*
X122595049Y-96508116D01*
X122628500Y-96296916D01*
X122628500Y-96083084D01*
X122595049Y-95871884D01*
X122528972Y-95668517D01*
X122528972Y-95668516D01*
X122431893Y-95477990D01*
X122322643Y-95327620D01*
X122306206Y-95304996D01*
X122155004Y-95153794D01*
X121982009Y-95028106D01*
X121982005Y-95028103D01*
X121978132Y-95025730D01*
X121931254Y-94973920D01*
X121919829Y-94904991D01*
X121947483Y-94840827D01*
X121978132Y-94814270D01*
X121982005Y-94811896D01*
X121982004Y-94811896D01*
X121982009Y-94811894D01*
X122155004Y-94686206D01*
X122306206Y-94535004D01*
X122431894Y-94362009D01*
X122528972Y-94171483D01*
X122595049Y-93968116D01*
X122614316Y-93846471D01*
X138609000Y-93846471D01*
X138609000Y-94083528D01*
X138609001Y-94083544D01*
X138638979Y-94311254D01*
X138639944Y-94318578D01*
X138697936Y-94535004D01*
X138701303Y-94547570D01*
X138792020Y-94766583D01*
X138792026Y-94766595D01*
X138910561Y-94971904D01*
X138910563Y-94971907D01*
X138910564Y-94971908D01*
X139054879Y-95159983D01*
X139054885Y-95159990D01*
X139222509Y-95327614D01*
X139222515Y-95327619D01*
X139410596Y-95471939D01*
X139615905Y-95590474D01*
X139615910Y-95590476D01*
X139615916Y-95590479D01*
X139710303Y-95629575D01*
X139834930Y-95681197D01*
X140063922Y-95742556D01*
X140298965Y-95773500D01*
X140298972Y-95773500D01*
X140536028Y-95773500D01*
X140536035Y-95773500D01*
X140771078Y-95742556D01*
X141000070Y-95681197D01*
X141219095Y-95590474D01*
X141424404Y-95471939D01*
X141612485Y-95327619D01*
X141780119Y-95159985D01*
X141924439Y-94971904D01*
X142042974Y-94766595D01*
X142133697Y-94547570D01*
X142195056Y-94318578D01*
X142226000Y-94083535D01*
X142226000Y-93846465D01*
X142195056Y-93611422D01*
X142133697Y-93382430D01*
X142042974Y-93163405D01*
X141924439Y-92958096D01*
X141780119Y-92770015D01*
X141780114Y-92770009D01*
X141612490Y-92602385D01*
X141612483Y-92602379D01*
X141424408Y-92458064D01*
X141424407Y-92458063D01*
X141424404Y-92458061D01*
X141219095Y-92339526D01*
X141219083Y-92339520D01*
X141000070Y-92248803D01*
X140771074Y-92187443D01*
X140536044Y-92156501D01*
X140536041Y-92156500D01*
X140536035Y-92156500D01*
X140298965Y-92156500D01*
X140298959Y-92156500D01*
X140298955Y-92156501D01*
X140063925Y-92187443D01*
X139834929Y-92248803D01*
X139615916Y-92339520D01*
X139615902Y-92339527D01*
X139410591Y-92458064D01*
X139222516Y-92602379D01*
X139222509Y-92602385D01*
X139054885Y-92770009D01*
X139054879Y-92770016D01*
X138910564Y-92958091D01*
X138792027Y-93163402D01*
X138792020Y-93163416D01*
X138701303Y-93382429D01*
X138639943Y-93611425D01*
X138609001Y-93846455D01*
X138609000Y-93846471D01*
X122614316Y-93846471D01*
X122628500Y-93756916D01*
X122628500Y-93543084D01*
X122595049Y-93331884D01*
X122528972Y-93128517D01*
X122528972Y-93128516D01*
X122431893Y-92937990D01*
X122306206Y-92764996D01*
X122155004Y-92613794D01*
X121982009Y-92488106D01*
X121982005Y-92488103D01*
X121978132Y-92485730D01*
X121931254Y-92433920D01*
X121919829Y-92364991D01*
X121947483Y-92300827D01*
X121978132Y-92274270D01*
X121982005Y-92271896D01*
X121982004Y-92271896D01*
X121982009Y-92271894D01*
X122155004Y-92146206D01*
X122306206Y-91995004D01*
X122431894Y-91822009D01*
X122528972Y-91631483D01*
X122595049Y-91428116D01*
X122628500Y-91216916D01*
X122628500Y-91003084D01*
X122595049Y-90791884D01*
X122528972Y-90588517D01*
X122528972Y-90588516D01*
X122431893Y-90397990D01*
X122306206Y-90224996D01*
X122155004Y-90073794D01*
X121982009Y-89948106D01*
X121982005Y-89948103D01*
X121978132Y-89945730D01*
X121931254Y-89893920D01*
X121919829Y-89824991D01*
X121947483Y-89760827D01*
X121978132Y-89734270D01*
X121982005Y-89731896D01*
X121982004Y-89731896D01*
X121982009Y-89731894D01*
X122155004Y-89606206D01*
X122306206Y-89455004D01*
X122431894Y-89282009D01*
X122528972Y-89091483D01*
X122595049Y-88888116D01*
X122628500Y-88676916D01*
X122628500Y-88463084D01*
X122595049Y-88251884D01*
X122528972Y-88048517D01*
X122528972Y-88048516D01*
X122431893Y-87857990D01*
X122306206Y-87684996D01*
X122155004Y-87533794D01*
X121982009Y-87408106D01*
X121982005Y-87408103D01*
X121978132Y-87405730D01*
X121931254Y-87353920D01*
X121919829Y-87284991D01*
X121947483Y-87220827D01*
X121978132Y-87194270D01*
X121982005Y-87191896D01*
X121982004Y-87191896D01*
X121982009Y-87191894D01*
X122155004Y-87066206D01*
X122306206Y-86915004D01*
X122431894Y-86742009D01*
X122528972Y-86551483D01*
X122595049Y-86348116D01*
X122628500Y-86136916D01*
X122628500Y-85923084D01*
X122595049Y-85711884D01*
X122528972Y-85508517D01*
X122528972Y-85508516D01*
X122431893Y-85317990D01*
X122306206Y-85144996D01*
X122155004Y-84993794D01*
X121982009Y-84868106D01*
X121982005Y-84868103D01*
X121978132Y-84865730D01*
X121931254Y-84813920D01*
X121919829Y-84744991D01*
X121947483Y-84680827D01*
X121978132Y-84654270D01*
X121982005Y-84651896D01*
X121982004Y-84651896D01*
X121982009Y-84651894D01*
X122155004Y-84526206D01*
X122306206Y-84375004D01*
X122431894Y-84202009D01*
X122528972Y-84011483D01*
X122595049Y-83808116D01*
X122628500Y-83596916D01*
X122628500Y-83383084D01*
X122595049Y-83171884D01*
X122528972Y-82968517D01*
X122528972Y-82968516D01*
X122431893Y-82777990D01*
X122306206Y-82604996D01*
X122155004Y-82453794D01*
X121982009Y-82328106D01*
X121982005Y-82328103D01*
X121978132Y-82325730D01*
X121931254Y-82273920D01*
X121919829Y-82204991D01*
X121947483Y-82140827D01*
X121978132Y-82114270D01*
X121982005Y-82111896D01*
X121982004Y-82111896D01*
X121982009Y-82111894D01*
X122155004Y-81986206D01*
X122306206Y-81835004D01*
X122431894Y-81662009D01*
X122528972Y-81471483D01*
X122537752Y-81444462D01*
X122537757Y-81444447D01*
X138609000Y-81444447D01*
X138609000Y-83645537D01*
X138609001Y-83645553D01*
X138619613Y-83749427D01*
X138639061Y-83808117D01*
X138675385Y-83917738D01*
X138768470Y-84068652D01*
X138893848Y-84194030D01*
X139044762Y-84287115D01*
X139213074Y-84342887D01*
X139316955Y-84353500D01*
X141518044Y-84353499D01*
X141621926Y-84342887D01*
X141790238Y-84287115D01*
X141941152Y-84194030D01*
X142066530Y-84068652D01*
X142159615Y-83917738D01*
X142215387Y-83749426D01*
X142226000Y-83645545D01*
X142225999Y-81444456D01*
X142215387Y-81340574D01*
X142159615Y-81172262D01*
X142066530Y-81021348D01*
X141941152Y-80895970D01*
X141790238Y-80802885D01*
X141790235Y-80802884D01*
X141621927Y-80747113D01*
X141518045Y-80736500D01*
X139316962Y-80736500D01*
X139316946Y-80736501D01*
X139213072Y-80747113D01*
X139044764Y-80802884D01*
X139044759Y-80802886D01*
X138893846Y-80895971D01*
X138768471Y-81021346D01*
X138675386Y-81172259D01*
X138675384Y-81172264D01*
X138619613Y-81340572D01*
X138609000Y-81444447D01*
X122537757Y-81444447D01*
X122551230Y-81402980D01*
X122571507Y-81340572D01*
X122595049Y-81268116D01*
X122628500Y-81056916D01*
X122628500Y-80843084D01*
X122595049Y-80631884D01*
X122528972Y-80428517D01*
X122528972Y-80428516D01*
X122431893Y-80237990D01*
X122306206Y-80064996D01*
X122155004Y-79913794D01*
X121982009Y-79788106D01*
X121982005Y-79788103D01*
X121978132Y-79785730D01*
X121931254Y-79733920D01*
X121919829Y-79664991D01*
X121947483Y-79600827D01*
X121978132Y-79574270D01*
X121982005Y-79571896D01*
X121982004Y-79571896D01*
X121982009Y-79571894D01*
X122155004Y-79446206D01*
X122306206Y-79295004D01*
X122431894Y-79122009D01*
X122528972Y-78931483D01*
X122595049Y-78728116D01*
X122628500Y-78516916D01*
X122628500Y-78303084D01*
X122595049Y-78091884D01*
X122528972Y-77888517D01*
X122528972Y-77888516D01*
X122431893Y-77697990D01*
X122306206Y-77524996D01*
X122155004Y-77373794D01*
X122117397Y-77346471D01*
X138609000Y-77346471D01*
X138609000Y-77583528D01*
X138609001Y-77583544D01*
X138639943Y-77818574D01*
X138701303Y-78047570D01*
X138792020Y-78266583D01*
X138792026Y-78266595D01*
X138910561Y-78471904D01*
X138910563Y-78471907D01*
X138910564Y-78471908D01*
X139054879Y-78659983D01*
X139054885Y-78659990D01*
X139222509Y-78827614D01*
X139222515Y-78827619D01*
X139410596Y-78971939D01*
X139615905Y-79090474D01*
X139615910Y-79090476D01*
X139615916Y-79090479D01*
X139692037Y-79122009D01*
X139834930Y-79181197D01*
X140063922Y-79242556D01*
X140298965Y-79273500D01*
X140298972Y-79273500D01*
X140536028Y-79273500D01*
X140536035Y-79273500D01*
X140771078Y-79242556D01*
X141000070Y-79181197D01*
X141219095Y-79090474D01*
X141424404Y-78971939D01*
X141612485Y-78827619D01*
X141780119Y-78659985D01*
X141924439Y-78471904D01*
X142042974Y-78266595D01*
X142133697Y-78047570D01*
X142195056Y-77818578D01*
X142226000Y-77583535D01*
X142226000Y-77346465D01*
X142195056Y-77111422D01*
X142133697Y-76882430D01*
X142080916Y-76755006D01*
X142042979Y-76663416D01*
X142042976Y-76663410D01*
X142042974Y-76663405D01*
X141924439Y-76458096D01*
X141780119Y-76270015D01*
X141780114Y-76270009D01*
X141612490Y-76102385D01*
X141612483Y-76102379D01*
X141424408Y-75958064D01*
X141424407Y-75958063D01*
X141424404Y-75958061D01*
X141219095Y-75839526D01*
X141219083Y-75839520D01*
X141000070Y-75748803D01*
X140771074Y-75687443D01*
X140536044Y-75656501D01*
X140536041Y-75656500D01*
X140536035Y-75656500D01*
X140298965Y-75656500D01*
X140298959Y-75656500D01*
X140298955Y-75656501D01*
X140063925Y-75687443D01*
X139834929Y-75748803D01*
X139615916Y-75839520D01*
X139615902Y-75839527D01*
X139410591Y-75958064D01*
X139222516Y-76102379D01*
X139222509Y-76102385D01*
X139054885Y-76270009D01*
X139054879Y-76270016D01*
X138910564Y-76458091D01*
X138792027Y-76663402D01*
X138792020Y-76663416D01*
X138701303Y-76882429D01*
X138639943Y-77111425D01*
X138609001Y-77346455D01*
X138609000Y-77346471D01*
X122117397Y-77346471D01*
X121982009Y-77248106D01*
X121982005Y-77248103D01*
X121978132Y-77245730D01*
X121931254Y-77193920D01*
X121919829Y-77124991D01*
X121947483Y-77060827D01*
X121978132Y-77034270D01*
X121982005Y-77031896D01*
X121982004Y-77031896D01*
X121982009Y-77031894D01*
X122155004Y-76906206D01*
X122306206Y-76755004D01*
X122431894Y-76582009D01*
X122528972Y-76391483D01*
X122595049Y-76188116D01*
X122628500Y-75976916D01*
X122628500Y-75763084D01*
X122595049Y-75551884D01*
X122562010Y-75450200D01*
X122528973Y-75348519D01*
X122528972Y-75348516D01*
X122431893Y-75157990D01*
X122374604Y-75079138D01*
X122306206Y-74984996D01*
X122155004Y-74833794D01*
X121982009Y-74708106D01*
X121791483Y-74611027D01*
X121791480Y-74611026D01*
X121588117Y-74544951D01*
X121474160Y-74526902D01*
X121458045Y-74524349D01*
X121376916Y-74511500D01*
X121163084Y-74511500D01*
X121092684Y-74522650D01*
X120951882Y-74544951D01*
X120748519Y-74611026D01*
X120748516Y-74611027D01*
X120557990Y-74708106D01*
X120384993Y-74833796D01*
X120233796Y-74984993D01*
X120108105Y-75157991D01*
X120105727Y-75161873D01*
X120053914Y-75208748D01*
X119984984Y-75220169D01*
X119920822Y-75192512D01*
X119894273Y-75161873D01*
X119891894Y-75157991D01*
X119834604Y-75079138D01*
X119766206Y-74984996D01*
X119615004Y-74833794D01*
X119442009Y-74708106D01*
X119251483Y-74611027D01*
X119251480Y-74611026D01*
X119048117Y-74544951D01*
X118934160Y-74526902D01*
X118836916Y-74511500D01*
X118623084Y-74511500D01*
X118552684Y-74522650D01*
X118411882Y-74544951D01*
X118208519Y-74611026D01*
X118208516Y-74611027D01*
X118017990Y-74708106D01*
X117844993Y-74833796D01*
X117693796Y-74984993D01*
X117568106Y-75157990D01*
X117471027Y-75348516D01*
X117471026Y-75348519D01*
X117404951Y-75551882D01*
X117371500Y-75763084D01*
X116550500Y-75763084D01*
X116550500Y-74410516D01*
X135091500Y-74410516D01*
X135091500Y-74589483D01*
X135126411Y-74764992D01*
X135126413Y-74765000D01*
X135194896Y-74930332D01*
X135194901Y-74930342D01*
X135294321Y-75079134D01*
X135294324Y-75079138D01*
X135420861Y-75205675D01*
X135420865Y-75205678D01*
X135569657Y-75305098D01*
X135569661Y-75305100D01*
X135569664Y-75305102D01*
X135735000Y-75373587D01*
X135910516Y-75408499D01*
X135910520Y-75408500D01*
X135910521Y-75408500D01*
X136089480Y-75408500D01*
X136089481Y-75408499D01*
X136265000Y-75373587D01*
X136430336Y-75305102D01*
X136579135Y-75205678D01*
X136705678Y-75079135D01*
X136805102Y-74930336D01*
X136873587Y-74765000D01*
X136908500Y-74589479D01*
X136908500Y-74410521D01*
X136873587Y-74235000D01*
X136805102Y-74069664D01*
X136805100Y-74069661D01*
X136805098Y-74069657D01*
X136705678Y-73920865D01*
X136705675Y-73920861D01*
X136579138Y-73794324D01*
X136579134Y-73794321D01*
X136430342Y-73694901D01*
X136430332Y-73694896D01*
X136265000Y-73626413D01*
X136264992Y-73626411D01*
X136089483Y-73591500D01*
X136089479Y-73591500D01*
X135910521Y-73591500D01*
X135910516Y-73591500D01*
X135735007Y-73626411D01*
X135734999Y-73626413D01*
X135569667Y-73694896D01*
X135569657Y-73694901D01*
X135420865Y-73794321D01*
X135420861Y-73794324D01*
X135294324Y-73920861D01*
X135294321Y-73920865D01*
X135194901Y-74069657D01*
X135194896Y-74069667D01*
X135126413Y-74234999D01*
X135126411Y-74235007D01*
X135091500Y-74410516D01*
X116550500Y-74410516D01*
X116550500Y-71003050D01*
X116550649Y-70996966D01*
X116556688Y-70874038D01*
X118399500Y-70874038D01*
X118399500Y-71125961D01*
X118438910Y-71374785D01*
X118516760Y-71614383D01*
X118631132Y-71838848D01*
X118779201Y-72042649D01*
X118779205Y-72042654D01*
X118957345Y-72220794D01*
X118957350Y-72220798D01*
X119135117Y-72349952D01*
X119161155Y-72368870D01*
X119304184Y-72441747D01*
X119385616Y-72483239D01*
X119385618Y-72483239D01*
X119385621Y-72483241D01*
X119625215Y-72561090D01*
X119874038Y-72600500D01*
X119874039Y-72600500D01*
X120125961Y-72600500D01*
X120125962Y-72600500D01*
X120374785Y-72561090D01*
X120614379Y-72483241D01*
X120838845Y-72368870D01*
X121042656Y-72220793D01*
X121220793Y-72042656D01*
X121368870Y-71838845D01*
X121483241Y-71614379D01*
X121561090Y-71374785D01*
X121600500Y-71125962D01*
X121600500Y-70874038D01*
X141399500Y-70874038D01*
X141399500Y-71125961D01*
X141438910Y-71374785D01*
X141516760Y-71614383D01*
X141631132Y-71838848D01*
X141779201Y-72042649D01*
X141779205Y-72042654D01*
X141957345Y-72220794D01*
X141957350Y-72220798D01*
X142135117Y-72349952D01*
X142161155Y-72368870D01*
X142304184Y-72441747D01*
X142385616Y-72483239D01*
X142385618Y-72483239D01*
X142385621Y-72483241D01*
X142625215Y-72561090D01*
X142874038Y-72600500D01*
X142874039Y-72600500D01*
X143125961Y-72600500D01*
X143125962Y-72600500D01*
X143374785Y-72561090D01*
X143614379Y-72483241D01*
X143838845Y-72368870D01*
X144042656Y-72220793D01*
X144220793Y-72042656D01*
X144368870Y-71838845D01*
X144483241Y-71614379D01*
X144561090Y-71374785D01*
X144600500Y-71125962D01*
X144600500Y-70874038D01*
X144561090Y-70625215D01*
X144483241Y-70385621D01*
X144483239Y-70385618D01*
X144483239Y-70385616D01*
X144441747Y-70304184D01*
X144368870Y-70161155D01*
X144250813Y-69998663D01*
X144220798Y-69957350D01*
X144220794Y-69957345D01*
X144042654Y-69779205D01*
X144042649Y-69779201D01*
X143838848Y-69631132D01*
X143838847Y-69631131D01*
X143838845Y-69631130D01*
X143768747Y-69595413D01*
X143614383Y-69516760D01*
X143374785Y-69438910D01*
X143125962Y-69399500D01*
X142874038Y-69399500D01*
X142749626Y-69419205D01*
X142625214Y-69438910D01*
X142385616Y-69516760D01*
X142161151Y-69631132D01*
X141957350Y-69779201D01*
X141957345Y-69779205D01*
X141779205Y-69957345D01*
X141779201Y-69957350D01*
X141631132Y-70161151D01*
X141516760Y-70385616D01*
X141438910Y-70625214D01*
X141399500Y-70874038D01*
X121600500Y-70874038D01*
X121561090Y-70625215D01*
X121483241Y-70385621D01*
X121483239Y-70385618D01*
X121483239Y-70385616D01*
X121441747Y-70304184D01*
X121368870Y-70161155D01*
X121250813Y-69998663D01*
X121220798Y-69957350D01*
X121220794Y-69957345D01*
X121042654Y-69779205D01*
X121042649Y-69779201D01*
X120838848Y-69631132D01*
X120838847Y-69631131D01*
X120838845Y-69631130D01*
X120768747Y-69595413D01*
X120614383Y-69516760D01*
X120374785Y-69438910D01*
X120125962Y-69399500D01*
X119874038Y-69399500D01*
X119749626Y-69419205D01*
X119625214Y-69438910D01*
X119385616Y-69516760D01*
X119161151Y-69631132D01*
X118957350Y-69779201D01*
X118957345Y-69779205D01*
X118779205Y-69957345D01*
X118779201Y-69957350D01*
X118631132Y-70161151D01*
X118516760Y-70385616D01*
X118438910Y-70625214D01*
X118399500Y-70874038D01*
X116556688Y-70874038D01*
X116557226Y-70863082D01*
X116566811Y-70667973D01*
X116568004Y-70655863D01*
X116594327Y-70478405D01*
X116615888Y-70333051D01*
X116618258Y-70321137D01*
X116697557Y-70004559D01*
X116701078Y-69992948D01*
X116811031Y-69685650D01*
X116815673Y-69674443D01*
X116955219Y-69379398D01*
X116960934Y-69368706D01*
X117128718Y-69088776D01*
X117135461Y-69078683D01*
X117329882Y-68816537D01*
X117337585Y-68807152D01*
X117556760Y-68565330D01*
X117565330Y-68556760D01*
X117807152Y-68337585D01*
X117816537Y-68329882D01*
X118078683Y-68135461D01*
X118088776Y-68128718D01*
X118368706Y-67960934D01*
X118379398Y-67955219D01*
X118674443Y-67815673D01*
X118685650Y-67811031D01*
X118992948Y-67701078D01*
X119004559Y-67697557D01*
X119321137Y-67618258D01*
X119333051Y-67615888D01*
X119655863Y-67568003D01*
X119667969Y-67566811D01*
X119996967Y-67550649D01*
X120003051Y-67550500D01*
X120016408Y-67550500D01*
X142983592Y-67550500D01*
X142996949Y-67550500D01*
X143003033Y-67550649D01*
G37*
%TD.AperFunction*%
%TD*%
M02*
