%TF.GenerationSoftware,KiCad,Pcbnew,10.0.1*%
%TF.CreationDate,2026-04-21T18:09:16-07:00*%
%TF.ProjectId,paypi,70617970-692e-46b6-9963-61645f706362,rev?*%
%TF.SameCoordinates,Original*%
%TF.FileFunction,Legend,Top*%
%TF.FilePolarity,Positive*%
%FSLAX46Y46*%
G04 Gerber Fmt 4.6, Leading zero omitted, Abs format (unit mm)*
G04 Created by KiCad (PCBNEW 10.0.1) date 2026-04-21 18:09:16*
%MOMM*%
%LPD*%
G01*
G04 APERTURE LIST*
G04 Aperture macros list*
%AMRoundRect*
0 Rectangle with rounded corners*
0 $1 Rounding radius*
0 $2 $3 $4 $5 $6 $7 $8 $9 X,Y pos of 4 corners*
0 Add a 4 corners polygon primitive as box body*
4,1,4,$2,$3,$4,$5,$6,$7,$8,$9,$2,$3,0*
0 Add four circle primitives for the rounded corners*
1,1,$1+$1,$2,$3*
1,1,$1+$1,$4,$5*
1,1,$1+$1,$6,$7*
1,1,$1+$1,$8,$9*
0 Add four rect primitives between the rounded corners*
20,1,$1+$1,$2,$3,$4,$5,0*
20,1,$1+$1,$4,$5,$6,$7,0*
20,1,$1+$1,$6,$7,$8,$9,0*
20,1,$1+$1,$8,$9,$2,$3,0*%
G04 Aperture macros list end*
%ADD10C,0.000000*%
%ADD11C,0.150000*%
%ADD12C,0.120000*%
%ADD13RoundRect,0.237500X-0.237500X0.287500X-0.237500X-0.287500X0.237500X-0.287500X0.237500X0.287500X0*%
%ADD14RoundRect,0.237500X-0.237500X0.250000X-0.237500X-0.250000X0.237500X-0.250000X0.237500X0.250000X0*%
%ADD15RoundRect,0.250000X1.050000X-1.050000X1.050000X1.050000X-1.050000X1.050000X-1.050000X-1.050000X0*%
%ADD16C,2.600000*%
%ADD17RoundRect,0.237500X0.237500X-0.250000X0.237500X0.250000X-0.237500X0.250000X-0.237500X-0.250000X0*%
%ADD18R,1.700000X1.700000*%
%ADD19C,1.700000*%
%ADD20C,2.700000*%
%ADD21RoundRect,0.237500X0.250000X0.237500X-0.250000X0.237500X-0.250000X-0.237500X0.250000X-0.237500X0*%
%ADD22RoundRect,0.150000X-0.587500X-0.150000X0.587500X-0.150000X0.587500X0.150000X-0.587500X0.150000X0*%
%ADD23RoundRect,0.090000X0.660000X0.360000X-0.660000X0.360000X-0.660000X-0.360000X0.660000X-0.360000X0*%
%ADD24RoundRect,0.237500X-0.237500X0.300000X-0.237500X-0.300000X0.237500X-0.300000X0.237500X0.300000X0*%
%ADD25RoundRect,0.237500X0.300000X0.237500X-0.300000X0.237500X-0.300000X-0.237500X0.300000X-0.237500X0*%
%ADD26R,1.000000X0.750000*%
%ADD27RoundRect,0.237500X-0.250000X-0.237500X0.250000X-0.237500X0.250000X0.237500X-0.250000X0.237500X0*%
G04 APERTURE END LIST*
D10*
G36*
X129574870Y-87196973D02*
G01*
X129592787Y-87198946D01*
X129610494Y-87202275D01*
X129627892Y-87206938D01*
X129644882Y-87212911D01*
X129661365Y-87220173D01*
X129677244Y-87228701D01*
X129692418Y-87238472D01*
X129706790Y-87249464D01*
X129720260Y-87261654D01*
X129732729Y-87275021D01*
X129744100Y-87289541D01*
X129754273Y-87305191D01*
X129763149Y-87321951D01*
X129770630Y-87339796D01*
X129776617Y-87358705D01*
X129781011Y-87378655D01*
X129783713Y-87399624D01*
X129784624Y-87421589D01*
X129784505Y-87430175D01*
X129784158Y-87438669D01*
X129783590Y-87447052D01*
X129782802Y-87455307D01*
X129781800Y-87463419D01*
X129780588Y-87471368D01*
X129779169Y-87479139D01*
X129777547Y-87486715D01*
X129775726Y-87494077D01*
X129773711Y-87501210D01*
X129771505Y-87508096D01*
X129769112Y-87514718D01*
X129766536Y-87521058D01*
X129763782Y-87527100D01*
X129760852Y-87532828D01*
X129757751Y-87538222D01*
X129757752Y-87538222D01*
X129742835Y-87560335D01*
X129726739Y-87579877D01*
X129709597Y-87596920D01*
X129691543Y-87611534D01*
X129672709Y-87623792D01*
X129653230Y-87633764D01*
X129633239Y-87641522D01*
X129612869Y-87647137D01*
X129592254Y-87650680D01*
X129571527Y-87652223D01*
X129550821Y-87651836D01*
X129530270Y-87649592D01*
X129510008Y-87645561D01*
X129490168Y-87639814D01*
X129470882Y-87632424D01*
X129452286Y-87623460D01*
X129434511Y-87612995D01*
X129417692Y-87601100D01*
X129401962Y-87587846D01*
X129387455Y-87573304D01*
X129374303Y-87557546D01*
X129362641Y-87540642D01*
X129352601Y-87522665D01*
X129344317Y-87503684D01*
X129337923Y-87483773D01*
X129333552Y-87463001D01*
X129331337Y-87441441D01*
X129331412Y-87419163D01*
X129333911Y-87396239D01*
X129338966Y-87372740D01*
X129346711Y-87348737D01*
X129357280Y-87324302D01*
X129367768Y-87304932D01*
X129379429Y-87287233D01*
X129392163Y-87271183D01*
X129405873Y-87256758D01*
X129420459Y-87243936D01*
X129435823Y-87232695D01*
X129451865Y-87223012D01*
X129468487Y-87214865D01*
X129485591Y-87208231D01*
X129503077Y-87203088D01*
X129520847Y-87199413D01*
X129538801Y-87197184D01*
X129556842Y-87196378D01*
X129574870Y-87196973D01*
G37*
G36*
X129655418Y-89283025D02*
G01*
X129673691Y-89285932D01*
X129691456Y-89290310D01*
X129708655Y-89296086D01*
X129725230Y-89303187D01*
X129741123Y-89311540D01*
X129756276Y-89321072D01*
X129770631Y-89331712D01*
X129784130Y-89343385D01*
X129796715Y-89356019D01*
X129808328Y-89369541D01*
X129818912Y-89383879D01*
X129828407Y-89398959D01*
X129836756Y-89414709D01*
X129843901Y-89431056D01*
X129849784Y-89447927D01*
X129854347Y-89465249D01*
X129857532Y-89482949D01*
X129859281Y-89500956D01*
X129859535Y-89519195D01*
X129858238Y-89537594D01*
X129855330Y-89556081D01*
X129850754Y-89574581D01*
X129844452Y-89593024D01*
X129836366Y-89611335D01*
X129826437Y-89629442D01*
X129814608Y-89647272D01*
X129814608Y-89647271D01*
X129800246Y-89665444D01*
X129784971Y-89681689D01*
X129768881Y-89696046D01*
X129752076Y-89708557D01*
X129734654Y-89719261D01*
X129716714Y-89728199D01*
X129698354Y-89735412D01*
X129679675Y-89740941D01*
X129660773Y-89744825D01*
X129641749Y-89747106D01*
X129622701Y-89747824D01*
X129603728Y-89747020D01*
X129584928Y-89744734D01*
X129566400Y-89741007D01*
X129548244Y-89735879D01*
X129530558Y-89729391D01*
X129513440Y-89721584D01*
X129496990Y-89712498D01*
X129481307Y-89702174D01*
X129466489Y-89690652D01*
X129452634Y-89677973D01*
X129439843Y-89664177D01*
X129428212Y-89649305D01*
X129417843Y-89633399D01*
X129408832Y-89616497D01*
X129401279Y-89598641D01*
X129395284Y-89579871D01*
X129390943Y-89560229D01*
X129388357Y-89539754D01*
X129387624Y-89518487D01*
X129388844Y-89496469D01*
X129392113Y-89473740D01*
X129393372Y-89467895D01*
X129394974Y-89461926D01*
X129399151Y-89449677D01*
X129404543Y-89437113D01*
X129411047Y-89424356D01*
X129418560Y-89411527D01*
X129426978Y-89398750D01*
X129436199Y-89386144D01*
X129446121Y-89373833D01*
X129456640Y-89361938D01*
X129467654Y-89350580D01*
X129479060Y-89339882D01*
X129490754Y-89329965D01*
X129502635Y-89320951D01*
X129514599Y-89312962D01*
X129526544Y-89306119D01*
X129538366Y-89300545D01*
X129558467Y-89293098D01*
X129578409Y-89287560D01*
X129598133Y-89283856D01*
X129617581Y-89281914D01*
X129636696Y-89281661D01*
X129655418Y-89283025D01*
G37*
G36*
X131511672Y-76105402D02*
G01*
X131517927Y-76105891D01*
X131523968Y-76106785D01*
X131529799Y-76108111D01*
X131535424Y-76109893D01*
X131540846Y-76112155D01*
X131546071Y-76114924D01*
X131551100Y-76118223D01*
X131555938Y-76122079D01*
X131560589Y-76126515D01*
X131565056Y-76131556D01*
X131569344Y-76137229D01*
X131573455Y-76143557D01*
X131577394Y-76150565D01*
X131581164Y-76158280D01*
X131584770Y-76166724D01*
X131588215Y-76175924D01*
X131591502Y-76185905D01*
X131597620Y-76208307D01*
X131603154Y-76234130D01*
X131608133Y-76263573D01*
X131612589Y-76296837D01*
X131616550Y-76334120D01*
X131620048Y-76375623D01*
X131623111Y-76421545D01*
X131625771Y-76472086D01*
X131628057Y-76527445D01*
X131629998Y-76587822D01*
X131631627Y-76653417D01*
X131634061Y-76801057D01*
X131635601Y-76971962D01*
X131636486Y-77167730D01*
X131636957Y-77389957D01*
X131639331Y-78015926D01*
X131644417Y-78203124D01*
X131648813Y-78271283D01*
X131654779Y-78324768D01*
X131662566Y-78365297D01*
X131672425Y-78394584D01*
X131684607Y-78414346D01*
X131699362Y-78426298D01*
X131716943Y-78432157D01*
X131737599Y-78433638D01*
X131789143Y-78430330D01*
X131999375Y-78420898D01*
X132192502Y-78422353D01*
X132367893Y-78434141D01*
X132524916Y-78455703D01*
X132662941Y-78486483D01*
X132724631Y-78505156D01*
X132781334Y-78525925D01*
X132832972Y-78548720D01*
X132879466Y-78573472D01*
X132920736Y-78600111D01*
X132956704Y-78628568D01*
X132987291Y-78658773D01*
X133012418Y-78690656D01*
X133032006Y-78724148D01*
X133045975Y-78759180D01*
X133054248Y-78795681D01*
X133056745Y-78833582D01*
X133053387Y-78872814D01*
X133044096Y-78913308D01*
X133028792Y-78954992D01*
X133007396Y-78997799D01*
X132979830Y-79041657D01*
X132946014Y-79086499D01*
X132905870Y-79132254D01*
X132859319Y-79178852D01*
X132806281Y-79226224D01*
X132746679Y-79274301D01*
X132740440Y-79279180D01*
X132734736Y-79283820D01*
X132729586Y-79288231D01*
X132725008Y-79292424D01*
X132721021Y-79296410D01*
X132717643Y-79300198D01*
X132714893Y-79303801D01*
X132712788Y-79307227D01*
X132711347Y-79310488D01*
X132710882Y-79312059D01*
X132710589Y-79313593D01*
X132710472Y-79315092D01*
X132710532Y-79316555D01*
X132710772Y-79317985D01*
X132711195Y-79319382D01*
X132711802Y-79320749D01*
X132712595Y-79322086D01*
X132713578Y-79323395D01*
X132714752Y-79324677D01*
X132716120Y-79325934D01*
X132717684Y-79327166D01*
X132721408Y-79329562D01*
X132725945Y-79331877D01*
X132731311Y-79334122D01*
X132737526Y-79336305D01*
X132744607Y-79338439D01*
X132752574Y-79340534D01*
X132761444Y-79342599D01*
X132771236Y-79344646D01*
X132781969Y-79346685D01*
X132793661Y-79348727D01*
X132806330Y-79350782D01*
X132834674Y-79354973D01*
X132867147Y-79359342D01*
X132903899Y-79363974D01*
X132960438Y-79372427D01*
X133013991Y-79383420D01*
X133064529Y-79396819D01*
X133112023Y-79412488D01*
X133156444Y-79430293D01*
X133197762Y-79450100D01*
X133235950Y-79471773D01*
X133270979Y-79495179D01*
X133302819Y-79520183D01*
X133331442Y-79546649D01*
X133356818Y-79574445D01*
X133378920Y-79603434D01*
X133397718Y-79633482D01*
X133413183Y-79664456D01*
X133425287Y-79696219D01*
X133434001Y-79728638D01*
X133439295Y-79761578D01*
X133441142Y-79794904D01*
X133439511Y-79828483D01*
X133434375Y-79862178D01*
X133425704Y-79895856D01*
X133413470Y-79929382D01*
X133397643Y-79962622D01*
X133378196Y-79995440D01*
X133355098Y-80027703D01*
X133328322Y-80059275D01*
X133297838Y-80090022D01*
X133263618Y-80119810D01*
X133225632Y-80148504D01*
X133183852Y-80175969D01*
X133138249Y-80202071D01*
X133088795Y-80226675D01*
X133066067Y-80237371D01*
X133046477Y-80247040D01*
X133030057Y-80255805D01*
X133023047Y-80259887D01*
X133016842Y-80263790D01*
X133011446Y-80267529D01*
X133006864Y-80271120D01*
X133003099Y-80274578D01*
X133000156Y-80277919D01*
X132998039Y-80281158D01*
X132996753Y-80284311D01*
X132996300Y-80287393D01*
X132996686Y-80290419D01*
X132997915Y-80293407D01*
X132999991Y-80296369D01*
X133002917Y-80299324D01*
X133006699Y-80302285D01*
X133011340Y-80305268D01*
X133016845Y-80308290D01*
X133023217Y-80311364D01*
X133030461Y-80314508D01*
X133047581Y-80321064D01*
X133068239Y-80328083D01*
X133092467Y-80335687D01*
X133120300Y-80344002D01*
X133186421Y-80364848D01*
X133248464Y-80387268D01*
X133306421Y-80411162D01*
X133360286Y-80436434D01*
X133410053Y-80462985D01*
X133455717Y-80490718D01*
X133497270Y-80519534D01*
X133534706Y-80549337D01*
X133568019Y-80580028D01*
X133597203Y-80611510D01*
X133622252Y-80643685D01*
X133643159Y-80676455D01*
X133659918Y-80709723D01*
X133672523Y-80743390D01*
X133680967Y-80777360D01*
X133685245Y-80811533D01*
X133685350Y-80845813D01*
X133681275Y-80880102D01*
X133673015Y-80914302D01*
X133660563Y-80948315D01*
X133643913Y-80982044D01*
X133623059Y-81015390D01*
X133597994Y-81048257D01*
X133568713Y-81080545D01*
X133535208Y-81112159D01*
X133497475Y-81142999D01*
X133455505Y-81172968D01*
X133409294Y-81201968D01*
X133358835Y-81229902D01*
X133304121Y-81256672D01*
X133245147Y-81282180D01*
X133181906Y-81306328D01*
X133124992Y-81327330D01*
X133102236Y-81336408D01*
X133083192Y-81344721D01*
X133067795Y-81352405D01*
X133061443Y-81356054D01*
X133055979Y-81359597D01*
X133051393Y-81363052D01*
X133047678Y-81366435D01*
X133044825Y-81369764D01*
X133042826Y-81373056D01*
X133041673Y-81376328D01*
X133041358Y-81379597D01*
X133041872Y-81382880D01*
X133043207Y-81386195D01*
X133045355Y-81389558D01*
X133048308Y-81392987D01*
X133052057Y-81396499D01*
X133056595Y-81400110D01*
X133068002Y-81407702D01*
X133082463Y-81415899D01*
X133099912Y-81424838D01*
X133120284Y-81434658D01*
X133172910Y-81461829D01*
X133219249Y-81490525D01*
X133259409Y-81520618D01*
X133293503Y-81551985D01*
X133321640Y-81584500D01*
X133343931Y-81618038D01*
X133360487Y-81652473D01*
X133371418Y-81687681D01*
X133376835Y-81723536D01*
X133376849Y-81759912D01*
X133371569Y-81796684D01*
X133361108Y-81833728D01*
X133345574Y-81870918D01*
X133325080Y-81908129D01*
X133299735Y-81945235D01*
X133269649Y-81982111D01*
X133234935Y-82018632D01*
X133195701Y-82054673D01*
X133152060Y-82090108D01*
X133104121Y-82124812D01*
X133051994Y-82158660D01*
X132995791Y-82191526D01*
X132935623Y-82223286D01*
X132871599Y-82253814D01*
X132803830Y-82282985D01*
X132732427Y-82310673D01*
X132657501Y-82336754D01*
X132579162Y-82361102D01*
X132497520Y-82383591D01*
X132412686Y-82404097D01*
X132324772Y-82422494D01*
X132233887Y-82438658D01*
X132142002Y-82451939D01*
X132063035Y-82461507D01*
X131996065Y-82470044D01*
X131966792Y-82474764D01*
X131940174Y-82480232D01*
X131916094Y-82486782D01*
X131894440Y-82494751D01*
X131875095Y-82504474D01*
X131857944Y-82516284D01*
X131848897Y-82524829D01*
X131842873Y-82530519D01*
X131829767Y-82547512D01*
X131818511Y-82567600D01*
X131808989Y-82591117D01*
X131801087Y-82618399D01*
X131794690Y-82649780D01*
X131789683Y-82685596D01*
X131785950Y-82726182D01*
X131783378Y-82771873D01*
X131781850Y-82823005D01*
X131781470Y-82942931D01*
X131798752Y-83707291D01*
X131838916Y-85743540D01*
X131854289Y-86335072D01*
X131870725Y-86707224D01*
X131891378Y-86908757D01*
X131904271Y-86960778D01*
X131919400Y-86988429D01*
X131937159Y-86997806D01*
X131957943Y-86995004D01*
X132010159Y-86977240D01*
X132052241Y-86968036D01*
X132100047Y-86958275D01*
X132212642Y-86937119D01*
X132347565Y-86913839D01*
X132504439Y-86888502D01*
X132638068Y-86864597D01*
X132859805Y-86821830D01*
X133138811Y-86766256D01*
X133444250Y-86703933D01*
X133926105Y-86605219D01*
X134089369Y-86573165D01*
X134218377Y-86549627D01*
X134326266Y-86532341D01*
X134426176Y-86519044D01*
X134654613Y-86495356D01*
X134886695Y-86475826D01*
X135091032Y-86464993D01*
X135184249Y-86462956D01*
X135272274Y-86463234D01*
X135355686Y-86465875D01*
X135435068Y-86470924D01*
X135511000Y-86478430D01*
X135584064Y-86488440D01*
X135654840Y-86500999D01*
X135723909Y-86516156D01*
X135791853Y-86533957D01*
X135859253Y-86554449D01*
X135926689Y-86577679D01*
X135994743Y-86603694D01*
X136053266Y-86628436D01*
X136109685Y-86654997D01*
X136163998Y-86683369D01*
X136216200Y-86713544D01*
X136266286Y-86745512D01*
X136314253Y-86779265D01*
X136360097Y-86814796D01*
X136403813Y-86852094D01*
X136445397Y-86891153D01*
X136484846Y-86931963D01*
X136522154Y-86974516D01*
X136557318Y-87018803D01*
X136590334Y-87064817D01*
X136621197Y-87112548D01*
X136649904Y-87161988D01*
X136676450Y-87213128D01*
X136700831Y-87265961D01*
X136723042Y-87320478D01*
X136743081Y-87376670D01*
X136760942Y-87434528D01*
X136776622Y-87494045D01*
X136790115Y-87555211D01*
X136801419Y-87618019D01*
X136810529Y-87682460D01*
X136817441Y-87748525D01*
X136822151Y-87816206D01*
X136824654Y-87885495D01*
X136824947Y-87956382D01*
X136823025Y-88028860D01*
X136818884Y-88102920D01*
X136812519Y-88178554D01*
X136803928Y-88255752D01*
X136803924Y-88255759D01*
X136790335Y-88338606D01*
X136770404Y-88420006D01*
X136744186Y-88499892D01*
X136711739Y-88578198D01*
X136673119Y-88654859D01*
X136628380Y-88729807D01*
X136577581Y-88802977D01*
X136520776Y-88874303D01*
X136458022Y-88943719D01*
X136389376Y-89011158D01*
X136314892Y-89076555D01*
X136234629Y-89139843D01*
X136148641Y-89200956D01*
X136056985Y-89259829D01*
X135959716Y-89316394D01*
X135856892Y-89370586D01*
X135744864Y-89420850D01*
X135619118Y-89466113D01*
X135479737Y-89506370D01*
X135326802Y-89541617D01*
X135160397Y-89571848D01*
X134980602Y-89597059D01*
X134787500Y-89617245D01*
X134581173Y-89632401D01*
X134361704Y-89642522D01*
X134129173Y-89647603D01*
X133883663Y-89647640D01*
X133625257Y-89642627D01*
X133354036Y-89632560D01*
X133070082Y-89617433D01*
X132773477Y-89597243D01*
X132464304Y-89571983D01*
X132313533Y-89558963D01*
X132197760Y-89549975D01*
X132112050Y-89545211D01*
X132078927Y-89544472D01*
X132051469Y-89544860D01*
X132029060Y-89546400D01*
X132011082Y-89549115D01*
X131996920Y-89553028D01*
X131985955Y-89558165D01*
X131977571Y-89564547D01*
X131971152Y-89572201D01*
X131966080Y-89581149D01*
X131961739Y-89591414D01*
X131957800Y-89659560D01*
X131956641Y-89835124D01*
X131962586Y-90502620D01*
X131979418Y-91582137D01*
X132006983Y-93061911D01*
X132012907Y-93377386D01*
X132019085Y-93609297D01*
X132023488Y-93698028D01*
X132029416Y-93770803D01*
X132037355Y-93829267D01*
X132047794Y-93875063D01*
X132061219Y-93909839D01*
X132069204Y-93923607D01*
X132078118Y-93935237D01*
X132088021Y-93944934D01*
X132098976Y-93952904D01*
X132124283Y-93964484D01*
X132154524Y-93971621D01*
X132190186Y-93975962D01*
X132279725Y-93982832D01*
X132615066Y-94014206D01*
X132756110Y-94029712D01*
X132881283Y-94045738D01*
X132991998Y-94062769D01*
X133089664Y-94081286D01*
X133175693Y-94101771D01*
X133251497Y-94124707D01*
X133318486Y-94150575D01*
X133378070Y-94179859D01*
X133431662Y-94213041D01*
X133480672Y-94250602D01*
X133526512Y-94293026D01*
X133570592Y-94340793D01*
X133614323Y-94394388D01*
X133659117Y-94454291D01*
X133668508Y-94467959D01*
X133676822Y-94481546D01*
X133684060Y-94495051D01*
X133690223Y-94508470D01*
X133695312Y-94521802D01*
X133699328Y-94535045D01*
X133702273Y-94548198D01*
X133704147Y-94561258D01*
X133704952Y-94574223D01*
X133704689Y-94587091D01*
X133703358Y-94599861D01*
X133700962Y-94612531D01*
X133697501Y-94625098D01*
X133692976Y-94637561D01*
X133687389Y-94649918D01*
X133680741Y-94662166D01*
X133673032Y-94674304D01*
X133664264Y-94686331D01*
X133654438Y-94698243D01*
X133643555Y-94710040D01*
X133631617Y-94721718D01*
X133618624Y-94733277D01*
X133604578Y-94744715D01*
X133589479Y-94756028D01*
X133573329Y-94767216D01*
X133556129Y-94778277D01*
X133537881Y-94789208D01*
X133518584Y-94800008D01*
X133498241Y-94810675D01*
X133476853Y-94821207D01*
X133430944Y-94841856D01*
X133396951Y-94856756D01*
X133368199Y-94870514D01*
X133355828Y-94877012D01*
X133344815Y-94883283D01*
X133335177Y-94889345D01*
X133326929Y-94895217D01*
X133320088Y-94900919D01*
X133314669Y-94906470D01*
X133310689Y-94911889D01*
X133308164Y-94917195D01*
X133307109Y-94922407D01*
X133307542Y-94927545D01*
X133309477Y-94932627D01*
X133312932Y-94937674D01*
X133317921Y-94942703D01*
X133324462Y-94947734D01*
X133332569Y-94952787D01*
X133342260Y-94957881D01*
X133353551Y-94963034D01*
X133366457Y-94968266D01*
X133380994Y-94973597D01*
X133397179Y-94979044D01*
X133434557Y-94990368D01*
X133478717Y-95002391D01*
X133529789Y-95015267D01*
X133587901Y-95029148D01*
X133634240Y-95041423D01*
X133677456Y-95055744D01*
X133717553Y-95071998D01*
X133754538Y-95090070D01*
X133788416Y-95109845D01*
X133819192Y-95131207D01*
X133846872Y-95154042D01*
X133871461Y-95178235D01*
X133892965Y-95203671D01*
X133911389Y-95230236D01*
X133926738Y-95257814D01*
X133939017Y-95286289D01*
X133948233Y-95315549D01*
X133954391Y-95345477D01*
X133957495Y-95375958D01*
X133957552Y-95406879D01*
X133954567Y-95438122D01*
X133948545Y-95469575D01*
X133939492Y-95501122D01*
X133927413Y-95532648D01*
X133912313Y-95564038D01*
X133894199Y-95595177D01*
X133873074Y-95625951D01*
X133848945Y-95656244D01*
X133821818Y-95685941D01*
X133791697Y-95714928D01*
X133758588Y-95743090D01*
X133722496Y-95770311D01*
X133683427Y-95796477D01*
X133641387Y-95821473D01*
X133596380Y-95845185D01*
X133548412Y-95867496D01*
X133466054Y-95904322D01*
X133433225Y-95919975D01*
X133405871Y-95934014D01*
X133383924Y-95946611D01*
X133367316Y-95957935D01*
X133360992Y-95963173D01*
X133355978Y-95968158D01*
X133352264Y-95972909D01*
X133349843Y-95977450D01*
X133348704Y-95981799D01*
X133348841Y-95985981D01*
X133350244Y-95990014D01*
X133352905Y-95993922D01*
X133356816Y-95997724D01*
X133361967Y-96001443D01*
X133368350Y-96005100D01*
X133375957Y-96008716D01*
X133394809Y-96015910D01*
X133418453Y-96023196D01*
X133446821Y-96030744D01*
X133479845Y-96038726D01*
X133532951Y-96053289D01*
X133582039Y-96071069D01*
X133627139Y-96091846D01*
X133668284Y-96115400D01*
X133705504Y-96141508D01*
X133738832Y-96169952D01*
X133768298Y-96200510D01*
X133793934Y-96232961D01*
X133815772Y-96267086D01*
X133833843Y-96302663D01*
X133848179Y-96339472D01*
X133858810Y-96377292D01*
X133865768Y-96415902D01*
X133869085Y-96455083D01*
X133868793Y-96494613D01*
X133864921Y-96534271D01*
X133857503Y-96573838D01*
X133846570Y-96613092D01*
X133832152Y-96651813D01*
X133814281Y-96689780D01*
X133792990Y-96726773D01*
X133768308Y-96762572D01*
X133740269Y-96796954D01*
X133708902Y-96829700D01*
X133674240Y-96860590D01*
X133636313Y-96889402D01*
X133595154Y-96915916D01*
X133550794Y-96939911D01*
X133503265Y-96961167D01*
X133452597Y-96979463D01*
X133398822Y-96994579D01*
X133341971Y-97006293D01*
X133267542Y-97018848D01*
X133238204Y-97024218D01*
X133214009Y-97029467D01*
X133194877Y-97034958D01*
X133187185Y-97037906D01*
X133180727Y-97041051D01*
X133175495Y-97044438D01*
X133171478Y-97048111D01*
X133168666Y-97052116D01*
X133167049Y-97056499D01*
X133166617Y-97061304D01*
X133167360Y-97066578D01*
X133169267Y-97072365D01*
X133172328Y-97078710D01*
X133176534Y-97085660D01*
X133181875Y-97093258D01*
X133195918Y-97110584D01*
X133214377Y-97131051D01*
X133237171Y-97155021D01*
X133295441Y-97214920D01*
X133328855Y-97250203D01*
X133358689Y-97283591D01*
X133385011Y-97315306D01*
X133407891Y-97345570D01*
X133427397Y-97374603D01*
X133435906Y-97388728D01*
X133443598Y-97402628D01*
X133450482Y-97416332D01*
X133456564Y-97429866D01*
X133461855Y-97443259D01*
X133466363Y-97456538D01*
X133470097Y-97469731D01*
X133473064Y-97482865D01*
X133475275Y-97495969D01*
X133476737Y-97509070D01*
X133477459Y-97522195D01*
X133477449Y-97535372D01*
X133476717Y-97548630D01*
X133475270Y-97561995D01*
X133473118Y-97575495D01*
X133470269Y-97589158D01*
X133466732Y-97603012D01*
X133462515Y-97617085D01*
X133452076Y-97645995D01*
X133439022Y-97676110D01*
X133430842Y-97692864D01*
X133422208Y-97708890D01*
X133413054Y-97724212D01*
X133403314Y-97738853D01*
X133392922Y-97752836D01*
X133381814Y-97766186D01*
X133369923Y-97778926D01*
X133357183Y-97791080D01*
X133343530Y-97802670D01*
X133328896Y-97813722D01*
X133313217Y-97824258D01*
X133296427Y-97834302D01*
X133278460Y-97843877D01*
X133259250Y-97853008D01*
X133238732Y-97861717D01*
X133216840Y-97870029D01*
X133193508Y-97877967D01*
X133168670Y-97885555D01*
X133142262Y-97892816D01*
X133114217Y-97899774D01*
X133084469Y-97906452D01*
X133052953Y-97912875D01*
X133019604Y-97919065D01*
X132984354Y-97925046D01*
X132907894Y-97936477D01*
X132823047Y-97947357D01*
X132729288Y-97957873D01*
X132626090Y-97968216D01*
X132486247Y-97981311D01*
X132430399Y-97987529D01*
X132382946Y-97994694D01*
X132362136Y-97998905D01*
X132343147Y-98003680D01*
X132325886Y-98009130D01*
X132310261Y-98015363D01*
X132296178Y-98022489D01*
X132283547Y-98030617D01*
X132272273Y-98039857D01*
X132262264Y-98050317D01*
X132253428Y-98062108D01*
X132245672Y-98075338D01*
X132238904Y-98090117D01*
X132233030Y-98106554D01*
X132227958Y-98124759D01*
X132223596Y-98144841D01*
X132222215Y-98154007D01*
X132216631Y-98191072D01*
X132211392Y-98246123D01*
X132207140Y-98310869D01*
X132198630Y-98472944D01*
X132191055Y-98589679D01*
X132186633Y-98639347D01*
X132181647Y-98683587D01*
X132175990Y-98722680D01*
X132169557Y-98756905D01*
X132162240Y-98786543D01*
X132153935Y-98811873D01*
X132144533Y-98833175D01*
X132133930Y-98850729D01*
X132122019Y-98864814D01*
X132108693Y-98875711D01*
X132093847Y-98883700D01*
X132077374Y-98889059D01*
X132059168Y-98892070D01*
X132039122Y-98893011D01*
X132027767Y-98892844D01*
X132017023Y-98892305D01*
X132006872Y-98891334D01*
X131997295Y-98889871D01*
X131988273Y-98887858D01*
X131979787Y-98885235D01*
X131971818Y-98881943D01*
X131964349Y-98877923D01*
X131957359Y-98873115D01*
X131950831Y-98867461D01*
X131944745Y-98860900D01*
X131939083Y-98853374D01*
X131933826Y-98844823D01*
X131928956Y-98835189D01*
X131924453Y-98824411D01*
X131920299Y-98812431D01*
X131916475Y-98799189D01*
X131912962Y-98784627D01*
X131909742Y-98768684D01*
X131906795Y-98751302D01*
X131904104Y-98732421D01*
X131901649Y-98711982D01*
X131899412Y-98689925D01*
X131897374Y-98666193D01*
X131893819Y-98613461D01*
X131890834Y-98553312D01*
X131888270Y-98485271D01*
X131885977Y-98408866D01*
X131882158Y-98269732D01*
X131877956Y-98166108D01*
X131875035Y-98125668D01*
X131871207Y-98091771D01*
X131866202Y-98063641D01*
X131859749Y-98040499D01*
X131851577Y-98021567D01*
X131846763Y-98013437D01*
X131841417Y-98006067D01*
X131828998Y-97993222D01*
X131814049Y-97982254D01*
X131796301Y-97972385D01*
X131775483Y-97962837D01*
X131723554Y-97941593D01*
X131693979Y-97929040D01*
X131680448Y-97922910D01*
X131667703Y-97916843D01*
X131655702Y-97910814D01*
X131644405Y-97904799D01*
X131633773Y-97898772D01*
X131623766Y-97892708D01*
X131614343Y-97886581D01*
X131605464Y-97880368D01*
X131597090Y-97874042D01*
X131589180Y-97867578D01*
X131581694Y-97860952D01*
X131574592Y-97854138D01*
X131567834Y-97847111D01*
X131561380Y-97839846D01*
X131491604Y-97751353D01*
X131426400Y-97654988D01*
X131365763Y-97551371D01*
X131309691Y-97441122D01*
X131211228Y-97203208D01*
X131130987Y-96946204D01*
X131068941Y-96675068D01*
X131025065Y-96394758D01*
X130999334Y-96110232D01*
X130992116Y-95841111D01*
X131265530Y-95841111D01*
X131266186Y-96017714D01*
X131276288Y-96194483D01*
X131296189Y-96369503D01*
X131326241Y-96540859D01*
X131345185Y-96624565D01*
X131366798Y-96706636D01*
X131411423Y-96860706D01*
X131453800Y-96997914D01*
X131494858Y-97119181D01*
X131535523Y-97225430D01*
X131576724Y-97317582D01*
X131619387Y-97396558D01*
X131641557Y-97431394D01*
X131664441Y-97463282D01*
X131688154Y-97492337D01*
X131712812Y-97518674D01*
X131738532Y-97542409D01*
X131765429Y-97563656D01*
X131793619Y-97582532D01*
X131823218Y-97599151D01*
X131854342Y-97613628D01*
X131887108Y-97626080D01*
X131921630Y-97636620D01*
X131958024Y-97645364D01*
X132036896Y-97657927D01*
X132124651Y-97664689D01*
X132222215Y-97666572D01*
X132330517Y-97664499D01*
X132477086Y-97658037D01*
X132609832Y-97648823D01*
X132727738Y-97637025D01*
X132829786Y-97622809D01*
X132914955Y-97606343D01*
X132950893Y-97597318D01*
X132982229Y-97587793D01*
X133008837Y-97577788D01*
X133030589Y-97567326D01*
X133047357Y-97556426D01*
X133059015Y-97545109D01*
X133067620Y-97533032D01*
X133074409Y-97521024D01*
X133079411Y-97509102D01*
X133082658Y-97497284D01*
X133084179Y-97485587D01*
X133084004Y-97474027D01*
X133082164Y-97462621D01*
X133078687Y-97451386D01*
X133073605Y-97440340D01*
X133066948Y-97429498D01*
X133058745Y-97418879D01*
X133049027Y-97408498D01*
X133037823Y-97398373D01*
X133025164Y-97388521D01*
X133011080Y-97378959D01*
X132995601Y-97369703D01*
X132978757Y-97360771D01*
X132960579Y-97352179D01*
X132941095Y-97343944D01*
X132920336Y-97336084D01*
X132898333Y-97328615D01*
X132875116Y-97321554D01*
X132850713Y-97314918D01*
X132825157Y-97308724D01*
X132798476Y-97302989D01*
X132770700Y-97297730D01*
X132741861Y-97292964D01*
X132711987Y-97288707D01*
X132681110Y-97284977D01*
X132649258Y-97281791D01*
X132616462Y-97279165D01*
X132582753Y-97277116D01*
X132508342Y-97271478D01*
X132436598Y-97262521D01*
X132368037Y-97250532D01*
X132303170Y-97235800D01*
X132242514Y-97218614D01*
X132186582Y-97199263D01*
X132135887Y-97178034D01*
X132090945Y-97155217D01*
X132052269Y-97131100D01*
X132020372Y-97105971D01*
X132007127Y-97093117D01*
X131995770Y-97080119D01*
X131986365Y-97067012D01*
X131978976Y-97053832D01*
X131973668Y-97040616D01*
X131970504Y-97027400D01*
X131969550Y-97014219D01*
X131970869Y-97001110D01*
X131974526Y-96988109D01*
X131980584Y-96975252D01*
X131989109Y-96962574D01*
X132000163Y-96950113D01*
X132021178Y-96929880D01*
X132042380Y-96911079D01*
X132063910Y-96893649D01*
X132085912Y-96877530D01*
X132108526Y-96862662D01*
X132131894Y-96848985D01*
X132156158Y-96836439D01*
X132181460Y-96824964D01*
X132207941Y-96814500D01*
X132235744Y-96804987D01*
X132265009Y-96796364D01*
X132295879Y-96788573D01*
X132328495Y-96781551D01*
X132362999Y-96775241D01*
X132399533Y-96769581D01*
X132438238Y-96764512D01*
X132798387Y-96721173D01*
X132889171Y-96709151D01*
X132973189Y-96695831D01*
X133050494Y-96681331D01*
X133121136Y-96665769D01*
X133185168Y-96649263D01*
X133242642Y-96631931D01*
X133293608Y-96613890D01*
X133338119Y-96595259D01*
X133376226Y-96576156D01*
X133407981Y-96556699D01*
X133433435Y-96537005D01*
X133452641Y-96517192D01*
X133465650Y-96497379D01*
X133472514Y-96477684D01*
X133473284Y-96458224D01*
X133468011Y-96439117D01*
X133456749Y-96420481D01*
X133439548Y-96402435D01*
X133416460Y-96385096D01*
X133387536Y-96368582D01*
X133352829Y-96353012D01*
X133312390Y-96338502D01*
X133266271Y-96325172D01*
X133214523Y-96313138D01*
X133157199Y-96302520D01*
X133094349Y-96293434D01*
X133026025Y-96285999D01*
X132952280Y-96280333D01*
X132873164Y-96276554D01*
X132788730Y-96274779D01*
X132699029Y-96275127D01*
X132604113Y-96277716D01*
X132554577Y-96279299D01*
X132509700Y-96279980D01*
X132469182Y-96279654D01*
X132432725Y-96278216D01*
X132400030Y-96275560D01*
X132370799Y-96271580D01*
X132344734Y-96266169D01*
X132321536Y-96259224D01*
X132300908Y-96250637D01*
X132282550Y-96240302D01*
X132266164Y-96228115D01*
X132251452Y-96213970D01*
X132238115Y-96197760D01*
X132225856Y-96179380D01*
X132214375Y-96158725D01*
X132203375Y-96135687D01*
X132196130Y-96118403D01*
X132190113Y-96101642D01*
X132185336Y-96085395D01*
X132181810Y-96069652D01*
X132179549Y-96054406D01*
X132178562Y-96039645D01*
X132178864Y-96025362D01*
X132180464Y-96011546D01*
X132183376Y-95998189D01*
X132187612Y-95985280D01*
X132193182Y-95972812D01*
X132200100Y-95960774D01*
X132208377Y-95949157D01*
X132218024Y-95937953D01*
X132229055Y-95927151D01*
X132241481Y-95916742D01*
X132255313Y-95906718D01*
X132270565Y-95897068D01*
X132287247Y-95887784D01*
X132305371Y-95878856D01*
X132324950Y-95870275D01*
X132345996Y-95862031D01*
X132368520Y-95854117D01*
X132392535Y-95846521D01*
X132418052Y-95839235D01*
X132445083Y-95832249D01*
X132473640Y-95825555D01*
X132503735Y-95819143D01*
X132568588Y-95807127D01*
X132639736Y-95796127D01*
X132762471Y-95777570D01*
X132876981Y-95757824D01*
X132983106Y-95736961D01*
X133080686Y-95715053D01*
X133169561Y-95692173D01*
X133249572Y-95668392D01*
X133320557Y-95643782D01*
X133382358Y-95618416D01*
X133434813Y-95592365D01*
X133477763Y-95565701D01*
X133511049Y-95538497D01*
X133534509Y-95510825D01*
X133542504Y-95496835D01*
X133547983Y-95482755D01*
X133550926Y-95468595D01*
X133551313Y-95454362D01*
X133549123Y-95440066D01*
X133544337Y-95425715D01*
X133536935Y-95411320D01*
X133526896Y-95396889D01*
X133523061Y-95392514D01*
X133518110Y-95387691D01*
X133512118Y-95382468D01*
X133505162Y-95376891D01*
X133497316Y-95371009D01*
X133488656Y-95364870D01*
X133479256Y-95358521D01*
X133469192Y-95352011D01*
X133458540Y-95345386D01*
X133447375Y-95338694D01*
X133435772Y-95331984D01*
X133423806Y-95325303D01*
X133411552Y-95318699D01*
X133399087Y-95312220D01*
X133386484Y-95305912D01*
X133373821Y-95299825D01*
X133252012Y-95242511D01*
X132931622Y-95248657D01*
X132710413Y-95251663D01*
X132537005Y-95250256D01*
X132466307Y-95247455D01*
X132405257Y-95243019D01*
X132353087Y-95236771D01*
X132309030Y-95228534D01*
X132272318Y-95218131D01*
X132242184Y-95205385D01*
X132217859Y-95190118D01*
X132198577Y-95172154D01*
X132183570Y-95151315D01*
X132172070Y-95127424D01*
X132163310Y-95100304D01*
X132156523Y-95069778D01*
X132154125Y-95054653D01*
X132152716Y-95040033D01*
X132152317Y-95025904D01*
X132152948Y-95012257D01*
X132154630Y-94999078D01*
X132157383Y-94986358D01*
X132161228Y-94974083D01*
X132166185Y-94962242D01*
X132172274Y-94950824D01*
X132179517Y-94939818D01*
X132187934Y-94929211D01*
X132197544Y-94918992D01*
X132208370Y-94909149D01*
X132220431Y-94899671D01*
X132233748Y-94890546D01*
X132248341Y-94881763D01*
X132264231Y-94873309D01*
X132281439Y-94865174D01*
X132299984Y-94857346D01*
X132319888Y-94849812D01*
X132341171Y-94842563D01*
X132363854Y-94835585D01*
X132387956Y-94828867D01*
X132413499Y-94822399D01*
X132440503Y-94816167D01*
X132468988Y-94810161D01*
X132530486Y-94798778D01*
X132598156Y-94788159D01*
X132672163Y-94778209D01*
X132747233Y-94767713D01*
X132816763Y-94755727D01*
X132880590Y-94742355D01*
X132938550Y-94727704D01*
X132990479Y-94711881D01*
X133036212Y-94694990D01*
X133075587Y-94677139D01*
X133108438Y-94658432D01*
X133134602Y-94638977D01*
X133145125Y-94629002D01*
X133153915Y-94618880D01*
X133160951Y-94608623D01*
X133166213Y-94598245D01*
X133169680Y-94587760D01*
X133171332Y-94577180D01*
X133171148Y-94566519D01*
X133169108Y-94555791D01*
X133165191Y-94545007D01*
X133159377Y-94534182D01*
X133151645Y-94523329D01*
X133141974Y-94512462D01*
X133130345Y-94501592D01*
X133116737Y-94490734D01*
X133100633Y-94480773D01*
X133080010Y-94471315D01*
X133026348Y-94453939D01*
X132958043Y-94438663D01*
X132877390Y-94425545D01*
X132786680Y-94414643D01*
X132688207Y-94406013D01*
X132584263Y-94399713D01*
X132477142Y-94395800D01*
X132369135Y-94394331D01*
X132262537Y-94395365D01*
X132159640Y-94398958D01*
X132062737Y-94405168D01*
X131974121Y-94414051D01*
X131896084Y-94425666D01*
X131830920Y-94440070D01*
X131780921Y-94457320D01*
X131740258Y-94478719D01*
X131700942Y-94505666D01*
X131663018Y-94537923D01*
X131626530Y-94575249D01*
X131591522Y-94617406D01*
X131558038Y-94664154D01*
X131526121Y-94715253D01*
X131495818Y-94770465D01*
X131467170Y-94829549D01*
X131440223Y-94892266D01*
X131391606Y-95027643D01*
X131350319Y-95174679D01*
X131316716Y-95331460D01*
X131291148Y-95496069D01*
X131273969Y-95666591D01*
X131265530Y-95841111D01*
X130992116Y-95841111D01*
X130991723Y-95826450D01*
X131002205Y-95548367D01*
X131030757Y-95280945D01*
X131077352Y-95029139D01*
X131141966Y-94797909D01*
X131181021Y-94691559D01*
X131224572Y-94592213D01*
X131272614Y-94500490D01*
X131325145Y-94417009D01*
X131382162Y-94342391D01*
X131443661Y-94277255D01*
X131509639Y-94222222D01*
X131580094Y-94177910D01*
X131594024Y-94170315D01*
X131607143Y-94162764D01*
X131619464Y-94155176D01*
X131631004Y-94147473D01*
X131641779Y-94139573D01*
X131651803Y-94131396D01*
X131661092Y-94122863D01*
X131669663Y-94113892D01*
X131677529Y-94104405D01*
X131684708Y-94094320D01*
X131691214Y-94083558D01*
X131697063Y-94072037D01*
X131702271Y-94059679D01*
X131706853Y-94046403D01*
X131710824Y-94032129D01*
X131714200Y-94016776D01*
X131716998Y-94000264D01*
X131719231Y-93982514D01*
X131720916Y-93963444D01*
X131722068Y-93942975D01*
X131722703Y-93921027D01*
X131722837Y-93897519D01*
X131722484Y-93872372D01*
X131721661Y-93845504D01*
X131720383Y-93816836D01*
X131718665Y-93786288D01*
X131713973Y-93719230D01*
X131707710Y-93643688D01*
X131699999Y-93559021D01*
X131687272Y-93427889D01*
X131681330Y-93374722D01*
X131675215Y-93329028D01*
X131668588Y-93290212D01*
X131661108Y-93257677D01*
X131652437Y-93230830D01*
X131647548Y-93219354D01*
X131642233Y-93209075D01*
X131636450Y-93199921D01*
X131630157Y-93191817D01*
X131623311Y-93184688D01*
X131615870Y-93178461D01*
X131607791Y-93173059D01*
X131599031Y-93168410D01*
X131589548Y-93164439D01*
X131581366Y-93161750D01*
X131579300Y-93161071D01*
X131556338Y-93155849D01*
X131529804Y-93152147D01*
X131464663Y-93146925D01*
X131397672Y-93141931D01*
X131366680Y-93139064D01*
X131336199Y-93135726D01*
X131305361Y-93131749D01*
X131273298Y-93126964D01*
X131239142Y-93121204D01*
X131202025Y-93114300D01*
X131115436Y-93096389D01*
X131006587Y-93071886D01*
X130868533Y-93039446D01*
X130694329Y-92997723D01*
X130229863Y-92885992D01*
X129687626Y-92671915D01*
X129497132Y-92594514D01*
X129316668Y-92516611D01*
X129145875Y-92437955D01*
X128984395Y-92358293D01*
X128831870Y-92277374D01*
X128687942Y-92194944D01*
X128552252Y-92110753D01*
X128424442Y-92024547D01*
X128304155Y-91936074D01*
X128191032Y-91845083D01*
X128084715Y-91751321D01*
X127984846Y-91654537D01*
X127891067Y-91554477D01*
X127803019Y-91450890D01*
X127720345Y-91343524D01*
X127642686Y-91232126D01*
X127554754Y-91095604D01*
X127472657Y-90959873D01*
X127396246Y-90824491D01*
X127325371Y-90689016D01*
X127259883Y-90553005D01*
X127199632Y-90416017D01*
X127144470Y-90277610D01*
X127094245Y-90137341D01*
X127048810Y-89994769D01*
X127008014Y-89849451D01*
X126971707Y-89700946D01*
X126939741Y-89548811D01*
X126911966Y-89392605D01*
X126888232Y-89231884D01*
X126868390Y-89066208D01*
X126852290Y-88895134D01*
X126837578Y-88699144D01*
X126828400Y-88528942D01*
X126827448Y-88485005D01*
X127141393Y-88485005D01*
X127143482Y-88689432D01*
X127153737Y-88892822D01*
X127172176Y-89093677D01*
X127198811Y-89290500D01*
X127233657Y-89481794D01*
X127276730Y-89666060D01*
X127328044Y-89841803D01*
X127387612Y-90007523D01*
X127425940Y-90100122D01*
X127467969Y-90194681D01*
X127513286Y-90290527D01*
X127561476Y-90386990D01*
X127664824Y-90579077D01*
X127774703Y-90765571D01*
X127831058Y-90855041D01*
X127887804Y-90941097D01*
X127944529Y-91023069D01*
X128000818Y-91100284D01*
X128056258Y-91172071D01*
X128110435Y-91237758D01*
X128162935Y-91296674D01*
X128213346Y-91348146D01*
X128275911Y-91404434D01*
X128369599Y-91483657D01*
X128484493Y-91577918D01*
X128610677Y-91679321D01*
X128738235Y-91779969D01*
X128857249Y-91871966D01*
X128957803Y-91947416D01*
X129029981Y-91998422D01*
X129107581Y-92045472D01*
X129200882Y-92094783D01*
X129308156Y-92145790D01*
X129427676Y-92197926D01*
X129557716Y-92250626D01*
X129696549Y-92303324D01*
X129993683Y-92406449D01*
X130305263Y-92502776D01*
X130617472Y-92587776D01*
X130769495Y-92624614D01*
X130916495Y-92656922D01*
X131056744Y-92684136D01*
X131188515Y-92705689D01*
X131382579Y-92734048D01*
X131460204Y-92744372D01*
X131526151Y-92751380D01*
X131581366Y-92754513D01*
X131605244Y-92754453D01*
X131626794Y-92753214D01*
X131646134Y-92750728D01*
X131663383Y-92746924D01*
X131678657Y-92741733D01*
X131692076Y-92735084D01*
X131703758Y-92726908D01*
X131713821Y-92717136D01*
X131722383Y-92705696D01*
X131729562Y-92692521D01*
X131735477Y-92677538D01*
X131740246Y-92660680D01*
X131743987Y-92641876D01*
X131746819Y-92621055D01*
X131750225Y-92573088D01*
X131751411Y-92516220D01*
X131750906Y-92373546D01*
X131738960Y-91794537D01*
X131712963Y-90901750D01*
X131684821Y-90073524D01*
X131666440Y-89688202D01*
X131662160Y-89672378D01*
X131659870Y-89665178D01*
X131657368Y-89658428D01*
X131654572Y-89652111D01*
X131651399Y-89646209D01*
X131647767Y-89640703D01*
X131643592Y-89635576D01*
X131638793Y-89630809D01*
X131633285Y-89626384D01*
X131626987Y-89622284D01*
X131619815Y-89618491D01*
X131611686Y-89614986D01*
X131602519Y-89611752D01*
X131592229Y-89608770D01*
X131580735Y-89606022D01*
X131567953Y-89603491D01*
X131553800Y-89601159D01*
X131538195Y-89599007D01*
X131521053Y-89597017D01*
X131502293Y-89595172D01*
X131481831Y-89593454D01*
X131459584Y-89591844D01*
X131435471Y-89590324D01*
X131381310Y-89587484D01*
X131318687Y-89584789D01*
X131246939Y-89582097D01*
X131165403Y-89579262D01*
X130992624Y-89572727D01*
X130858843Y-89565454D01*
X130804893Y-89561118D01*
X130758675Y-89556089D01*
X130719514Y-89550199D01*
X130686738Y-89543279D01*
X130659673Y-89535159D01*
X130637648Y-89525671D01*
X130619988Y-89514645D01*
X130606022Y-89501912D01*
X130595076Y-89487303D01*
X130586477Y-89470650D01*
X130579552Y-89451782D01*
X130573629Y-89430530D01*
X130570046Y-89411093D01*
X130569404Y-89392723D01*
X130571823Y-89375410D01*
X130577425Y-89359147D01*
X130581456Y-89351407D01*
X130586329Y-89343925D01*
X130598657Y-89329736D01*
X130614529Y-89316572D01*
X130634065Y-89304424D01*
X130657388Y-89293284D01*
X130684616Y-89283143D01*
X130715871Y-89273993D01*
X130751275Y-89265827D01*
X130790946Y-89258634D01*
X130835006Y-89252408D01*
X130883576Y-89247139D01*
X130936776Y-89242820D01*
X130994728Y-89239441D01*
X131057551Y-89236996D01*
X131125366Y-89235474D01*
X131198295Y-89234868D01*
X131359974Y-89236371D01*
X131543554Y-89241438D01*
X131750000Y-89250000D01*
X131980278Y-89261993D01*
X132235353Y-89277348D01*
X132516191Y-89295998D01*
X132833334Y-89315774D01*
X133152538Y-89331788D01*
X133465016Y-89343862D01*
X133761983Y-89351816D01*
X134034651Y-89355471D01*
X134274236Y-89354649D01*
X134471951Y-89349169D01*
X134619010Y-89338854D01*
X134787607Y-89320156D01*
X134930703Y-89302930D01*
X135052830Y-89286399D01*
X135158522Y-89269791D01*
X135252311Y-89252332D01*
X135338728Y-89233246D01*
X135422307Y-89211761D01*
X135507579Y-89187102D01*
X135575683Y-89165073D01*
X135641601Y-89140866D01*
X135705304Y-89114527D01*
X135766764Y-89086103D01*
X135825954Y-89055637D01*
X135882846Y-89023176D01*
X135937411Y-88988765D01*
X135989622Y-88952449D01*
X136039451Y-88914274D01*
X136086871Y-88874285D01*
X136131853Y-88832528D01*
X136174370Y-88789048D01*
X136214393Y-88743890D01*
X136251895Y-88697100D01*
X136286848Y-88648723D01*
X136319225Y-88598804D01*
X136348997Y-88547390D01*
X136376136Y-88494525D01*
X136400615Y-88440255D01*
X136422406Y-88384625D01*
X136441481Y-88327680D01*
X136457811Y-88269467D01*
X136471371Y-88210030D01*
X136482130Y-88149414D01*
X136490062Y-88087666D01*
X136495139Y-88024831D01*
X136497333Y-87960953D01*
X136496616Y-87896079D01*
X136492960Y-87830254D01*
X136486338Y-87763523D01*
X136476721Y-87695932D01*
X136464082Y-87627525D01*
X136464082Y-87627524D01*
X136444043Y-87537598D01*
X136422234Y-87455562D01*
X136398040Y-87380848D01*
X136384856Y-87346059D01*
X136370846Y-87312888D01*
X136355931Y-87281264D01*
X136340036Y-87251115D01*
X136323084Y-87222372D01*
X136304996Y-87194961D01*
X136285698Y-87168814D01*
X136265111Y-87143858D01*
X136243158Y-87120024D01*
X136219764Y-87097238D01*
X136194851Y-87075432D01*
X136168341Y-87054534D01*
X136140159Y-87034472D01*
X136110227Y-87015176D01*
X136078469Y-86996576D01*
X136044807Y-86978599D01*
X136009165Y-86961175D01*
X135971465Y-86944233D01*
X135889586Y-86911511D01*
X135798556Y-86879865D01*
X135697758Y-86848727D01*
X135586578Y-86817530D01*
X135510000Y-86800543D01*
X135423230Y-86788947D01*
X135323305Y-86783195D01*
X135207262Y-86783741D01*
X135072140Y-86791039D01*
X134914974Y-86805541D01*
X134732803Y-86827703D01*
X134522663Y-86857977D01*
X134281594Y-86896818D01*
X134006631Y-86944679D01*
X133694812Y-87002015D01*
X133343174Y-87069278D01*
X132508593Y-87235403D01*
X131479187Y-87446684D01*
X131177130Y-87508596D01*
X130946515Y-87553233D01*
X130777734Y-87580862D01*
X130713530Y-87588383D01*
X130661182Y-87591752D01*
X130619490Y-87591004D01*
X130587253Y-87586170D01*
X130563269Y-87577286D01*
X130546339Y-87564384D01*
X130535262Y-87547498D01*
X130528836Y-87526662D01*
X130525861Y-87501908D01*
X130525136Y-87473270D01*
X130525354Y-87459895D01*
X130526044Y-87447127D01*
X130527258Y-87434939D01*
X130529049Y-87423303D01*
X130531470Y-87412192D01*
X130534574Y-87401577D01*
X130538413Y-87391431D01*
X130543039Y-87381726D01*
X130548506Y-87372435D01*
X130554866Y-87363530D01*
X130562173Y-87354983D01*
X130570478Y-87346766D01*
X130579834Y-87338852D01*
X130590295Y-87331213D01*
X130601912Y-87323821D01*
X130614739Y-87316649D01*
X130628828Y-87309668D01*
X130644232Y-87302852D01*
X130661004Y-87296172D01*
X130679196Y-87289601D01*
X130698861Y-87283111D01*
X130720051Y-87276674D01*
X130742820Y-87270262D01*
X130767221Y-87263849D01*
X130821126Y-87250904D01*
X130882188Y-87237619D01*
X130950829Y-87223770D01*
X131027470Y-87209137D01*
X131183051Y-87178603D01*
X131248411Y-87164330D01*
X131306092Y-87150394D01*
X131356547Y-87136552D01*
X131400230Y-87122558D01*
X131437597Y-87108169D01*
X131469102Y-87093141D01*
X131495199Y-87077230D01*
X131516344Y-87060191D01*
X131532990Y-87041780D01*
X131545592Y-87021753D01*
X131554605Y-86999866D01*
X131560484Y-86975875D01*
X131563682Y-86949535D01*
X131564654Y-86920603D01*
X131502289Y-84063181D01*
X131499603Y-83990663D01*
X131497627Y-83962166D01*
X131496054Y-83949854D01*
X131493927Y-83938832D01*
X131491125Y-83929099D01*
X131487526Y-83920653D01*
X131483008Y-83913494D01*
X131477447Y-83907621D01*
X131470723Y-83903032D01*
X131462713Y-83899727D01*
X131453295Y-83897704D01*
X131442347Y-83896963D01*
X131429747Y-83897502D01*
X131415373Y-83899320D01*
X131399102Y-83902416D01*
X131380813Y-83906790D01*
X131360382Y-83912440D01*
X131337690Y-83919364D01*
X131285027Y-83937035D01*
X131221848Y-83959793D01*
X131147175Y-83987631D01*
X130959442Y-84058511D01*
X130549071Y-84216300D01*
X130197167Y-84360013D01*
X129892309Y-84495673D01*
X129753954Y-84562366D01*
X129623077Y-84629305D01*
X129498252Y-84697243D01*
X129378050Y-84766933D01*
X129261044Y-84839128D01*
X129145807Y-84914581D01*
X129030911Y-84994046D01*
X128914928Y-85078274D01*
X128673992Y-85264035D01*
X128564469Y-85353107D01*
X128462118Y-85440516D01*
X128366288Y-85527159D01*
X128276325Y-85613934D01*
X128191578Y-85701736D01*
X128111394Y-85791463D01*
X128035121Y-85884012D01*
X127962106Y-85980279D01*
X127891696Y-86081162D01*
X127823239Y-86187557D01*
X127756084Y-86300361D01*
X127689576Y-86420471D01*
X127623064Y-86548784D01*
X127555895Y-86686197D01*
X127487417Y-86833606D01*
X127416978Y-86991909D01*
X127354249Y-87150734D01*
X127299571Y-87320500D01*
X127252959Y-87499709D01*
X127214427Y-87686865D01*
X127183990Y-87880470D01*
X127161662Y-88079026D01*
X127147458Y-88281037D01*
X127141393Y-88485005D01*
X126827448Y-88485005D01*
X126825101Y-88376684D01*
X126825763Y-88304833D01*
X126828025Y-88234526D01*
X126831930Y-88164784D01*
X126837520Y-88094626D01*
X126853930Y-87949139D01*
X126877600Y-87790222D01*
X126908876Y-87610032D01*
X126930770Y-87501712D01*
X126957567Y-87389671D01*
X126988885Y-87274797D01*
X127024341Y-87157979D01*
X127063553Y-87040105D01*
X127106137Y-86922064D01*
X127151712Y-86804743D01*
X127199894Y-86689032D01*
X127250301Y-86575818D01*
X127302550Y-86465991D01*
X127356260Y-86360438D01*
X127411046Y-86260048D01*
X127466527Y-86165710D01*
X127522320Y-86078311D01*
X127578042Y-85998741D01*
X127633311Y-85927888D01*
X127679524Y-85871345D01*
X127735495Y-85801603D01*
X127794164Y-85727521D01*
X127848471Y-85657953D01*
X127972230Y-85506004D01*
X128104954Y-85358747D01*
X128246954Y-85215992D01*
X128398535Y-85077553D01*
X128560007Y-84943241D01*
X128731677Y-84812868D01*
X128913853Y-84686245D01*
X129106844Y-84563184D01*
X129310956Y-84443497D01*
X129526497Y-84326996D01*
X129753777Y-84213492D01*
X129993102Y-84102798D01*
X130244780Y-83994725D01*
X130509120Y-83889085D01*
X130786429Y-83785689D01*
X131077016Y-83684350D01*
X131221824Y-83636499D01*
X131279155Y-83616981D01*
X131327445Y-83598769D01*
X131348435Y-83589769D01*
X131367448Y-83580636D01*
X131384578Y-83571216D01*
X131399919Y-83561357D01*
X131413565Y-83550905D01*
X131425612Y-83539707D01*
X131436153Y-83527609D01*
X131445283Y-83514460D01*
X131453096Y-83500104D01*
X131459686Y-83484390D01*
X131465148Y-83467165D01*
X131469576Y-83448274D01*
X131473065Y-83427565D01*
X131475709Y-83404884D01*
X131478838Y-83352996D01*
X131479719Y-83291384D01*
X131479106Y-83218823D01*
X131476419Y-83035952D01*
X131474643Y-82867009D01*
X131471641Y-82740839D01*
X131468920Y-82691386D01*
X131464982Y-82649738D01*
X131459523Y-82614932D01*
X131452239Y-82586006D01*
X131442827Y-82561996D01*
X131430983Y-82541941D01*
X131416404Y-82524876D01*
X131398785Y-82509840D01*
X131377824Y-82495870D01*
X131353217Y-82482003D01*
X131291849Y-82450727D01*
X131263156Y-82435686D01*
X131235478Y-82420165D01*
X131208776Y-82404100D01*
X131183014Y-82387425D01*
X131158152Y-82370075D01*
X131134154Y-82351983D01*
X131110982Y-82333085D01*
X131088597Y-82313314D01*
X131066962Y-82292606D01*
X131046040Y-82270895D01*
X131025791Y-82248115D01*
X131006179Y-82224201D01*
X130987166Y-82199087D01*
X130968713Y-82172708D01*
X130950784Y-82144998D01*
X130933339Y-82115892D01*
X130916343Y-82085324D01*
X130899755Y-82053228D01*
X130883539Y-82019540D01*
X130867658Y-81984193D01*
X130852072Y-81947123D01*
X130836745Y-81908262D01*
X130806714Y-81824912D01*
X130777262Y-81733617D01*
X130748087Y-81633854D01*
X130718887Y-81525098D01*
X130689358Y-81406826D01*
X130674810Y-81339216D01*
X130661855Y-81263676D01*
X130650504Y-81180836D01*
X130640772Y-81091328D01*
X130626214Y-80894826D01*
X130618283Y-80679215D01*
X130617564Y-80541533D01*
X130907759Y-80541533D01*
X130909649Y-80677013D01*
X130915336Y-80807142D01*
X130924958Y-80930068D01*
X130938651Y-81043935D01*
X130956552Y-81146889D01*
X130993475Y-81309828D01*
X131033930Y-81457627D01*
X131078396Y-81590658D01*
X131102282Y-81651753D01*
X131127351Y-81709295D01*
X131153661Y-81763331D01*
X131181273Y-81813909D01*
X131210246Y-81861074D01*
X131240641Y-81904873D01*
X131272517Y-81945354D01*
X131305934Y-81982561D01*
X131340951Y-82016542D01*
X131377629Y-82047344D01*
X131416028Y-82075013D01*
X131456206Y-82099596D01*
X131498225Y-82121138D01*
X131542143Y-82139688D01*
X131588021Y-82155291D01*
X131635918Y-82167994D01*
X131685895Y-82177843D01*
X131738010Y-82184886D01*
X131792324Y-82189168D01*
X131848897Y-82190737D01*
X131907789Y-82189638D01*
X131969058Y-82185919D01*
X132098972Y-82170806D01*
X132239116Y-82145769D01*
X132339058Y-82123729D01*
X132432222Y-82100136D01*
X132518392Y-82075138D01*
X132597350Y-82048883D01*
X132668882Y-82021520D01*
X132732769Y-81993197D01*
X132788796Y-81964064D01*
X132836746Y-81934268D01*
X132876402Y-81903958D01*
X132907549Y-81873283D01*
X132919863Y-81857855D01*
X132929969Y-81842392D01*
X132937839Y-81826911D01*
X132943446Y-81811431D01*
X132946763Y-81795972D01*
X132947764Y-81780551D01*
X132946421Y-81765188D01*
X132942706Y-81749900D01*
X132936594Y-81734707D01*
X132928056Y-81719626D01*
X132917066Y-81704677D01*
X132903597Y-81689878D01*
X132861331Y-81647612D01*
X132435154Y-81650412D01*
X132271728Y-81651113D01*
X132146922Y-81649960D01*
X132097087Y-81648297D01*
X132054613Y-81645702D01*
X132018732Y-81642020D01*
X131988680Y-81637093D01*
X131963692Y-81630765D01*
X131943002Y-81622881D01*
X131925846Y-81613285D01*
X131911458Y-81601821D01*
X131899073Y-81588331D01*
X131887926Y-81572661D01*
X131866284Y-81534155D01*
X131857932Y-81517179D01*
X131850757Y-81500565D01*
X131844753Y-81484315D01*
X131839919Y-81468436D01*
X131836249Y-81452932D01*
X131833739Y-81437807D01*
X131832386Y-81423067D01*
X131832185Y-81408714D01*
X131833133Y-81394755D01*
X131835225Y-81381194D01*
X131838458Y-81368036D01*
X131842827Y-81355284D01*
X131848328Y-81342944D01*
X131854958Y-81331021D01*
X131862712Y-81319518D01*
X131871587Y-81308441D01*
X131881578Y-81297794D01*
X131892682Y-81287582D01*
X131904893Y-81277809D01*
X131918210Y-81268480D01*
X131932626Y-81259600D01*
X131948139Y-81251173D01*
X131964744Y-81243204D01*
X131982438Y-81235697D01*
X132001216Y-81228657D01*
X132021074Y-81222090D01*
X132042009Y-81215998D01*
X132064015Y-81210387D01*
X132087091Y-81205262D01*
X132111230Y-81200627D01*
X132136430Y-81196487D01*
X132162686Y-81192846D01*
X132335266Y-81169648D01*
X132493207Y-81145564D01*
X132636615Y-81120544D01*
X132765594Y-81094539D01*
X132880250Y-81067498D01*
X132980686Y-81039371D01*
X133067009Y-81010110D01*
X133139323Y-80979664D01*
X133197733Y-80947982D01*
X133242343Y-80915016D01*
X133259507Y-80898036D01*
X133273260Y-80880715D01*
X133283616Y-80863049D01*
X133290587Y-80845030D01*
X133294188Y-80826653D01*
X133294430Y-80807910D01*
X133291328Y-80788797D01*
X133284893Y-80769306D01*
X133275141Y-80749432D01*
X133262082Y-80729168D01*
X133226102Y-80687447D01*
X133226101Y-80687448D01*
X133209602Y-80671711D01*
X133201352Y-80664519D01*
X133192997Y-80657763D01*
X133184454Y-80651433D01*
X133175645Y-80645518D01*
X133166489Y-80640007D01*
X133156906Y-80634890D01*
X133146815Y-80630156D01*
X133136137Y-80625794D01*
X133124791Y-80621793D01*
X133112698Y-80618143D01*
X133099776Y-80614832D01*
X133085945Y-80611851D01*
X133071127Y-80609188D01*
X133055239Y-80606833D01*
X133038203Y-80604774D01*
X133019938Y-80603001D01*
X133000363Y-80601504D01*
X132979399Y-80600271D01*
X132932983Y-80598557D01*
X132880046Y-80597771D01*
X132819948Y-80597829D01*
X132752047Y-80598644D01*
X132675702Y-80600130D01*
X132590271Y-80602201D01*
X132363984Y-80607658D01*
X132192186Y-80609651D01*
X132123985Y-80608836D01*
X132066125Y-80606541D01*
X132017511Y-80602559D01*
X131977049Y-80596687D01*
X131943645Y-80588719D01*
X131916205Y-80578451D01*
X131893634Y-80565676D01*
X131874839Y-80550191D01*
X131858726Y-80531790D01*
X131844200Y-80510268D01*
X131815533Y-80457043D01*
X131806663Y-80438141D01*
X131799436Y-80419714D01*
X131793850Y-80401763D01*
X131789905Y-80384288D01*
X131787601Y-80367290D01*
X131786936Y-80350769D01*
X131787910Y-80334725D01*
X131790523Y-80319159D01*
X131794773Y-80304072D01*
X131800659Y-80289464D01*
X131808182Y-80275335D01*
X131817340Y-80261687D01*
X131828132Y-80248519D01*
X131840559Y-80235832D01*
X131854618Y-80223627D01*
X131870310Y-80211904D01*
X131887634Y-80200663D01*
X131906589Y-80189905D01*
X131927174Y-80179631D01*
X131949389Y-80169841D01*
X131973232Y-80160536D01*
X131998704Y-80151715D01*
X132025803Y-80143381D01*
X132054529Y-80135532D01*
X132084880Y-80128170D01*
X132116857Y-80121294D01*
X132150459Y-80114907D01*
X132185684Y-80109007D01*
X132222533Y-80103596D01*
X132261004Y-80098674D01*
X132342810Y-80090300D01*
X132433111Y-80082187D01*
X132506953Y-80074736D01*
X132568372Y-80067231D01*
X132621405Y-80058958D01*
X132670087Y-80049200D01*
X132718457Y-80037242D01*
X132770549Y-80022369D01*
X132830401Y-80003864D01*
X132861387Y-79993504D01*
X132889952Y-79982762D01*
X132916097Y-79971638D01*
X132939824Y-79960129D01*
X132961136Y-79948233D01*
X132980034Y-79935948D01*
X132996521Y-79923273D01*
X133003860Y-79916788D01*
X133010597Y-79910205D01*
X133016732Y-79903522D01*
X133022266Y-79896741D01*
X133027198Y-79889861D01*
X133031529Y-79882881D01*
X133035259Y-79875802D01*
X133038388Y-79868623D01*
X133040916Y-79861343D01*
X133042845Y-79853963D01*
X133044173Y-79846482D01*
X133044902Y-79838900D01*
X133045031Y-79831217D01*
X133044561Y-79823433D01*
X133043492Y-79815546D01*
X133041824Y-79807558D01*
X133039558Y-79799468D01*
X133036693Y-79791275D01*
X133034512Y-79786041D01*
X133032026Y-79781075D01*
X133029131Y-79776362D01*
X133025725Y-79771884D01*
X133023798Y-79769729D01*
X133021705Y-79767627D01*
X133019432Y-79765576D01*
X133016967Y-79763575D01*
X133014297Y-79761620D01*
X133011410Y-79759710D01*
X133004929Y-79756018D01*
X132997423Y-79752483D01*
X132988788Y-79749087D01*
X132978922Y-79745816D01*
X132967721Y-79742653D01*
X132955083Y-79739583D01*
X132940906Y-79736589D01*
X132925085Y-79733656D01*
X132907518Y-79730766D01*
X132888103Y-79727906D01*
X132866736Y-79725057D01*
X132843314Y-79722205D01*
X132817736Y-79719334D01*
X132789897Y-79716427D01*
X132759695Y-79713468D01*
X132691791Y-79707332D01*
X132613201Y-79700797D01*
X132523101Y-79693737D01*
X132420669Y-79686023D01*
X132305081Y-79677526D01*
X132280733Y-79676155D01*
X132269279Y-79675838D01*
X132258243Y-79675774D01*
X132247579Y-79675970D01*
X132237238Y-79676429D01*
X132227175Y-79677159D01*
X132217341Y-79678165D01*
X132207691Y-79679451D01*
X132198177Y-79681025D01*
X132188752Y-79682890D01*
X132179370Y-79685054D01*
X132169983Y-79687520D01*
X132160545Y-79690296D01*
X132151008Y-79693386D01*
X132141326Y-79696796D01*
X132002025Y-79747541D01*
X131975798Y-79755525D01*
X131950334Y-79760279D01*
X131925691Y-79761970D01*
X131901927Y-79760766D01*
X131879097Y-79756836D01*
X131857261Y-79750346D01*
X131836475Y-79741465D01*
X131816797Y-79730360D01*
X131798283Y-79717199D01*
X131780992Y-79702150D01*
X131764981Y-79685380D01*
X131750307Y-79667058D01*
X131737027Y-79647350D01*
X131725200Y-79626425D01*
X131714881Y-79604450D01*
X131706129Y-79581593D01*
X131699001Y-79558022D01*
X131693554Y-79533905D01*
X131689846Y-79509409D01*
X131687934Y-79484702D01*
X131687876Y-79459951D01*
X131689728Y-79435326D01*
X131693548Y-79410992D01*
X131699394Y-79387118D01*
X131707323Y-79363872D01*
X131717392Y-79341421D01*
X131729659Y-79319934D01*
X131744181Y-79299577D01*
X131761016Y-79280519D01*
X131780220Y-79262927D01*
X131801851Y-79246969D01*
X131825967Y-79232813D01*
X131831372Y-79230367D01*
X131839112Y-79227413D01*
X131861008Y-79220144D01*
X131890489Y-79211325D01*
X131926384Y-79201273D01*
X131967527Y-79190308D01*
X132012749Y-79178748D01*
X132060882Y-79166912D01*
X132110758Y-79155119D01*
X132199859Y-79133173D01*
X132279895Y-79110768D01*
X132350793Y-79087994D01*
X132412475Y-79064942D01*
X132464867Y-79041703D01*
X132507892Y-79018368D01*
X132525869Y-79006693D01*
X132541475Y-78995028D01*
X132554702Y-78983385D01*
X132565541Y-78971774D01*
X132573981Y-78960208D01*
X132580013Y-78948698D01*
X132583628Y-78937254D01*
X132584817Y-78925888D01*
X132583569Y-78914613D01*
X132579876Y-78903438D01*
X132573727Y-78892376D01*
X132565114Y-78881437D01*
X132554027Y-78870634D01*
X132540457Y-78859978D01*
X132524394Y-78849479D01*
X132505828Y-78839149D01*
X132461153Y-78819043D01*
X132406354Y-78799751D01*
X132365243Y-78788133D01*
X132322628Y-78778626D01*
X132233493Y-78765751D01*
X132140163Y-78760725D01*
X132043855Y-78763151D01*
X131945784Y-78772631D01*
X131847165Y-78788766D01*
X131749216Y-78811157D01*
X131653152Y-78839405D01*
X131560187Y-78873114D01*
X131471539Y-78911883D01*
X131388423Y-78955314D01*
X131312055Y-79003010D01*
X131243650Y-79054571D01*
X131184424Y-79109599D01*
X131158634Y-79138289D01*
X131135594Y-79167696D01*
X131115457Y-79197770D01*
X131098374Y-79228462D01*
X131067543Y-79300413D01*
X131039001Y-79387411D01*
X131012885Y-79487601D01*
X130989333Y-79599128D01*
X130968481Y-79720140D01*
X130950467Y-79848781D01*
X130935428Y-79983198D01*
X130923500Y-80121536D01*
X130914821Y-80261940D01*
X130909528Y-80402557D01*
X130907759Y-80541533D01*
X130617564Y-80541533D01*
X130617084Y-80449538D01*
X130622719Y-80210840D01*
X130635293Y-79968165D01*
X130654908Y-79726557D01*
X130664956Y-79642266D01*
X130678613Y-79558936D01*
X130695730Y-79476876D01*
X130716159Y-79396394D01*
X130739750Y-79317798D01*
X130766355Y-79241396D01*
X130795826Y-79167499D01*
X130828014Y-79096414D01*
X130862771Y-79028449D01*
X130899948Y-78963913D01*
X130939397Y-78903115D01*
X130980968Y-78846364D01*
X131024514Y-78793967D01*
X131069886Y-78746234D01*
X131116935Y-78703473D01*
X131165513Y-78665993D01*
X131188791Y-78649226D01*
X131211955Y-78631864D01*
X131234393Y-78614410D01*
X131255497Y-78597366D01*
X131274654Y-78581237D01*
X131291256Y-78566524D01*
X131304691Y-78553731D01*
X131310030Y-78548212D01*
X131314348Y-78543362D01*
X131351029Y-78499767D01*
X131351086Y-77358137D01*
X131352050Y-76632009D01*
X131355078Y-76413653D01*
X131361452Y-76269976D01*
X131366280Y-76221035D01*
X131372409Y-76184634D01*
X131379993Y-76158730D01*
X131389186Y-76141281D01*
X131400144Y-76130242D01*
X131413020Y-76123572D01*
X131445148Y-76115164D01*
X131461593Y-76111258D01*
X131477063Y-76108178D01*
X131491589Y-76106124D01*
X131505200Y-76105295D01*
X131511672Y-76105402D01*
G37*
D11*
X146521428Y-110987704D02*
X146978571Y-110987704D01*
X146749999Y-110987704D02*
X146749999Y-111787704D01*
X146749999Y-111787704D02*
X146826190Y-111673419D01*
X146826190Y-111673419D02*
X146902380Y-111597228D01*
X146902380Y-111597228D02*
X146978571Y-111559133D01*
%TO.C,D1*%
D12*
X144182500Y-102340000D02*
X144182500Y-104800000D01*
X145652500Y-102340000D02*
X144182500Y-102340000D01*
X145652500Y-104800000D02*
X145652500Y-102340000D01*
%TO.C,R3*%
X135540000Y-119157776D02*
X135540000Y-119667224D01*
X136585000Y-119157776D02*
X136585000Y-119667224D01*
%TO.C,J2*%
X134397500Y-91305000D02*
X145837500Y-91305000D01*
X134397500Y-101705000D02*
X134397500Y-91305000D01*
X136517500Y-101705000D02*
X136517500Y-91305000D01*
X142717500Y-101705000D02*
X142717500Y-91305000D01*
X145217500Y-101705000D02*
X145217500Y-91305000D01*
X145837500Y-91305000D02*
X145837500Y-98745000D01*
X145837500Y-99345000D02*
X145837500Y-101705000D01*
X145837500Y-101705000D02*
X134397500Y-101705000D01*
X146447500Y-99485000D02*
X145837500Y-99045000D01*
X146447500Y-98605000D01*
X146447500Y-99485000D01*
G36*
X146447500Y-99485000D02*
G01*
X145837500Y-99045000D01*
X146447500Y-98605000D01*
X146447500Y-99485000D01*
G37*
%TO.C,R5*%
X141040000Y-120754724D02*
X141040000Y-120245276D01*
X142085000Y-120754724D02*
X142085000Y-120245276D01*
%TO.C,J3*%
X142870000Y-122770000D02*
X142870000Y-115040000D01*
X145630000Y-115040000D02*
X142870000Y-115040000D01*
X145630000Y-122770000D02*
X142870000Y-122770000D01*
X145630000Y-122770000D02*
X145630000Y-115040000D01*
X145630000Y-124040000D02*
X145630000Y-125420000D01*
X145630000Y-125420000D02*
X144250000Y-125420000D01*
%TO.C,SW2*%
X134397500Y-74805000D02*
X145837500Y-74805000D01*
X134397500Y-85205000D02*
X134397500Y-74805000D01*
X136517500Y-85205000D02*
X136517500Y-74805000D01*
X142717500Y-85205000D02*
X142717500Y-74805000D01*
X145217500Y-85205000D02*
X145217500Y-74805000D01*
X145837500Y-74805000D02*
X145837500Y-82245000D01*
X145837500Y-82845000D02*
X145837500Y-85205000D01*
X145837500Y-85205000D02*
X134397500Y-85205000D01*
X146447500Y-82985000D02*
X145837500Y-82545000D01*
X146447500Y-82105000D01*
X146447500Y-82985000D01*
G36*
X146447500Y-82985000D02*
G01*
X145837500Y-82545000D01*
X146447500Y-82105000D01*
X146447500Y-82985000D01*
G37*
%TO.C,R2*%
X137504724Y-67977500D02*
X136995276Y-67977500D01*
X137504724Y-69022500D02*
X136995276Y-69022500D01*
%TO.C,Q1*%
X138657500Y-102440000D02*
X140177500Y-102440000D01*
X138657500Y-102490000D02*
X138657500Y-102440000D01*
X138657500Y-104390000D02*
X138657500Y-103610000D01*
X138657500Y-105560000D02*
X138657500Y-105510000D01*
X140177500Y-102440000D02*
X140177500Y-103440000D01*
X140177500Y-104560000D02*
X140177500Y-105560000D01*
X140177500Y-105560000D02*
X138657500Y-105560000D01*
X138357500Y-103950000D02*
X137877500Y-103950000D01*
X138117500Y-103620000D01*
X138357500Y-103950000D01*
G36*
X138357500Y-103950000D02*
G01*
X137877500Y-103950000D01*
X138117500Y-103620000D01*
X138357500Y-103950000D01*
G37*
%TO.C,D2*%
X139250000Y-107450000D02*
X139250000Y-112500000D01*
X139700000Y-107000000D02*
X139250000Y-107450000D01*
X140050000Y-108850000D02*
X140050000Y-110650000D01*
X145450000Y-108850000D02*
X145450000Y-110650000D01*
X146250000Y-107000000D02*
X139700000Y-107000000D01*
X146250000Y-112500000D02*
X139250000Y-112500000D01*
X146250000Y-112500000D02*
X146250000Y-107000000D01*
%TO.C,Q3*%
X138052500Y-114440000D02*
X139572500Y-114440000D01*
X138052500Y-114490000D02*
X138052500Y-114440000D01*
X138052500Y-116390000D02*
X138052500Y-115610000D01*
X138052500Y-117560000D02*
X138052500Y-117510000D01*
X139572500Y-114440000D02*
X139572500Y-115440000D01*
X139572500Y-116560000D02*
X139572500Y-117560000D01*
X139572500Y-117560000D02*
X138052500Y-117560000D01*
X137752500Y-115950000D02*
X137272500Y-115950000D01*
X137512500Y-115620000D01*
X137752500Y-115950000D01*
G36*
X137752500Y-115950000D02*
G01*
X137272500Y-115950000D01*
X137512500Y-115620000D01*
X137752500Y-115950000D01*
G37*
D10*
%TO.C,REF\u002A\u002A*%
G36*
X131063359Y-111842083D02*
G01*
X131101176Y-111845343D01*
X131126688Y-111852814D01*
X131141918Y-111872192D01*
X131148889Y-111911174D01*
X131149625Y-111977459D01*
X131146147Y-112078743D01*
X131143395Y-112146579D01*
X131135236Y-112350666D01*
X131055567Y-112350666D01*
X131001193Y-112345851D01*
X130974713Y-112322043D01*
X130960486Y-112268517D01*
X130955006Y-112203895D01*
X130955292Y-112112444D01*
X130961267Y-112013614D01*
X130961539Y-112010670D01*
X130978004Y-111834970D01*
X131063359Y-111842083D01*
G37*
G36*
X131607542Y-110995971D02*
G01*
X131667016Y-111038376D01*
X131756207Y-111135257D01*
X131812775Y-111263842D01*
X131836547Y-111422323D01*
X131827352Y-111608892D01*
X131785018Y-111821744D01*
X131752203Y-111934841D01*
X131717617Y-112043809D01*
X131799929Y-112158382D01*
X131895638Y-112307442D01*
X131953026Y-112438228D01*
X131973212Y-112557377D01*
X131957313Y-112671526D01*
X131906450Y-112787311D01*
X131906059Y-112787994D01*
X131866371Y-112852569D01*
X131834197Y-112896643D01*
X131818812Y-112909669D01*
X131790581Y-112895568D01*
X131746276Y-112862671D01*
X131745552Y-112862069D01*
X131689312Y-112815244D01*
X131739721Y-112725555D01*
X131777086Y-112635615D01*
X131784614Y-112545168D01*
X131760550Y-112447309D01*
X131703142Y-112335129D01*
X131610639Y-112201721D01*
X131604907Y-112194168D01*
X131512378Y-112072656D01*
X131572436Y-111902616D01*
X131603326Y-111804259D01*
X131622325Y-111710948D01*
X131632209Y-111604565D01*
X131635507Y-111491279D01*
X131638522Y-111249983D01*
X131548243Y-111174045D01*
X131495746Y-111128194D01*
X131473959Y-111098302D01*
X131477826Y-111070385D01*
X131498446Y-111036324D01*
X131532222Y-110992358D01*
X131564405Y-110978856D01*
X131607542Y-110995971D01*
G37*
G36*
X129963653Y-112690269D02*
G01*
X130166563Y-112692577D01*
X130330100Y-112698801D01*
X130461449Y-112709934D01*
X130567794Y-112726974D01*
X130656318Y-112750917D01*
X130734207Y-112782757D01*
X130772104Y-112802333D01*
X130862100Y-112876727D01*
X130926012Y-112979637D01*
X130959998Y-113098575D01*
X130960215Y-113221054D01*
X130930977Y-113318618D01*
X130889393Y-113390580D01*
X130841733Y-113452315D01*
X130830794Y-113463255D01*
X130723549Y-113534858D01*
X130578465Y-113590331D01*
X130401924Y-113628391D01*
X130200310Y-113647753D01*
X129980004Y-113647136D01*
X129930336Y-113644238D01*
X129690955Y-113627922D01*
X129690955Y-113875219D01*
X129690955Y-114122515D01*
X129805836Y-114180730D01*
X129995801Y-114252331D01*
X130205757Y-114287812D01*
X130425500Y-114286609D01*
X130644827Y-114248160D01*
X130705556Y-114230392D01*
X130797434Y-114201840D01*
X130855415Y-114187442D01*
X130889726Y-114186217D01*
X130910595Y-114197186D01*
X130921304Y-114209727D01*
X130949852Y-114265602D01*
X130939579Y-114310582D01*
X130887586Y-114349817D01*
X130828007Y-114375438D01*
X130576288Y-114446227D01*
X130326123Y-114471165D01*
X130079700Y-114450197D01*
X129883379Y-114399193D01*
X129714279Y-114341442D01*
X129714279Y-114488937D01*
X129714279Y-114636432D01*
X129624508Y-114636432D01*
X129534736Y-114636432D01*
X129519573Y-114280739D01*
X129515213Y-114154300D01*
X129511224Y-113992948D01*
X129507806Y-113808415D01*
X129505157Y-113612436D01*
X129503478Y-113416745D01*
X129503025Y-113306956D01*
X129501640Y-112688866D01*
X129963653Y-112690269D01*
G37*
G36*
X129620983Y-109444145D02*
G01*
X129620983Y-109619228D01*
X129752769Y-109573886D01*
X129908215Y-109532729D01*
X130089492Y-109504525D01*
X130282892Y-109489782D01*
X130474705Y-109489005D01*
X130651225Y-109502701D01*
X130798742Y-109531375D01*
X130810514Y-109534825D01*
X130874580Y-109557383D01*
X130904434Y-109580869D01*
X130911393Y-109616380D01*
X130910570Y-109632940D01*
X130900802Y-109690126D01*
X130876057Y-109718486D01*
X130826995Y-109721855D01*
X130744276Y-109704069D01*
X130740072Y-109702955D01*
X130631756Y-109682641D01*
X130503570Y-109672172D01*
X130362789Y-109670644D01*
X130216686Y-109677157D01*
X130072534Y-109690809D01*
X129937608Y-109710700D01*
X129819181Y-109735926D01*
X129724525Y-109765588D01*
X129660916Y-109798784D01*
X129635625Y-109834612D01*
X129635560Y-109839836D01*
X129637292Y-109880528D01*
X129639247Y-109953606D01*
X129641057Y-110044812D01*
X129641391Y-110065370D01*
X129644307Y-110252434D01*
X129860055Y-110237440D01*
X129991086Y-110233471D01*
X130143964Y-110236706D01*
X130294551Y-110246489D01*
X130332303Y-110250236D01*
X130508257Y-110275960D01*
X130644504Y-110312244D01*
X130747367Y-110362085D01*
X130823170Y-110428478D01*
X130874656Y-110507169D01*
X130916641Y-110636192D01*
X130925606Y-110778910D01*
X130901198Y-110916097D01*
X130883051Y-110962879D01*
X130812435Y-111075352D01*
X130713778Y-111159076D01*
X130635265Y-111200360D01*
X130598109Y-111214134D01*
X130551692Y-111224870D01*
X130489546Y-111233074D01*
X130405201Y-111239250D01*
X130292189Y-111243905D01*
X130144041Y-111247544D01*
X130000000Y-111250000D01*
X129457714Y-111258189D01*
X129453716Y-110574078D01*
X129452586Y-110381053D01*
X129451442Y-110186314D01*
X129450341Y-109999583D01*
X129449340Y-109830581D01*
X129448499Y-109689029D01*
X129447885Y-109586754D01*
X129446051Y-109283540D01*
X129533517Y-109276301D01*
X129620983Y-109269062D01*
X129620983Y-109444145D01*
G37*
G36*
X127864457Y-107809904D02*
G01*
X127894995Y-107811064D01*
X128256400Y-107830735D01*
X128575760Y-107859582D01*
X128856969Y-107898676D01*
X129103920Y-107949087D01*
X129320507Y-108011886D01*
X129510624Y-108088142D01*
X129678165Y-108178925D01*
X129827023Y-108285307D01*
X129920181Y-108367696D01*
X130035325Y-108478115D01*
X130044804Y-108173864D01*
X130049959Y-108039917D01*
X130057552Y-107945661D01*
X130070365Y-107884136D01*
X130091185Y-107848387D01*
X130122793Y-107831455D01*
X130167973Y-107826383D01*
X130183935Y-107826138D01*
X130255796Y-107844131D01*
X130351714Y-107896892D01*
X130468166Y-107981570D01*
X130601624Y-108095313D01*
X130748562Y-108235270D01*
X130905456Y-108398592D01*
X130943905Y-108440623D01*
X131088957Y-108600645D01*
X131235457Y-108484878D01*
X131354911Y-108394289D01*
X131481122Y-108305158D01*
X131607517Y-108221446D01*
X131727526Y-108147118D01*
X131834577Y-108086138D01*
X131922098Y-108042469D01*
X131983517Y-108020074D01*
X132007525Y-108019203D01*
X132024984Y-108046118D01*
X132048210Y-108110555D01*
X132075155Y-108204048D01*
X132103772Y-108318132D01*
X132132013Y-108444339D01*
X132157829Y-108574204D01*
X132179173Y-108699260D01*
X132189230Y-108770409D01*
X132202475Y-108910816D01*
X132202739Y-109040115D01*
X132189900Y-109184501D01*
X132187226Y-109206026D01*
X132158494Y-109431726D01*
X132285930Y-109695833D01*
X132344202Y-109822887D01*
X132402200Y-109960094D01*
X132452271Y-110088795D01*
X132480445Y-110169858D01*
X132509992Y-110261575D01*
X132534083Y-110334961D01*
X132549336Y-110379780D01*
X132552741Y-110388560D01*
X132571863Y-110379734D01*
X132616514Y-110348000D01*
X132669682Y-110306142D01*
X132982020Y-110074086D01*
X133308306Y-109875102D01*
X133641536Y-109712846D01*
X133974707Y-109590975D01*
X134111924Y-109552965D01*
X134205214Y-109532266D01*
X134319480Y-109510853D01*
X134445312Y-109490030D01*
X134573296Y-109471100D01*
X134694022Y-109455366D01*
X134798078Y-109444133D01*
X134876051Y-109438702D01*
X134918530Y-109440377D01*
X134920486Y-109440995D01*
X134942866Y-109473614D01*
X134946253Y-109547573D01*
X134940784Y-109600898D01*
X134918475Y-109609700D01*
X134861365Y-109619841D01*
X134781178Y-109629301D01*
X134769789Y-109630365D01*
X134401640Y-109678675D01*
X134059670Y-109756070D01*
X133737031Y-109865505D01*
X133426875Y-110009933D01*
X133122354Y-110192308D01*
X132816620Y-110415586D01*
X132669287Y-110536576D01*
X132595357Y-110596766D01*
X132532725Y-110643088D01*
X132491119Y-110668542D01*
X132482092Y-110671327D01*
X132465135Y-110650213D01*
X132437468Y-110591631D01*
X132402029Y-110502719D01*
X132361755Y-110390614D01*
X132340461Y-110327296D01*
X132272125Y-110129411D01*
X132203694Y-109954581D01*
X132126976Y-109783547D01*
X132033779Y-109597049D01*
X132012667Y-109556630D01*
X131994906Y-109517664D01*
X131985309Y-109476991D01*
X131983484Y-109423453D01*
X131989037Y-109345893D01*
X132001354Y-109235023D01*
X132015534Y-109085493D01*
X132018287Y-108956786D01*
X132009693Y-108824519D01*
X132002871Y-108763289D01*
X131985710Y-108640582D01*
X131965012Y-108521337D01*
X131942905Y-108415421D01*
X131921516Y-108332698D01*
X131902972Y-108283034D01*
X131897663Y-108275403D01*
X131871978Y-108280647D01*
X131815415Y-108309915D01*
X131734321Y-108359116D01*
X131635043Y-108424158D01*
X131523927Y-108500952D01*
X131407321Y-108585406D01*
X131350475Y-108628064D01*
X131261709Y-108695389D01*
X131184760Y-108753550D01*
X131128291Y-108796011D01*
X131101873Y-108815592D01*
X131081418Y-108813259D01*
X131042185Y-108787501D01*
X130981445Y-108735908D01*
X130896470Y-108656069D01*
X130784532Y-108545572D01*
X130701858Y-108462098D01*
X130592376Y-108352044D01*
X130491037Y-108252358D01*
X130403295Y-108168234D01*
X130334606Y-108104864D01*
X130290423Y-108067443D01*
X130279890Y-108060401D01*
X130227411Y-108034057D01*
X130227411Y-108489698D01*
X130226708Y-108654535D01*
X130224399Y-108777420D01*
X130220185Y-108863031D01*
X130213767Y-108916049D01*
X130204843Y-108941149D01*
X130198255Y-108944759D01*
X130171218Y-108926997D01*
X130125957Y-108880477D01*
X130071284Y-108814456D01*
X130059434Y-108798983D01*
X129892094Y-108597532D01*
X129722018Y-108436529D01*
X129540436Y-108310167D01*
X129338577Y-108212638D01*
X129107671Y-108138135D01*
X129034187Y-108120044D01*
X128772899Y-108070402D01*
X128477072Y-108033079D01*
X128157200Y-108008224D01*
X127823776Y-107995987D01*
X127487295Y-107996517D01*
X127158250Y-108009965D01*
X126847135Y-108036480D01*
X126564445Y-108076211D01*
X126520588Y-108084174D01*
X126246300Y-108147758D01*
X125958076Y-108235965D01*
X125676535Y-108342085D01*
X125529760Y-108406701D01*
X125298685Y-108514586D01*
X125457971Y-108724132D01*
X125742080Y-109080123D01*
X126020712Y-109393554D01*
X126293031Y-109663590D01*
X126558198Y-109889396D01*
X126791117Y-110054801D01*
X126929442Y-110136945D01*
X127100351Y-110228252D01*
X127292279Y-110322832D01*
X127493658Y-110414790D01*
X127521809Y-110427060D01*
X127625089Y-110473117D01*
X127698120Y-110512639D01*
X127740557Y-110551387D01*
X127752057Y-110595121D01*
X127732274Y-110649600D01*
X127680865Y-110720585D01*
X127597484Y-110813835D01*
X127492054Y-110924435D01*
X127283349Y-111154080D01*
X127113664Y-111370368D01*
X126979758Y-111579688D01*
X126878387Y-111788429D01*
X126806310Y-112002980D01*
X126760284Y-112229728D01*
X126741528Y-112403145D01*
X126734736Y-112500726D01*
X126733244Y-112560842D01*
X126738763Y-112592537D01*
X126753003Y-112604856D01*
X126777674Y-112606842D01*
X126780051Y-112606826D01*
X126899887Y-112593316D01*
X127046414Y-112556718D01*
X127208044Y-112500609D01*
X127373193Y-112428566D01*
X127399711Y-112415528D01*
X127508305Y-112362566D01*
X127582335Y-112330210D01*
X127627977Y-112316346D01*
X127651408Y-112318859D01*
X127657373Y-112327342D01*
X127678295Y-112377060D01*
X127717078Y-112456677D01*
X127768128Y-112555765D01*
X127825855Y-112663896D01*
X127884667Y-112770644D01*
X127938973Y-112865582D01*
X127983180Y-112938283D01*
X127993117Y-112953428D01*
X128038595Y-113019062D01*
X128065788Y-113050231D01*
X128081562Y-113051758D01*
X128092784Y-113028466D01*
X128094110Y-113024359D01*
X128098669Y-112986051D01*
X128101968Y-112908609D01*
X128103901Y-112799531D01*
X128104364Y-112666316D01*
X128103253Y-112516464D01*
X128102200Y-112444921D01*
X128093251Y-111919169D01*
X128178092Y-111912086D01*
X128262933Y-111905004D01*
X128278925Y-112401894D01*
X128284145Y-112668219D01*
X128281171Y-112888953D01*
X128269982Y-113064434D01*
X128250555Y-113194999D01*
X128222867Y-113280983D01*
X128220532Y-113285504D01*
X128177908Y-113326741D01*
X128117721Y-113325520D01*
X128041044Y-113282145D01*
X127963454Y-113212105D01*
X127906228Y-113149280D01*
X127865016Y-113096266D01*
X127848381Y-113064128D01*
X127848347Y-113063354D01*
X127831983Y-113023287D01*
X127815742Y-113005718D01*
X127799086Y-113002549D01*
X127768664Y-113012992D01*
X127720710Y-113039514D01*
X127651454Y-113084579D01*
X127557130Y-113150654D01*
X127433969Y-113240204D01*
X127278204Y-113355695D01*
X127258745Y-113370217D01*
X127100541Y-113488153D01*
X126934772Y-113611386D01*
X126770951Y-113732868D01*
X126618588Y-113845553D01*
X126487195Y-113942395D01*
X126410864Y-113998392D01*
X126319479Y-114066436D01*
X126207831Y-114151449D01*
X126082401Y-114248306D01*
X125949672Y-114351882D01*
X125816127Y-114457053D01*
X125688248Y-114558694D01*
X125572518Y-114651680D01*
X125475419Y-114730888D01*
X125403435Y-114791192D01*
X125367074Y-114823532D01*
X125378116Y-114840871D01*
X125426099Y-114872699D01*
X125504704Y-114916055D01*
X125607610Y-114967981D01*
X125728495Y-115025516D01*
X125861040Y-115085700D01*
X125998925Y-115145575D01*
X126135828Y-115202180D01*
X126265429Y-115252555D01*
X126343939Y-115280968D01*
X126665944Y-115378510D01*
X127009756Y-115455793D01*
X127367933Y-115512605D01*
X127733031Y-115548730D01*
X128097610Y-115563953D01*
X128454227Y-115558062D01*
X128795439Y-115530840D01*
X129113804Y-115482075D01*
X129401881Y-115411551D01*
X129520223Y-115372452D01*
X129621864Y-115331082D01*
X129737993Y-115276671D01*
X129856599Y-115215617D01*
X129965672Y-115154319D01*
X130053203Y-115099174D01*
X130099678Y-115063759D01*
X130174647Y-115002436D01*
X130256216Y-114945269D01*
X130332395Y-114899745D01*
X130391197Y-114873355D01*
X130410414Y-114869674D01*
X130455889Y-114890048D01*
X130473085Y-114918750D01*
X130478776Y-114967661D01*
X130478859Y-115052774D01*
X130474002Y-115164066D01*
X130464875Y-115291513D01*
X130452145Y-115425093D01*
X130436483Y-115554784D01*
X130425773Y-115627709D01*
X130412773Y-115715026D01*
X130404435Y-115782491D01*
X130402111Y-115818710D01*
X130402771Y-115821760D01*
X130425438Y-115816580D01*
X130475433Y-115794989D01*
X130507359Y-115779286D01*
X130619594Y-115707795D01*
X130737110Y-115603863D01*
X130864074Y-115463443D01*
X130967188Y-115332832D01*
X131032850Y-115249507D01*
X131091126Y-115182268D01*
X131135018Y-115138789D01*
X131155628Y-115126240D01*
X131196459Y-115138929D01*
X131249411Y-115169495D01*
X131250073Y-115169961D01*
X131362174Y-115237899D01*
X131503766Y-115307134D01*
X131658469Y-115370487D01*
X131809904Y-115420777D01*
X131842888Y-115429829D01*
X131934436Y-115452033D01*
X132008000Y-115466583D01*
X132052717Y-115471486D01*
X132060740Y-115469831D01*
X132071725Y-115435946D01*
X132080037Y-115365538D01*
X132085520Y-115268664D01*
X132088022Y-115155380D01*
X132087388Y-115035744D01*
X132083463Y-114919812D01*
X132076095Y-114817642D01*
X132071352Y-114776896D01*
X132042623Y-114566671D01*
X132205177Y-114199210D01*
X132264563Y-114062515D01*
X132322098Y-113925694D01*
X132372896Y-113800676D01*
X132412070Y-113699393D01*
X132427337Y-113656818D01*
X132459689Y-113545594D01*
X132493993Y-113399368D01*
X132528025Y-113229599D01*
X132559562Y-113047746D01*
X132586381Y-112865267D01*
X132596324Y-112785950D01*
X132612360Y-112649792D01*
X132696882Y-112665578D01*
X132753443Y-112677260D01*
X132785299Y-112685970D01*
X132787215Y-112687037D01*
X132788665Y-112714273D01*
X132782214Y-112779113D01*
X132769266Y-112873454D01*
X132751227Y-112989188D01*
X132729502Y-113118211D01*
X132705495Y-113252417D01*
X132680611Y-113383701D01*
X132656255Y-113503957D01*
X132633832Y-113605080D01*
X132616099Y-113674311D01*
X132615040Y-113716143D01*
X132641818Y-113727428D01*
X132691442Y-113710763D01*
X132758921Y-113668742D01*
X132839261Y-113603962D01*
X132927473Y-113519016D01*
X132939873Y-113505974D01*
X133018045Y-113421365D01*
X133096690Y-113333659D01*
X133168354Y-113251449D01*
X133225586Y-113183329D01*
X133260933Y-113137890D01*
X133266540Y-113129310D01*
X133289422Y-113104920D01*
X133321631Y-113102491D01*
X133368226Y-113124818D01*
X133434263Y-113174697D01*
X133524801Y-113254926D01*
X133570063Y-113297133D01*
X133678802Y-113399305D01*
X133757561Y-113470242D01*
X133810786Y-113510184D01*
X133842927Y-113519371D01*
X133858431Y-113498044D01*
X133861746Y-113446442D01*
X133857321Y-113364807D01*
X133853570Y-113312452D01*
X133848253Y-113168722D01*
X133857566Y-113067109D01*
X133884144Y-113004651D01*
X133930623Y-112978387D01*
X133999640Y-112985354D01*
X134093830Y-113022590D01*
X134106177Y-113028571D01*
X134204004Y-113070241D01*
X134335181Y-113116889D01*
X134487290Y-113164495D01*
X134647909Y-113209037D01*
X134717310Y-113226443D01*
X134802900Y-113248453D01*
X134872870Y-113268789D01*
X134912604Y-113283190D01*
X134913411Y-113283611D01*
X134933753Y-113314316D01*
X134946804Y-113367592D01*
X134949736Y-113422349D01*
X134939721Y-113457497D01*
X134937031Y-113459711D01*
X134909408Y-113457940D01*
X134850144Y-113445216D01*
X134773758Y-113424767D01*
X134680410Y-113398011D01*
X134563121Y-113364727D01*
X134442898Y-113330870D01*
X134407013Y-113320825D01*
X134301189Y-113289397D01*
X134202342Y-113256810D01*
X134126120Y-113228345D01*
X134103799Y-113218496D01*
X134017585Y-113176804D01*
X134025459Y-113414019D01*
X134027477Y-113535807D01*
X134023341Y-113621931D01*
X134012025Y-113683091D01*
X133995705Y-113723999D01*
X133965790Y-113772504D01*
X133941649Y-113796277D01*
X133939218Y-113796763D01*
X133906479Y-113782790D01*
X133846389Y-113744953D01*
X133767331Y-113689377D01*
X133677686Y-113622184D01*
X133585836Y-113549500D01*
X133500164Y-113477447D01*
X133490303Y-113468787D01*
X133336207Y-113332693D01*
X133140601Y-113545514D01*
X133010575Y-113679899D01*
X132898659Y-113778850D01*
X132798669Y-113846755D01*
X132704423Y-113888004D01*
X132635744Y-113903798D01*
X132576694Y-113915190D01*
X132538732Y-113934816D01*
X132509215Y-113974056D01*
X132475501Y-114044289D01*
X132472706Y-114050549D01*
X132434949Y-114134152D01*
X132386226Y-114240527D01*
X132335450Y-114350245D01*
X132321636Y-114379867D01*
X132228986Y-114578122D01*
X132257967Y-114783069D01*
X132269477Y-114907516D01*
X132274130Y-115057641D01*
X132272321Y-115218325D01*
X132264443Y-115374450D01*
X132250888Y-115510899D01*
X132236901Y-115592723D01*
X132224273Y-115640311D01*
X132205057Y-115663742D01*
X132165653Y-115670372D01*
X132098000Y-115667857D01*
X131971648Y-115651028D01*
X131818884Y-115615027D01*
X131653665Y-115564050D01*
X131489953Y-115502292D01*
X131374281Y-115450315D01*
X131289229Y-115409826D01*
X131221785Y-115379735D01*
X131181455Y-115364184D01*
X131174313Y-115363269D01*
X131037511Y-115541961D01*
X130909188Y-115689107D01*
X130827419Y-115769796D01*
X130729078Y-115848557D01*
X130613933Y-115924281D01*
X130493116Y-115991186D01*
X130377754Y-116043490D01*
X130278977Y-116075411D01*
X130225517Y-116082530D01*
X130167770Y-116079824D01*
X130136149Y-116073080D01*
X130134114Y-116070573D01*
X130139965Y-116043898D01*
X130155427Y-115984359D01*
X130177365Y-115903966D01*
X130181311Y-115889810D01*
X130196830Y-115823882D01*
X130214651Y-115731885D01*
X130233368Y-115623359D01*
X130251576Y-115507843D01*
X130267869Y-115394878D01*
X130280842Y-115294002D01*
X130289089Y-115214755D01*
X130291205Y-115166678D01*
X130289278Y-115157008D01*
X130269333Y-115167037D01*
X130220920Y-115198212D01*
X130153425Y-115244421D01*
X130133336Y-115258548D01*
X129919178Y-115393391D01*
X129689772Y-115504390D01*
X129440467Y-115592665D01*
X129166615Y-115659333D01*
X128863566Y-115705512D01*
X128526672Y-115732322D01*
X128151284Y-115740880D01*
X128128237Y-115740840D01*
X127759451Y-115732549D01*
X127421652Y-115708471D01*
X127104732Y-115666340D01*
X126798585Y-115603888D01*
X126493103Y-115518848D01*
X126178180Y-115408953D01*
X125843708Y-115271937D01*
X125648847Y-115184698D01*
X125458929Y-115095327D01*
X125310972Y-115020718D01*
X125203074Y-114959756D01*
X125133335Y-114911326D01*
X125099851Y-114874311D01*
X125096097Y-114860498D01*
X125114523Y-114828163D01*
X125167654Y-114771286D01*
X125252267Y-114692488D01*
X125365141Y-114594387D01*
X125503054Y-114479604D01*
X125662784Y-114350756D01*
X125841111Y-114210463D01*
X126034811Y-114061345D01*
X126240663Y-113906021D01*
X126455446Y-113747110D01*
X126553857Y-113675343D01*
X126619209Y-113627499D01*
X126708518Y-113561538D01*
X126816116Y-113481701D01*
X126936336Y-113392229D01*
X127063510Y-113297361D01*
X127191970Y-113201338D01*
X127316048Y-113108400D01*
X127430077Y-113022787D01*
X127528388Y-112948740D01*
X127605315Y-112890498D01*
X127655188Y-112852301D01*
X127671995Y-112838842D01*
X127674778Y-112805854D01*
X127654533Y-112740470D01*
X127626889Y-112677458D01*
X127592527Y-112606740D01*
X127566972Y-112556355D01*
X127555791Y-112537259D01*
X127534307Y-112546322D01*
X127480630Y-112570466D01*
X127404875Y-112605124D01*
X127375391Y-112618720D01*
X127148414Y-112706722D01*
X126927295Y-112756056D01*
X126719761Y-112770156D01*
X126535804Y-112770500D01*
X126552038Y-112543090D01*
X126573136Y-112304815D01*
X126601379Y-112102780D01*
X126639831Y-111926759D01*
X126691557Y-111766522D01*
X126759620Y-111611841D01*
X126847084Y-111452488D01*
X126908618Y-111352782D01*
X126980701Y-111249004D01*
X127075615Y-111125533D01*
X127182741Y-110995191D01*
X127291458Y-110870800D01*
X127391149Y-110765180D01*
X127413728Y-110742909D01*
X127472896Y-110681354D01*
X127499533Y-110640637D01*
X127498172Y-110613273D01*
X127494982Y-110608795D01*
X127457178Y-110581684D01*
X127440506Y-110578030D01*
X127405333Y-110567503D01*
X127337927Y-110538815D01*
X127246918Y-110496308D01*
X127140936Y-110444323D01*
X127028611Y-110387203D01*
X126918571Y-110329287D01*
X126819446Y-110274918D01*
X126739867Y-110228437D01*
X126717033Y-110214062D01*
X126483108Y-110051618D01*
X126267328Y-109877696D01*
X126053978Y-109679262D01*
X125970368Y-109594815D01*
X125845670Y-109462926D01*
X125719117Y-109322786D01*
X125594282Y-109178961D01*
X125474741Y-109036018D01*
X125364067Y-108898526D01*
X125265835Y-108771052D01*
X125183619Y-108658163D01*
X125120994Y-108564427D01*
X125081533Y-108494411D01*
X125068813Y-108452682D01*
X125071170Y-108445802D01*
X125109823Y-108416088D01*
X125183991Y-108373337D01*
X125285656Y-108321266D01*
X125406796Y-108263593D01*
X125539394Y-108204037D01*
X125675429Y-108146316D01*
X125806881Y-108094148D01*
X125912443Y-108055770D01*
X126251445Y-107957458D01*
X126623670Y-107882787D01*
X127021596Y-107832685D01*
X127437699Y-107808082D01*
X127864457Y-107809904D01*
G37*
%TO.C,R1*%
D12*
X137727500Y-70745276D02*
X137727500Y-71254724D01*
X138772500Y-70745276D02*
X138772500Y-71254724D01*
%TO.C,C2*%
X135740000Y-70853733D02*
X135740000Y-71146267D01*
X136760000Y-70853733D02*
X136760000Y-71146267D01*
%TO.C,Q2*%
X138052500Y-117940000D02*
X139572500Y-117940000D01*
X138052500Y-117990000D02*
X138052500Y-117940000D01*
X138052500Y-119890000D02*
X138052500Y-119110000D01*
X138052500Y-121060000D02*
X138052500Y-121010000D01*
X139572500Y-117940000D02*
X139572500Y-118940000D01*
X139572500Y-120060000D02*
X139572500Y-121060000D01*
X139572500Y-121060000D02*
X138052500Y-121060000D01*
X137752500Y-119450000D02*
X137272500Y-119450000D01*
X137512500Y-119120000D01*
X137752500Y-119450000D01*
G36*
X137752500Y-119450000D02*
G01*
X137272500Y-119450000D01*
X137512500Y-119120000D01*
X137752500Y-119450000D01*
G37*
%TO.C,R7*%
X141102500Y-114795276D02*
X141102500Y-115304724D01*
X142147500Y-114795276D02*
X142147500Y-115304724D01*
%TO.C,C1*%
X137396267Y-72990000D02*
X137103733Y-72990000D01*
X137396267Y-74010000D02*
X137103733Y-74010000D01*
%TO.C,R6*%
X135540000Y-115745276D02*
X135540000Y-116254724D01*
X136585000Y-115745276D02*
X136585000Y-116254724D01*
%TO.C,SW1*%
X128750000Y-70000000D02*
X128750000Y-72000000D01*
X129750000Y-68700000D02*
X130200000Y-68250000D01*
X129750000Y-73300000D02*
X130200000Y-73750000D01*
X130200000Y-68250000D02*
X132800000Y-68250000D01*
X130200000Y-73750000D02*
X132800000Y-73750000D01*
X133250000Y-68700000D02*
X132800000Y-68250000D01*
X133250000Y-73300000D02*
X132800000Y-73750000D01*
X134250000Y-70000000D02*
X134250000Y-72000000D01*
%TO.C,R4*%
X142162776Y-104977500D02*
X142672224Y-104977500D01*
X142162776Y-106022500D02*
X142672224Y-106022500D01*
%TD*%
%LPC*%
D10*
%TO.C,REF\u002A\u002A*%
G36*
X131194764Y-109336041D02*
G01*
X131237413Y-109369990D01*
X131299850Y-109428241D01*
X131387523Y-109514033D01*
X131468535Y-109596543D01*
X131535693Y-109670019D01*
X131582645Y-109727134D01*
X131603040Y-109760563D01*
X131603416Y-109763058D01*
X131590366Y-109810496D01*
X131571902Y-109842679D01*
X131527214Y-109874791D01*
X131456615Y-109897185D01*
X131441812Y-109899616D01*
X131343355Y-109913292D01*
X131415135Y-110012218D01*
X131463167Y-110082673D01*
X131482655Y-110127520D01*
X131475182Y-110156765D01*
X131442331Y-110180414D01*
X131441800Y-110180699D01*
X131397793Y-110198863D01*
X131359793Y-110196903D01*
X131320065Y-110169757D01*
X131270872Y-110112365D01*
X131211802Y-110030222D01*
X131138468Y-109916242D01*
X131098991Y-109831380D01*
X131093739Y-109772275D01*
X131123080Y-109735569D01*
X131187385Y-109717903D01*
X131246431Y-109715037D01*
X131328670Y-109715037D01*
X131197875Y-109573762D01*
X131137269Y-109504770D01*
X131091571Y-109446027D01*
X131068461Y-109407635D01*
X131067080Y-109401676D01*
X131084782Y-109366871D01*
X131119414Y-109336115D01*
X131142378Y-109323492D01*
X131165290Y-109322004D01*
X131194764Y-109336041D01*
G37*
G36*
X131373070Y-113983919D02*
G01*
X131411341Y-114032838D01*
X131458820Y-114115462D01*
X131516539Y-114228517D01*
X131567244Y-114333906D01*
X131609114Y-114427644D01*
X131638080Y-114500133D01*
X131650074Y-114541771D01*
X131650184Y-114543893D01*
X131629956Y-114589786D01*
X131593691Y-114616524D01*
X131528936Y-114630468D01*
X131461928Y-114616024D01*
X131391852Y-114594808D01*
X131354805Y-114594060D01*
X131350233Y-114617379D01*
X131377580Y-114668364D01*
X131436288Y-114750612D01*
X131440308Y-114755970D01*
X131533647Y-114880192D01*
X131473624Y-114939074D01*
X131413601Y-114997957D01*
X131332588Y-114905392D01*
X131267388Y-114819180D01*
X131207306Y-114719123D01*
X131158321Y-114617658D01*
X131126411Y-114527223D01*
X131117557Y-114460255D01*
X131117739Y-114458477D01*
X131124236Y-114420955D01*
X131140577Y-114401731D01*
X131178615Y-114395807D01*
X131250198Y-114398184D01*
X131259504Y-114398677D01*
X131331490Y-114400533D01*
X131380169Y-114397996D01*
X131393618Y-114393232D01*
X131383964Y-114367951D01*
X131358232Y-114311482D01*
X131321264Y-114234328D01*
X131306153Y-114203542D01*
X131264200Y-114117215D01*
X131241248Y-114062690D01*
X131235319Y-114030104D01*
X131244433Y-114009595D01*
X131263962Y-113993238D01*
X131304335Y-113968734D01*
X131339053Y-113964089D01*
X131373070Y-113983919D01*
G37*
%TD*%
D13*
%TO.C,D1*%
X144917500Y-103125000D03*
X144917500Y-104875000D03*
%TD*%
D14*
%TO.C,R3*%
X136062500Y-118500000D03*
X136062500Y-120325000D03*
%TD*%
D15*
%TO.C,J2*%
X140417500Y-99045000D03*
D16*
X140417500Y-93965000D03*
%TD*%
D17*
%TO.C,R5*%
X141562500Y-121412500D03*
X141562500Y-119587500D03*
%TD*%
D18*
%TO.C,J3*%
X144250000Y-124040000D03*
D19*
X144250000Y-121500000D03*
X144250000Y-118960000D03*
X144250000Y-116420000D03*
%TD*%
D20*
%TO.C,REF\u002A\u002A*%
X143000000Y-71000000D03*
%TD*%
D15*
%TO.C,SW2*%
X140417500Y-82545000D03*
D16*
X140417500Y-77465000D03*
%TD*%
D20*
%TO.C,REF\u002A\u002A*%
X143000000Y-129000000D03*
%TD*%
D21*
%TO.C,R2*%
X138162500Y-68500000D03*
X136337500Y-68500000D03*
%TD*%
D22*
%TO.C,Q1*%
X138480000Y-103050000D03*
X138480000Y-104950000D03*
X140355000Y-104000000D03*
%TD*%
D23*
%TO.C,D2*%
X145200000Y-111400000D03*
X145200000Y-108100000D03*
X140300000Y-108100000D03*
X140300000Y-111400000D03*
%TD*%
D22*
%TO.C,Q3*%
X137875000Y-115050000D03*
X137875000Y-116950000D03*
X139750000Y-116000000D03*
%TD*%
D14*
%TO.C,R1*%
X138250000Y-70087500D03*
X138250000Y-71912500D03*
%TD*%
D24*
%TO.C,C2*%
X136250000Y-70137500D03*
X136250000Y-71862500D03*
%TD*%
D22*
%TO.C,Q2*%
X137875000Y-118550000D03*
X137875000Y-120450000D03*
X139750000Y-119500000D03*
%TD*%
D14*
%TO.C,R7*%
X141625000Y-114137500D03*
X141625000Y-115962500D03*
%TD*%
D25*
%TO.C,C1*%
X138112500Y-73500000D03*
X136387500Y-73500000D03*
%TD*%
D14*
%TO.C,R6*%
X136062500Y-115087500D03*
X136062500Y-116912500D03*
%TD*%
D26*
%TO.C,SW1*%
X128500000Y-69125000D03*
X134500000Y-69125000D03*
X128500000Y-72875000D03*
X134500000Y-72875000D03*
%TD*%
D20*
%TO.C,REF\u002A\u002A*%
X120000000Y-71000000D03*
%TD*%
D27*
%TO.C,R4*%
X141505000Y-105500000D03*
X143330000Y-105500000D03*
%TD*%
D20*
%TO.C,REF\u002A\u002A*%
X120000000Y-129000000D03*
%TD*%
D18*
%TO.C,J1*%
X121270000Y-124130000D03*
D19*
X118730000Y-124130000D03*
X121270000Y-121590000D03*
X118730000Y-121590000D03*
X121270000Y-119050000D03*
X118730000Y-119050000D03*
X121270000Y-116510000D03*
X118730000Y-116510000D03*
X121270000Y-113970000D03*
X118730000Y-113970000D03*
X121270000Y-111430000D03*
X118730000Y-111430000D03*
X121270000Y-108890000D03*
X118730000Y-108890000D03*
X121270000Y-106350000D03*
X118730000Y-106350000D03*
X121270000Y-103810000D03*
X118730000Y-103810000D03*
X121270000Y-101270000D03*
X118730000Y-101270000D03*
X121270000Y-98730000D03*
X118730000Y-98730000D03*
X121270000Y-96190000D03*
X118730000Y-96190000D03*
X121270000Y-93650000D03*
X118730000Y-93650000D03*
X121270000Y-91110000D03*
X118730000Y-91110000D03*
X121270000Y-88570000D03*
X118730000Y-88570000D03*
X121270000Y-86030000D03*
X118730000Y-86030000D03*
X121270000Y-83490000D03*
X118730000Y-83490000D03*
X121270000Y-80950000D03*
X118730000Y-80950000D03*
X121270000Y-78410000D03*
X118730000Y-78410000D03*
X121270000Y-75870000D03*
X118730000Y-75870000D03*
%TD*%
%LPD*%
M02*
