M48
; DRILL file {KiCad 9.0.7} date 2026-03-30T22:06:36-0700
; FORMAT={-:-/ absolute / inch / decimal}
; #@! TF.CreationDate,2026-03-30T22:06:36-07:00
; #@! TF.GenerationSoftware,Kicad,Pcbnew,9.0.7
; #@! TF.FileFunction,Plated,1,2,PTH
FMAT,2
INCH
; #@! TA.AperFunction,Plated,PTH,ViaDrill
T1C0.0157
; #@! TA.AperFunction,Plated,PTH,ComponentDrill
T2C0.0157
; #@! TA.AperFunction,Plated,PTH,ComponentDrill
T3C0.0236
; #@! TA.AperFunction,Plated,PTH,ComponentDrill
T4C0.0394
; #@! TA.AperFunction,Plated,PTH,ComponentDrill
T5C0.0866
%
G90
G05
T1
X6.4956Y-4.6389
X6.5085Y-4.1901
X6.5153Y-4.7849
X6.5657Y-4.4489
X6.6639Y-4.2447
X6.6731Y-4.8566
X6.678Y-4.7819
X6.7017Y-3.8813
X6.7077Y-5.0689
X6.7408Y-4.5598
X6.7479Y-4.952
X6.7534Y-4.0828
X6.7583Y-4.6289
X6.7638Y-3.7449
X6.765Y-3.5189
X6.7987Y-4.7884
X6.8154Y-3.726
X6.8465Y-4.987
X6.8519Y-4.5859
X6.8637Y-4.5341
X6.8661Y-4.9171
X6.913Y-4.5969
X6.9173Y-3.863
X6.9219Y-4.6912
X6.9404Y-4.1323
X6.9509Y-4.6008
X6.9701Y-4.1323
X6.976Y-4.9488
X6.9762Y-4.8227
X6.9806Y-4.601
X6.9969Y-4.513
X7.0102Y-4.6024
X7.0102Y-4.7213
X7.0493Y-4.7879
X7.0508Y-5.0427
X7.0657Y-3.5181
X7.0673Y-3.7366
X7.1409Y-4.6087
X7.1529Y-4.8181
X7.1744Y-4.6894
X7.1748Y-4.7323
X7.1753Y-4.856
X7.1791Y-4.5769
X7.2014Y-4.9581
X7.2327Y-4.5769
X7.2748Y-4.6169
X7.3205Y-4.5531
X7.5295Y-3.7205
X7.5628Y-4.2671
X7.6791Y-4.5709
T2
X6.4705Y-3.622
X6.4705Y-5.1181
X6.4895Y-3.5761
X6.4895Y-3.668
X6.4895Y-5.0722
X6.4895Y-5.164
X6.5354Y-3.5571
X6.5354Y-3.687
X6.5354Y-5.0531
X6.5354Y-5.1831
X6.5814Y-3.5761
X6.5814Y-3.668
X6.5814Y-5.0722
X6.5814Y-5.164
X6.6004Y-3.622
X6.6004Y-5.1181
X7.1004Y-4.3307
X7.1194Y-4.2848
X7.1194Y-4.3766
X7.1654Y-4.2657
X7.1654Y-4.3957
X7.2113Y-4.2848
X7.2113Y-4.3766
X7.2303Y-4.3307
X7.7303Y-5.1181
X7.7493Y-5.0722
X7.7493Y-5.164
X7.7953Y-5.0531
X7.7953Y-5.1831
X7.8412Y-5.0722
X7.8412Y-5.164
X7.8602Y-5.1181
T4
X6.5748Y-3.937
X6.5748Y-4.037
X6.5748Y-4.1945
X6.5748Y-4.2945
X6.8547Y-5.1181
X6.9547Y-5.1181
X7.0547Y-5.1181
X7.1547Y-5.1181
X7.2547Y-5.1181
X7.3547Y-5.1181
X7.4547Y-5.1181
X7.5547Y-5.1181
T5
X6.5354Y-3.622
X6.5354Y-5.1181
X7.1654Y-4.3307
X7.7953Y-5.1181
T3
G00X7.6506Y-3.4913
M15
G01X7.6939Y-3.4913
M16
G05
G00X7.6506Y-3.8315
M15
G01X7.6939Y-3.8315
M16
G05
G00X7.8219Y-3.4913
M15
G01X7.8533Y-3.4913
M16
G05
G00X7.8219Y-3.8315
M15
G01X7.8533Y-3.8315
M16
G05
M30
