%TF.GenerationSoftware,KiCad,Pcbnew,9.0.7*%
%TF.CreationDate,2026-03-30T22:06:36-07:00*%
%TF.ProjectId,tof_mount,746f665f-6d6f-4756-9e74-2e6b69636164,rev?*%
%TF.SameCoordinates,Original*%
%TF.FileFunction,Soldermask,Top*%
%TF.FilePolarity,Negative*%
%FSLAX46Y46*%
G04 Gerber Fmt 4.6, Leading zero omitted, Abs format (unit mm)*
G04 Created by KiCad (PCBNEW 9.0.7) date 2026-03-30 22:06:36*
%MOMM*%
%LPD*%
G01*
G04 APERTURE LIST*
G04 Aperture macros list*
%AMRoundRect*
0 Rectangle with rounded corners*
0 $1 Rounding radius*
0 $2 $3 $4 $5 $6 $7 $8 $9 X,Y pos of 4 corners*
0 Add a 4 corners polygon primitive as box body*
4,1,4,$2,$3,$4,$5,$6,$7,$8,$9,$2,$3,0*
0 Add four circle primitives for the rounded corners*
1,1,$1+$1,$2,$3*
1,1,$1+$1,$4,$5*
1,1,$1+$1,$6,$7*
1,1,$1+$1,$8,$9*
0 Add four rect primitives between the rounded corners*
20,1,$1+$1,$2,$3,$4,$5,0*
20,1,$1+$1,$4,$5,$6,$7,0*
20,1,$1+$1,$6,$7,$8,$9,0*
20,1,$1+$1,$8,$9,$2,$3,0*%
G04 Aperture macros list end*
%ADD10RoundRect,0.135000X-0.185000X0.135000X-0.185000X-0.135000X0.185000X-0.135000X0.185000X0.135000X0*%
%ADD11R,1.700000X1.700000*%
%ADD12C,1.700000*%
%ADD13RoundRect,0.140000X0.140000X0.170000X-0.140000X0.170000X-0.140000X-0.170000X0.140000X-0.170000X0*%
%ADD14RoundRect,0.200000X0.275000X-0.200000X0.275000X0.200000X-0.275000X0.200000X-0.275000X-0.200000X0*%
%ADD15RoundRect,0.135000X0.185000X-0.135000X0.185000X0.135000X-0.185000X0.135000X-0.185000X-0.135000X0*%
%ADD16RoundRect,0.135000X0.135000X0.185000X-0.135000X0.185000X-0.135000X-0.185000X0.135000X-0.185000X0*%
%ADD17R,1.000000X2.750000*%
%ADD18RoundRect,0.250000X-0.250000X-0.475000X0.250000X-0.475000X0.250000X0.475000X-0.250000X0.475000X0*%
%ADD19C,0.700000*%
%ADD20C,4.400000*%
%ADD21RoundRect,0.250000X-1.200000X-2.450000X1.200000X-2.450000X1.200000X2.450000X-1.200000X2.450000X0*%
%ADD22RoundRect,0.250000X0.250000X0.475000X-0.250000X0.475000X-0.250000X-0.475000X0.250000X-0.475000X0*%
%ADD23RoundRect,0.100000X-0.637500X-0.100000X0.637500X-0.100000X0.637500X0.100000X-0.637500X0.100000X0*%
%ADD24RoundRect,0.062500X0.062500X-0.127500X0.062500X0.127500X-0.062500X0.127500X-0.062500X-0.127500X0*%
%ADD25RoundRect,0.125000X0.125000X-0.125000X0.125000X0.125000X-0.125000X0.125000X-0.125000X-0.125000X0*%
%ADD26RoundRect,0.140000X0.170000X-0.140000X0.170000X0.140000X-0.170000X0.140000X-0.170000X-0.140000X0*%
%ADD27R,1.240000X0.600000*%
%ADD28R,1.240000X0.300000*%
%ADD29O,2.100000X1.000000*%
%ADD30O,1.800000X1.000000*%
%ADD31RoundRect,0.250000X-0.650000X1.000000X-0.650000X-1.000000X0.650000X-1.000000X0.650000X1.000000X0*%
%ADD32RoundRect,0.150000X-0.512500X-0.150000X0.512500X-0.150000X0.512500X0.150000X-0.512500X0.150000X0*%
%ADD33RoundRect,0.200000X0.200000X-0.250000X0.200000X0.250000X-0.200000X0.250000X-0.200000X-0.250000X0*%
%ADD34RoundRect,0.135000X-0.135000X-0.185000X0.135000X-0.185000X0.135000X0.185000X-0.135000X0.185000X0*%
%ADD35RoundRect,0.250000X0.650000X-1.000000X0.650000X1.000000X-0.650000X1.000000X-0.650000X-1.000000X0*%
%ADD36RoundRect,0.150000X0.150000X-0.825000X0.150000X0.825000X-0.150000X0.825000X-0.150000X-0.825000X0*%
%ADD37RoundRect,0.140000X-0.140000X-0.170000X0.140000X-0.170000X0.140000X0.170000X-0.140000X0.170000X0*%
%ADD38RoundRect,0.200000X-0.200000X0.250000X-0.200000X-0.250000X0.200000X-0.250000X0.200000X0.250000X0*%
G04 APERTURE END LIST*
D10*
%TO.C,R14*%
X176400000Y-110590000D03*
X176400000Y-111610000D03*
%TD*%
D11*
%TO.C,J3*%
X174110000Y-130000000D03*
D12*
X176650000Y-130000000D03*
X179190000Y-130000000D03*
X181730000Y-130000000D03*
X184270000Y-130000000D03*
X186810000Y-130000000D03*
X189350000Y-130000000D03*
X191890000Y-130000000D03*
%TD*%
D13*
%TO.C,C4*%
X165480000Y-120000000D03*
X164520000Y-120000000D03*
%TD*%
D14*
%TO.C,D5*%
X176400000Y-114625000D03*
X176400000Y-112975000D03*
%TD*%
D15*
%TO.C,R12*%
X176400000Y-96210000D03*
X176400000Y-95190000D03*
%TD*%
D16*
%TO.C,R10*%
X165510000Y-113000000D03*
X164490000Y-113000000D03*
%TD*%
D17*
%TO.C,SW2*%
X170500000Y-95080000D03*
X170500000Y-89320000D03*
X174500000Y-95080000D03*
X174500000Y-89320000D03*
%TD*%
D18*
%TO.C,C5*%
X195050000Y-111000000D03*
X196950000Y-111000000D03*
%TD*%
D15*
%TO.C,R11*%
X168700000Y-96210000D03*
X168700000Y-95190000D03*
%TD*%
%TO.C,R7*%
X192460000Y-95700000D03*
X192460000Y-94680000D03*
%TD*%
D19*
%TO.C,H4*%
X180350000Y-110000000D03*
X180833274Y-108833274D03*
X180833274Y-111166726D03*
X182000000Y-108350000D03*
D20*
X182000000Y-110000000D03*
D19*
X182000000Y-111650000D03*
X183166726Y-108833274D03*
X183166726Y-111166726D03*
X183650000Y-110000000D03*
%TD*%
D15*
%TO.C,R3*%
X183200000Y-119910000D03*
X183200000Y-118890000D03*
%TD*%
D19*
%TO.C,H1*%
X164350000Y-92000000D03*
X164833274Y-90833274D03*
X164833274Y-93166726D03*
X166000000Y-90350000D03*
D20*
X166000000Y-92000000D03*
D19*
X166000000Y-93650000D03*
X167166726Y-90833274D03*
X167166726Y-93166726D03*
X167650000Y-92000000D03*
%TD*%
D21*
%TO.C,L2*%
X188050000Y-119000000D03*
X197950000Y-119000000D03*
%TD*%
D22*
%TO.C,C6*%
X191950000Y-111000000D03*
X190050000Y-111000000D03*
%TD*%
D13*
%TO.C,C7*%
X191480000Y-109000000D03*
X190520000Y-109000000D03*
%TD*%
D15*
%TO.C,R13*%
X184100000Y-100220000D03*
X184100000Y-99200000D03*
%TD*%
D17*
%TO.C,SW1*%
X178200000Y-95080000D03*
X178200000Y-89320000D03*
X182200000Y-95080000D03*
X182200000Y-89320000D03*
%TD*%
D23*
%TO.C,U3*%
X168137500Y-118075000D03*
X168137500Y-118725000D03*
X168137500Y-119375000D03*
X168137500Y-120025000D03*
X168137500Y-120675000D03*
X168137500Y-121325000D03*
X168137500Y-121975000D03*
X168137500Y-122625000D03*
X168137500Y-123275000D03*
X168137500Y-123925000D03*
X173862500Y-123925000D03*
X173862500Y-123275000D03*
X173862500Y-122625000D03*
X173862500Y-121975000D03*
X173862500Y-121325000D03*
X173862500Y-120675000D03*
X173862500Y-120025000D03*
X173862500Y-119375000D03*
X173862500Y-118725000D03*
X173862500Y-118075000D03*
%TD*%
D11*
%TO.C,D3*%
X167000000Y-102540000D03*
D12*
X167000000Y-100000000D03*
%TD*%
D24*
%TO.C,U1*%
X179525000Y-121140000D03*
D25*
X179400000Y-121000000D03*
X179400000Y-120200000D03*
X179400000Y-119400000D03*
X179400000Y-118600000D03*
X179400000Y-117800000D03*
X180200000Y-117800000D03*
X181000000Y-117800000D03*
X181000000Y-118600000D03*
X181000000Y-119400000D03*
X181000000Y-120200000D03*
X181000000Y-121000000D03*
X180200000Y-121000000D03*
%TD*%
D10*
%TO.C,R8*%
X164240000Y-100340000D03*
X164240000Y-101360000D03*
%TD*%
D26*
%TO.C,C1*%
X169000000Y-114480000D03*
X169000000Y-113520000D03*
%TD*%
D27*
%TO.C,J1*%
X194275000Y-96200000D03*
X194275000Y-95400000D03*
D28*
X194275000Y-94250000D03*
X194275000Y-93250000D03*
X194275000Y-92750000D03*
X194275000Y-91750000D03*
D27*
X194275000Y-90600000D03*
X194275000Y-89800000D03*
X194275000Y-89800000D03*
X194275000Y-90600000D03*
D28*
X194275000Y-91250000D03*
X194275000Y-92250000D03*
X194275000Y-93750000D03*
X194275000Y-94750000D03*
D27*
X194275000Y-95400000D03*
X194275000Y-96200000D03*
D29*
X194875000Y-97320000D03*
D30*
X199075000Y-97320000D03*
D29*
X194875000Y-88680000D03*
D30*
X199075000Y-88680000D03*
%TD*%
D31*
%TO.C,D1*%
X172000000Y-105540000D03*
X172000000Y-109540000D03*
%TD*%
D17*
%TO.C,SW3*%
X178200000Y-104780000D03*
X178200000Y-99020000D03*
X182200000Y-104780000D03*
X182200000Y-99020000D03*
%TD*%
D19*
%TO.C,H3*%
X196350000Y-130000000D03*
X196833274Y-128833274D03*
X196833274Y-131166726D03*
X198000000Y-128350000D03*
D20*
X198000000Y-130000000D03*
D19*
X198000000Y-131650000D03*
X199166726Y-128833274D03*
X199166726Y-131166726D03*
X199650000Y-130000000D03*
%TD*%
D13*
%TO.C,C3*%
X165480000Y-123000000D03*
X164520000Y-123000000D03*
%TD*%
D32*
%TO.C,U2*%
X170862500Y-113050000D03*
X170862500Y-114000000D03*
X170862500Y-114950000D03*
X173137500Y-114950000D03*
X173137500Y-113050000D03*
%TD*%
D33*
%TO.C,Q2*%
X164050000Y-117000000D03*
X165950000Y-117000000D03*
X165000000Y-115000000D03*
%TD*%
D11*
%TO.C,L1*%
X167000000Y-106540000D03*
D12*
X167000000Y-109080000D03*
%TD*%
D34*
%TO.C,R5*%
X171490000Y-98540000D03*
X172510000Y-98540000D03*
%TD*%
D35*
%TO.C,D2*%
X188000000Y-107000000D03*
X188000000Y-103000000D03*
%TD*%
D15*
%TO.C,R4*%
X183200000Y-121910000D03*
X183200000Y-120890000D03*
%TD*%
D36*
%TO.C,U4*%
X192095000Y-106475000D03*
X193365000Y-106475000D03*
X194635000Y-106475000D03*
X195905000Y-106475000D03*
X195905000Y-101525000D03*
X194635000Y-101525000D03*
X193365000Y-101525000D03*
X192095000Y-101525000D03*
%TD*%
D15*
%TO.C,R6*%
X192500000Y-91760000D03*
X192500000Y-90740000D03*
%TD*%
D35*
%TO.C,D4*%
X189460000Y-94190000D03*
X189460000Y-90190000D03*
%TD*%
D37*
%TO.C,C8*%
X195520000Y-109000000D03*
X196480000Y-109000000D03*
%TD*%
D34*
%TO.C,R9*%
X164490000Y-119000000D03*
X165510000Y-119000000D03*
%TD*%
D15*
%TO.C,R1*%
X183200000Y-117910000D03*
X183200000Y-116890000D03*
%TD*%
D19*
%TO.C,H2*%
X164350000Y-130000000D03*
X164833274Y-128833274D03*
X164833274Y-131166726D03*
X166000000Y-128350000D03*
D20*
X166000000Y-130000000D03*
D19*
X166000000Y-131650000D03*
X167166726Y-128833274D03*
X167166726Y-131166726D03*
X167650000Y-130000000D03*
%TD*%
D26*
%TO.C,C2*%
X178000000Y-121880000D03*
X178000000Y-120920000D03*
%TD*%
D15*
%TO.C,R2*%
X178000000Y-118910000D03*
X178000000Y-117890000D03*
%TD*%
D38*
%TO.C,Q1*%
X172950000Y-100540000D03*
X171050000Y-100540000D03*
X172000000Y-102540000D03*
%TD*%
M02*
