%TF.GenerationSoftware,KiCad,Pcbnew,9.0.7*%
%TF.CreationDate,2026-03-30T22:06:36-07:00*%
%TF.ProjectId,tof_mount,746f665f-6d6f-4756-9e74-2e6b69636164,rev?*%
%TF.SameCoordinates,Original*%
%TF.FileFunction,Copper,L1,Top*%
%TF.FilePolarity,Positive*%
%FSLAX46Y46*%
G04 Gerber Fmt 4.6, Leading zero omitted, Abs format (unit mm)*
G04 Created by KiCad (PCBNEW 9.0.7) date 2026-03-30 22:06:36*
%MOMM*%
%LPD*%
G01*
G04 APERTURE LIST*
G04 Aperture macros list*
%AMRoundRect*
0 Rectangle with rounded corners*
0 $1 Rounding radius*
0 $2 $3 $4 $5 $6 $7 $8 $9 X,Y pos of 4 corners*
0 Add a 4 corners polygon primitive as box body*
4,1,4,$2,$3,$4,$5,$6,$7,$8,$9,$2,$3,0*
0 Add four circle primitives for the rounded corners*
1,1,$1+$1,$2,$3*
1,1,$1+$1,$4,$5*
1,1,$1+$1,$6,$7*
1,1,$1+$1,$8,$9*
0 Add four rect primitives between the rounded corners*
20,1,$1+$1,$2,$3,$4,$5,0*
20,1,$1+$1,$4,$5,$6,$7,0*
20,1,$1+$1,$6,$7,$8,$9,0*
20,1,$1+$1,$8,$9,$2,$3,0*%
G04 Aperture macros list end*
%TA.AperFunction,SMDPad,CuDef*%
%ADD10RoundRect,0.135000X-0.185000X0.135000X-0.185000X-0.135000X0.185000X-0.135000X0.185000X0.135000X0*%
%TD*%
%TA.AperFunction,ComponentPad*%
%ADD11R,1.700000X1.700000*%
%TD*%
%TA.AperFunction,ComponentPad*%
%ADD12C,1.700000*%
%TD*%
%TA.AperFunction,SMDPad,CuDef*%
%ADD13RoundRect,0.140000X0.140000X0.170000X-0.140000X0.170000X-0.140000X-0.170000X0.140000X-0.170000X0*%
%TD*%
%TA.AperFunction,SMDPad,CuDef*%
%ADD14RoundRect,0.200000X0.275000X-0.200000X0.275000X0.200000X-0.275000X0.200000X-0.275000X-0.200000X0*%
%TD*%
%TA.AperFunction,SMDPad,CuDef*%
%ADD15RoundRect,0.135000X0.185000X-0.135000X0.185000X0.135000X-0.185000X0.135000X-0.185000X-0.135000X0*%
%TD*%
%TA.AperFunction,SMDPad,CuDef*%
%ADD16RoundRect,0.135000X0.135000X0.185000X-0.135000X0.185000X-0.135000X-0.185000X0.135000X-0.185000X0*%
%TD*%
%TA.AperFunction,SMDPad,CuDef*%
%ADD17R,1.000000X2.750000*%
%TD*%
%TA.AperFunction,SMDPad,CuDef*%
%ADD18RoundRect,0.250000X-0.250000X-0.475000X0.250000X-0.475000X0.250000X0.475000X-0.250000X0.475000X0*%
%TD*%
%TA.AperFunction,ComponentPad*%
%ADD19C,0.700000*%
%TD*%
%TA.AperFunction,ComponentPad*%
%ADD20C,4.400000*%
%TD*%
%TA.AperFunction,SMDPad,CuDef*%
%ADD21RoundRect,0.250000X-1.200000X-2.450000X1.200000X-2.450000X1.200000X2.450000X-1.200000X2.450000X0*%
%TD*%
%TA.AperFunction,SMDPad,CuDef*%
%ADD22RoundRect,0.250000X0.250000X0.475000X-0.250000X0.475000X-0.250000X-0.475000X0.250000X-0.475000X0*%
%TD*%
%TA.AperFunction,SMDPad,CuDef*%
%ADD23RoundRect,0.100000X-0.637500X-0.100000X0.637500X-0.100000X0.637500X0.100000X-0.637500X0.100000X0*%
%TD*%
%TA.AperFunction,SMDPad,CuDef*%
%ADD24RoundRect,0.062500X0.062500X-0.127500X0.062500X0.127500X-0.062500X0.127500X-0.062500X-0.127500X0*%
%TD*%
%TA.AperFunction,SMDPad,CuDef*%
%ADD25RoundRect,0.125000X0.125000X-0.125000X0.125000X0.125000X-0.125000X0.125000X-0.125000X-0.125000X0*%
%TD*%
%TA.AperFunction,SMDPad,CuDef*%
%ADD26RoundRect,0.140000X0.170000X-0.140000X0.170000X0.140000X-0.170000X0.140000X-0.170000X-0.140000X0*%
%TD*%
%TA.AperFunction,SMDPad,CuDef*%
%ADD27R,1.240000X0.600000*%
%TD*%
%TA.AperFunction,SMDPad,CuDef*%
%ADD28R,1.240000X0.300000*%
%TD*%
%TA.AperFunction,HeatsinkPad*%
%ADD29O,2.100000X1.000000*%
%TD*%
%TA.AperFunction,HeatsinkPad*%
%ADD30O,1.800000X1.000000*%
%TD*%
%TA.AperFunction,SMDPad,CuDef*%
%ADD31RoundRect,0.250000X-0.650000X1.000000X-0.650000X-1.000000X0.650000X-1.000000X0.650000X1.000000X0*%
%TD*%
%TA.AperFunction,SMDPad,CuDef*%
%ADD32RoundRect,0.150000X-0.512500X-0.150000X0.512500X-0.150000X0.512500X0.150000X-0.512500X0.150000X0*%
%TD*%
%TA.AperFunction,SMDPad,CuDef*%
%ADD33RoundRect,0.200000X0.200000X-0.250000X0.200000X0.250000X-0.200000X0.250000X-0.200000X-0.250000X0*%
%TD*%
%TA.AperFunction,SMDPad,CuDef*%
%ADD34RoundRect,0.135000X-0.135000X-0.185000X0.135000X-0.185000X0.135000X0.185000X-0.135000X0.185000X0*%
%TD*%
%TA.AperFunction,SMDPad,CuDef*%
%ADD35RoundRect,0.250000X0.650000X-1.000000X0.650000X1.000000X-0.650000X1.000000X-0.650000X-1.000000X0*%
%TD*%
%TA.AperFunction,SMDPad,CuDef*%
%ADD36RoundRect,0.150000X0.150000X-0.825000X0.150000X0.825000X-0.150000X0.825000X-0.150000X-0.825000X0*%
%TD*%
%TA.AperFunction,SMDPad,CuDef*%
%ADD37RoundRect,0.140000X-0.140000X-0.170000X0.140000X-0.170000X0.140000X0.170000X-0.140000X0.170000X0*%
%TD*%
%TA.AperFunction,SMDPad,CuDef*%
%ADD38RoundRect,0.200000X-0.200000X0.250000X-0.200000X-0.250000X0.200000X-0.250000X0.200000X0.250000X0*%
%TD*%
%TA.AperFunction,ViaPad*%
%ADD39C,0.600000*%
%TD*%
%TA.AperFunction,Conductor*%
%ADD40C,1.000000*%
%TD*%
%TA.AperFunction,Conductor*%
%ADD41C,0.200000*%
%TD*%
%TA.AperFunction,Conductor*%
%ADD42C,0.210000*%
%TD*%
%TA.AperFunction,Conductor*%
%ADD43C,0.150000*%
%TD*%
%TA.AperFunction,Conductor*%
%ADD44C,0.500000*%
%TD*%
G04 APERTURE END LIST*
D10*
%TO.P,R14,1*%
%TO.N,+2V8*%
X176400000Y-110590000D03*
%TO.P,R14,2*%
%TO.N,Net-(D5-A)*%
X176400000Y-111610000D03*
%TD*%
D11*
%TO.P,J3,1,Pin_1*%
%TO.N,+12V*%
X174110000Y-130000000D03*
D12*
%TO.P,J3,2,Pin_2*%
%TO.N,VCC*%
X176650000Y-130000000D03*
%TO.P,J3,3,Pin_3*%
%TO.N,/PAY*%
X179190000Y-130000000D03*
%TO.P,J3,4,Pin_4*%
%TO.N,/UART_TX*%
X181730000Y-130000000D03*
%TO.P,J3,5,Pin_5*%
%TO.N,/UART_RX*%
X184270000Y-130000000D03*
%TO.P,J3,6,Pin_6*%
%TO.N,/SWIO*%
X186810000Y-130000000D03*
%TO.P,J3,7,Pin_7*%
%TO.N,/~{RST}*%
X189350000Y-130000000D03*
%TO.P,J3,8,Pin_8*%
%TO.N,GND*%
X191890000Y-130000000D03*
%TD*%
D13*
%TO.P,C4,1*%
%TO.N,/~{RST}*%
X165480000Y-120000000D03*
%TO.P,C4,2*%
%TO.N,GND*%
X164520000Y-120000000D03*
%TD*%
D14*
%TO.P,D5,1,K*%
%TO.N,/LED*%
X176400000Y-114625000D03*
%TO.P,D5,2,A*%
%TO.N,Net-(D5-A)*%
X176400000Y-112975000D03*
%TD*%
D15*
%TO.P,R12,1*%
%TO.N,+2V8*%
X176400000Y-96210000D03*
%TO.P,R12,2*%
%TO.N,/BT1*%
X176400000Y-95190000D03*
%TD*%
D16*
%TO.P,R10,1*%
%TO.N,VCC*%
X165510000Y-113000000D03*
%TO.P,R10,2*%
%TO.N,/PAY*%
X164490000Y-113000000D03*
%TD*%
D17*
%TO.P,SW2,1,A*%
%TO.N,/BT2*%
X170500000Y-95080000D03*
X170500000Y-89320000D03*
%TO.P,SW2,2,B*%
%TO.N,GND*%
X174500000Y-95080000D03*
X174500000Y-89320000D03*
%TD*%
D18*
%TO.P,C5,1*%
%TO.N,+5V*%
X195050000Y-111000000D03*
%TO.P,C5,2*%
%TO.N,GND*%
X196950000Y-111000000D03*
%TD*%
D15*
%TO.P,R11,1*%
%TO.N,+2V8*%
X168700000Y-96210000D03*
%TO.P,R11,2*%
%TO.N,/BT2*%
X168700000Y-95190000D03*
%TD*%
%TO.P,R7,1*%
%TO.N,GND*%
X192460000Y-95700000D03*
%TO.P,R7,2*%
%TO.N,Net-(J1-CC1)*%
X192460000Y-94680000D03*
%TD*%
D19*
%TO.P,H4,1,1*%
%TO.N,GND*%
X180350000Y-110000000D03*
X180833274Y-108833274D03*
X180833274Y-111166726D03*
X182000000Y-108350000D03*
D20*
X182000000Y-110000000D03*
D19*
X182000000Y-111650000D03*
X183166726Y-108833274D03*
X183166726Y-111166726D03*
X183650000Y-110000000D03*
%TD*%
D15*
%TO.P,R3,1*%
%TO.N,+2V8*%
X183200000Y-119910000D03*
%TO.P,R3,2*%
%TO.N,/SDA*%
X183200000Y-118890000D03*
%TD*%
D19*
%TO.P,H1,1,1*%
%TO.N,GND*%
X164350000Y-92000000D03*
X164833274Y-90833274D03*
X164833274Y-93166726D03*
X166000000Y-90350000D03*
D20*
X166000000Y-92000000D03*
D19*
X166000000Y-93650000D03*
X167166726Y-90833274D03*
X167166726Y-93166726D03*
X167650000Y-92000000D03*
%TD*%
D21*
%TO.P,L2,1,1*%
%TO.N,Net-(D2-K)*%
X188050000Y-119000000D03*
%TO.P,L2,2,2*%
%TO.N,+5V*%
X197950000Y-119000000D03*
%TD*%
D22*
%TO.P,C6,1*%
%TO.N,+12V*%
X191950000Y-111000000D03*
%TO.P,C6,2*%
%TO.N,GND*%
X190050000Y-111000000D03*
%TD*%
D13*
%TO.P,C7,1*%
%TO.N,+12V*%
X191480000Y-109000000D03*
%TO.P,C7,2*%
%TO.N,GND*%
X190520000Y-109000000D03*
%TD*%
D15*
%TO.P,R13,1*%
%TO.N,+2V8*%
X184100000Y-100220000D03*
%TO.P,R13,2*%
%TO.N,/~{RST}*%
X184100000Y-99200000D03*
%TD*%
D17*
%TO.P,SW1,1,A*%
%TO.N,/BT1*%
X178200000Y-95080000D03*
X178200000Y-89320000D03*
%TO.P,SW1,2,B*%
%TO.N,GND*%
X182200000Y-95080000D03*
X182200000Y-89320000D03*
%TD*%
D23*
%TO.P,U3,1,PD4*%
%TO.N,unconnected-(U3-PD4-Pad1)*%
X168137500Y-118075000D03*
%TO.P,U3,2,PD5*%
%TO.N,/UART_TX*%
X168137500Y-118725000D03*
%TO.P,U3,3,PD6*%
%TO.N,/UART_RX*%
X168137500Y-119375000D03*
%TO.P,U3,4,NRST/PD7*%
%TO.N,/~{RST}*%
X168137500Y-120025000D03*
%TO.P,U3,5,OSC_IN/PA1*%
%TO.N,unconnected-(U3-OSC_IN{slash}PA1-Pad5)*%
X168137500Y-120675000D03*
%TO.P,U3,6,OSC_OUT/PA2*%
%TO.N,unconnected-(U3-OSC_OUT{slash}PA2-Pad6)*%
X168137500Y-121325000D03*
%TO.P,U3,7,VSS*%
%TO.N,GND*%
X168137500Y-121975000D03*
%TO.P,U3,8,PD0*%
%TO.N,unconnected-(U3-PD0-Pad8)*%
X168137500Y-122625000D03*
%TO.P,U3,9,VDD*%
%TO.N,+2V8*%
X168137500Y-123275000D03*
%TO.P,U3,10,PC0*%
%TO.N,/PAY_L*%
X168137500Y-123925000D03*
%TO.P,U3,11,PC1*%
%TO.N,/SDA*%
X173862500Y-123925000D03*
%TO.P,U3,12,PC2*%
%TO.N,/SCL*%
X173862500Y-123275000D03*
%TO.P,U3,13,PC3*%
%TO.N,/XSHUT*%
X173862500Y-122625000D03*
%TO.P,U3,14,PC4*%
%TO.N,/LED*%
X173862500Y-121975000D03*
%TO.P,U3,15,PC5*%
%TO.N,/BT1*%
X173862500Y-121325000D03*
%TO.P,U3,16,PC6*%
%TO.N,/BT2*%
X173862500Y-120675000D03*
%TO.P,U3,17,PC7*%
%TO.N,Net-(U3-PC7)*%
X173862500Y-120025000D03*
%TO.P,U3,18,PD1*%
%TO.N,/SWIO*%
X173862500Y-119375000D03*
%TO.P,U3,19,PD2*%
%TO.N,unconnected-(U3-PD2-Pad19)*%
X173862500Y-118725000D03*
%TO.P,U3,20,PD3*%
%TO.N,/PDIODE*%
X173862500Y-118075000D03*
%TD*%
D11*
%TO.P,D3,1,K*%
%TO.N,GND*%
X167000000Y-102540000D03*
D12*
%TO.P,D3,2,A*%
%TO.N,/PDIODE*%
X167000000Y-100000000D03*
%TD*%
D24*
%TO.P,U1,1,AVDDVCSEL*%
%TO.N,+2V8*%
X179525000Y-121140000D03*
D25*
X179400000Y-121000000D03*
%TO.P,U1,2,AVSSVCSEL*%
%TO.N,GND*%
X179400000Y-120200000D03*
%TO.P,U1,3,GND*%
X179400000Y-119400000D03*
%TO.P,U1,4,GND*%
X179400000Y-118600000D03*
%TO.P,U1,5,XSHUT*%
%TO.N,/XSHUT*%
X179400000Y-117800000D03*
%TO.P,U1,6,GND*%
%TO.N,GND*%
X180200000Y-117800000D03*
%TO.P,U1,7,GPIO1*%
%TO.N,Net-(U1-GPIO1)*%
X181000000Y-117800000D03*
%TO.P,U1,8,DNC*%
%TO.N,unconnected-(U1-DNC-Pad8)*%
X181000000Y-118600000D03*
%TO.P,U1,9,SDA*%
%TO.N,/SDA*%
X181000000Y-119400000D03*
%TO.P,U1,10,SCL*%
%TO.N,/SCL*%
X181000000Y-120200000D03*
%TO.P,U1,11,AVDD*%
%TO.N,+2V8*%
X181000000Y-121000000D03*
%TO.P,U1,12,GND*%
%TO.N,GND*%
X180200000Y-121000000D03*
%TD*%
D10*
%TO.P,R8,1*%
%TO.N,/PDIODE*%
X164240000Y-100340000D03*
%TO.P,R8,2*%
%TO.N,GND*%
X164240000Y-101360000D03*
%TD*%
D26*
%TO.P,C1,1*%
%TO.N,+5V*%
X169000000Y-114480000D03*
%TO.P,C1,2*%
%TO.N,GND*%
X169000000Y-113520000D03*
%TD*%
D27*
%TO.P,J1,A1,GND*%
%TO.N,GND*%
X194275000Y-96200000D03*
%TO.P,J1,A4,VBUS*%
%TO.N,Net-(D4-K)*%
X194275000Y-95400000D03*
D28*
%TO.P,J1,A5,CC1*%
%TO.N,Net-(J1-CC1)*%
X194275000Y-94250000D03*
%TO.P,J1,A6,D+*%
%TO.N,unconnected-(J1-D+-PadA6)*%
X194275000Y-93250000D03*
%TO.P,J1,A7,D-*%
%TO.N,unconnected-(J1-D--PadA7)*%
X194275000Y-92750000D03*
%TO.P,J1,A8*%
%TO.N,N/C*%
X194275000Y-91750000D03*
D27*
%TO.P,J1,A9,VBUS*%
%TO.N,Net-(D4-K)*%
X194275000Y-90600000D03*
%TO.P,J1,A12,GND*%
%TO.N,GND*%
X194275000Y-89800000D03*
%TO.P,J1,B1,GND*%
X194275000Y-89800000D03*
%TO.P,J1,B4,VBUS*%
%TO.N,Net-(D4-K)*%
X194275000Y-90600000D03*
D28*
%TO.P,J1,B5,CC2*%
%TO.N,Net-(J1-CC2)*%
X194275000Y-91250000D03*
%TO.P,J1,B6,D+*%
%TO.N,unconnected-(J1-D+-PadB6)*%
X194275000Y-92250000D03*
%TO.P,J1,B7,D-*%
%TO.N,unconnected-(J1-D--PadB7)*%
X194275000Y-93750000D03*
%TO.P,J1,B8*%
%TO.N,N/C*%
X194275000Y-94750000D03*
D27*
%TO.P,J1,B9,VBUS*%
%TO.N,Net-(D4-K)*%
X194275000Y-95400000D03*
%TO.P,J1,B12,GND*%
%TO.N,GND*%
X194275000Y-96200000D03*
D29*
%TO.P,J1,S1,SHIELD*%
X194875000Y-97320000D03*
D30*
X199075000Y-97320000D03*
D29*
X194875000Y-88680000D03*
D30*
X199075000Y-88680000D03*
%TD*%
D31*
%TO.P,D1,1,K*%
%TO.N,+12V*%
X172000000Y-105540000D03*
%TO.P,D1,2,A*%
%TO.N,Net-(D1-A)*%
X172000000Y-109540000D03*
%TD*%
D17*
%TO.P,SW3,1,A*%
%TO.N,GND*%
X178200000Y-104780000D03*
X178200000Y-99020000D03*
%TO.P,SW3,2,B*%
%TO.N,/~{RST}*%
X182200000Y-104780000D03*
X182200000Y-99020000D03*
%TD*%
D19*
%TO.P,H3,1,1*%
%TO.N,GND*%
X196350000Y-130000000D03*
X196833274Y-128833274D03*
X196833274Y-131166726D03*
X198000000Y-128350000D03*
D20*
X198000000Y-130000000D03*
D19*
X198000000Y-131650000D03*
X199166726Y-128833274D03*
X199166726Y-131166726D03*
X199650000Y-130000000D03*
%TD*%
D13*
%TO.P,C3,1*%
%TO.N,+2V8*%
X165480000Y-123000000D03*
%TO.P,C3,2*%
%TO.N,GND*%
X164520000Y-123000000D03*
%TD*%
D32*
%TO.P,U2,1,V_{IN}*%
%TO.N,+5V*%
X170862500Y-113050000D03*
%TO.P,U2,2,V_{SS}*%
%TO.N,GND*%
X170862500Y-114000000D03*
%TO.P,U2,3,CE*%
%TO.N,+5V*%
X170862500Y-114950000D03*
%TO.P,U2,4,NC*%
%TO.N,unconnected-(U2-NC-Pad4)*%
X173137500Y-114950000D03*
%TO.P,U2,5,V_{OUT}*%
%TO.N,+2V8*%
X173137500Y-113050000D03*
%TD*%
D33*
%TO.P,Q2,1,G*%
%TO.N,+2V8*%
X164050000Y-117000000D03*
%TO.P,Q2,2,S*%
%TO.N,/PAY_L*%
X165950000Y-117000000D03*
%TO.P,Q2,3,D*%
%TO.N,/PAY*%
X165000000Y-115000000D03*
%TD*%
D11*
%TO.P,L1,1,1*%
%TO.N,+12V*%
X167000000Y-106540000D03*
D12*
%TO.P,L1,2,2*%
%TO.N,Net-(D1-A)*%
X167000000Y-109080000D03*
%TD*%
D34*
%TO.P,R5,1*%
%TO.N,Net-(U3-PC7)*%
X171490000Y-98540000D03*
%TO.P,R5,2*%
%TO.N,Net-(Q1-G)*%
X172510000Y-98540000D03*
%TD*%
D35*
%TO.P,D2,1,K*%
%TO.N,Net-(D2-K)*%
X188000000Y-107000000D03*
%TO.P,D2,2,A*%
%TO.N,GND*%
X188000000Y-103000000D03*
%TD*%
D15*
%TO.P,R4,1*%
%TO.N,+2V8*%
X183200000Y-121910000D03*
%TO.P,R4,2*%
%TO.N,/SCL*%
X183200000Y-120890000D03*
%TD*%
D36*
%TO.P,U4,1,VIN*%
%TO.N,+12V*%
X192095000Y-106475000D03*
%TO.P,U4,2,OUT*%
%TO.N,Net-(D2-K)*%
X193365000Y-106475000D03*
%TO.P,U4,3,FB*%
%TO.N,+5V*%
X194635000Y-106475000D03*
%TO.P,U4,4,~{EN}*%
%TO.N,GND*%
X195905000Y-106475000D03*
%TO.P,U4,5,GND*%
X195905000Y-101525000D03*
%TO.P,U4,6,GND*%
X194635000Y-101525000D03*
%TO.P,U4,7,GND*%
X193365000Y-101525000D03*
%TO.P,U4,8,GND*%
X192095000Y-101525000D03*
%TD*%
D15*
%TO.P,R6,1*%
%TO.N,GND*%
X192500000Y-91760000D03*
%TO.P,R6,2*%
%TO.N,Net-(J1-CC2)*%
X192500000Y-90740000D03*
%TD*%
D35*
%TO.P,D4,1,K*%
%TO.N,Net-(D4-K)*%
X189460000Y-94190000D03*
%TO.P,D4,2,A*%
%TO.N,+5V*%
X189460000Y-90190000D03*
%TD*%
D37*
%TO.P,C8,1*%
%TO.N,+5V*%
X195520000Y-109000000D03*
%TO.P,C8,2*%
%TO.N,GND*%
X196480000Y-109000000D03*
%TD*%
D34*
%TO.P,R9,1*%
%TO.N,+2V8*%
X164490000Y-119000000D03*
%TO.P,R9,2*%
%TO.N,/PAY_L*%
X165510000Y-119000000D03*
%TD*%
D15*
%TO.P,R1,1*%
%TO.N,+2V8*%
X183200000Y-117910000D03*
%TO.P,R1,2*%
%TO.N,Net-(U1-GPIO1)*%
X183200000Y-116890000D03*
%TD*%
D19*
%TO.P,H2,1,1*%
%TO.N,GND*%
X164350000Y-130000000D03*
X164833274Y-128833274D03*
X164833274Y-131166726D03*
X166000000Y-128350000D03*
D20*
X166000000Y-130000000D03*
D19*
X166000000Y-131650000D03*
X167166726Y-128833274D03*
X167166726Y-131166726D03*
X167650000Y-130000000D03*
%TD*%
D26*
%TO.P,C2,1*%
%TO.N,+2V8*%
X178000000Y-121880000D03*
%TO.P,C2,2*%
%TO.N,GND*%
X178000000Y-120920000D03*
%TD*%
D15*
%TO.P,R2,1*%
%TO.N,+2V8*%
X178000000Y-118910000D03*
%TO.P,R2,2*%
%TO.N,/XSHUT*%
X178000000Y-117890000D03*
%TD*%
D38*
%TO.P,Q1,1,G*%
%TO.N,Net-(Q1-G)*%
X172950000Y-100540000D03*
%TO.P,Q1,2,S*%
%TO.N,GND*%
X171050000Y-100540000D03*
%TO.P,Q1,3,D*%
%TO.N,Net-(D1-A)*%
X172000000Y-102540000D03*
%TD*%
D39*
%TO.N,+5V*%
X171216000Y-115819000D03*
X195050000Y-116100000D03*
%TO.N,GND*%
X182915000Y-125937000D03*
X191250000Y-94500000D03*
X171396000Y-125780000D03*
X174037000Y-116483000D03*
X169621000Y-121459000D03*
X171662000Y-117573000D03*
X179091000Y-128085000D03*
X175700000Y-98120000D03*
X175817000Y-119157000D03*
X181380000Y-117060000D03*
X184780000Y-117270000D03*
X173110000Y-94640000D03*
X169264000Y-107815000D03*
X170375000Y-128750000D03*
X175590000Y-116761000D03*
X165488000Y-121537000D03*
%TO.N,+2V8*%
X177195000Y-122496000D03*
X182350000Y-116252000D03*
X179052500Y-121612500D03*
X185940000Y-115650000D03*
X169498000Y-123357000D03*
X183710000Y-116252000D03*
X178060000Y-119920000D03*
X164987000Y-117828000D03*
%TO.N,/~{RST}*%
X177190000Y-125700000D03*
X173900000Y-126670000D03*
%TO.N,+12V*%
X171536620Y-103704380D03*
X192095000Y-108385000D03*
X165317000Y-106428000D03*
%TO.N,VCC*%
X166770000Y-113002000D03*
%TO.N,/SWIO*%
X172686000Y-121626000D03*
X174399000Y-124895000D03*
%TO.N,/SDA*%
X181684000Y-122380000D03*
X182230000Y-119110000D03*
%TO.N,/SCL*%
X182253000Y-123343000D03*
X182240000Y-120200000D03*
%TO.N,Net-(U3-PC7)*%
X174339000Y-115166000D03*
X170224000Y-98586000D03*
%TO.N,/LED*%
X178060000Y-116900000D03*
X177720000Y-114630000D03*
%TO.N,/BT2*%
X171800000Y-95120000D03*
X171830000Y-89380000D03*
X176285997Y-104960000D03*
X176552838Y-116859615D03*
%TO.N,/BT1*%
X179510000Y-94910000D03*
X179470000Y-89360000D03*
X177040000Y-104960000D03*
X177306824Y-116864695D03*
%TD*%
D40*
%TO.N,+5V*%
X194635000Y-104637298D02*
X194635000Y-106475000D01*
X195050000Y-111000000D02*
X195050000Y-116100000D01*
D41*
X171146256Y-114950000D02*
X171776000Y-114320256D01*
X170862500Y-114950000D02*
X170862500Y-115465500D01*
D40*
X195050000Y-116100000D02*
X197950000Y-119000000D01*
X195050000Y-111000000D02*
X195050000Y-109470000D01*
D41*
X171146256Y-113050000D02*
X170862500Y-113050000D01*
D40*
X194635000Y-108115000D02*
X194635000Y-106475000D01*
D41*
X170862500Y-114950000D02*
X171146256Y-114950000D01*
X171776000Y-114320256D02*
X171776000Y-113679744D01*
X171776000Y-113679744D02*
X171146256Y-113050000D01*
D40*
X187909000Y-91741000D02*
X187909000Y-99450942D01*
D41*
X169000000Y-114480000D02*
X169470000Y-114950000D01*
D40*
X187909000Y-99450942D02*
X192156058Y-103698000D01*
X192156058Y-103698000D02*
X193695702Y-103698000D01*
D41*
X170862500Y-115465500D02*
X171216000Y-115819000D01*
X169470000Y-114950000D02*
X170862500Y-114950000D01*
D40*
X193695702Y-103698000D02*
X194635000Y-104637298D01*
X195520000Y-109000000D02*
X194635000Y-108115000D01*
X195050000Y-109470000D02*
X195520000Y-109000000D01*
X189460000Y-90190000D02*
X187909000Y-91741000D01*
D42*
%TO.N,GND*%
X194275000Y-96720000D02*
X194875000Y-97320000D01*
X192500000Y-91760000D02*
X192500000Y-93250000D01*
D41*
X170301000Y-114000000D02*
X169821000Y-113520000D01*
X165926000Y-121975000D02*
X165488000Y-121537000D01*
X169821000Y-113520000D02*
X169821000Y-112721000D01*
X168137500Y-121975000D02*
X165926000Y-121975000D01*
D42*
X194275000Y-89280000D02*
X194875000Y-88680000D01*
D41*
X170862500Y-114000000D02*
X170301000Y-114000000D01*
X169821000Y-112721000D02*
X169810000Y-112710000D01*
D42*
X194275000Y-89800000D02*
X194275000Y-89280000D01*
D41*
X179400000Y-120200000D02*
X178680000Y-120920000D01*
X168137500Y-121975000D02*
X169105000Y-121975000D01*
D42*
X192500000Y-93250000D02*
X191250000Y-94500000D01*
X192450000Y-95700000D02*
X191250000Y-94500000D01*
D41*
X179400000Y-120200000D02*
X180200000Y-121000000D01*
X179400000Y-120200000D02*
X179400000Y-118600000D01*
D42*
X192460000Y-95700000D02*
X192450000Y-95700000D01*
D41*
X178680000Y-120920000D02*
X178000000Y-120920000D01*
X179400000Y-118600000D02*
X180200000Y-117800000D01*
X169105000Y-121975000D02*
X169621000Y-121459000D01*
D42*
X194275000Y-96200000D02*
X194275000Y-96720000D01*
D41*
X169000000Y-113520000D02*
X169821000Y-113520000D01*
D43*
%TO.N,+2V8*%
X176400000Y-110590000D02*
X175597500Y-110590000D01*
X175226000Y-93479000D02*
X175590000Y-93843000D01*
X175590000Y-95400000D02*
X176400000Y-96210000D01*
X185711000Y-107865322D02*
X185711000Y-115380000D01*
D41*
X182290000Y-121000000D02*
X183200000Y-121910000D01*
X179052500Y-121612500D02*
X178785000Y-121880000D01*
X183200000Y-121910000D02*
X183771000Y-121339000D01*
D43*
X168154000Y-95664000D02*
X168154000Y-94901726D01*
D41*
X179901000Y-121501000D02*
X180499000Y-121501000D01*
D43*
X178000000Y-118910000D02*
X178000000Y-119860000D01*
X185711000Y-115380000D02*
X185711000Y-115421000D01*
D41*
X183771000Y-118481000D02*
X183771000Y-119339000D01*
X177384000Y-122496000D02*
X178000000Y-121880000D01*
X178000000Y-121880000D02*
X178785000Y-121880000D01*
X183771000Y-116591372D02*
X183431628Y-116252000D01*
D43*
X175854000Y-94901726D02*
X177615726Y-93140000D01*
D41*
X164050000Y-118560000D02*
X164490000Y-119000000D01*
D43*
X184497839Y-106652161D02*
X185711000Y-107865322D01*
X184160000Y-106314322D02*
X184497839Y-106652161D01*
X168154000Y-94901726D02*
X169576726Y-93479000D01*
X176400000Y-96210000D02*
X175854000Y-95664000D01*
X185711000Y-115421000D02*
X185940000Y-115650000D01*
D41*
X177195000Y-122496000D02*
X177384000Y-122496000D01*
X183200000Y-117910000D02*
X183771000Y-118481000D01*
X179400000Y-121000000D02*
X179901000Y-121501000D01*
D43*
X175590000Y-93843000D02*
X175590000Y-95400000D01*
X175597500Y-110590000D02*
X173137500Y-113050000D01*
X169576726Y-93479000D02*
X175226000Y-93479000D01*
D41*
X181000000Y-121000000D02*
X182290000Y-121000000D01*
D43*
X177615726Y-93140000D02*
X182640000Y-93140000D01*
X184646000Y-99674000D02*
X184100000Y-100220000D01*
D41*
X165755000Y-123275000D02*
X165480000Y-123000000D01*
X183431628Y-116252000D02*
X176310000Y-116252000D01*
D43*
X184100000Y-100220000D02*
X184160000Y-100280000D01*
D41*
X183771000Y-117339000D02*
X183771000Y-116591372D01*
X173137500Y-113050000D02*
X174018000Y-113930500D01*
X183200000Y-117910000D02*
X183771000Y-117339000D01*
X183771000Y-119339000D02*
X183200000Y-119910000D01*
D43*
X175854000Y-95664000D02*
X175854000Y-94901726D01*
X182640000Y-93140000D02*
X184646000Y-95146000D01*
D41*
X169498000Y-123357000D02*
X168219500Y-123357000D01*
X174018000Y-113930500D02*
X174018000Y-113960000D01*
X164159000Y-117000000D02*
X164987000Y-117828000D01*
X179525000Y-121140000D02*
X179052500Y-121612500D01*
X168137500Y-123275000D02*
X165755000Y-123275000D01*
X176310000Y-116252000D02*
X174018000Y-113960000D01*
X183771000Y-120481000D02*
X183200000Y-119910000D01*
D43*
X178000000Y-119860000D02*
X178060000Y-119920000D01*
D41*
X164050000Y-117000000D02*
X164159000Y-117000000D01*
D43*
X184646000Y-95146000D02*
X184646000Y-99674000D01*
D41*
X168219500Y-123357000D02*
X168137500Y-123275000D01*
D43*
X168700000Y-96210000D02*
X168154000Y-95664000D01*
X184160000Y-100280000D02*
X184160000Y-106314322D01*
D41*
X164050000Y-117000000D02*
X164050000Y-118560000D01*
X183771000Y-121339000D02*
X183771000Y-120481000D01*
X180499000Y-121501000D02*
X181000000Y-121000000D01*
%TO.N,/~{RST}*%
X185600000Y-128548000D02*
X185932000Y-128548000D01*
X185932000Y-128548000D02*
X187898000Y-128548000D01*
D43*
X182200000Y-99020000D02*
X182200000Y-104780000D01*
X185410000Y-128358000D02*
X185600000Y-128548000D01*
X184100000Y-99200000D02*
X182380000Y-99200000D01*
D41*
X168137500Y-120025000D02*
X168971889Y-120025000D01*
X172172000Y-124942000D02*
X173900000Y-126670000D01*
X187898000Y-128548000D02*
X189350000Y-130000000D01*
X177190000Y-125700000D02*
X177435000Y-125945000D01*
D43*
X182380000Y-99200000D02*
X182200000Y-99020000D01*
D41*
X172172000Y-123225111D02*
X172172000Y-124942000D01*
X180438778Y-125945000D02*
X183041778Y-128548000D01*
D43*
X185410000Y-107990000D02*
X185410000Y-128358000D01*
D41*
X183041778Y-128548000D02*
X185600000Y-128548000D01*
D43*
X182200000Y-104780000D02*
X185410000Y-107990000D01*
D41*
X165480000Y-120000000D02*
X168112500Y-120000000D01*
X177435000Y-125945000D02*
X180438778Y-125945000D01*
X168112500Y-120000000D02*
X168137500Y-120025000D01*
X168971889Y-120025000D02*
X172172000Y-123225111D01*
D40*
%TO.N,+12V*%
X192095000Y-106475000D02*
X192095000Y-108385000D01*
X167000000Y-106540000D02*
X171000000Y-106540000D01*
D41*
X162697000Y-110271000D02*
X164837000Y-108131000D01*
D40*
X172000000Y-105540000D02*
X172000000Y-104167760D01*
X191480000Y-110530000D02*
X191950000Y-111000000D01*
X171000000Y-106540000D02*
X172000000Y-105540000D01*
X172000000Y-104167760D02*
X171536620Y-103704380D01*
X192095000Y-108385000D02*
X191480000Y-109000000D01*
D41*
X169660385Y-130000000D02*
X162697000Y-123036616D01*
X162697000Y-123036616D02*
X162697000Y-110271000D01*
X165317000Y-107651000D02*
X165317000Y-106428000D01*
X164837000Y-108131000D02*
X165317000Y-107651000D01*
X174110000Y-130000000D02*
X169660385Y-130000000D01*
D40*
X191480000Y-109000000D02*
X191480000Y-110530000D01*
%TO.N,Net-(D1-A)*%
X173551000Y-107989000D02*
X173551000Y-104091000D01*
X167000000Y-109080000D02*
X171540000Y-109080000D01*
X173551000Y-104091000D02*
X172000000Y-102540000D01*
X171540000Y-109080000D02*
X172000000Y-109540000D01*
X172000000Y-109540000D02*
X173551000Y-107989000D01*
%TO.N,Net-(D2-K)*%
X193365000Y-104995058D02*
X193365000Y-106475000D01*
X193365000Y-113685000D02*
X188050000Y-119000000D01*
X193218942Y-104849000D02*
X193365000Y-104995058D01*
X188000000Y-107000000D02*
X190151000Y-104849000D01*
X190151000Y-104849000D02*
X193218942Y-104849000D01*
X193365000Y-106475000D02*
X193365000Y-113685000D01*
D41*
%TO.N,/PDIODE*%
X173862500Y-118075000D02*
X172127000Y-116339500D01*
X165899000Y-101101000D02*
X167000000Y-100000000D01*
X169658050Y-110181000D02*
X166543950Y-110181000D01*
X164240000Y-100340000D02*
X166660000Y-100340000D01*
X172127000Y-116339500D02*
X172127000Y-112649950D01*
X166543950Y-110181000D02*
X165899000Y-109536050D01*
X165899000Y-109536050D02*
X165899000Y-101101000D01*
X172127000Y-112649950D02*
X169658050Y-110181000D01*
X166660000Y-100340000D02*
X167000000Y-100000000D01*
%TO.N,Net-(J1-CC1)*%
X192890000Y-94250000D02*
X194275000Y-94250000D01*
X192460000Y-94680000D02*
X192890000Y-94250000D01*
%TO.N,Net-(J1-CC2)*%
X192460000Y-90700000D02*
X193010000Y-91250000D01*
X193010000Y-91250000D02*
X194275000Y-91250000D01*
%TO.N,/UART_RX*%
X171015000Y-119375000D02*
X171780000Y-120140000D01*
X175202452Y-126998000D02*
X180002612Y-126998000D01*
X180002612Y-126998000D02*
X180629000Y-127624388D01*
X180629000Y-130456050D02*
X181273950Y-131101000D01*
X171780000Y-120140000D02*
X171780000Y-122126390D01*
X168137500Y-119375000D02*
X171015000Y-119375000D01*
X172523000Y-124318549D02*
X175202452Y-126998000D01*
X172523000Y-122869389D02*
X172523000Y-124318549D01*
X171780000Y-122126390D02*
X172523000Y-122869389D01*
X180629000Y-127624388D02*
X180629000Y-130456050D01*
X183169000Y-131101000D02*
X184270000Y-130000000D01*
X181273950Y-131101000D02*
X183169000Y-131101000D01*
%TO.N,VCC*%
X165512000Y-113002000D02*
X165510000Y-113000000D01*
X166770000Y-113002000D02*
X165512000Y-113002000D01*
%TO.N,/SWIO*%
X175800000Y-126296000D02*
X180293389Y-126296000D01*
X185709000Y-128899000D02*
X186810000Y-130000000D01*
X173862500Y-119375000D02*
X173125001Y-119375000D01*
X173125001Y-119375000D02*
X172686000Y-119814001D01*
X174399000Y-124895000D02*
X175800000Y-126296000D01*
X180293389Y-126296000D02*
X182896388Y-128899000D01*
X182896388Y-128899000D02*
X185709000Y-128899000D01*
X172686000Y-119814001D02*
X172686000Y-121626000D01*
%TO.N,/UART_TX*%
X172131000Y-121981001D02*
X172874000Y-122724001D01*
X172131000Y-119411000D02*
X172131000Y-121981001D01*
X172874000Y-122724001D02*
X172874000Y-124173160D01*
X180148000Y-126647000D02*
X181730000Y-128229000D01*
X181730000Y-128229000D02*
X181730000Y-130000000D01*
X175347840Y-126647000D02*
X180148000Y-126647000D01*
X171445000Y-118725000D02*
X172131000Y-119411000D01*
X172874000Y-124173160D02*
X175347840Y-126647000D01*
X168137500Y-118725000D02*
X171445000Y-118725000D01*
%TO.N,/PAY*%
X164490000Y-114490000D02*
X165000000Y-115000000D01*
X167505774Y-127349000D02*
X163048000Y-122891227D01*
X164460259Y-115000000D02*
X165000000Y-115000000D01*
X163048000Y-122891227D02*
X163048000Y-116412259D01*
X179190000Y-130000000D02*
X176539000Y-127349000D01*
X176539000Y-127349000D02*
X167505774Y-127349000D01*
X163048000Y-116412259D02*
X164460259Y-115000000D01*
X164490000Y-113000000D02*
X164490000Y-114490000D01*
D40*
%TO.N,Net-(Q1-G)*%
X172950000Y-98980000D02*
X172510000Y-98540000D01*
X172950000Y-100540000D02*
X172950000Y-98980000D01*
D41*
%TO.N,/PAY_L*%
X168137500Y-123925000D02*
X164578162Y-123925000D01*
X165950000Y-118560000D02*
X165510000Y-119000000D01*
X165950000Y-117000000D02*
X165950000Y-118560000D01*
X163657648Y-116299000D02*
X165249000Y-116299000D01*
X165249000Y-116299000D02*
X165950000Y-117000000D01*
X163399000Y-122745838D02*
X163399000Y-116557648D01*
X164578162Y-123925000D02*
X163399000Y-122745838D01*
X163399000Y-116557648D02*
X163657648Y-116299000D01*
%TO.N,Net-(U1-GPIO1)*%
X182290000Y-117800000D02*
X183200000Y-116890000D01*
X181000000Y-117800000D02*
X182290000Y-117800000D01*
%TO.N,/XSHUT*%
X179310000Y-117890000D02*
X179400000Y-117800000D01*
X173862500Y-122625000D02*
X176039838Y-122625000D01*
X176039838Y-122625000D02*
X177439000Y-121225838D01*
X177439000Y-121225838D02*
X177439000Y-121000000D01*
X178000000Y-117890000D02*
X179310000Y-117890000D01*
X177439000Y-121000000D02*
X177429000Y-120990000D01*
X177429000Y-120990000D02*
X177429000Y-118461000D01*
X177429000Y-118461000D02*
X178000000Y-117890000D01*
%TO.N,/SDA*%
X180139000Y-123925000D02*
X173862500Y-123925000D01*
X182450000Y-118890000D02*
X181940000Y-119400000D01*
X181684000Y-122380000D02*
X180139000Y-123925000D01*
X183200000Y-118890000D02*
X182450000Y-118890000D01*
X181940000Y-119400000D02*
X181000000Y-119400000D01*
X182450000Y-118890000D02*
X182430000Y-118910000D01*
%TO.N,/SCL*%
X182330000Y-120190000D02*
X182250000Y-120190000D01*
X182253000Y-122164111D02*
X181913889Y-121825000D01*
X180004111Y-123275000D02*
X173862500Y-123275000D01*
X182340000Y-120200000D02*
X182330000Y-120190000D01*
X182250000Y-120190000D02*
X182240000Y-120200000D01*
X181913889Y-121825000D02*
X181454111Y-121825000D01*
X183200000Y-120890000D02*
X182510000Y-120200000D01*
X182510000Y-120200000D02*
X182340000Y-120200000D01*
X182253000Y-123343000D02*
X182253000Y-122164111D01*
X181454111Y-121825000D02*
X180004111Y-123275000D01*
X182240000Y-120200000D02*
X181000000Y-120200000D01*
%TO.N,Net-(U3-PC7)*%
X170224000Y-98586000D02*
X171444000Y-98586000D01*
X171444000Y-98586000D02*
X171490000Y-98540000D01*
X174851000Y-115678000D02*
X174339000Y-115166000D01*
X174599999Y-120025000D02*
X174851000Y-119773999D01*
X173862500Y-120025000D02*
X174599999Y-120025000D01*
X174851000Y-119773999D02*
X174851000Y-115678000D01*
D43*
%TO.N,/LED*%
X176228804Y-121975000D02*
X177103000Y-121100804D01*
X177720000Y-114630000D02*
X176405000Y-114630000D01*
X176405000Y-114630000D02*
X176400000Y-114625000D01*
X177103000Y-121100804D02*
X177103000Y-119410000D01*
X173862500Y-121975000D02*
X176228804Y-121975000D01*
X177103000Y-117857000D02*
X178060000Y-116900000D01*
X177103000Y-119410000D02*
X177103000Y-117857000D01*
%TO.N,Net-(D5-A)*%
X176400000Y-112975000D02*
X176400000Y-111610000D01*
%TO.N,/BT2*%
X171830000Y-89380000D02*
X170560000Y-89380000D01*
X168700000Y-95190000D02*
X170390000Y-95190000D01*
X176501000Y-120250000D02*
X176501000Y-116911453D01*
X170560000Y-89380000D02*
X170500000Y-89320000D01*
X176285997Y-104960000D02*
X176285997Y-100865997D01*
X176285997Y-100865997D02*
X170500000Y-95080000D01*
X176501000Y-116911453D02*
X176552838Y-116859615D01*
X171760000Y-95080000D02*
X171800000Y-95120000D01*
X170390000Y-95190000D02*
X170500000Y-95080000D01*
X170500000Y-95080000D02*
X171760000Y-95080000D01*
X173862500Y-120675000D02*
X176076000Y-120675000D01*
X176076000Y-120675000D02*
X176501000Y-120250000D01*
D44*
%TO.N,Net-(D4-K)*%
X189460000Y-94190000D02*
X191739000Y-91911000D01*
X191920000Y-90069000D02*
X191739000Y-90250000D01*
X191739000Y-91911000D02*
X191739000Y-90250000D01*
X193181000Y-95540000D02*
X193181000Y-96060760D01*
X193254000Y-90501000D02*
X193353000Y-90600000D01*
X191641000Y-96371000D02*
X189460000Y-94190000D01*
D41*
X195146000Y-95151000D02*
X194897000Y-95400000D01*
X194275000Y-90600000D02*
X194897000Y-90600000D01*
X194897000Y-95400000D02*
X194275000Y-95400000D01*
D44*
X192870760Y-96371000D02*
X191641000Y-96371000D01*
D41*
X195146000Y-90849000D02*
X195146000Y-95151000D01*
D44*
X193321000Y-95400000D02*
X193181000Y-95540000D01*
D41*
X194897000Y-90600000D02*
X195146000Y-90849000D01*
D44*
X193181000Y-96060760D02*
X192870760Y-96371000D01*
X193254000Y-90412240D02*
X192910760Y-90069000D01*
X193254000Y-90501000D02*
X193254000Y-90412240D01*
X194275000Y-95400000D02*
X193321000Y-95400000D01*
X193353000Y-90600000D02*
X194275000Y-90600000D01*
X192910760Y-90069000D02*
X191920000Y-90069000D01*
D43*
%TO.N,/BT1*%
X176802000Y-117369519D02*
X177306824Y-116864695D01*
X178200000Y-95080000D02*
X179340000Y-95080000D01*
X176400000Y-95190000D02*
X178090000Y-95190000D01*
X179470000Y-89360000D02*
X178240000Y-89360000D01*
X178090000Y-95190000D02*
X178200000Y-95080000D01*
X176167000Y-121325000D02*
X176802000Y-120690000D01*
X179340000Y-95080000D02*
X179510000Y-94910000D01*
X177040000Y-104960000D02*
X177040000Y-96240000D01*
X178240000Y-89360000D02*
X178200000Y-89320000D01*
X176802000Y-120690000D02*
X176802000Y-117369519D01*
X177040000Y-96240000D02*
X178200000Y-95080000D01*
X173862500Y-121325000D02*
X176167000Y-121325000D01*
%TD*%
%TA.AperFunction,Conductor*%
%TO.N,GND*%
G36*
X179873107Y-127368185D02*
G01*
X179893749Y-127384819D01*
X180242181Y-127733250D01*
X180275666Y-127794573D01*
X180278500Y-127820931D01*
X180278500Y-129244276D01*
X180258815Y-129311315D01*
X180206011Y-129357070D01*
X180136853Y-129367014D01*
X180073297Y-129337989D01*
X180054183Y-129317163D01*
X180029414Y-129283072D01*
X179906930Y-129160588D01*
X179906928Y-129160586D01*
X179766788Y-129058768D01*
X179612445Y-128980127D01*
X179447701Y-128926598D01*
X179447699Y-128926597D01*
X179447698Y-128926597D01*
X179290640Y-128901722D01*
X179276611Y-128899500D01*
X179103389Y-128899500D01*
X179089360Y-128901722D01*
X178932301Y-128926597D01*
X178763028Y-128981597D01*
X178693186Y-128983592D01*
X178637029Y-128951347D01*
X177245863Y-127560181D01*
X177212378Y-127498858D01*
X177217362Y-127429166D01*
X177259234Y-127373233D01*
X177324698Y-127348816D01*
X177333544Y-127348500D01*
X179806068Y-127348500D01*
X179873107Y-127368185D01*
G37*
%TD.AperFunction*%
%TA.AperFunction,Conductor*%
G36*
X164713039Y-120019685D02*
G01*
X164758794Y-120072489D01*
X164770000Y-120124000D01*
X164770000Y-120804503D01*
X164916195Y-120762031D01*
X165055374Y-120679721D01*
X165055379Y-120679717D01*
X165148333Y-120586763D01*
X165209656Y-120553278D01*
X165255410Y-120551970D01*
X165309265Y-120560500D01*
X165650734Y-120560499D01*
X165650739Y-120560499D01*
X165650739Y-120560498D01*
X165713869Y-120550500D01*
X165742170Y-120546018D01*
X165742171Y-120546018D01*
X165742172Y-120546017D01*
X165742175Y-120546017D01*
X165852391Y-120489859D01*
X165939859Y-120402391D01*
X165939860Y-120402387D01*
X165940420Y-120401619D01*
X165941346Y-120400904D01*
X165946760Y-120395491D01*
X165947459Y-120396190D01*
X165995748Y-120358951D01*
X166040741Y-120350500D01*
X167033988Y-120350500D01*
X167101027Y-120370185D01*
X167146782Y-120422989D01*
X167156726Y-120492147D01*
X167156692Y-120492378D01*
X167149500Y-120541739D01*
X167149500Y-120808260D01*
X167159426Y-120876392D01*
X167159426Y-120876393D01*
X167193230Y-120945541D01*
X167204988Y-121014414D01*
X167193230Y-121054459D01*
X167159426Y-121123606D01*
X167159426Y-121123607D01*
X167149500Y-121191739D01*
X167149500Y-121326514D01*
X167129815Y-121393553D01*
X167100987Y-121424889D01*
X167072078Y-121447071D01*
X166975899Y-121572413D01*
X166915444Y-121718368D01*
X166907987Y-121775000D01*
X167455358Y-121775000D01*
X167459451Y-121776201D01*
X167462253Y-121775697D01*
X167462253Y-121775500D01*
X167463353Y-121775500D01*
X167464326Y-121775325D01*
X167466739Y-121775500D01*
X167466740Y-121775500D01*
X168808261Y-121775500D01*
X168810674Y-121775325D01*
X168811482Y-121775500D01*
X168812747Y-121775500D01*
X168812747Y-121775773D01*
X168814420Y-121776136D01*
X168819642Y-121775000D01*
X169367010Y-121775000D01*
X169367011Y-121774998D01*
X169359557Y-121718372D01*
X169359555Y-121718366D01*
X169299100Y-121572414D01*
X169202921Y-121447071D01*
X169174013Y-121424889D01*
X169132811Y-121368461D01*
X169125500Y-121326514D01*
X169125500Y-121191739D01*
X169115573Y-121123608D01*
X169115572Y-121123606D01*
X169081768Y-121054458D01*
X169081201Y-121051135D01*
X169079060Y-121048529D01*
X169075362Y-121016936D01*
X169070010Y-120985587D01*
X169071213Y-120981487D01*
X169070938Y-120979133D01*
X169081769Y-120945541D01*
X169095949Y-120916535D01*
X169108916Y-120890009D01*
X169156042Y-120838428D01*
X169223576Y-120820513D01*
X169290075Y-120841953D01*
X169307997Y-120856789D01*
X171785181Y-123333973D01*
X171818666Y-123395296D01*
X171821500Y-123421654D01*
X171821500Y-124988143D01*
X171843536Y-125070386D01*
X171843551Y-125070437D01*
X171845386Y-125077290D01*
X171891527Y-125157208D01*
X171891531Y-125157213D01*
X173313181Y-126578863D01*
X173346666Y-126640186D01*
X173348145Y-126648260D01*
X173349500Y-126657349D01*
X173349500Y-126742475D01*
X173378105Y-126849232D01*
X173379147Y-126856216D01*
X173375284Y-126884107D01*
X173374614Y-126912256D01*
X173370555Y-126918252D01*
X173369562Y-126925425D01*
X173351233Y-126946800D01*
X173335451Y-126970119D01*
X173328795Y-126972969D01*
X173324082Y-126978466D01*
X173297107Y-126986538D01*
X173271223Y-126997623D01*
X173257297Y-126998452D01*
X173257146Y-126998498D01*
X173257041Y-126998467D01*
X173256502Y-126998500D01*
X167702318Y-126998500D01*
X167635279Y-126978815D01*
X167614637Y-126962181D01*
X166424931Y-125772475D01*
X165139635Y-124487180D01*
X165106151Y-124425858D01*
X165111135Y-124356166D01*
X165153007Y-124300233D01*
X165218471Y-124275816D01*
X165227317Y-124275500D01*
X167203456Y-124275500D01*
X167270495Y-124295185D01*
X167291137Y-124311819D01*
X167293514Y-124314196D01*
X167293515Y-124314196D01*
X167293517Y-124314198D01*
X167398607Y-124365573D01*
X167431819Y-124370412D01*
X167466739Y-124375500D01*
X167466740Y-124375500D01*
X168808261Y-124375500D01*
X168830971Y-124372191D01*
X168876393Y-124365573D01*
X168981483Y-124314198D01*
X169064198Y-124231483D01*
X169115573Y-124126393D01*
X169125500Y-124058260D01*
X169125500Y-123988707D01*
X169145185Y-123921668D01*
X169197989Y-123875913D01*
X169267147Y-123865969D01*
X169281594Y-123868932D01*
X169285510Y-123869981D01*
X169285515Y-123869984D01*
X169425525Y-123907500D01*
X169425528Y-123907500D01*
X169570472Y-123907500D01*
X169570475Y-123907500D01*
X169710485Y-123869984D01*
X169836015Y-123797509D01*
X169938509Y-123695015D01*
X170010984Y-123569485D01*
X170048500Y-123429475D01*
X170048500Y-123284525D01*
X170010984Y-123144515D01*
X169938509Y-123018985D01*
X169836015Y-122916491D01*
X169836013Y-122916490D01*
X169836011Y-122916488D01*
X169710488Y-122844017D01*
X169710489Y-122844017D01*
X169673161Y-122834015D01*
X169570475Y-122806500D01*
X169425525Y-122806500D01*
X169285515Y-122844016D01*
X169285513Y-122844016D01*
X169281594Y-122845067D01*
X169256598Y-122844471D01*
X169231853Y-122848030D01*
X169222272Y-122843654D01*
X169211744Y-122843404D01*
X169191039Y-122829391D01*
X169168297Y-122819005D01*
X169162603Y-122810145D01*
X169153881Y-122804242D01*
X169144039Y-122781258D01*
X169130523Y-122760227D01*
X169128243Y-122744371D01*
X169126377Y-122740013D01*
X169125500Y-122725292D01*
X169125500Y-122623484D01*
X169145185Y-122556445D01*
X169174015Y-122525107D01*
X169202923Y-122502925D01*
X169299100Y-122377586D01*
X169359555Y-122231631D01*
X169367012Y-122175000D01*
X168819642Y-122175000D01*
X168810674Y-122174675D01*
X168808261Y-122174500D01*
X168808260Y-122174500D01*
X167466740Y-122174500D01*
X167466739Y-122174500D01*
X167464326Y-122174675D01*
X167455358Y-122175000D01*
X166907990Y-122175000D01*
X166907988Y-122175001D01*
X166915442Y-122231627D01*
X166915444Y-122231633D01*
X166975899Y-122377585D01*
X167072076Y-122502925D01*
X167100985Y-122525107D01*
X167102204Y-122526776D01*
X167104108Y-122527584D01*
X167122710Y-122554859D01*
X167142189Y-122581534D01*
X167142679Y-122584137D01*
X167143477Y-122585307D01*
X167146446Y-122604130D01*
X167149454Y-122620091D01*
X167149500Y-122621771D01*
X167149500Y-122758260D01*
X167154099Y-122789830D01*
X167154299Y-122797107D01*
X167147160Y-122824132D01*
X167143235Y-122851801D01*
X167138361Y-122857446D01*
X167136456Y-122864660D01*
X167115841Y-122883534D01*
X167097579Y-122904690D01*
X167090425Y-122906804D01*
X167084923Y-122911843D01*
X167057376Y-122916576D01*
X167030576Y-122924500D01*
X166134499Y-122924500D01*
X166067460Y-122904815D01*
X166021705Y-122852011D01*
X166011279Y-122804085D01*
X166010881Y-122804117D01*
X166010651Y-122801201D01*
X166010499Y-122800500D01*
X166010499Y-122799260D01*
X165996018Y-122707829D01*
X165996018Y-122707828D01*
X165996017Y-122707826D01*
X165996017Y-122707825D01*
X165939859Y-122597609D01*
X165939857Y-122597607D01*
X165939854Y-122597603D01*
X165852396Y-122510145D01*
X165852393Y-122510143D01*
X165852391Y-122510141D01*
X165742175Y-122453983D01*
X165742174Y-122453982D01*
X165742171Y-122453981D01*
X165650735Y-122439500D01*
X165309266Y-122439500D01*
X165255413Y-122448030D01*
X165186119Y-122439074D01*
X165148335Y-122413237D01*
X165055383Y-122320285D01*
X165055374Y-122320278D01*
X164916193Y-122237967D01*
X164916190Y-122237965D01*
X164770001Y-122195493D01*
X164770000Y-122195494D01*
X164770000Y-122876000D01*
X164750315Y-122943039D01*
X164697511Y-122988794D01*
X164646000Y-123000000D01*
X164394000Y-123000000D01*
X164326961Y-122980315D01*
X164281206Y-122927511D01*
X164270000Y-122876000D01*
X164270000Y-122195494D01*
X164269998Y-122195493D01*
X164123809Y-122237965D01*
X164123806Y-122237967D01*
X163984625Y-122320278D01*
X163984616Y-122320285D01*
X163961181Y-122343721D01*
X163899858Y-122377206D01*
X163830166Y-122372222D01*
X163774233Y-122330350D01*
X163749816Y-122264886D01*
X163749500Y-122256040D01*
X163749500Y-120743960D01*
X163769185Y-120676921D01*
X163821989Y-120631166D01*
X163891147Y-120621222D01*
X163954703Y-120650247D01*
X163961181Y-120656279D01*
X163984616Y-120679714D01*
X163984625Y-120679721D01*
X164123804Y-120762031D01*
X164270000Y-120804504D01*
X164270000Y-120124000D01*
X164289685Y-120056961D01*
X164342489Y-120011206D01*
X164394000Y-120000000D01*
X164646000Y-120000000D01*
X164713039Y-120019685D01*
G37*
%TD.AperFunction*%
%TA.AperFunction,Conductor*%
G36*
X181900054Y-116611144D02*
G01*
X181930041Y-116617668D01*
X181935056Y-116621422D01*
X181937653Y-116622185D01*
X181958295Y-116638819D01*
X182011985Y-116692509D01*
X182011986Y-116692510D01*
X182011988Y-116692511D01*
X182137511Y-116764982D01*
X182137512Y-116764982D01*
X182137515Y-116764984D01*
X182277525Y-116802500D01*
X182277528Y-116802500D01*
X182422472Y-116802500D01*
X182422475Y-116802500D01*
X182473409Y-116788852D01*
X182498401Y-116789447D01*
X182523147Y-116785889D01*
X182532727Y-116790264D01*
X182543256Y-116790515D01*
X182563959Y-116804527D01*
X182586703Y-116814914D01*
X182592397Y-116823774D01*
X182601118Y-116829677D01*
X182610959Y-116852657D01*
X182624477Y-116873692D01*
X182626756Y-116889546D01*
X182628623Y-116893905D01*
X182629500Y-116908627D01*
X182629500Y-116913456D01*
X182609815Y-116980495D01*
X182593181Y-117001137D01*
X182181137Y-117413181D01*
X182119814Y-117446666D01*
X182093456Y-117449500D01*
X181481899Y-117449500D01*
X181414860Y-117429815D01*
X181394217Y-117413180D01*
X181346212Y-117365174D01*
X181346210Y-117365172D01*
X181233628Y-117310135D01*
X181233626Y-117310134D01*
X181233625Y-117310134D01*
X181160636Y-117299500D01*
X180884745Y-117299500D01*
X180817706Y-117279815D01*
X180797063Y-117263181D01*
X180711112Y-117177229D01*
X180711108Y-117177226D01*
X180575188Y-117096844D01*
X180575187Y-117096843D01*
X180450000Y-117060472D01*
X180450000Y-118539553D01*
X180491743Y-118595481D01*
X180499500Y-118638650D01*
X180499500Y-118760636D01*
X180508614Y-118823198D01*
X180510134Y-118833626D01*
X180564846Y-118945540D01*
X180565131Y-118947210D01*
X180566239Y-118948489D01*
X180570985Y-118981497D01*
X180576605Y-119014413D01*
X180575942Y-119015971D01*
X180576183Y-119017647D01*
X180564846Y-119054460D01*
X180510134Y-119166373D01*
X180510134Y-119166375D01*
X180499500Y-119239364D01*
X180499500Y-119560636D01*
X180506633Y-119609597D01*
X180510134Y-119633626D01*
X180564846Y-119745540D01*
X180565131Y-119747210D01*
X180566239Y-119748489D01*
X180570985Y-119781497D01*
X180576605Y-119814413D01*
X180575942Y-119815971D01*
X180576183Y-119817647D01*
X180564846Y-119854460D01*
X180510134Y-119966373D01*
X180510134Y-119966375D01*
X180499500Y-120039364D01*
X180499500Y-120039369D01*
X180499500Y-120161348D01*
X180479815Y-120228387D01*
X180450000Y-120260458D01*
X180450000Y-121002956D01*
X180441355Y-121032396D01*
X180434832Y-121062383D01*
X180431077Y-121067398D01*
X180430315Y-121069995D01*
X180413681Y-121090637D01*
X180390137Y-121114181D01*
X180328814Y-121147666D01*
X180302456Y-121150500D01*
X180097544Y-121150500D01*
X180030505Y-121130815D01*
X180009863Y-121114181D01*
X179936819Y-121041137D01*
X179903334Y-120979814D01*
X179900500Y-120953456D01*
X179900500Y-120850862D01*
X179920185Y-120783823D01*
X179936819Y-120763181D01*
X179950000Y-120750000D01*
X179950000Y-120450000D01*
X179650000Y-120450000D01*
X179636819Y-120463181D01*
X179575496Y-120496666D01*
X179549138Y-120499500D01*
X179274000Y-120499500D01*
X179206961Y-120479815D01*
X179161206Y-120427011D01*
X179150000Y-120375500D01*
X179150000Y-119950000D01*
X179650000Y-119950000D01*
X180139526Y-119950000D01*
X180139525Y-119949999D01*
X180105998Y-119834595D01*
X180105998Y-119807821D01*
X180102336Y-119782353D01*
X180105998Y-119774334D01*
X180105998Y-119765405D01*
X180139525Y-119650000D01*
X179650000Y-119650000D01*
X179650000Y-119950000D01*
X179150000Y-119950000D01*
X179150000Y-119650000D01*
X178611369Y-119650000D01*
X178544330Y-119630315D01*
X178519786Y-119609597D01*
X178510710Y-119599654D01*
X178500509Y-119581985D01*
X178432535Y-119514011D01*
X178430630Y-119511924D01*
X178416488Y-119482964D01*
X178401047Y-119454685D01*
X178401255Y-119451768D01*
X178399972Y-119449140D01*
X178403732Y-119417132D01*
X178406031Y-119384993D01*
X178407839Y-119382179D01*
X178408125Y-119379747D01*
X178413974Y-119372633D01*
X178434530Y-119340647D01*
X178503076Y-119272102D01*
X178528772Y-119219539D01*
X178575900Y-119167958D01*
X178640173Y-119150000D01*
X179150000Y-119150000D01*
X179650000Y-119150000D01*
X180139526Y-119150000D01*
X180139525Y-119149999D01*
X180105998Y-119034595D01*
X180105998Y-119007821D01*
X180102336Y-118982353D01*
X180105998Y-118974334D01*
X180105998Y-118965405D01*
X180139525Y-118850000D01*
X179650000Y-118850000D01*
X179650000Y-119150000D01*
X179150000Y-119150000D01*
X179150000Y-118424500D01*
X179169685Y-118357461D01*
X179222489Y-118311706D01*
X179274000Y-118300500D01*
X179549138Y-118300500D01*
X179616177Y-118320185D01*
X179636819Y-118336819D01*
X179650000Y-118350000D01*
X179950000Y-118350000D01*
X179950000Y-118050000D01*
X179936819Y-118036819D01*
X179903334Y-117975496D01*
X179900500Y-117949138D01*
X179900500Y-117650862D01*
X179920185Y-117583823D01*
X179936819Y-117563181D01*
X179950000Y-117550000D01*
X179950000Y-117060472D01*
X179824812Y-117096843D01*
X179824811Y-117096844D01*
X179688891Y-117177226D01*
X179688883Y-117177232D01*
X179602935Y-117263181D01*
X179541612Y-117296666D01*
X179515254Y-117299500D01*
X179239364Y-117299500D01*
X179166375Y-117310134D01*
X179166373Y-117310134D01*
X179166371Y-117310135D01*
X179053789Y-117365172D01*
X178965173Y-117453788D01*
X178965173Y-117453789D01*
X178957267Y-117469961D01*
X178910139Y-117521543D01*
X178845867Y-117539500D01*
X178566041Y-117539500D01*
X178536600Y-117530855D01*
X178506614Y-117524332D01*
X178501598Y-117520577D01*
X178499002Y-117519815D01*
X178478360Y-117503181D01*
X178444532Y-117469353D01*
X178411047Y-117408030D01*
X178416031Y-117338338D01*
X178444528Y-117293995D01*
X178500509Y-117238015D01*
X178572984Y-117112485D01*
X178610500Y-116972475D01*
X178610500Y-116827525D01*
X178592029Y-116758591D01*
X178593692Y-116688744D01*
X178632854Y-116630881D01*
X178697082Y-116603377D01*
X178711804Y-116602500D01*
X181870614Y-116602500D01*
X181900054Y-116611144D01*
G37*
%TD.AperFunction*%
%TA.AperFunction,Conductor*%
G36*
X175406703Y-115844831D02*
G01*
X175413181Y-115850863D01*
X176034649Y-116472331D01*
X176068134Y-116533654D01*
X176063150Y-116603346D01*
X176054356Y-116622010D01*
X176039856Y-116647125D01*
X176039854Y-116647128D01*
X176026830Y-116695734D01*
X176002338Y-116787140D01*
X176002338Y-116932090D01*
X176026112Y-117020814D01*
X176039855Y-117072103D01*
X176112326Y-117197626D01*
X176112331Y-117197632D01*
X176139181Y-117224482D01*
X176172666Y-117285805D01*
X176175500Y-117312163D01*
X176175500Y-120063811D01*
X176166855Y-120093251D01*
X176160332Y-120123238D01*
X176156577Y-120128253D01*
X176155815Y-120130850D01*
X176139181Y-120151492D01*
X175977492Y-120313181D01*
X175916169Y-120346666D01*
X175889811Y-120349500D01*
X175070543Y-120349500D01*
X175003504Y-120329815D01*
X174957749Y-120277011D01*
X174947805Y-120207853D01*
X174976830Y-120144297D01*
X174982862Y-120137819D01*
X175056870Y-120063811D01*
X175131470Y-119989211D01*
X175177614Y-119909287D01*
X175179966Y-119900507D01*
X175179970Y-119900500D01*
X175179968Y-119900500D01*
X175201500Y-119820143D01*
X175201500Y-115938544D01*
X175221185Y-115871505D01*
X175273989Y-115825750D01*
X175343147Y-115815806D01*
X175406703Y-115844831D01*
G37*
%TD.AperFunction*%
%TA.AperFunction,Conductor*%
G36*
X165467834Y-108098362D02*
G01*
X165523767Y-108140234D01*
X165548184Y-108205698D01*
X165548500Y-108214544D01*
X165548500Y-109582194D01*
X165548704Y-109582953D01*
X165572386Y-109671337D01*
X165572387Y-109671340D01*
X165618527Y-109751258D01*
X165618529Y-109751261D01*
X165618530Y-109751262D01*
X166328738Y-110461470D01*
X166328740Y-110461471D01*
X166328744Y-110461474D01*
X166371587Y-110486209D01*
X166371589Y-110486210D01*
X166371593Y-110486212D01*
X166408662Y-110507614D01*
X166497806Y-110531500D01*
X169461506Y-110531500D01*
X169528545Y-110551185D01*
X169549187Y-110567819D01*
X171269187Y-112287819D01*
X171302672Y-112349142D01*
X171297688Y-112418834D01*
X171255816Y-112474767D01*
X171190352Y-112499184D01*
X171181506Y-112499500D01*
X170318482Y-112499500D01*
X170237519Y-112512323D01*
X170224696Y-112514354D01*
X170111658Y-112571950D01*
X170111657Y-112571951D01*
X170111652Y-112571954D01*
X170021954Y-112661652D01*
X170021951Y-112661657D01*
X170021950Y-112661658D01*
X170020763Y-112663988D01*
X169964352Y-112774698D01*
X169949500Y-112868475D01*
X169949500Y-112987529D01*
X169929815Y-113054568D01*
X169877011Y-113100323D01*
X169807853Y-113110267D01*
X169744297Y-113081242D01*
X169718768Y-113050650D01*
X169679721Y-112984625D01*
X169679714Y-112984616D01*
X169565383Y-112870285D01*
X169565374Y-112870278D01*
X169426195Y-112787968D01*
X169426190Y-112787966D01*
X169270918Y-112742855D01*
X169270912Y-112742854D01*
X169250000Y-112741209D01*
X169250000Y-113396000D01*
X169230315Y-113463039D01*
X169177511Y-113508794D01*
X169126000Y-113520000D01*
X169000000Y-113520000D01*
X169000000Y-113646000D01*
X168980315Y-113713039D01*
X168927511Y-113758794D01*
X168876000Y-113770000D01*
X168195496Y-113770000D01*
X168237968Y-113916195D01*
X168320278Y-114055374D01*
X168320285Y-114055383D01*
X168413237Y-114148335D01*
X168446722Y-114209658D01*
X168448029Y-114255413D01*
X168439500Y-114309264D01*
X168439500Y-114650739D01*
X168453981Y-114742170D01*
X168453981Y-114742171D01*
X168453982Y-114742174D01*
X168453983Y-114742175D01*
X168505095Y-114842488D01*
X168510142Y-114852392D01*
X168510145Y-114852396D01*
X168597603Y-114939854D01*
X168597605Y-114939855D01*
X168597609Y-114939859D01*
X168707825Y-114996017D01*
X168707826Y-114996017D01*
X168707828Y-114996018D01*
X168742947Y-115001579D01*
X168799265Y-115010500D01*
X168983455Y-115010499D01*
X169050495Y-115030183D01*
X169071137Y-115046818D01*
X169189531Y-115165212D01*
X169254788Y-115230469D01*
X169254791Y-115230470D01*
X169254794Y-115230473D01*
X169334706Y-115276611D01*
X169334707Y-115276611D01*
X169334712Y-115276614D01*
X169423856Y-115300500D01*
X169932745Y-115300500D01*
X169999784Y-115320185D01*
X170020426Y-115336819D01*
X170111652Y-115428045D01*
X170111654Y-115428046D01*
X170111658Y-115428050D01*
X170216408Y-115481423D01*
X170224698Y-115485647D01*
X170318475Y-115500499D01*
X170318481Y-115500500D01*
X170413865Y-115500499D01*
X170480903Y-115520183D01*
X170516972Y-115555615D01*
X170528342Y-115572634D01*
X170529653Y-115577525D01*
X170535886Y-115600788D01*
X170582030Y-115680712D01*
X170637821Y-115736503D01*
X170644607Y-115746660D01*
X170651542Y-115768814D01*
X170662666Y-115789186D01*
X170665149Y-115812281D01*
X170665480Y-115813338D01*
X170665323Y-115813906D01*
X170665500Y-115815544D01*
X170665500Y-115891475D01*
X170691368Y-115988015D01*
X170703017Y-116031488D01*
X170775488Y-116157011D01*
X170775490Y-116157013D01*
X170775491Y-116157015D01*
X170877985Y-116259509D01*
X170877986Y-116259510D01*
X170877988Y-116259511D01*
X171003511Y-116331982D01*
X171003512Y-116331982D01*
X171003515Y-116331984D01*
X171143525Y-116369500D01*
X171143528Y-116369500D01*
X171288472Y-116369500D01*
X171288475Y-116369500D01*
X171428485Y-116331984D01*
X171554015Y-116259509D01*
X171564819Y-116248705D01*
X171626142Y-116215220D01*
X171695834Y-116220204D01*
X171751767Y-116262076D01*
X171775057Y-116317522D01*
X171776500Y-116326896D01*
X171776500Y-116385644D01*
X171795996Y-116458403D01*
X171797747Y-116464941D01*
X171797749Y-116464949D01*
X171800385Y-116474786D01*
X171846527Y-116554708D01*
X171846531Y-116554713D01*
X172914089Y-117622271D01*
X172947574Y-117683594D01*
X172942590Y-117753286D01*
X172937809Y-117764412D01*
X172935802Y-117768516D01*
X172935802Y-117768517D01*
X172922674Y-117795370D01*
X172884426Y-117873608D01*
X172874500Y-117941739D01*
X172874500Y-118208260D01*
X172884426Y-118276392D01*
X172884426Y-118276393D01*
X172918230Y-118345541D01*
X172929988Y-118414414D01*
X172918230Y-118454459D01*
X172884426Y-118523606D01*
X172884426Y-118523607D01*
X172874500Y-118591739D01*
X172874500Y-118858260D01*
X172884426Y-118926392D01*
X172884426Y-118926393D01*
X172909078Y-118976820D01*
X172920836Y-119045693D01*
X172893492Y-119109990D01*
X172885358Y-119118960D01*
X172666749Y-119337569D01*
X172605426Y-119371054D01*
X172535734Y-119366070D01*
X172479801Y-119324198D01*
X172467404Y-119303807D01*
X172462322Y-119293282D01*
X172457614Y-119275712D01*
X172436829Y-119239712D01*
X172426362Y-119221582D01*
X172411474Y-119195794D01*
X172411468Y-119195786D01*
X171660213Y-118444531D01*
X171660208Y-118444527D01*
X171580290Y-118398387D01*
X171580289Y-118398386D01*
X171580288Y-118398386D01*
X171491144Y-118374500D01*
X171491143Y-118374500D01*
X169244655Y-118374500D01*
X169177616Y-118354815D01*
X169131861Y-118302011D01*
X169121917Y-118232853D01*
X169121950Y-118232624D01*
X169125500Y-118208260D01*
X169125500Y-117941740D01*
X169115573Y-117873607D01*
X169064198Y-117768517D01*
X169064196Y-117768515D01*
X169064196Y-117768514D01*
X168981485Y-117685803D01*
X168876391Y-117634426D01*
X168808261Y-117624500D01*
X168808260Y-117624500D01*
X167466740Y-117624500D01*
X167466739Y-117624500D01*
X167398608Y-117634426D01*
X167293514Y-117685803D01*
X167210803Y-117768514D01*
X167159426Y-117873608D01*
X167149500Y-117941739D01*
X167149500Y-118208260D01*
X167159426Y-118276392D01*
X167159426Y-118276393D01*
X167193230Y-118345541D01*
X167204988Y-118414414D01*
X167193230Y-118454459D01*
X167159426Y-118523606D01*
X167159426Y-118523607D01*
X167149500Y-118591739D01*
X167149500Y-118858260D01*
X167159426Y-118926392D01*
X167159426Y-118926393D01*
X167193230Y-118995541D01*
X167204988Y-119064414D01*
X167193230Y-119104459D01*
X167159426Y-119173606D01*
X167159426Y-119173607D01*
X167149500Y-119241739D01*
X167149500Y-119508262D01*
X167149824Y-119512731D01*
X167148670Y-119512814D01*
X167139595Y-119576798D01*
X167093940Y-119629688D01*
X167026938Y-119649500D01*
X166040741Y-119649500D01*
X166035925Y-119648085D01*
X166031013Y-119649118D01*
X166002730Y-119638338D01*
X165973702Y-119629815D01*
X165969138Y-119625536D01*
X165965725Y-119624235D01*
X165943108Y-119601127D01*
X165940947Y-119599101D01*
X165939886Y-119597663D01*
X165939859Y-119597609D01*
X165939811Y-119597561D01*
X165934282Y-119590064D01*
X165934185Y-119589798D01*
X165934120Y-119589709D01*
X165934145Y-119589690D01*
X165925369Y-119565639D01*
X165912910Y-119542821D01*
X165913587Y-119533348D01*
X165910332Y-119524427D01*
X165916039Y-119499062D01*
X165917894Y-119473129D01*
X165924019Y-119463598D01*
X165925670Y-119456262D01*
X165934032Y-119448017D01*
X165946394Y-119428783D01*
X165963076Y-119412102D01*
X165963076Y-119412100D01*
X165963079Y-119412098D01*
X166006887Y-119322485D01*
X166019582Y-119296518D01*
X166030500Y-119221582D01*
X166030500Y-119026544D01*
X166050185Y-118959505D01*
X166066819Y-118938863D01*
X166147422Y-118858260D01*
X166230470Y-118775212D01*
X166276614Y-118695288D01*
X166288873Y-118649535D01*
X166300500Y-118606144D01*
X166300500Y-117760480D01*
X166320185Y-117693441D01*
X166356628Y-117659968D01*
X166355405Y-117658311D01*
X166365498Y-117650862D01*
X166472150Y-117572150D01*
X166552793Y-117462882D01*
X166580234Y-117384460D01*
X166597646Y-117334701D01*
X166597646Y-117334699D01*
X166600500Y-117304269D01*
X166600500Y-116695730D01*
X166597646Y-116665300D01*
X166597646Y-116665298D01*
X166552793Y-116537119D01*
X166552792Y-116537117D01*
X166549362Y-116532469D01*
X166472150Y-116427850D01*
X166362882Y-116347207D01*
X166362880Y-116347206D01*
X166234700Y-116302353D01*
X166204270Y-116299500D01*
X166204266Y-116299500D01*
X165796544Y-116299500D01*
X165729505Y-116279815D01*
X165708863Y-116263181D01*
X165464213Y-116018531D01*
X165464208Y-116018527D01*
X165384288Y-115972386D01*
X165384285Y-115972385D01*
X165381090Y-115971528D01*
X165381090Y-115971529D01*
X165331524Y-115958248D01*
X165295144Y-115948500D01*
X165295143Y-115948500D01*
X165257165Y-115948500D01*
X165190126Y-115928815D01*
X165144371Y-115876011D01*
X165134427Y-115806853D01*
X165163452Y-115743297D01*
X165222230Y-115705523D01*
X165251370Y-115700636D01*
X165254263Y-115700500D01*
X165254266Y-115700500D01*
X165284699Y-115697646D01*
X165284701Y-115697646D01*
X165348790Y-115675219D01*
X165412882Y-115652793D01*
X165522150Y-115572150D01*
X165602793Y-115462882D01*
X165625219Y-115398790D01*
X165647646Y-115334701D01*
X165647646Y-115334699D01*
X165650500Y-115304269D01*
X165650500Y-114695730D01*
X165647646Y-114665300D01*
X165647646Y-114665298D01*
X165602793Y-114537119D01*
X165602792Y-114537117D01*
X165602074Y-114536144D01*
X165522150Y-114427850D01*
X165412882Y-114347207D01*
X165412880Y-114347206D01*
X165284700Y-114302353D01*
X165254270Y-114299500D01*
X165254266Y-114299500D01*
X164964500Y-114299500D01*
X164897461Y-114279815D01*
X164851706Y-114227011D01*
X164840500Y-114175500D01*
X164840500Y-113566040D01*
X164849144Y-113536600D01*
X164855667Y-113506615D01*
X164859422Y-113501598D01*
X164860185Y-113499001D01*
X164876818Y-113478360D01*
X164892139Y-113463039D01*
X164912319Y-113442858D01*
X164973639Y-113409374D01*
X165043331Y-113414358D01*
X165087680Y-113442859D01*
X165147897Y-113503076D01*
X165147900Y-113503078D01*
X165258656Y-113557222D01*
X165263482Y-113559582D01*
X165338418Y-113570500D01*
X165338423Y-113570500D01*
X165681577Y-113570500D01*
X165681582Y-113570500D01*
X165756518Y-113559582D01*
X165837484Y-113520000D01*
X165872099Y-113503078D01*
X165872102Y-113503076D01*
X165963076Y-113412102D01*
X165968544Y-113404445D01*
X165973257Y-113400747D01*
X165975747Y-113395297D01*
X166000433Y-113379431D01*
X166023520Y-113361324D01*
X166030780Y-113359929D01*
X166034525Y-113357523D01*
X166069460Y-113352500D01*
X166290614Y-113352500D01*
X166357653Y-113372185D01*
X166378295Y-113388819D01*
X166431985Y-113442509D01*
X166431986Y-113442510D01*
X166431988Y-113442511D01*
X166557511Y-113514982D01*
X166557512Y-113514982D01*
X166557515Y-113514984D01*
X166697525Y-113552500D01*
X166697528Y-113552500D01*
X166842472Y-113552500D01*
X166842475Y-113552500D01*
X166982485Y-113514984D01*
X167108015Y-113442509D01*
X167210509Y-113340015D01*
X167250932Y-113270000D01*
X168195496Y-113270000D01*
X168750000Y-113270000D01*
X168750000Y-112741210D01*
X168749999Y-112741209D01*
X168729087Y-112742854D01*
X168729081Y-112742855D01*
X168573809Y-112787966D01*
X168573804Y-112787968D01*
X168434625Y-112870278D01*
X168434616Y-112870285D01*
X168320285Y-112984616D01*
X168320278Y-112984625D01*
X168237968Y-113123804D01*
X168195496Y-113270000D01*
X167250932Y-113270000D01*
X167272350Y-113232904D01*
X167272352Y-113232901D01*
X167282981Y-113214492D01*
X167282982Y-113214489D01*
X167282982Y-113214487D01*
X167282984Y-113214485D01*
X167320500Y-113074475D01*
X167320500Y-112929525D01*
X167282984Y-112789515D01*
X167277571Y-112780140D01*
X167210511Y-112663988D01*
X167210506Y-112663982D01*
X167108017Y-112561493D01*
X167108011Y-112561488D01*
X166982488Y-112489017D01*
X166982489Y-112489017D01*
X166971006Y-112485940D01*
X166842475Y-112451500D01*
X166697525Y-112451500D01*
X166568993Y-112485940D01*
X166557511Y-112489017D01*
X166431988Y-112561488D01*
X166431982Y-112561493D01*
X166378295Y-112615181D01*
X166351367Y-112629884D01*
X166325549Y-112646477D01*
X166319348Y-112647368D01*
X166316972Y-112648666D01*
X166290614Y-112651500D01*
X166071574Y-112651500D01*
X166004535Y-112631815D01*
X165971400Y-112594578D01*
X165969046Y-112596259D01*
X165963075Y-112587896D01*
X165872102Y-112496923D01*
X165872099Y-112496921D01*
X165756521Y-112440419D01*
X165756519Y-112440418D01*
X165756518Y-112440418D01*
X165681582Y-112429500D01*
X165338418Y-112429500D01*
X165263482Y-112440418D01*
X165263480Y-112440418D01*
X165263478Y-112440419D01*
X165147900Y-112496921D01*
X165147897Y-112496923D01*
X165087681Y-112557140D01*
X165026358Y-112590625D01*
X164956666Y-112585641D01*
X164912319Y-112557140D01*
X164852102Y-112496923D01*
X164852099Y-112496921D01*
X164736521Y-112440419D01*
X164736519Y-112440418D01*
X164736518Y-112440418D01*
X164661582Y-112429500D01*
X164318418Y-112429500D01*
X164243482Y-112440418D01*
X164243480Y-112440418D01*
X164243478Y-112440419D01*
X164127900Y-112496921D01*
X164127897Y-112496923D01*
X164036923Y-112587897D01*
X164036921Y-112587900D01*
X163980419Y-112703478D01*
X163980418Y-112703480D01*
X163980418Y-112703482D01*
X163969500Y-112778418D01*
X163969500Y-113221582D01*
X163980418Y-113296518D01*
X163980418Y-113296519D01*
X163980419Y-113296521D01*
X164036921Y-113412099D01*
X164036923Y-113412101D01*
X164036924Y-113412102D01*
X164103182Y-113478360D01*
X164136666Y-113539681D01*
X164139500Y-113566040D01*
X164139500Y-114536144D01*
X164145229Y-114557525D01*
X164156476Y-114599500D01*
X164160707Y-114615288D01*
X164163386Y-114625288D01*
X164183014Y-114659285D01*
X164185383Y-114664414D01*
X164189707Y-114693609D01*
X164196669Y-114722303D01*
X164194770Y-114727788D01*
X164195621Y-114733529D01*
X164183472Y-114760433D01*
X164173817Y-114788330D01*
X164167505Y-114795790D01*
X164166866Y-114797208D01*
X164165627Y-114798011D01*
X164160490Y-114804085D01*
X163259181Y-115705395D01*
X163197858Y-115738880D01*
X163128167Y-115733896D01*
X163072233Y-115692024D01*
X163047816Y-115626560D01*
X163047500Y-115617714D01*
X163047500Y-110467544D01*
X163067185Y-110400505D01*
X163083819Y-110379863D01*
X165336819Y-108126863D01*
X165398142Y-108093378D01*
X165467834Y-108098362D01*
G37*
%TD.AperFunction*%
%TA.AperFunction,Conductor*%
G36*
X173908147Y-115513671D02*
G01*
X174000985Y-115606509D01*
X174000986Y-115606510D01*
X174000988Y-115606511D01*
X174126511Y-115678982D01*
X174126512Y-115678982D01*
X174126515Y-115678984D01*
X174266525Y-115716500D01*
X174342457Y-115716500D01*
X174371897Y-115725144D01*
X174401884Y-115731668D01*
X174406899Y-115735422D01*
X174409496Y-115736185D01*
X174430138Y-115752819D01*
X174464181Y-115786862D01*
X174497666Y-115848185D01*
X174500500Y-115874543D01*
X174500500Y-117500500D01*
X174480815Y-117567539D01*
X174428011Y-117613294D01*
X174376500Y-117624500D01*
X173959044Y-117624500D01*
X173892005Y-117604815D01*
X173871363Y-117588181D01*
X172513819Y-116230637D01*
X172480334Y-116169314D01*
X172477500Y-116142956D01*
X172477500Y-115624499D01*
X172497185Y-115557460D01*
X172549989Y-115511705D01*
X172601495Y-115500499D01*
X173681518Y-115500499D01*
X173775304Y-115485646D01*
X173775312Y-115485641D01*
X173782139Y-115483424D01*
X173851980Y-115481423D01*
X173908147Y-115513671D01*
G37*
%TD.AperFunction*%
%TA.AperFunction,Conductor*%
G36*
X172743539Y-107060184D02*
G01*
X172789294Y-107112988D01*
X172800500Y-107164499D01*
X172800500Y-107626770D01*
X172780815Y-107693809D01*
X172764181Y-107714451D01*
X172475450Y-108003181D01*
X172414127Y-108036666D01*
X172387769Y-108039500D01*
X171302129Y-108039500D01*
X171302123Y-108039501D01*
X171242516Y-108045908D01*
X171107671Y-108096202D01*
X171107664Y-108096206D01*
X170992456Y-108182452D01*
X170992455Y-108182453D01*
X170992454Y-108182454D01*
X170919573Y-108279811D01*
X170863639Y-108321682D01*
X170820306Y-108329500D01*
X167857204Y-108329500D01*
X167790165Y-108309815D01*
X167769523Y-108293181D01*
X167716930Y-108240588D01*
X167716928Y-108240586D01*
X167576788Y-108138768D01*
X167422445Y-108060127D01*
X167257701Y-108006598D01*
X167257699Y-108006597D01*
X167257698Y-108006597D01*
X167126271Y-107985781D01*
X167086611Y-107979500D01*
X166913389Y-107979500D01*
X166873728Y-107985781D01*
X166742302Y-108006597D01*
X166742299Y-108006598D01*
X166615260Y-108047876D01*
X166577549Y-108060129D01*
X166429794Y-108135413D01*
X166361125Y-108148309D01*
X166296385Y-108122032D01*
X166256128Y-108064925D01*
X166249500Y-108024928D01*
X166249500Y-107764500D01*
X166269185Y-107697461D01*
X166321989Y-107651706D01*
X166373500Y-107640500D01*
X167874676Y-107640500D01*
X167874677Y-107640499D01*
X167947740Y-107625966D01*
X168030601Y-107570601D01*
X168085966Y-107487740D01*
X168100500Y-107414674D01*
X168100500Y-107414500D01*
X168100526Y-107414410D01*
X168101097Y-107408614D01*
X168102196Y-107408722D01*
X168120185Y-107347461D01*
X168172989Y-107301706D01*
X168224500Y-107290500D01*
X171073920Y-107290500D01*
X171171462Y-107271096D01*
X171218913Y-107261658D01*
X171355495Y-107205084D01*
X171404729Y-107172186D01*
X171478416Y-107122952D01*
X171529423Y-107071943D01*
X171534812Y-107067637D01*
X171561019Y-107056904D01*
X171585872Y-107043333D01*
X171597105Y-107042125D01*
X171599470Y-107041157D01*
X171601914Y-107041608D01*
X171612231Y-107040499D01*
X172676500Y-107040499D01*
X172743539Y-107060184D01*
G37*
%TD.AperFunction*%
%TA.AperFunction,Conductor*%
G36*
X166534075Y-102347007D02*
G01*
X166500000Y-102474174D01*
X166500000Y-102605826D01*
X166534075Y-102732993D01*
X166566988Y-102790000D01*
X166373500Y-102790000D01*
X166306461Y-102770315D01*
X166260706Y-102717511D01*
X166249500Y-102666000D01*
X166249500Y-102414000D01*
X166269185Y-102346961D01*
X166321989Y-102301206D01*
X166373500Y-102290000D01*
X166566988Y-102290000D01*
X166534075Y-102347007D01*
G37*
%TD.AperFunction*%
%TA.AperFunction,Conductor*%
G36*
X173443039Y-93824185D02*
G01*
X173488794Y-93876989D01*
X173500000Y-93928500D01*
X173500000Y-94830000D01*
X174250000Y-94830000D01*
X174250000Y-93928500D01*
X174269685Y-93861461D01*
X174322489Y-93815706D01*
X174374000Y-93804500D01*
X174626000Y-93804500D01*
X174693039Y-93824185D01*
X174738794Y-93876989D01*
X174750000Y-93928500D01*
X174750000Y-96955000D01*
X175047828Y-96955000D01*
X175047844Y-96954999D01*
X175107372Y-96948598D01*
X175107379Y-96948596D01*
X175242086Y-96898354D01*
X175242093Y-96898350D01*
X175357187Y-96812190D01*
X175357190Y-96812187D01*
X175443350Y-96697093D01*
X175443354Y-96697086D01*
X175493596Y-96562379D01*
X175493598Y-96562372D01*
X175499999Y-96502844D01*
X175500000Y-96502827D01*
X175500000Y-96069689D01*
X175506238Y-96048443D01*
X175507818Y-96026355D01*
X175515890Y-96015571D01*
X175519685Y-96002650D01*
X175536418Y-95988150D01*
X175549690Y-95970422D01*
X175562310Y-95965714D01*
X175572489Y-95956895D01*
X175594406Y-95953743D01*
X175615154Y-95946005D01*
X175628314Y-95948867D01*
X175641647Y-95946951D01*
X175661790Y-95956150D01*
X175683427Y-95960857D01*
X175701152Y-95974125D01*
X175705203Y-95975976D01*
X175711681Y-95982008D01*
X175793181Y-96063508D01*
X175826666Y-96124831D01*
X175829500Y-96151188D01*
X175829500Y-96381582D01*
X175840418Y-96456518D01*
X175840418Y-96456519D01*
X175840419Y-96456521D01*
X175896921Y-96572099D01*
X175896923Y-96572102D01*
X175987897Y-96663076D01*
X175987900Y-96663078D01*
X176074675Y-96705499D01*
X176103482Y-96719582D01*
X176178418Y-96730500D01*
X176178423Y-96730500D01*
X176590500Y-96730500D01*
X176657539Y-96750185D01*
X176703294Y-96802989D01*
X176714500Y-96854500D01*
X176714500Y-100534811D01*
X176694815Y-100601850D01*
X176642011Y-100647605D01*
X176572853Y-100657549D01*
X176509297Y-100628524D01*
X176502819Y-100622492D01*
X172383171Y-96502844D01*
X173500000Y-96502844D01*
X173506401Y-96562372D01*
X173506403Y-96562379D01*
X173556645Y-96697086D01*
X173556649Y-96697093D01*
X173642809Y-96812187D01*
X173642812Y-96812190D01*
X173757906Y-96898350D01*
X173757913Y-96898354D01*
X173892620Y-96948596D01*
X173892627Y-96948598D01*
X173952155Y-96954999D01*
X173952172Y-96955000D01*
X174250000Y-96955000D01*
X174250000Y-95330000D01*
X173500000Y-95330000D01*
X173500000Y-96502844D01*
X172383171Y-96502844D01*
X171762508Y-95882181D01*
X171729023Y-95820858D01*
X171734007Y-95751166D01*
X171775879Y-95695233D01*
X171841343Y-95670816D01*
X171850189Y-95670500D01*
X171872472Y-95670500D01*
X171872475Y-95670500D01*
X172012485Y-95632984D01*
X172138015Y-95560509D01*
X172240509Y-95458015D01*
X172312984Y-95332485D01*
X172350500Y-95192475D01*
X172350500Y-95047525D01*
X172312984Y-94907515D01*
X172284900Y-94858873D01*
X172240511Y-94781988D01*
X172240506Y-94781982D01*
X172138017Y-94679493D01*
X172138011Y-94679488D01*
X172012488Y-94607017D01*
X172012489Y-94607017D01*
X171988018Y-94600460D01*
X171872475Y-94569500D01*
X171727525Y-94569500D01*
X171611982Y-94600460D01*
X171587511Y-94607017D01*
X171461988Y-94679488D01*
X171455539Y-94684438D01*
X171454719Y-94683369D01*
X171400858Y-94712780D01*
X171331166Y-94707796D01*
X171275233Y-94665924D01*
X171250816Y-94600460D01*
X171250500Y-94591614D01*
X171250500Y-93928500D01*
X171270185Y-93861461D01*
X171322989Y-93815706D01*
X171374500Y-93804500D01*
X173376000Y-93804500D01*
X173443039Y-93824185D01*
G37*
%TD.AperFunction*%
%TA.AperFunction,Conductor*%
G36*
X192693039Y-91779685D02*
G01*
X192738794Y-91832489D01*
X192750000Y-91884000D01*
X192750000Y-92529930D01*
X192785122Y-92527167D01*
X192785128Y-92527166D01*
X192939188Y-92482407D01*
X192939191Y-92482406D01*
X193077285Y-92400738D01*
X193077294Y-92400731D01*
X193192819Y-92285207D01*
X193207022Y-92277451D01*
X193218153Y-92265702D01*
X193237057Y-92261051D01*
X193254142Y-92251722D01*
X193270283Y-92252876D01*
X193285999Y-92249010D01*
X193304415Y-92255317D01*
X193323834Y-92256706D01*
X193336789Y-92266404D01*
X193352100Y-92271648D01*
X193364184Y-92286912D01*
X193379767Y-92298578D01*
X193385883Y-92314322D01*
X193395468Y-92326430D01*
X193400358Y-92351585D01*
X193403900Y-92360702D01*
X193404500Y-92366777D01*
X193404500Y-92424674D01*
X193415854Y-92481758D01*
X193416453Y-92487814D01*
X193414671Y-92497223D01*
X193414671Y-92524190D01*
X193404500Y-92575326D01*
X193404500Y-92924673D01*
X193414671Y-92975810D01*
X193414671Y-93024190D01*
X193404500Y-93075326D01*
X193404500Y-93424673D01*
X193414671Y-93475810D01*
X193414671Y-93524190D01*
X193404500Y-93575326D01*
X193404500Y-93775500D01*
X193384815Y-93842539D01*
X193332011Y-93888294D01*
X193280500Y-93899500D01*
X192843856Y-93899500D01*
X192754712Y-93923386D01*
X192754709Y-93923387D01*
X192674791Y-93969527D01*
X192674786Y-93969531D01*
X192521137Y-94123181D01*
X192459814Y-94156666D01*
X192433456Y-94159500D01*
X192238418Y-94159500D01*
X192163482Y-94170418D01*
X192163480Y-94170418D01*
X192163478Y-94170419D01*
X192047900Y-94226921D01*
X192047897Y-94226923D01*
X191956923Y-94317897D01*
X191956921Y-94317900D01*
X191900419Y-94433478D01*
X191900418Y-94433480D01*
X191900418Y-94433482D01*
X191889500Y-94508418D01*
X191889500Y-94851582D01*
X191900418Y-94926518D01*
X191900419Y-94926523D01*
X191903261Y-94935720D01*
X191901367Y-94936305D01*
X191911065Y-94993127D01*
X191883717Y-95057422D01*
X191875587Y-95066387D01*
X191769268Y-95172705D01*
X191769261Y-95172714D01*
X191687593Y-95310808D01*
X191687592Y-95310811D01*
X191656272Y-95418615D01*
X191618666Y-95477501D01*
X191555193Y-95506707D01*
X191486007Y-95496961D01*
X191449515Y-95471701D01*
X190646818Y-94669004D01*
X190613333Y-94607681D01*
X190610499Y-94581323D01*
X190610499Y-93798676D01*
X190630184Y-93731637D01*
X190646818Y-93710995D01*
X191204313Y-93153500D01*
X191876297Y-92481516D01*
X191937616Y-92448034D01*
X192007308Y-92453018D01*
X192027096Y-92462469D01*
X192060806Y-92482405D01*
X192060811Y-92482407D01*
X192214871Y-92527166D01*
X192214877Y-92527167D01*
X192250000Y-92529931D01*
X192250000Y-91884000D01*
X192269685Y-91816961D01*
X192322489Y-91771206D01*
X192374000Y-91760000D01*
X192626000Y-91760000D01*
X192693039Y-91779685D01*
G37*
%TD.AperFunction*%
%TA.AperFunction,Conductor*%
G36*
X194218039Y-89569685D02*
G01*
X194263794Y-89622489D01*
X194275000Y-89674000D01*
X194275000Y-89800000D01*
X194401000Y-89800000D01*
X194409685Y-89802550D01*
X194418647Y-89801262D01*
X194442687Y-89812240D01*
X194468039Y-89819685D01*
X194473966Y-89826525D01*
X194482203Y-89830287D01*
X194496492Y-89852521D01*
X194513794Y-89872489D01*
X194516081Y-89883003D01*
X194519977Y-89889065D01*
X194525000Y-89924000D01*
X194525000Y-89925500D01*
X194505315Y-89992539D01*
X194452511Y-90038294D01*
X194401000Y-90049500D01*
X193650436Y-90049500D01*
X193583397Y-90029815D01*
X193562755Y-90013181D01*
X193311255Y-89761681D01*
X193277770Y-89700358D01*
X193282754Y-89630666D01*
X193324626Y-89574733D01*
X193390090Y-89550316D01*
X193398936Y-89550000D01*
X194151000Y-89550000D01*
X194218039Y-89569685D01*
G37*
%TD.AperFunction*%
%TA.AperFunction,Conductor*%
G36*
X198882170Y-87197015D02*
G01*
X199199179Y-87214817D01*
X199212977Y-87216371D01*
X199522578Y-87268973D01*
X199536133Y-87272067D01*
X199837895Y-87359001D01*
X199851020Y-87363594D01*
X200141138Y-87483764D01*
X200153667Y-87489797D01*
X200428516Y-87641700D01*
X200440290Y-87649098D01*
X200696410Y-87830824D01*
X200707264Y-87839480D01*
X200941427Y-88048739D01*
X200951258Y-88058570D01*
X201160517Y-88292733D01*
X201169177Y-88303591D01*
X201229286Y-88388307D01*
X201350901Y-88559709D01*
X201358299Y-88571483D01*
X201510202Y-88846332D01*
X201516235Y-88858861D01*
X201636405Y-89148979D01*
X201640998Y-89162104D01*
X201727932Y-89463866D01*
X201731026Y-89477423D01*
X201783626Y-89787012D01*
X201785183Y-89800830D01*
X201802985Y-90117861D01*
X201803179Y-90124411D01*
X201803180Y-90124719D01*
X201803180Y-90145851D01*
X201803248Y-90145946D01*
X201803312Y-90165422D01*
X201803309Y-90165430D01*
X201803312Y-90165447D01*
X201924488Y-129996323D01*
X201924294Y-130003653D01*
X201906501Y-130320488D01*
X201904944Y-130334306D01*
X201852343Y-130643894D01*
X201849249Y-130657451D01*
X201762313Y-130959212D01*
X201757720Y-130972337D01*
X201637548Y-131262458D01*
X201631515Y-131274986D01*
X201479610Y-131549839D01*
X201472211Y-131561613D01*
X201290500Y-131817710D01*
X201281831Y-131828582D01*
X201072574Y-132062741D01*
X201062741Y-132072574D01*
X200828582Y-132281831D01*
X200817710Y-132290500D01*
X200561613Y-132472211D01*
X200549839Y-132479610D01*
X200274986Y-132631515D01*
X200262458Y-132637548D01*
X199972337Y-132757720D01*
X199959212Y-132762313D01*
X199657451Y-132849249D01*
X199643894Y-132852343D01*
X199334306Y-132904944D01*
X199320488Y-132906501D01*
X199003472Y-132924305D01*
X198996519Y-132924500D01*
X165003481Y-132924500D01*
X164996528Y-132924305D01*
X164679511Y-132906501D01*
X164665693Y-132904944D01*
X164356105Y-132852343D01*
X164342548Y-132849249D01*
X164040787Y-132762313D01*
X164027662Y-132757720D01*
X163737541Y-132637548D01*
X163725013Y-132631515D01*
X163636998Y-132582871D01*
X163450156Y-132479607D01*
X163438391Y-132472214D01*
X163182285Y-132290497D01*
X163171417Y-132281831D01*
X163054885Y-132177692D01*
X162937256Y-132072572D01*
X162927425Y-132062741D01*
X162718168Y-131828582D01*
X162709504Y-131817716D01*
X162527782Y-131561604D01*
X162520395Y-131549848D01*
X162368480Y-131274979D01*
X162362454Y-131262465D01*
X162242279Y-130972337D01*
X162237686Y-130959212D01*
X162150750Y-130657451D01*
X162147656Y-130643894D01*
X162141293Y-130606443D01*
X162095053Y-130334296D01*
X162093499Y-130320498D01*
X162075695Y-130003472D01*
X162075501Y-129996930D01*
X162075500Y-129996628D01*
X162075500Y-129975469D01*
X162075429Y-129975371D01*
X162075375Y-129959157D01*
X162075365Y-129955930D01*
X162075368Y-129955921D01*
X162075365Y-129955905D01*
X162015340Y-110224856D01*
X162346500Y-110224856D01*
X162346500Y-123082761D01*
X162363046Y-123144513D01*
X162370385Y-123171901D01*
X162370387Y-123171906D01*
X162416527Y-123251824D01*
X162416529Y-123251827D01*
X162416530Y-123251828D01*
X169445173Y-130280470D01*
X169445175Y-130280471D01*
X169445179Y-130280474D01*
X169514960Y-130320762D01*
X169514961Y-130320762D01*
X169525097Y-130326614D01*
X169614241Y-130350500D01*
X172885500Y-130350500D01*
X172952539Y-130370185D01*
X172998294Y-130422989D01*
X173009500Y-130474500D01*
X173009500Y-130874678D01*
X173024032Y-130947735D01*
X173024033Y-130947739D01*
X173040469Y-130972337D01*
X173079399Y-131030601D01*
X173162260Y-131085966D01*
X173162264Y-131085967D01*
X173235321Y-131100499D01*
X173235324Y-131100500D01*
X173235326Y-131100500D01*
X174984676Y-131100500D01*
X174984677Y-131100499D01*
X175057740Y-131085966D01*
X175140601Y-131030601D01*
X175195966Y-130947740D01*
X175210500Y-130874674D01*
X175210500Y-129913389D01*
X175549500Y-129913389D01*
X175549500Y-130086610D01*
X175576597Y-130257697D01*
X175576597Y-130257699D01*
X175576598Y-130257701D01*
X175630127Y-130422445D01*
X175708768Y-130576788D01*
X175810586Y-130716928D01*
X175933072Y-130839414D01*
X176073212Y-130941232D01*
X176227555Y-131019873D01*
X176392299Y-131073402D01*
X176563389Y-131100500D01*
X176563390Y-131100500D01*
X176736610Y-131100500D01*
X176736611Y-131100500D01*
X176907701Y-131073402D01*
X177072445Y-131019873D01*
X177226788Y-130941232D01*
X177366928Y-130839414D01*
X177489414Y-130716928D01*
X177591232Y-130576788D01*
X177669873Y-130422445D01*
X177723402Y-130257701D01*
X177750500Y-130086611D01*
X177750500Y-129913389D01*
X177723402Y-129742299D01*
X177669873Y-129577555D01*
X177591232Y-129423212D01*
X177489414Y-129283072D01*
X177366928Y-129160586D01*
X177226788Y-129058768D01*
X177072445Y-128980127D01*
X176907701Y-128926598D01*
X176907699Y-128926597D01*
X176907698Y-128926597D01*
X176750640Y-128901722D01*
X176736611Y-128899500D01*
X176563389Y-128899500D01*
X176549360Y-128901722D01*
X176392302Y-128926597D01*
X176227552Y-128980128D01*
X176073211Y-129058768D01*
X175996900Y-129114212D01*
X175933072Y-129160586D01*
X175933070Y-129160588D01*
X175933069Y-129160588D01*
X175810588Y-129283069D01*
X175810588Y-129283070D01*
X175810586Y-129283072D01*
X175782311Y-129321989D01*
X175708768Y-129423211D01*
X175630128Y-129577552D01*
X175576597Y-129742302D01*
X175549500Y-129913389D01*
X175210500Y-129913389D01*
X175210500Y-129125326D01*
X175210500Y-129125323D01*
X175210499Y-129125321D01*
X175195967Y-129052264D01*
X175195966Y-129052260D01*
X175170716Y-129014470D01*
X175140601Y-128969399D01*
X175057740Y-128914034D01*
X175057739Y-128914033D01*
X175057735Y-128914032D01*
X174984677Y-128899500D01*
X174984674Y-128899500D01*
X173235326Y-128899500D01*
X173235323Y-128899500D01*
X173162264Y-128914032D01*
X173162260Y-128914033D01*
X173079399Y-128969399D01*
X173024033Y-129052260D01*
X173024032Y-129052264D01*
X173009500Y-129125321D01*
X173009500Y-129525500D01*
X172989815Y-129592539D01*
X172937011Y-129638294D01*
X172885500Y-129649500D01*
X169856929Y-129649500D01*
X169789890Y-129629815D01*
X169769248Y-129613181D01*
X168067248Y-127911181D01*
X168033763Y-127849858D01*
X168038747Y-127780166D01*
X168080619Y-127724233D01*
X168146083Y-127699816D01*
X168154929Y-127699500D01*
X176342456Y-127699500D01*
X176409495Y-127719185D01*
X176430137Y-127735819D01*
X178141347Y-129447029D01*
X178174832Y-129508352D01*
X178171597Y-129573028D01*
X178116597Y-129742301D01*
X178089500Y-129913389D01*
X178089500Y-130086610D01*
X178116597Y-130257697D01*
X178116597Y-130257699D01*
X178116598Y-130257701D01*
X178170127Y-130422445D01*
X178248768Y-130576788D01*
X178350586Y-130716928D01*
X178473072Y-130839414D01*
X178613212Y-130941232D01*
X178767555Y-131019873D01*
X178932299Y-131073402D01*
X179103389Y-131100500D01*
X179103390Y-131100500D01*
X179276610Y-131100500D01*
X179276611Y-131100500D01*
X179447701Y-131073402D01*
X179612445Y-131019873D01*
X179766788Y-130941232D01*
X179906928Y-130839414D01*
X180029414Y-130716928D01*
X180109686Y-130606442D01*
X180165016Y-130563777D01*
X180234629Y-130557798D01*
X180296424Y-130590404D01*
X180317391Y-130617328D01*
X180348527Y-130671258D01*
X180348529Y-130671261D01*
X180348530Y-130671262D01*
X181058738Y-131381470D01*
X181138662Y-131427614D01*
X181227806Y-131451500D01*
X181227808Y-131451500D01*
X183215142Y-131451500D01*
X183215144Y-131451500D01*
X183304288Y-131427614D01*
X183384212Y-131381470D01*
X183717031Y-131048649D01*
X183778352Y-131015166D01*
X183843029Y-131018401D01*
X183847547Y-131019869D01*
X183847555Y-131019873D01*
X184012299Y-131073402D01*
X184183389Y-131100500D01*
X184183390Y-131100500D01*
X184356610Y-131100500D01*
X184356611Y-131100500D01*
X184527701Y-131073402D01*
X184692445Y-131019873D01*
X184846788Y-130941232D01*
X184986928Y-130839414D01*
X185109414Y-130716928D01*
X185211232Y-130576788D01*
X185289873Y-130422445D01*
X185343402Y-130257701D01*
X185370500Y-130086611D01*
X185370500Y-129913389D01*
X185343402Y-129742299D01*
X185289873Y-129577555D01*
X185214585Y-129429794D01*
X185214077Y-129427089D01*
X185212277Y-129425011D01*
X185207668Y-129392959D01*
X185201690Y-129361125D01*
X185202724Y-129358576D01*
X185202333Y-129355853D01*
X185215789Y-129326387D01*
X185227967Y-129296385D01*
X185230214Y-129294800D01*
X185231358Y-129292297D01*
X185258606Y-129274785D01*
X185285073Y-129256128D01*
X185288529Y-129255555D01*
X185290136Y-129254523D01*
X185325071Y-129249500D01*
X185512456Y-129249500D01*
X185579495Y-129269185D01*
X185600137Y-129285819D01*
X185761347Y-129447029D01*
X185794832Y-129508352D01*
X185791597Y-129573028D01*
X185736597Y-129742301D01*
X185709500Y-129913389D01*
X185709500Y-130086610D01*
X185736597Y-130257697D01*
X185736597Y-130257699D01*
X185736598Y-130257701D01*
X185790127Y-130422445D01*
X185868768Y-130576788D01*
X185970586Y-130716928D01*
X186093072Y-130839414D01*
X186233212Y-130941232D01*
X186387555Y-131019873D01*
X186552299Y-131073402D01*
X186723389Y-131100500D01*
X186723390Y-131100500D01*
X186896610Y-131100500D01*
X186896611Y-131100500D01*
X187067701Y-131073402D01*
X187232445Y-131019873D01*
X187386788Y-130941232D01*
X187526928Y-130839414D01*
X187649414Y-130716928D01*
X187751232Y-130576788D01*
X187829873Y-130422445D01*
X187883402Y-130257701D01*
X187910500Y-130086611D01*
X187910500Y-129913389D01*
X187883402Y-129742299D01*
X187829873Y-129577555D01*
X187751232Y-129423212D01*
X187649414Y-129283072D01*
X187526928Y-129160586D01*
X187474945Y-129122818D01*
X187432279Y-129067488D01*
X187426300Y-128997875D01*
X187458906Y-128936080D01*
X187519745Y-128901722D01*
X187547830Y-128898500D01*
X187701456Y-128898500D01*
X187768495Y-128918185D01*
X187789137Y-128934819D01*
X188301347Y-129447029D01*
X188334832Y-129508352D01*
X188331597Y-129573028D01*
X188276597Y-129742301D01*
X188249500Y-129913389D01*
X188249500Y-130086610D01*
X188276597Y-130257697D01*
X188276597Y-130257699D01*
X188276598Y-130257701D01*
X188330127Y-130422445D01*
X188408768Y-130576788D01*
X188510586Y-130716928D01*
X188633072Y-130839414D01*
X188773212Y-130941232D01*
X188927555Y-131019873D01*
X189092299Y-131073402D01*
X189263389Y-131100500D01*
X189263390Y-131100500D01*
X189436610Y-131100500D01*
X189436611Y-131100500D01*
X189607701Y-131073402D01*
X189772445Y-131019873D01*
X189926788Y-130941232D01*
X190066928Y-130839414D01*
X190189414Y-130716928D01*
X190291232Y-130576788D01*
X190369873Y-130422445D01*
X190370896Y-130419294D01*
X190371610Y-130418250D01*
X190371734Y-130417952D01*
X190371796Y-130417977D01*
X190410327Y-130361618D01*
X190474683Y-130334415D01*
X190543530Y-130346323D01*
X190595011Y-130393562D01*
X190606760Y-130419287D01*
X190638904Y-130518217D01*
X190735375Y-130707550D01*
X190774728Y-130761716D01*
X191407037Y-130129408D01*
X191424075Y-130192993D01*
X191489901Y-130307007D01*
X191582993Y-130400099D01*
X191697007Y-130465925D01*
X191760590Y-130482962D01*
X191128282Y-131115269D01*
X191128282Y-131115270D01*
X191182449Y-131154624D01*
X191371782Y-131251095D01*
X191573870Y-131316757D01*
X191783754Y-131350000D01*
X191996246Y-131350000D01*
X192206127Y-131316757D01*
X192206130Y-131316757D01*
X192408217Y-131251095D01*
X192597554Y-131154622D01*
X192651716Y-131115270D01*
X192651717Y-131115270D01*
X192019408Y-130482962D01*
X192082993Y-130465925D01*
X192197007Y-130400099D01*
X192290099Y-130307007D01*
X192355925Y-130192993D01*
X192372962Y-130129408D01*
X193005270Y-130761717D01*
X193005270Y-130761716D01*
X193044622Y-130707554D01*
X193141095Y-130518217D01*
X193206757Y-130316130D01*
X193206757Y-130316127D01*
X193240000Y-130106246D01*
X193240000Y-129893753D01*
X193206757Y-129683872D01*
X193206757Y-129683869D01*
X193141095Y-129481782D01*
X193044624Y-129292449D01*
X193005270Y-129238282D01*
X193005269Y-129238282D01*
X192372962Y-129870590D01*
X192355925Y-129807007D01*
X192290099Y-129692993D01*
X192197007Y-129599901D01*
X192082993Y-129534075D01*
X192019409Y-129517037D01*
X192651716Y-128884728D01*
X192597550Y-128845375D01*
X192408217Y-128748904D01*
X192206129Y-128683242D01*
X191996246Y-128650000D01*
X191783754Y-128650000D01*
X191573872Y-128683242D01*
X191573869Y-128683242D01*
X191371782Y-128748904D01*
X191182439Y-128845380D01*
X191128282Y-128884727D01*
X191128282Y-128884728D01*
X191760591Y-129517037D01*
X191697007Y-129534075D01*
X191582993Y-129599901D01*
X191489901Y-129692993D01*
X191424075Y-129807007D01*
X191407037Y-129870591D01*
X190774728Y-129238282D01*
X190774727Y-129238282D01*
X190735380Y-129292439D01*
X190638904Y-129481783D01*
X190606760Y-129580712D01*
X190567322Y-129638388D01*
X190502964Y-129665586D01*
X190434117Y-129653671D01*
X190382642Y-129606427D01*
X190370898Y-129580712D01*
X190369873Y-129577555D01*
X190291232Y-129423212D01*
X190189414Y-129283072D01*
X190066928Y-129160586D01*
X189926788Y-129058768D01*
X189772445Y-128980127D01*
X189607701Y-128926598D01*
X189607699Y-128926597D01*
X189607698Y-128926597D01*
X189450640Y-128901722D01*
X189436611Y-128899500D01*
X189263389Y-128899500D01*
X189249360Y-128901722D01*
X189092301Y-128926597D01*
X188923028Y-128981597D01*
X188853186Y-128983592D01*
X188797029Y-128951347D01*
X188113213Y-128267531D01*
X188113208Y-128267527D01*
X188033290Y-128221387D01*
X188033289Y-128221386D01*
X188033288Y-128221386D01*
X187944144Y-128197500D01*
X187944143Y-128197500D01*
X185859500Y-128197500D01*
X185792461Y-128177815D01*
X185746706Y-128125011D01*
X185735500Y-128073500D01*
X185735500Y-116502135D01*
X186349500Y-116502135D01*
X186349500Y-121497870D01*
X186349501Y-121497876D01*
X186355908Y-121557483D01*
X186406202Y-121692328D01*
X186406206Y-121692335D01*
X186492452Y-121807544D01*
X186492455Y-121807547D01*
X186607664Y-121893793D01*
X186607671Y-121893797D01*
X186742517Y-121944091D01*
X186742516Y-121944091D01*
X186749444Y-121944835D01*
X186802127Y-121950500D01*
X189297872Y-121950499D01*
X189357483Y-121944091D01*
X189492331Y-121893796D01*
X189607546Y-121807546D01*
X189693796Y-121692331D01*
X189744091Y-121557483D01*
X189750500Y-121497873D01*
X189750499Y-118412228D01*
X189770184Y-118345190D01*
X189786813Y-118324553D01*
X193947951Y-114163416D01*
X193985240Y-114107609D01*
X194030084Y-114040495D01*
X194063272Y-113960370D01*
X194066144Y-113954999D01*
X194086531Y-113934246D01*
X194104780Y-113911601D01*
X194110720Y-113909623D01*
X194115109Y-113905157D01*
X194143475Y-113898721D01*
X194171074Y-113889536D01*
X194177140Y-113891084D01*
X194183248Y-113889699D01*
X194210591Y-113899622D01*
X194238773Y-113906815D01*
X194243039Y-113911397D01*
X194248926Y-113913534D01*
X194266560Y-113936660D01*
X194286384Y-113957952D01*
X194287995Y-113964770D01*
X194291292Y-113969094D01*
X194292466Y-113983691D01*
X194299500Y-114013457D01*
X194299500Y-116173918D01*
X194299500Y-116173920D01*
X194299499Y-116173920D01*
X194328340Y-116318907D01*
X194328343Y-116318917D01*
X194384913Y-116455489D01*
X194384914Y-116455491D01*
X194384916Y-116455495D01*
X194398932Y-116476472D01*
X194398933Y-116476475D01*
X194467046Y-116578414D01*
X194467052Y-116578421D01*
X196213181Y-118324548D01*
X196246666Y-118385871D01*
X196249500Y-118412229D01*
X196249500Y-121497870D01*
X196249501Y-121497876D01*
X196255908Y-121557483D01*
X196306202Y-121692328D01*
X196306206Y-121692335D01*
X196392452Y-121807544D01*
X196392455Y-121807547D01*
X196507664Y-121893793D01*
X196507671Y-121893797D01*
X196642517Y-121944091D01*
X196642516Y-121944091D01*
X196649444Y-121944835D01*
X196702127Y-121950500D01*
X199197872Y-121950499D01*
X199257483Y-121944091D01*
X199392331Y-121893796D01*
X199507546Y-121807546D01*
X199593796Y-121692331D01*
X199644091Y-121557483D01*
X199650500Y-121497873D01*
X199650499Y-116502128D01*
X199644091Y-116442517D01*
X199616857Y-116369500D01*
X199593797Y-116307671D01*
X199593793Y-116307664D01*
X199507547Y-116192455D01*
X199507544Y-116192452D01*
X199392335Y-116106206D01*
X199392328Y-116106202D01*
X199257482Y-116055908D01*
X199257483Y-116055908D01*
X199197883Y-116049501D01*
X199197881Y-116049500D01*
X199197873Y-116049500D01*
X199197864Y-116049500D01*
X196702129Y-116049500D01*
X196702123Y-116049501D01*
X196642516Y-116055908D01*
X196507671Y-116106202D01*
X196507664Y-116106206D01*
X196392457Y-116192451D01*
X196386180Y-116198728D01*
X196383613Y-116196161D01*
X196341373Y-116227697D01*
X196271675Y-116232592D01*
X196210508Y-116199141D01*
X196050882Y-116039515D01*
X195836819Y-115825451D01*
X195803334Y-115764128D01*
X195800500Y-115737770D01*
X195800500Y-111882559D01*
X195820185Y-111815520D01*
X195872989Y-111769765D01*
X195942147Y-111759821D01*
X196005703Y-111788846D01*
X196030039Y-111817462D01*
X196107684Y-111943345D01*
X196231654Y-112067315D01*
X196380875Y-112159356D01*
X196380880Y-112159358D01*
X196547302Y-112214505D01*
X196547309Y-112214506D01*
X196650019Y-112224999D01*
X197200000Y-112224999D01*
X197249972Y-112224999D01*
X197249986Y-112224998D01*
X197352697Y-112214505D01*
X197519119Y-112159358D01*
X197519124Y-112159356D01*
X197668345Y-112067315D01*
X197792315Y-111943345D01*
X197884356Y-111794124D01*
X197884358Y-111794119D01*
X197939505Y-111627697D01*
X197939506Y-111627690D01*
X197949999Y-111524986D01*
X197950000Y-111524973D01*
X197950000Y-111250000D01*
X197200000Y-111250000D01*
X197200000Y-112224999D01*
X196650019Y-112224999D01*
X196699999Y-112224998D01*
X196700000Y-112224998D01*
X196700000Y-111124000D01*
X196719685Y-111056961D01*
X196772489Y-111011206D01*
X196824000Y-111000000D01*
X196950000Y-111000000D01*
X196950000Y-110874000D01*
X196969685Y-110806961D01*
X197022489Y-110761206D01*
X197074000Y-110750000D01*
X197949999Y-110750000D01*
X197949999Y-110475028D01*
X197949998Y-110475013D01*
X197939505Y-110372302D01*
X197884358Y-110205880D01*
X197884356Y-110205875D01*
X197792315Y-110056654D01*
X197668345Y-109932684D01*
X197519124Y-109840643D01*
X197519119Y-109840641D01*
X197352697Y-109785494D01*
X197352690Y-109785493D01*
X197249986Y-109775000D01*
X197219460Y-109775000D01*
X197152421Y-109755315D01*
X197106666Y-109702511D01*
X197096722Y-109633353D01*
X197124945Y-109571551D01*
X197124936Y-109571544D01*
X197124968Y-109571502D01*
X197125747Y-109569797D01*
X197129004Y-109566298D01*
X197129721Y-109565374D01*
X197212031Y-109426195D01*
X197212033Y-109426190D01*
X197257144Y-109270918D01*
X197257145Y-109270912D01*
X197258790Y-109250000D01*
X196604000Y-109250000D01*
X196536961Y-109230315D01*
X196491206Y-109177511D01*
X196480000Y-109126000D01*
X196480000Y-109000000D01*
X196386967Y-109000000D01*
X196357836Y-108991446D01*
X196328126Y-108985150D01*
X196324636Y-108981697D01*
X196319928Y-108980315D01*
X196300047Y-108957371D01*
X196278456Y-108936011D01*
X196276203Y-108929853D01*
X196274173Y-108927511D01*
X196265944Y-108903009D01*
X196265632Y-108901614D01*
X196241658Y-108781088D01*
X196235320Y-108765787D01*
X196232977Y-108755287D01*
X196233574Y-108746250D01*
X196230000Y-108728278D01*
X196230000Y-108195494D01*
X196730000Y-108195494D01*
X196730000Y-108750000D01*
X197258790Y-108750000D01*
X197257145Y-108729089D01*
X197212031Y-108573804D01*
X197129721Y-108434625D01*
X197129714Y-108434616D01*
X197015383Y-108320285D01*
X197015374Y-108320278D01*
X196876193Y-108237967D01*
X196876190Y-108237965D01*
X196730001Y-108195493D01*
X196730000Y-108195494D01*
X196230000Y-108195494D01*
X196229998Y-108195493D01*
X196083809Y-108237965D01*
X196083806Y-108237967D01*
X196000408Y-108287289D01*
X195972807Y-108294291D01*
X195946133Y-108304241D01*
X195939382Y-108302772D01*
X195932684Y-108304472D01*
X195905678Y-108295440D01*
X195877860Y-108289389D01*
X195870008Y-108283511D01*
X195866422Y-108282312D01*
X195849606Y-108268238D01*
X195680543Y-108099175D01*
X195647058Y-108037852D01*
X195652042Y-107968160D01*
X195655000Y-107963750D01*
X195655000Y-107947295D01*
X196155000Y-107947295D01*
X196155001Y-107947295D01*
X196157486Y-107947100D01*
X196315198Y-107901281D01*
X196456552Y-107817685D01*
X196456561Y-107817678D01*
X196572678Y-107701561D01*
X196572685Y-107701552D01*
X196656282Y-107560196D01*
X196656283Y-107560193D01*
X196702099Y-107402495D01*
X196702100Y-107402489D01*
X196704999Y-107365649D01*
X196705000Y-107365634D01*
X196705000Y-106725000D01*
X196155000Y-106725000D01*
X196155000Y-107947295D01*
X195655000Y-107947295D01*
X195655000Y-106225000D01*
X196155000Y-106225000D01*
X196705000Y-106225000D01*
X196705000Y-105584365D01*
X196704999Y-105584350D01*
X196702100Y-105547510D01*
X196702099Y-105547504D01*
X196656283Y-105389806D01*
X196656282Y-105389803D01*
X196572685Y-105248447D01*
X196572678Y-105248438D01*
X196456561Y-105132321D01*
X196456552Y-105132314D01*
X196315196Y-105048717D01*
X196315193Y-105048716D01*
X196157494Y-105002900D01*
X196157497Y-105002900D01*
X196155000Y-105002703D01*
X196155000Y-106225000D01*
X195655000Y-106225000D01*
X195655000Y-105002703D01*
X195652507Y-105002900D01*
X195544094Y-105034397D01*
X195474225Y-105034197D01*
X195415555Y-104996254D01*
X195386712Y-104932616D01*
X195385500Y-104915320D01*
X195385500Y-104563377D01*
X195356659Y-104418390D01*
X195356658Y-104418389D01*
X195356658Y-104418385D01*
X195352820Y-104409119D01*
X195300086Y-104281807D01*
X195300085Y-104281805D01*
X195278131Y-104248949D01*
X195267186Y-104232568D01*
X195234679Y-104183916D01*
X195217956Y-104158887D01*
X195217952Y-104158882D01*
X194264031Y-103204960D01*
X194230546Y-103143637D01*
X194235530Y-103073945D01*
X194277402Y-103018012D01*
X194342866Y-102993595D01*
X194376068Y-102997120D01*
X194376280Y-102995962D01*
X194382511Y-102997100D01*
X194384998Y-102997295D01*
X194385000Y-102997295D01*
X194885000Y-102997295D01*
X194885001Y-102997295D01*
X194887486Y-102997100D01*
X195045198Y-102951281D01*
X195186552Y-102867685D01*
X195192722Y-102862900D01*
X195194546Y-102865252D01*
X195243595Y-102838445D01*
X195313288Y-102843402D01*
X195346063Y-102864465D01*
X195347278Y-102862900D01*
X195353447Y-102867685D01*
X195494801Y-102951281D01*
X195652514Y-102997100D01*
X195652511Y-102997100D01*
X195654998Y-102997295D01*
X195655000Y-102997295D01*
X196155000Y-102997295D01*
X196155001Y-102997295D01*
X196157486Y-102997100D01*
X196315198Y-102951281D01*
X196456552Y-102867685D01*
X196456561Y-102867678D01*
X196572678Y-102751561D01*
X196572685Y-102751552D01*
X196656282Y-102610196D01*
X196656283Y-102610193D01*
X196702099Y-102452495D01*
X196702100Y-102452489D01*
X196704999Y-102415649D01*
X196705000Y-102415634D01*
X196705000Y-101775000D01*
X196155000Y-101775000D01*
X196155000Y-102997295D01*
X195655000Y-102997295D01*
X195655000Y-101775000D01*
X194885000Y-101775000D01*
X194885000Y-102997295D01*
X194385000Y-102997295D01*
X194385000Y-101775000D01*
X191345788Y-101775000D01*
X191278749Y-101755315D01*
X191258107Y-101738681D01*
X190153776Y-100634350D01*
X191295000Y-100634350D01*
X191295000Y-101275000D01*
X191845000Y-101275000D01*
X191845000Y-100052703D01*
X192345000Y-100052703D01*
X192345000Y-101275000D01*
X193115000Y-101275000D01*
X193115000Y-100052703D01*
X193615000Y-100052703D01*
X193615000Y-101275000D01*
X194385000Y-101275000D01*
X194385000Y-100052703D01*
X194885000Y-100052703D01*
X194885000Y-101275000D01*
X195655000Y-101275000D01*
X196155000Y-101275000D01*
X196705000Y-101275000D01*
X196705000Y-100634365D01*
X196704999Y-100634350D01*
X196702100Y-100597510D01*
X196702099Y-100597504D01*
X196656283Y-100439806D01*
X196656282Y-100439803D01*
X196572685Y-100298447D01*
X196572678Y-100298438D01*
X196456561Y-100182321D01*
X196456552Y-100182314D01*
X196315196Y-100098717D01*
X196315193Y-100098716D01*
X196157494Y-100052900D01*
X196157497Y-100052900D01*
X196155000Y-100052703D01*
X196155000Y-101275000D01*
X195655000Y-101275000D01*
X195655000Y-100052703D01*
X195652503Y-100052900D01*
X195494806Y-100098716D01*
X195494803Y-100098717D01*
X195353447Y-100182314D01*
X195347278Y-100187100D01*
X195345457Y-100184753D01*
X195296358Y-100211564D01*
X195226666Y-100206580D01*
X195193930Y-100185541D01*
X195192722Y-100187100D01*
X195186552Y-100182314D01*
X195045196Y-100098717D01*
X195045193Y-100098716D01*
X194887494Y-100052900D01*
X194887497Y-100052900D01*
X194885000Y-100052703D01*
X194385000Y-100052703D01*
X194382503Y-100052900D01*
X194224806Y-100098716D01*
X194224803Y-100098717D01*
X194083447Y-100182314D01*
X194077278Y-100187100D01*
X194075457Y-100184753D01*
X194026358Y-100211564D01*
X193956666Y-100206580D01*
X193923930Y-100185541D01*
X193922722Y-100187100D01*
X193916552Y-100182314D01*
X193775196Y-100098717D01*
X193775193Y-100098716D01*
X193617494Y-100052900D01*
X193617497Y-100052900D01*
X193615000Y-100052703D01*
X193115000Y-100052703D01*
X193112503Y-100052900D01*
X192954806Y-100098716D01*
X192954803Y-100098717D01*
X192813447Y-100182314D01*
X192807278Y-100187100D01*
X192805457Y-100184753D01*
X192756358Y-100211564D01*
X192686666Y-100206580D01*
X192653930Y-100185541D01*
X192652722Y-100187100D01*
X192646552Y-100182314D01*
X192505196Y-100098717D01*
X192505193Y-100098716D01*
X192347494Y-100052900D01*
X192347497Y-100052900D01*
X192345000Y-100052703D01*
X191845000Y-100052703D01*
X191842503Y-100052900D01*
X191684806Y-100098716D01*
X191684803Y-100098717D01*
X191543447Y-100182314D01*
X191543438Y-100182321D01*
X191427321Y-100298438D01*
X191427314Y-100298447D01*
X191343717Y-100439803D01*
X191343716Y-100439806D01*
X191297900Y-100597504D01*
X191297899Y-100597510D01*
X191295000Y-100634350D01*
X190153776Y-100634350D01*
X188695819Y-99176393D01*
X188662334Y-99115070D01*
X188659500Y-99088712D01*
X188659500Y-95814499D01*
X188679185Y-95747460D01*
X188731989Y-95701705D01*
X188783495Y-95690499D01*
X190157872Y-95690499D01*
X190157877Y-95690498D01*
X190157883Y-95690498D01*
X190165791Y-95689647D01*
X190184493Y-95687637D01*
X190253252Y-95700041D01*
X190285431Y-95723245D01*
X191240500Y-96678314D01*
X191333686Y-96771500D01*
X191404158Y-96812187D01*
X191447810Y-96837390D01*
X191447814Y-96837392D01*
X191575108Y-96871500D01*
X191575110Y-96871500D01*
X192936650Y-96871500D01*
X192936652Y-96871500D01*
X193063946Y-96837392D01*
X193121575Y-96804120D01*
X193189475Y-96787646D01*
X193255502Y-96810498D01*
X193270068Y-96822651D01*
X193337070Y-96887871D01*
X193350442Y-96911594D01*
X193366760Y-96933393D01*
X193367345Y-96941583D01*
X193371378Y-96948737D01*
X193369801Y-96975922D01*
X193371744Y-97003085D01*
X193367426Y-97016875D01*
X193367333Y-97018490D01*
X193366610Y-97019482D01*
X193365144Y-97024167D01*
X193363433Y-97028298D01*
X193363430Y-97028307D01*
X193355138Y-97070000D01*
X194025000Y-97070000D01*
X194025000Y-96450000D01*
X193748975Y-96450000D01*
X193681936Y-96430315D01*
X193636181Y-96377511D01*
X193626237Y-96308353D01*
X193641588Y-96264000D01*
X193647390Y-96253949D01*
X193647392Y-96253946D01*
X193681500Y-96126652D01*
X193681500Y-96074500D01*
X193701185Y-96007461D01*
X193753989Y-95961706D01*
X193805500Y-95950500D01*
X194151000Y-95950500D01*
X194218039Y-95970185D01*
X194263794Y-96022989D01*
X194275000Y-96074500D01*
X194275000Y-96200000D01*
X194401000Y-96200000D01*
X194468039Y-96219685D01*
X194513794Y-96272489D01*
X194525000Y-96324000D01*
X194525000Y-97020000D01*
X194285504Y-97020000D01*
X194209204Y-97040444D01*
X194140795Y-97079940D01*
X194084940Y-97135795D01*
X194045444Y-97204204D01*
X194025000Y-97280504D01*
X194025000Y-97359496D01*
X194045444Y-97435796D01*
X194084940Y-97504205D01*
X194140795Y-97560060D01*
X194158012Y-97570000D01*
X193355138Y-97570000D01*
X193363430Y-97611690D01*
X193363430Y-97611692D01*
X193438807Y-97793671D01*
X193438814Y-97793684D01*
X193548248Y-97957462D01*
X193548251Y-97957466D01*
X193687533Y-98096748D01*
X193687537Y-98096751D01*
X193851315Y-98206185D01*
X193851328Y-98206192D01*
X194033306Y-98281569D01*
X194033318Y-98281572D01*
X194226504Y-98319999D01*
X194226508Y-98320000D01*
X194625000Y-98320000D01*
X194625000Y-97620000D01*
X195125000Y-97620000D01*
X195125000Y-98320000D01*
X195523492Y-98320000D01*
X195523495Y-98319999D01*
X195716681Y-98281572D01*
X195716693Y-98281569D01*
X195898671Y-98206192D01*
X195898684Y-98206185D01*
X196062462Y-98096751D01*
X196062466Y-98096748D01*
X196201748Y-97957466D01*
X196201751Y-97957462D01*
X196311185Y-97793684D01*
X196311192Y-97793671D01*
X196386569Y-97611692D01*
X196386569Y-97611690D01*
X196394862Y-97570000D01*
X195591988Y-97570000D01*
X195609205Y-97560060D01*
X195665060Y-97504205D01*
X195704556Y-97435796D01*
X195725000Y-97359496D01*
X195725000Y-97280504D01*
X195704556Y-97204204D01*
X195665060Y-97135795D01*
X195609205Y-97079940D01*
X195591988Y-97070000D01*
X196394862Y-97070000D01*
X197705138Y-97070000D01*
X198508012Y-97070000D01*
X198490795Y-97079940D01*
X198434940Y-97135795D01*
X198395444Y-97204204D01*
X198375000Y-97280504D01*
X198375000Y-97359496D01*
X198395444Y-97435796D01*
X198434940Y-97504205D01*
X198490795Y-97560060D01*
X198508012Y-97570000D01*
X197705138Y-97570000D01*
X197713430Y-97611690D01*
X197713430Y-97611692D01*
X197788807Y-97793671D01*
X197788814Y-97793684D01*
X197898248Y-97957462D01*
X197898251Y-97957466D01*
X198037533Y-98096748D01*
X198037537Y-98096751D01*
X198201315Y-98206185D01*
X198201328Y-98206192D01*
X198383306Y-98281569D01*
X198383318Y-98281572D01*
X198576504Y-98319999D01*
X198576508Y-98320000D01*
X198825000Y-98320000D01*
X198825000Y-97620000D01*
X199325000Y-97620000D01*
X199325000Y-98320000D01*
X199573492Y-98320000D01*
X199573495Y-98319999D01*
X199766681Y-98281572D01*
X199766693Y-98281569D01*
X199948671Y-98206192D01*
X199948684Y-98206185D01*
X200112462Y-98096751D01*
X200112466Y-98096748D01*
X200251748Y-97957466D01*
X200251751Y-97957462D01*
X200361185Y-97793684D01*
X200361192Y-97793671D01*
X200436569Y-97611692D01*
X200436569Y-97611690D01*
X200444862Y-97570000D01*
X199641988Y-97570000D01*
X199659205Y-97560060D01*
X199715060Y-97504205D01*
X199754556Y-97435796D01*
X199775000Y-97359496D01*
X199775000Y-97280504D01*
X199754556Y-97204204D01*
X199715060Y-97135795D01*
X199659205Y-97079940D01*
X199641988Y-97070000D01*
X200444862Y-97070000D01*
X200436569Y-97028309D01*
X200436569Y-97028307D01*
X200361192Y-96846328D01*
X200361185Y-96846315D01*
X200251751Y-96682537D01*
X200251748Y-96682533D01*
X200112466Y-96543251D01*
X200112462Y-96543248D01*
X199948684Y-96433814D01*
X199948671Y-96433807D01*
X199766693Y-96358430D01*
X199766681Y-96358427D01*
X199573495Y-96320000D01*
X199325000Y-96320000D01*
X199325000Y-97020000D01*
X198825000Y-97020000D01*
X198825000Y-96320000D01*
X198576504Y-96320000D01*
X198383318Y-96358427D01*
X198383306Y-96358430D01*
X198201328Y-96433807D01*
X198201315Y-96433814D01*
X198037537Y-96543248D01*
X198037533Y-96543251D01*
X197898251Y-96682533D01*
X197898248Y-96682537D01*
X197788814Y-96846315D01*
X197788807Y-96846328D01*
X197713430Y-97028307D01*
X197713430Y-97028309D01*
X197705138Y-97070000D01*
X196394862Y-97070000D01*
X196386569Y-97028309D01*
X196386569Y-97028307D01*
X196311192Y-96846328D01*
X196311185Y-96846315D01*
X196201751Y-96682537D01*
X196201748Y-96682533D01*
X196062466Y-96543251D01*
X196062462Y-96543248D01*
X195898675Y-96433808D01*
X195896938Y-96432880D01*
X195896198Y-96432153D01*
X195893613Y-96430426D01*
X195893940Y-96429935D01*
X195847093Y-96383918D01*
X195831633Y-96315780D01*
X195855465Y-96250100D01*
X195857017Y-96248033D01*
X195858706Y-96245829D01*
X195858715Y-96245821D01*
X195935008Y-96113678D01*
X195974500Y-95966293D01*
X195974500Y-95813707D01*
X195935008Y-95666322D01*
X195919522Y-95639500D01*
X195858717Y-95534182D01*
X195858712Y-95534176D01*
X195750823Y-95426287D01*
X195750817Y-95426282D01*
X195618681Y-95349993D01*
X195618676Y-95349991D01*
X195586245Y-95341301D01*
X195526585Y-95304936D01*
X195496057Y-95242089D01*
X195497858Y-95205518D01*
X195495439Y-95205200D01*
X195496500Y-95197142D01*
X195496500Y-90802858D01*
X195495439Y-90794800D01*
X195498978Y-90794333D01*
X195500173Y-90740887D01*
X195539252Y-90682968D01*
X195586245Y-90658698D01*
X195618678Y-90650008D01*
X195750821Y-90573715D01*
X195858715Y-90465821D01*
X195935008Y-90333678D01*
X195974500Y-90186293D01*
X195974500Y-90033707D01*
X195935008Y-89886322D01*
X195927307Y-89872984D01*
X195896535Y-89819685D01*
X195858715Y-89754179D01*
X195858711Y-89754175D01*
X195857018Y-89751968D01*
X195856165Y-89749763D01*
X195854651Y-89747140D01*
X195855059Y-89746903D01*
X195831820Y-89686800D01*
X195845856Y-89618355D01*
X195894667Y-89568363D01*
X195896955Y-89567109D01*
X195898687Y-89566183D01*
X196062462Y-89456751D01*
X196062466Y-89456748D01*
X196201748Y-89317466D01*
X196201751Y-89317462D01*
X196311185Y-89153684D01*
X196311192Y-89153671D01*
X196386569Y-88971692D01*
X196386569Y-88971690D01*
X196394862Y-88930000D01*
X195591988Y-88930000D01*
X195609205Y-88920060D01*
X195665060Y-88864205D01*
X195704556Y-88795796D01*
X195725000Y-88719496D01*
X195725000Y-88640504D01*
X195704556Y-88564204D01*
X195665060Y-88495795D01*
X195609205Y-88439940D01*
X195591988Y-88430000D01*
X196394862Y-88430000D01*
X197705138Y-88430000D01*
X198508012Y-88430000D01*
X198490795Y-88439940D01*
X198434940Y-88495795D01*
X198395444Y-88564204D01*
X198375000Y-88640504D01*
X198375000Y-88719496D01*
X198395444Y-88795796D01*
X198434940Y-88864205D01*
X198490795Y-88920060D01*
X198508012Y-88930000D01*
X197705138Y-88930000D01*
X197713430Y-88971690D01*
X197713430Y-88971692D01*
X197788807Y-89153671D01*
X197788814Y-89153684D01*
X197898248Y-89317462D01*
X197898251Y-89317466D01*
X198037533Y-89456748D01*
X198037537Y-89456751D01*
X198201315Y-89566185D01*
X198201328Y-89566192D01*
X198383306Y-89641569D01*
X198383318Y-89641572D01*
X198576504Y-89679999D01*
X198576508Y-89680000D01*
X198825000Y-89680000D01*
X198825000Y-88980000D01*
X199325000Y-88980000D01*
X199325000Y-89680000D01*
X199573492Y-89680000D01*
X199573495Y-89679999D01*
X199766681Y-89641572D01*
X199766693Y-89641569D01*
X199948671Y-89566192D01*
X199948684Y-89566185D01*
X200112462Y-89456751D01*
X200112466Y-89456748D01*
X200251748Y-89317466D01*
X200251751Y-89317462D01*
X200361185Y-89153684D01*
X200361192Y-89153671D01*
X200436569Y-88971692D01*
X200436569Y-88971690D01*
X200444862Y-88930000D01*
X199641988Y-88930000D01*
X199659205Y-88920060D01*
X199715060Y-88864205D01*
X199754556Y-88795796D01*
X199775000Y-88719496D01*
X199775000Y-88640504D01*
X199754556Y-88564204D01*
X199715060Y-88495795D01*
X199659205Y-88439940D01*
X199641988Y-88430000D01*
X200444862Y-88430000D01*
X200436569Y-88388309D01*
X200436569Y-88388307D01*
X200361192Y-88206328D01*
X200361185Y-88206315D01*
X200251751Y-88042537D01*
X200251748Y-88042533D01*
X200112466Y-87903251D01*
X200112462Y-87903248D01*
X199948684Y-87793814D01*
X199948671Y-87793807D01*
X199766693Y-87718430D01*
X199766681Y-87718427D01*
X199573495Y-87680000D01*
X199325000Y-87680000D01*
X199325000Y-88380000D01*
X198825000Y-88380000D01*
X198825000Y-87680000D01*
X198576504Y-87680000D01*
X198383318Y-87718427D01*
X198383306Y-87718430D01*
X198201328Y-87793807D01*
X198201315Y-87793814D01*
X198037537Y-87903248D01*
X198037533Y-87903251D01*
X197898251Y-88042533D01*
X197898248Y-88042537D01*
X197788814Y-88206315D01*
X197788807Y-88206328D01*
X197713430Y-88388307D01*
X197713430Y-88388309D01*
X197705138Y-88430000D01*
X196394862Y-88430000D01*
X196386569Y-88388309D01*
X196386569Y-88388307D01*
X196311192Y-88206328D01*
X196311185Y-88206315D01*
X196201751Y-88042537D01*
X196201748Y-88042533D01*
X196062466Y-87903251D01*
X196062462Y-87903248D01*
X195898684Y-87793814D01*
X195898671Y-87793807D01*
X195716693Y-87718430D01*
X195716681Y-87718427D01*
X195523495Y-87680000D01*
X195125000Y-87680000D01*
X195125000Y-88380000D01*
X194625000Y-88380000D01*
X194625000Y-87680000D01*
X194226504Y-87680000D01*
X194033318Y-87718427D01*
X194033306Y-87718430D01*
X193851328Y-87793807D01*
X193851315Y-87793814D01*
X193687537Y-87903248D01*
X193687533Y-87903251D01*
X193548251Y-88042533D01*
X193548248Y-88042537D01*
X193438814Y-88206315D01*
X193438807Y-88206328D01*
X193363430Y-88388307D01*
X193363430Y-88388309D01*
X193355138Y-88430000D01*
X194158012Y-88430000D01*
X194140795Y-88439940D01*
X194084940Y-88495795D01*
X194045444Y-88564204D01*
X194025000Y-88640504D01*
X194025000Y-88719496D01*
X194045444Y-88795796D01*
X194084940Y-88864205D01*
X194140795Y-88920060D01*
X194158012Y-88930000D01*
X193355138Y-88930000D01*
X193363430Y-88971690D01*
X193363430Y-88971692D01*
X193365141Y-88975822D01*
X193372608Y-89045292D01*
X193341332Y-89107770D01*
X193324891Y-89122538D01*
X193297814Y-89142807D01*
X193297808Y-89142814D01*
X193211649Y-89257906D01*
X193211645Y-89257913D01*
X193161403Y-89392620D01*
X193161401Y-89392627D01*
X193155000Y-89452155D01*
X193155000Y-89454688D01*
X193154835Y-89455248D01*
X193154823Y-89455479D01*
X193154768Y-89455476D01*
X193135315Y-89521727D01*
X193082511Y-89567482D01*
X193013353Y-89577426D01*
X192998909Y-89574463D01*
X192976656Y-89568500D01*
X192976652Y-89568500D01*
X191985893Y-89568500D01*
X191854108Y-89568500D01*
X191726812Y-89602608D01*
X191612686Y-89668500D01*
X191612683Y-89668502D01*
X191338502Y-89942683D01*
X191338500Y-89942686D01*
X191272608Y-90056812D01*
X191238500Y-90184108D01*
X191238500Y-91652323D01*
X191218815Y-91719362D01*
X191202181Y-91740004D01*
X190285430Y-92656754D01*
X190224107Y-92690239D01*
X190184494Y-92692362D01*
X190157883Y-92689501D01*
X190157881Y-92689500D01*
X190157873Y-92689500D01*
X190157865Y-92689500D01*
X188783500Y-92689500D01*
X188716461Y-92669815D01*
X188670706Y-92617011D01*
X188659500Y-92565500D01*
X188659500Y-92103228D01*
X188679185Y-92036189D01*
X188695815Y-92015551D01*
X188984548Y-91726817D01*
X189045871Y-91693333D01*
X189072229Y-91690499D01*
X190157871Y-91690499D01*
X190157872Y-91690499D01*
X190217483Y-91684091D01*
X190352331Y-91633796D01*
X190467546Y-91547546D01*
X190553796Y-91432331D01*
X190604091Y-91297483D01*
X190604091Y-91297482D01*
X190604092Y-91297480D01*
X190608067Y-91260500D01*
X190610500Y-91237873D01*
X190610499Y-89142128D01*
X190604091Y-89082517D01*
X190599422Y-89070000D01*
X190553797Y-88947671D01*
X190553793Y-88947664D01*
X190467547Y-88832455D01*
X190467544Y-88832452D01*
X190352335Y-88746206D01*
X190352328Y-88746202D01*
X190217482Y-88695908D01*
X190217483Y-88695908D01*
X190157883Y-88689501D01*
X190157881Y-88689500D01*
X190157873Y-88689500D01*
X190157864Y-88689500D01*
X188762129Y-88689500D01*
X188762123Y-88689501D01*
X188702516Y-88695908D01*
X188567671Y-88746202D01*
X188567664Y-88746206D01*
X188452455Y-88832452D01*
X188452452Y-88832455D01*
X188366206Y-88947664D01*
X188366202Y-88947671D01*
X188315908Y-89082517D01*
X188311606Y-89122538D01*
X188309501Y-89142123D01*
X188309500Y-89142135D01*
X188309500Y-90227770D01*
X188289815Y-90294809D01*
X188273181Y-90315451D01*
X187326047Y-91262584D01*
X187314363Y-91280071D01*
X187302730Y-91297483D01*
X187273222Y-91341644D01*
X187243914Y-91385507D01*
X187187343Y-91522082D01*
X187187340Y-91522092D01*
X187158500Y-91667079D01*
X187158500Y-91667082D01*
X187158500Y-99524860D01*
X187158500Y-99524862D01*
X187158499Y-99524862D01*
X187187340Y-99669849D01*
X187187343Y-99669859D01*
X187243913Y-99806432D01*
X187243919Y-99806443D01*
X187259937Y-99830414D01*
X187259938Y-99830418D01*
X187259940Y-99830418D01*
X187278302Y-99857900D01*
X187326049Y-99929359D01*
X188435009Y-101038319D01*
X188468494Y-101099642D01*
X188463510Y-101169334D01*
X188421638Y-101225267D01*
X188356174Y-101249684D01*
X188347328Y-101250000D01*
X188250000Y-101250000D01*
X188250000Y-102750000D01*
X189399999Y-102750000D01*
X189399999Y-102302671D01*
X189419684Y-102235632D01*
X189472488Y-102189877D01*
X189541646Y-102179933D01*
X189605202Y-102208958D01*
X189611680Y-102214990D01*
X191283509Y-103886819D01*
X191316994Y-103948142D01*
X191312010Y-104017834D01*
X191270138Y-104073767D01*
X191204674Y-104098184D01*
X191195828Y-104098500D01*
X190077080Y-104098500D01*
X189932092Y-104127340D01*
X189932082Y-104127343D01*
X189795511Y-104183912D01*
X189795498Y-104183919D01*
X189672584Y-104266048D01*
X189562997Y-104375635D01*
X189501674Y-104409119D01*
X189431982Y-104404135D01*
X189376049Y-104362263D01*
X189351632Y-104296799D01*
X189357610Y-104248949D01*
X189389505Y-104152697D01*
X189389506Y-104152690D01*
X189399999Y-104049986D01*
X189400000Y-104049973D01*
X189400000Y-103250000D01*
X188250000Y-103250000D01*
X188250000Y-104749999D01*
X188699972Y-104749999D01*
X188699986Y-104749998D01*
X188802695Y-104739506D01*
X188898948Y-104707610D01*
X188968776Y-104705208D01*
X189028818Y-104740939D01*
X189060011Y-104803459D01*
X189052452Y-104872919D01*
X189025634Y-104912997D01*
X188475450Y-105463181D01*
X188414127Y-105496666D01*
X188387769Y-105499500D01*
X187302129Y-105499500D01*
X187302123Y-105499501D01*
X187242516Y-105505908D01*
X187107671Y-105556202D01*
X187107664Y-105556206D01*
X186992455Y-105642452D01*
X186992452Y-105642455D01*
X186906206Y-105757664D01*
X186906202Y-105757671D01*
X186855908Y-105892517D01*
X186849501Y-105952116D01*
X186849500Y-105952135D01*
X186849500Y-108047870D01*
X186849501Y-108047876D01*
X186855908Y-108107483D01*
X186906202Y-108242328D01*
X186906206Y-108242335D01*
X186992452Y-108357544D01*
X186992455Y-108357547D01*
X187107664Y-108443793D01*
X187107671Y-108443797D01*
X187242517Y-108494091D01*
X187242516Y-108494091D01*
X187249444Y-108494835D01*
X187302127Y-108500500D01*
X188697872Y-108500499D01*
X188757483Y-108494091D01*
X188892331Y-108443796D01*
X189007546Y-108357546D01*
X189093796Y-108242331D01*
X189144091Y-108107483D01*
X189150500Y-108047873D01*
X189150499Y-106962228D01*
X189170184Y-106895190D01*
X189186813Y-106874553D01*
X190425548Y-105635819D01*
X190486871Y-105602334D01*
X190513229Y-105599500D01*
X191420500Y-105599500D01*
X191429185Y-105602050D01*
X191438147Y-105600762D01*
X191462187Y-105611740D01*
X191487539Y-105619185D01*
X191493466Y-105626025D01*
X191501703Y-105629787D01*
X191515992Y-105652021D01*
X191533294Y-105671989D01*
X191535581Y-105682503D01*
X191539477Y-105688565D01*
X191544500Y-105723500D01*
X191544500Y-105912769D01*
X191524815Y-105979808D01*
X191515429Y-105991468D01*
X191515918Y-105991869D01*
X191512050Y-105996582D01*
X191429919Y-106119498D01*
X191429912Y-106119511D01*
X191373343Y-106256082D01*
X191373340Y-106256092D01*
X191344500Y-106401079D01*
X191344500Y-108022769D01*
X191335855Y-108052209D01*
X191329332Y-108082196D01*
X191325577Y-108087211D01*
X191324815Y-108089808D01*
X191308181Y-108110451D01*
X191150393Y-108268238D01*
X191089070Y-108301722D01*
X191019378Y-108296738D01*
X190999591Y-108287288D01*
X190916193Y-108237967D01*
X190916190Y-108237965D01*
X190770001Y-108195493D01*
X190770000Y-108195494D01*
X190770000Y-108728277D01*
X190767023Y-108755285D01*
X190764679Y-108765787D01*
X190758342Y-108781087D01*
X190734367Y-108901613D01*
X190734056Y-108903008D01*
X190717810Y-108932383D01*
X190702265Y-108962102D01*
X190700966Y-108962841D01*
X190700242Y-108964151D01*
X190670685Y-108980084D01*
X190641549Y-108996676D01*
X190639456Y-108996919D01*
X190638740Y-108997306D01*
X190637176Y-108997185D01*
X190613033Y-109000000D01*
X190520000Y-109000000D01*
X190520000Y-109126000D01*
X190500315Y-109193039D01*
X190447511Y-109238794D01*
X190396000Y-109250000D01*
X189741210Y-109250000D01*
X189742854Y-109270910D01*
X189787968Y-109426195D01*
X189870278Y-109565374D01*
X189875064Y-109571544D01*
X189873411Y-109572825D01*
X189901706Y-109624642D01*
X189896722Y-109694334D01*
X189854850Y-109750267D01*
X189789386Y-109774684D01*
X189780544Y-109775000D01*
X189750030Y-109775000D01*
X189750012Y-109775001D01*
X189647302Y-109785494D01*
X189480880Y-109840641D01*
X189480875Y-109840643D01*
X189331654Y-109932684D01*
X189207684Y-110056654D01*
X189115643Y-110205875D01*
X189115641Y-110205880D01*
X189060494Y-110372302D01*
X189060493Y-110372309D01*
X189050000Y-110475013D01*
X189050000Y-110750000D01*
X189926000Y-110750000D01*
X189993039Y-110769685D01*
X190038794Y-110822489D01*
X190050000Y-110874000D01*
X190050000Y-111000000D01*
X190176000Y-111000000D01*
X190243039Y-111019685D01*
X190288794Y-111072489D01*
X190300000Y-111124000D01*
X190300000Y-112224999D01*
X190349972Y-112224999D01*
X190349986Y-112224998D01*
X190452697Y-112214505D01*
X190619119Y-112159358D01*
X190619124Y-112159356D01*
X190768345Y-112067315D01*
X190892315Y-111943345D01*
X190984356Y-111794124D01*
X190984359Y-111794117D01*
X191014930Y-111701860D01*
X191054702Y-111644415D01*
X191119218Y-111617591D01*
X191187994Y-111629906D01*
X191239194Y-111677448D01*
X191248818Y-111697529D01*
X191256203Y-111717329D01*
X191256206Y-111717335D01*
X191342452Y-111832544D01*
X191342455Y-111832547D01*
X191457664Y-111918793D01*
X191457671Y-111918797D01*
X191502618Y-111935561D01*
X191592517Y-111969091D01*
X191652127Y-111975500D01*
X192247872Y-111975499D01*
X192307483Y-111969091D01*
X192442331Y-111918796D01*
X192442331Y-111918795D01*
X192447167Y-111916992D01*
X192516858Y-111912008D01*
X192578181Y-111945493D01*
X192611666Y-112006816D01*
X192614500Y-112033174D01*
X192614500Y-113322770D01*
X192594815Y-113389809D01*
X192578181Y-113410451D01*
X189789490Y-116199141D01*
X189728167Y-116232626D01*
X189658475Y-116227642D01*
X189616398Y-116196143D01*
X189613817Y-116198725D01*
X189607544Y-116192452D01*
X189492335Y-116106206D01*
X189492328Y-116106202D01*
X189357482Y-116055908D01*
X189357483Y-116055908D01*
X189297883Y-116049501D01*
X189297881Y-116049500D01*
X189297873Y-116049500D01*
X189297864Y-116049500D01*
X186802129Y-116049500D01*
X186802123Y-116049501D01*
X186742516Y-116055908D01*
X186607671Y-116106202D01*
X186607669Y-116106204D01*
X186578778Y-116127831D01*
X186578774Y-116127834D01*
X186492454Y-116192454D01*
X186422680Y-116285659D01*
X186422669Y-116285671D01*
X186406205Y-116307665D01*
X186406202Y-116307671D01*
X186355908Y-116442517D01*
X186349501Y-116502116D01*
X186349501Y-116502123D01*
X186349500Y-116502135D01*
X185735500Y-116502135D01*
X185735500Y-116324500D01*
X185755185Y-116257461D01*
X185807989Y-116211706D01*
X185859500Y-116200500D01*
X186012472Y-116200500D01*
X186012475Y-116200500D01*
X186152485Y-116162984D01*
X186152487Y-116162982D01*
X186152489Y-116162982D01*
X186152490Y-116162981D01*
X186162820Y-116157017D01*
X186278015Y-116090509D01*
X186380509Y-115988015D01*
X186452984Y-115862485D01*
X186490500Y-115722475D01*
X186490500Y-115577525D01*
X186452984Y-115437515D01*
X186447519Y-115428050D01*
X186380511Y-115311988D01*
X186380506Y-115311982D01*
X186278017Y-115209493D01*
X186278011Y-115209488D01*
X186152488Y-115137017D01*
X186152481Y-115137014D01*
X186128405Y-115130563D01*
X186068745Y-115094198D01*
X186038217Y-115031351D01*
X186036500Y-115010789D01*
X186036500Y-111524986D01*
X189050001Y-111524986D01*
X189060494Y-111627697D01*
X189115641Y-111794119D01*
X189115643Y-111794124D01*
X189207684Y-111943345D01*
X189331654Y-112067315D01*
X189480875Y-112159356D01*
X189480880Y-112159358D01*
X189647302Y-112214505D01*
X189647309Y-112214506D01*
X189750019Y-112224999D01*
X189799999Y-112224998D01*
X189800000Y-112224998D01*
X189800000Y-111250000D01*
X189050001Y-111250000D01*
X189050001Y-111524986D01*
X186036500Y-111524986D01*
X186036500Y-108749999D01*
X189741209Y-108749999D01*
X189741210Y-108750000D01*
X190270000Y-108750000D01*
X190270000Y-108195494D01*
X190269998Y-108195493D01*
X190123809Y-108237965D01*
X190123806Y-108237967D01*
X189984625Y-108320278D01*
X189984616Y-108320285D01*
X189870285Y-108434616D01*
X189870278Y-108434625D01*
X189787968Y-108573804D01*
X189787966Y-108573809D01*
X189742855Y-108729081D01*
X189742854Y-108729087D01*
X189741209Y-108749999D01*
X186036500Y-108749999D01*
X186036500Y-107918177D01*
X186036501Y-107918164D01*
X186036501Y-107822470D01*
X186031587Y-107804132D01*
X186014318Y-107739683D01*
X185983119Y-107685646D01*
X185971465Y-107665460D01*
X185910862Y-107604857D01*
X185910859Y-107604855D01*
X184697701Y-106391696D01*
X184521819Y-106215814D01*
X184488334Y-106154491D01*
X184485500Y-106128133D01*
X184485500Y-104049986D01*
X186600001Y-104049986D01*
X186610494Y-104152697D01*
X186665641Y-104319119D01*
X186665643Y-104319124D01*
X186757684Y-104468345D01*
X186881654Y-104592315D01*
X187030875Y-104684356D01*
X187030880Y-104684358D01*
X187197302Y-104739505D01*
X187197309Y-104739506D01*
X187300019Y-104749999D01*
X187749999Y-104749999D01*
X187750000Y-104749998D01*
X187750000Y-103250000D01*
X186600001Y-103250000D01*
X186600001Y-104049986D01*
X184485500Y-104049986D01*
X184485500Y-101950013D01*
X186600000Y-101950013D01*
X186600000Y-102750000D01*
X187750000Y-102750000D01*
X187750000Y-101250000D01*
X187300028Y-101250000D01*
X187300012Y-101250001D01*
X187197302Y-101260494D01*
X187030880Y-101315641D01*
X187030875Y-101315643D01*
X186881654Y-101407684D01*
X186757684Y-101531654D01*
X186665643Y-101680875D01*
X186665641Y-101680880D01*
X186610494Y-101847302D01*
X186610493Y-101847309D01*
X186600000Y-101950013D01*
X184485500Y-101950013D01*
X184485500Y-100751041D01*
X184505185Y-100684002D01*
X184521819Y-100663360D01*
X184603076Y-100582102D01*
X184603078Y-100582099D01*
X184642054Y-100502372D01*
X184659582Y-100466518D01*
X184670500Y-100391582D01*
X184670500Y-100161187D01*
X184679145Y-100131743D01*
X184685668Y-100101761D01*
X184689422Y-100096745D01*
X184690185Y-100094148D01*
X184706810Y-100073515D01*
X184835655Y-99944669D01*
X184835660Y-99944666D01*
X184845860Y-99934465D01*
X184845862Y-99934465D01*
X184906465Y-99873862D01*
X184949318Y-99799638D01*
X184953297Y-99784788D01*
X184971501Y-99716853D01*
X184971501Y-99631147D01*
X184971500Y-99631143D01*
X184971500Y-95103147D01*
X184949318Y-95020362D01*
X184949314Y-95020355D01*
X184906469Y-94946144D01*
X184906463Y-94946136D01*
X182839864Y-92879537D01*
X182839862Y-92879535D01*
X182802750Y-92858108D01*
X182765640Y-92836682D01*
X182724246Y-92825591D01*
X182682853Y-92814500D01*
X177658579Y-92814500D01*
X177572873Y-92814500D01*
X177490085Y-92836682D01*
X177467886Y-92849500D01*
X177415864Y-92879535D01*
X177415861Y-92879537D01*
X176127181Y-94168218D01*
X176107744Y-94178830D01*
X176091011Y-94193331D01*
X176077679Y-94195247D01*
X176065858Y-94201703D01*
X176043771Y-94200123D01*
X176021853Y-94203275D01*
X176009601Y-94197679D01*
X175996166Y-94196719D01*
X175978439Y-94183448D01*
X175958297Y-94174250D01*
X175951014Y-94162918D01*
X175940233Y-94154847D01*
X175932495Y-94134101D01*
X175920523Y-94115472D01*
X175917371Y-94093553D01*
X175915816Y-94089383D01*
X175915500Y-94080537D01*
X175915500Y-93895855D01*
X175915501Y-93895842D01*
X175915501Y-93800148D01*
X175915107Y-93798676D01*
X175893318Y-93717361D01*
X175874379Y-93684559D01*
X175861349Y-93661989D01*
X175861347Y-93661986D01*
X175854715Y-93650500D01*
X175850465Y-93643138D01*
X175789862Y-93582535D01*
X175789859Y-93582533D01*
X175425862Y-93218535D01*
X175388750Y-93197108D01*
X175351640Y-93175682D01*
X175310246Y-93164591D01*
X175268853Y-93153500D01*
X169533873Y-93153500D01*
X169451088Y-93175682D01*
X169451081Y-93175685D01*
X169376870Y-93218530D01*
X169376862Y-93218536D01*
X167893537Y-94701861D01*
X167893535Y-94701864D01*
X167850680Y-94776089D01*
X167838782Y-94820498D01*
X167828500Y-94858871D01*
X167828500Y-95706852D01*
X167850682Y-95789640D01*
X167864578Y-95813707D01*
X167893535Y-95863862D01*
X168093182Y-96063508D01*
X168126666Y-96124829D01*
X168129500Y-96151188D01*
X168129500Y-96381582D01*
X168140418Y-96456518D01*
X168140418Y-96456519D01*
X168140419Y-96456521D01*
X168196921Y-96572099D01*
X168196923Y-96572102D01*
X168287897Y-96663076D01*
X168287900Y-96663078D01*
X168374675Y-96705499D01*
X168403482Y-96719582D01*
X168478418Y-96730500D01*
X168478423Y-96730500D01*
X168921577Y-96730500D01*
X168921582Y-96730500D01*
X168996518Y-96719582D01*
X169055053Y-96690966D01*
X169112099Y-96663078D01*
X169112102Y-96663076D01*
X169203076Y-96572102D01*
X169203078Y-96572099D01*
X169245072Y-96486198D01*
X169259582Y-96456518D01*
X169270500Y-96381582D01*
X169270500Y-96038418D01*
X169259582Y-95963482D01*
X169254821Y-95953743D01*
X169203078Y-95847900D01*
X169203076Y-95847897D01*
X169142860Y-95787681D01*
X169138521Y-95779735D01*
X169131274Y-95774310D01*
X169122039Y-95749550D01*
X169109375Y-95726358D01*
X169110020Y-95717328D01*
X169106857Y-95708846D01*
X169112473Y-95683025D01*
X169114359Y-95656666D01*
X169120177Y-95647612D01*
X169121709Y-95640573D01*
X169142860Y-95612319D01*
X169203360Y-95551819D01*
X169264683Y-95518334D01*
X169291041Y-95515500D01*
X169625500Y-95515500D01*
X169692539Y-95535185D01*
X169738294Y-95587989D01*
X169749500Y-95639500D01*
X169749500Y-96479678D01*
X169764032Y-96552735D01*
X169764033Y-96552739D01*
X169764034Y-96552740D01*
X169819399Y-96635601D01*
X169883325Y-96678314D01*
X169902260Y-96690966D01*
X169902264Y-96690967D01*
X169975321Y-96705499D01*
X169975324Y-96705500D01*
X169975326Y-96705500D01*
X171024676Y-96705500D01*
X171024677Y-96705499D01*
X171097740Y-96690966D01*
X171180601Y-96635601D01*
X171235966Y-96552740D01*
X171236572Y-96549691D01*
X171239727Y-96543659D01*
X171240640Y-96541456D01*
X171240837Y-96541537D01*
X171268953Y-96487782D01*
X171329667Y-96453204D01*
X171399437Y-96456940D01*
X171445871Y-96486198D01*
X172537492Y-97577819D01*
X172570977Y-97639142D01*
X172565993Y-97708834D01*
X172524121Y-97764767D01*
X172458657Y-97789184D01*
X172449811Y-97789500D01*
X172436081Y-97789500D01*
X172291093Y-97818340D01*
X172291087Y-97818342D01*
X172154509Y-97874914D01*
X172154502Y-97874918D01*
X172092418Y-97916400D01*
X172031584Y-97957048D01*
X172031582Y-97957049D01*
X172031579Y-97957052D01*
X172031578Y-97957052D01*
X171981604Y-98007026D01*
X171920281Y-98040510D01*
X171850589Y-98035525D01*
X171839464Y-98030745D01*
X171736519Y-97980418D01*
X171724028Y-97978598D01*
X171661582Y-97969500D01*
X171318418Y-97969500D01*
X171243482Y-97980418D01*
X171243480Y-97980418D01*
X171243478Y-97980419D01*
X171127900Y-98036921D01*
X171127897Y-98036923D01*
X171036923Y-98127897D01*
X171036923Y-98127898D01*
X171018315Y-98165961D01*
X171007369Y-98177940D01*
X171000628Y-98192703D01*
X170984287Y-98203204D01*
X170971187Y-98217543D01*
X170954891Y-98222095D01*
X170941850Y-98230477D01*
X170906915Y-98235500D01*
X170703386Y-98235500D01*
X170636347Y-98215815D01*
X170615705Y-98199181D01*
X170562017Y-98145493D01*
X170562011Y-98145488D01*
X170436488Y-98073017D01*
X170436489Y-98073017D01*
X170425006Y-98069940D01*
X170296475Y-98035500D01*
X170151525Y-98035500D01*
X170022993Y-98069940D01*
X170011511Y-98073017D01*
X169885988Y-98145488D01*
X169885982Y-98145493D01*
X169783493Y-98247982D01*
X169783488Y-98247988D01*
X169711017Y-98373511D01*
X169711016Y-98373515D01*
X169673500Y-98513525D01*
X169673500Y-98658475D01*
X169711016Y-98798485D01*
X169711017Y-98798488D01*
X169783488Y-98924011D01*
X169783490Y-98924013D01*
X169783491Y-98924015D01*
X169885985Y-99026509D01*
X169885986Y-99026510D01*
X169885988Y-99026511D01*
X170011511Y-99098982D01*
X170011512Y-99098982D01*
X170011515Y-99098984D01*
X170151525Y-99136500D01*
X170151528Y-99136500D01*
X170296472Y-99136500D01*
X170296475Y-99136500D01*
X170436485Y-99098984D01*
X170562015Y-99026509D01*
X170615705Y-98972819D01*
X170677028Y-98939334D01*
X170703386Y-98936500D01*
X170969960Y-98936500D01*
X171036999Y-98956185D01*
X171057636Y-98972814D01*
X171127898Y-99043076D01*
X171127899Y-99043076D01*
X171127901Y-99043078D01*
X171127900Y-99043078D01*
X171221247Y-99088712D01*
X171243482Y-99099582D01*
X171318418Y-99110500D01*
X171318423Y-99110500D01*
X171661577Y-99110500D01*
X171661582Y-99110500D01*
X171736518Y-99099582D01*
X171839466Y-99049253D01*
X171908334Y-99037494D01*
X171972631Y-99064837D01*
X171981604Y-99072973D01*
X172163181Y-99254549D01*
X172196666Y-99315872D01*
X172199500Y-99342230D01*
X172199500Y-100613918D01*
X172199500Y-100613920D01*
X172199499Y-100613920D01*
X172228340Y-100758907D01*
X172228343Y-100758917D01*
X172284914Y-100895492D01*
X172284915Y-100895494D01*
X172284916Y-100895495D01*
X172328061Y-100960066D01*
X172341998Y-100987995D01*
X172347207Y-101002882D01*
X172427850Y-101112150D01*
X172537118Y-101192793D01*
X172665301Y-101237646D01*
X172665308Y-101237646D01*
X172671045Y-101238900D01*
X172692037Y-101245483D01*
X172731087Y-101261658D01*
X172731091Y-101261658D01*
X172731092Y-101261659D01*
X172876079Y-101290500D01*
X172876082Y-101290500D01*
X173023920Y-101290500D01*
X173168908Y-101261659D01*
X173168908Y-101261658D01*
X173168913Y-101261658D01*
X173205147Y-101246649D01*
X173207957Y-101245485D01*
X173228954Y-101238901D01*
X173234697Y-101237646D01*
X173234699Y-101237646D01*
X173362882Y-101192793D01*
X173472150Y-101112150D01*
X173552793Y-101002882D01*
X173558001Y-100987998D01*
X173571936Y-100960069D01*
X173615084Y-100895495D01*
X173671658Y-100758913D01*
X173682959Y-100702102D01*
X173700500Y-100613920D01*
X173700500Y-99040189D01*
X173720185Y-98973150D01*
X173772989Y-98927395D01*
X173842147Y-98917451D01*
X173905703Y-98946476D01*
X173912181Y-98952508D01*
X175924178Y-100964505D01*
X175957663Y-101025828D01*
X175960497Y-101052186D01*
X175960497Y-104455613D01*
X175940812Y-104522652D01*
X175924179Y-104543294D01*
X175845485Y-104621988D01*
X175773014Y-104747511D01*
X175773013Y-104747515D01*
X175735497Y-104887525D01*
X175735497Y-105032475D01*
X175762249Y-105132314D01*
X175773014Y-105172488D01*
X175845485Y-105298011D01*
X175845487Y-105298013D01*
X175845488Y-105298015D01*
X175947982Y-105400509D01*
X175947983Y-105400510D01*
X175947985Y-105400511D01*
X176073508Y-105472982D01*
X176073509Y-105472982D01*
X176073512Y-105472984D01*
X176213522Y-105510500D01*
X176213525Y-105510500D01*
X176358469Y-105510500D01*
X176358472Y-105510500D01*
X176498482Y-105472984D01*
X176600999Y-105413795D01*
X176668897Y-105397323D01*
X176724998Y-105413796D01*
X176827511Y-105472982D01*
X176827512Y-105472982D01*
X176827515Y-105472984D01*
X176967525Y-105510500D01*
X176967528Y-105510500D01*
X177076000Y-105510500D01*
X177143039Y-105530185D01*
X177188794Y-105582989D01*
X177200000Y-105634500D01*
X177200000Y-106202844D01*
X177206401Y-106262372D01*
X177206403Y-106262379D01*
X177256645Y-106397086D01*
X177256649Y-106397093D01*
X177342809Y-106512187D01*
X177342812Y-106512190D01*
X177457906Y-106598350D01*
X177457913Y-106598354D01*
X177592620Y-106648596D01*
X177592627Y-106648598D01*
X177652155Y-106654999D01*
X177652172Y-106655000D01*
X177950000Y-106655000D01*
X178450000Y-106655000D01*
X178747828Y-106655000D01*
X178747844Y-106654999D01*
X178807372Y-106648598D01*
X178807379Y-106648596D01*
X178942086Y-106598354D01*
X178942093Y-106598350D01*
X179057187Y-106512190D01*
X179057190Y-106512187D01*
X179143350Y-106397093D01*
X179143354Y-106397086D01*
X179193596Y-106262379D01*
X179193598Y-106262372D01*
X179199999Y-106202844D01*
X179200000Y-106202827D01*
X179200000Y-105030000D01*
X178450000Y-105030000D01*
X178450000Y-106655000D01*
X177950000Y-106655000D01*
X177950000Y-104530000D01*
X178450000Y-104530000D01*
X179200000Y-104530000D01*
X179200000Y-103357172D01*
X179199999Y-103357155D01*
X179193598Y-103297627D01*
X179193596Y-103297620D01*
X179143354Y-103162913D01*
X179143350Y-103162906D01*
X179057190Y-103047812D01*
X179057187Y-103047809D01*
X178942093Y-102961649D01*
X178942086Y-102961645D01*
X178807379Y-102911403D01*
X178807372Y-102911401D01*
X178747844Y-102905000D01*
X178450000Y-102905000D01*
X178450000Y-104530000D01*
X177950000Y-104530000D01*
X177950000Y-102905000D01*
X177652155Y-102905000D01*
X177592627Y-102911401D01*
X177592617Y-102911403D01*
X177532832Y-102933702D01*
X177463141Y-102938686D01*
X177401818Y-102905200D01*
X177368334Y-102843877D01*
X177365500Y-102817520D01*
X177365500Y-100982479D01*
X177385185Y-100915440D01*
X177437989Y-100869685D01*
X177507147Y-100859741D01*
X177532834Y-100866297D01*
X177592623Y-100888597D01*
X177592627Y-100888598D01*
X177652155Y-100894999D01*
X177652172Y-100895000D01*
X177950000Y-100895000D01*
X178450000Y-100895000D01*
X178747828Y-100895000D01*
X178747844Y-100894999D01*
X178807372Y-100888598D01*
X178807379Y-100888596D01*
X178942086Y-100838354D01*
X178942093Y-100838350D01*
X179057187Y-100752190D01*
X179057190Y-100752187D01*
X179143350Y-100637093D01*
X179143354Y-100637086D01*
X179193596Y-100502379D01*
X179193598Y-100502372D01*
X179199999Y-100442844D01*
X179200000Y-100442827D01*
X179200000Y-99270000D01*
X178450000Y-99270000D01*
X178450000Y-100895000D01*
X177950000Y-100895000D01*
X177950000Y-98770000D01*
X178450000Y-98770000D01*
X179200000Y-98770000D01*
X179200000Y-97597172D01*
X179199999Y-97597155D01*
X179193598Y-97537627D01*
X179193596Y-97537620D01*
X179143354Y-97402913D01*
X179143350Y-97402906D01*
X179057190Y-97287812D01*
X179057187Y-97287809D01*
X178942093Y-97201649D01*
X178942086Y-97201645D01*
X178807379Y-97151403D01*
X178807372Y-97151401D01*
X178747844Y-97145000D01*
X178450000Y-97145000D01*
X178450000Y-98770000D01*
X177950000Y-98770000D01*
X177950000Y-97145000D01*
X177652155Y-97145000D01*
X177592627Y-97151401D01*
X177592617Y-97151403D01*
X177532832Y-97173702D01*
X177463141Y-97178686D01*
X177401818Y-97145200D01*
X177368334Y-97083877D01*
X177365500Y-97057520D01*
X177365500Y-96764755D01*
X177385185Y-96697716D01*
X177437989Y-96651961D01*
X177507147Y-96642017D01*
X177558385Y-96661650D01*
X177602260Y-96690966D01*
X177602262Y-96690966D01*
X177602263Y-96690967D01*
X177675321Y-96705499D01*
X177675324Y-96705500D01*
X177675326Y-96705500D01*
X178724676Y-96705500D01*
X178724677Y-96705499D01*
X178797740Y-96690966D01*
X178880601Y-96635601D01*
X178935966Y-96552740D01*
X178945891Y-96502844D01*
X181200000Y-96502844D01*
X181206401Y-96562372D01*
X181206403Y-96562379D01*
X181256645Y-96697086D01*
X181256649Y-96697093D01*
X181342809Y-96812187D01*
X181342812Y-96812190D01*
X181457906Y-96898350D01*
X181457913Y-96898354D01*
X181592620Y-96948596D01*
X181592627Y-96948598D01*
X181652155Y-96954999D01*
X181652172Y-96955000D01*
X181950000Y-96955000D01*
X182450000Y-96955000D01*
X182747828Y-96955000D01*
X182747844Y-96954999D01*
X182807372Y-96948598D01*
X182807379Y-96948596D01*
X182942086Y-96898354D01*
X182942093Y-96898350D01*
X183057187Y-96812190D01*
X183057190Y-96812187D01*
X183143350Y-96697093D01*
X183143354Y-96697086D01*
X183193596Y-96562379D01*
X183193598Y-96562372D01*
X183199999Y-96502844D01*
X183200000Y-96502827D01*
X183200000Y-95330000D01*
X182450000Y-95330000D01*
X182450000Y-96955000D01*
X181950000Y-96955000D01*
X181950000Y-95330000D01*
X181200000Y-95330000D01*
X181200000Y-96502844D01*
X178945891Y-96502844D01*
X178950500Y-96479674D01*
X178950500Y-95529500D01*
X178953050Y-95520814D01*
X178951762Y-95511853D01*
X178962740Y-95487812D01*
X178970185Y-95462461D01*
X178977025Y-95456533D01*
X178980787Y-95448297D01*
X179003021Y-95434007D01*
X179022989Y-95416706D01*
X179033503Y-95414418D01*
X179039565Y-95410523D01*
X179074500Y-95405500D01*
X179234006Y-95405500D01*
X179289765Y-95420441D01*
X179290001Y-95419872D01*
X179294329Y-95421664D01*
X179296009Y-95422114D01*
X179297515Y-95422984D01*
X179437525Y-95460500D01*
X179437528Y-95460500D01*
X179582472Y-95460500D01*
X179582475Y-95460500D01*
X179722485Y-95422984D01*
X179848015Y-95350509D01*
X179950509Y-95248015D01*
X180022984Y-95122485D01*
X180060500Y-94982475D01*
X180060500Y-94837525D01*
X180022984Y-94697515D01*
X180019041Y-94690686D01*
X179950511Y-94571988D01*
X179950506Y-94571982D01*
X179848017Y-94469493D01*
X179848011Y-94469488D01*
X179722488Y-94397017D01*
X179722489Y-94397017D01*
X179706191Y-94392650D01*
X179582475Y-94359500D01*
X179437525Y-94359500D01*
X179313809Y-94392650D01*
X179297511Y-94397017D01*
X179171988Y-94469488D01*
X179171982Y-94469493D01*
X179162181Y-94479295D01*
X179100858Y-94512780D01*
X179031166Y-94507796D01*
X178975233Y-94465924D01*
X178950816Y-94400460D01*
X178950500Y-94391614D01*
X178950500Y-93680323D01*
X178950499Y-93680321D01*
X178937246Y-93613691D01*
X178943473Y-93544100D01*
X178986336Y-93488922D01*
X179052226Y-93465678D01*
X179058863Y-93465500D01*
X181082561Y-93465500D01*
X181149600Y-93485185D01*
X181195355Y-93537989D01*
X181205850Y-93602756D01*
X181200000Y-93657155D01*
X181200000Y-94830000D01*
X183200000Y-94830000D01*
X183200000Y-94459689D01*
X183219685Y-94392650D01*
X183272489Y-94346895D01*
X183341647Y-94336951D01*
X183405203Y-94365976D01*
X183411681Y-94372008D01*
X184284181Y-95244508D01*
X184317666Y-95305831D01*
X184320500Y-95332189D01*
X184320500Y-98555500D01*
X184300815Y-98622539D01*
X184248011Y-98668294D01*
X184196500Y-98679500D01*
X183878418Y-98679500D01*
X183803482Y-98690418D01*
X183803480Y-98690418D01*
X183803478Y-98690419D01*
X183687900Y-98746921D01*
X183687897Y-98746923D01*
X183596640Y-98838181D01*
X183535317Y-98871666D01*
X183508959Y-98874500D01*
X183074500Y-98874500D01*
X183007461Y-98854815D01*
X182961706Y-98802011D01*
X182950500Y-98750500D01*
X182950500Y-97620323D01*
X182950499Y-97620321D01*
X182935967Y-97547264D01*
X182935966Y-97547260D01*
X182880601Y-97464399D01*
X182797740Y-97409034D01*
X182797739Y-97409033D01*
X182797735Y-97409032D01*
X182724677Y-97394500D01*
X182724674Y-97394500D01*
X181675326Y-97394500D01*
X181675323Y-97394500D01*
X181602264Y-97409032D01*
X181602260Y-97409033D01*
X181519399Y-97464399D01*
X181464033Y-97547260D01*
X181464032Y-97547264D01*
X181449500Y-97620321D01*
X181449500Y-100419678D01*
X181464032Y-100492735D01*
X181464033Y-100492739D01*
X181476624Y-100511582D01*
X181519399Y-100575601D01*
X181589578Y-100622492D01*
X181602260Y-100630966D01*
X181602264Y-100630967D01*
X181675321Y-100645499D01*
X181675324Y-100645500D01*
X181675326Y-100645500D01*
X181750500Y-100645500D01*
X181817539Y-100665185D01*
X181863294Y-100717989D01*
X181874500Y-100769500D01*
X181874500Y-103030500D01*
X181854815Y-103097539D01*
X181802011Y-103143294D01*
X181750500Y-103154500D01*
X181675323Y-103154500D01*
X181602264Y-103169032D01*
X181602260Y-103169033D01*
X181519399Y-103224399D01*
X181464033Y-103307260D01*
X181464032Y-103307264D01*
X181449500Y-103380321D01*
X181449500Y-106179678D01*
X181464032Y-106252735D01*
X181464033Y-106252739D01*
X181470470Y-106262372D01*
X181519399Y-106335601D01*
X181602260Y-106390966D01*
X181602264Y-106390967D01*
X181675321Y-106405499D01*
X181675324Y-106405500D01*
X181675326Y-106405500D01*
X182724676Y-106405500D01*
X182724677Y-106405499D01*
X182797740Y-106390966D01*
X182880601Y-106335601D01*
X182935966Y-106252740D01*
X182936572Y-106249692D01*
X182939725Y-106243662D01*
X182940640Y-106241456D01*
X182940837Y-106241537D01*
X182968952Y-106187782D01*
X183029665Y-106153203D01*
X183099435Y-106156939D01*
X183145871Y-106186197D01*
X185048181Y-108088507D01*
X185081666Y-108149830D01*
X185084500Y-108176188D01*
X185084500Y-128073500D01*
X185064815Y-128140539D01*
X185012011Y-128186294D01*
X184960500Y-128197500D01*
X183238322Y-128197500D01*
X183171283Y-128177815D01*
X183150641Y-128161181D01*
X180653991Y-125664531D01*
X180653986Y-125664527D01*
X180574068Y-125618387D01*
X180574067Y-125618386D01*
X180574066Y-125618386D01*
X180484922Y-125594500D01*
X180484921Y-125594500D01*
X177826799Y-125594500D01*
X177759760Y-125574815D01*
X177714005Y-125522011D01*
X177707026Y-125502603D01*
X177702984Y-125487515D01*
X177702982Y-125487511D01*
X177702982Y-125487510D01*
X177630511Y-125361988D01*
X177630506Y-125361982D01*
X177528017Y-125259493D01*
X177528011Y-125259488D01*
X177402488Y-125187017D01*
X177402489Y-125187017D01*
X177391006Y-125183940D01*
X177262475Y-125149500D01*
X177117525Y-125149500D01*
X176988993Y-125183940D01*
X176977511Y-125187017D01*
X176851988Y-125259488D01*
X176851982Y-125259493D01*
X176749493Y-125361982D01*
X176749488Y-125361988D01*
X176677017Y-125487511D01*
X176677016Y-125487515D01*
X176639500Y-125627525D01*
X176639500Y-125627527D01*
X176639500Y-125772476D01*
X176644037Y-125789408D01*
X176642374Y-125859258D01*
X176603210Y-125917120D01*
X176538982Y-125944623D01*
X176524262Y-125945500D01*
X175996544Y-125945500D01*
X175929505Y-125925815D01*
X175908863Y-125909181D01*
X174985819Y-124986137D01*
X174952334Y-124924814D01*
X174949500Y-124898456D01*
X174949500Y-124822527D01*
X174949500Y-124822525D01*
X174911984Y-124682515D01*
X174839509Y-124556985D01*
X174769705Y-124487181D01*
X174736220Y-124425858D01*
X174741204Y-124356166D01*
X174783076Y-124300233D01*
X174848540Y-124275816D01*
X174857386Y-124275500D01*
X180185142Y-124275500D01*
X180185144Y-124275500D01*
X180274288Y-124251614D01*
X180354212Y-124205470D01*
X181526566Y-123033115D01*
X181587887Y-122999632D01*
X181657579Y-123004616D01*
X181713512Y-123046488D01*
X181737929Y-123111952D01*
X181734020Y-123152891D01*
X181707511Y-123251824D01*
X181702500Y-123270525D01*
X181702500Y-123415475D01*
X181737479Y-123546017D01*
X181740017Y-123555488D01*
X181812488Y-123681011D01*
X181812490Y-123681013D01*
X181812491Y-123681015D01*
X181914985Y-123783509D01*
X181914986Y-123783510D01*
X181914988Y-123783511D01*
X182040511Y-123855982D01*
X182040512Y-123855982D01*
X182040515Y-123855984D01*
X182180525Y-123893500D01*
X182180528Y-123893500D01*
X182325472Y-123893500D01*
X182325475Y-123893500D01*
X182465485Y-123855984D01*
X182591015Y-123783509D01*
X182693509Y-123681015D01*
X182765984Y-123555485D01*
X182803500Y-123415475D01*
X182803500Y-123270525D01*
X182765984Y-123130515D01*
X182693509Y-123004985D01*
X182639819Y-122951295D01*
X182606334Y-122889972D01*
X182603500Y-122863614D01*
X182603500Y-122471574D01*
X182623185Y-122404535D01*
X182675989Y-122358780D01*
X182745147Y-122348836D01*
X182781961Y-122360174D01*
X182903479Y-122419581D01*
X182903480Y-122419581D01*
X182903482Y-122419582D01*
X182978418Y-122430500D01*
X182978423Y-122430500D01*
X183421577Y-122430500D01*
X183421582Y-122430500D01*
X183496518Y-122419582D01*
X183593394Y-122372222D01*
X183612099Y-122363078D01*
X183612102Y-122363076D01*
X183703076Y-122272102D01*
X183703078Y-122272099D01*
X183735092Y-122206613D01*
X183759582Y-122156518D01*
X183770500Y-122081582D01*
X183770500Y-121886544D01*
X183790185Y-121819505D01*
X183806819Y-121798863D01*
X183918115Y-121687567D01*
X184051470Y-121554212D01*
X184097614Y-121474288D01*
X184121500Y-121385144D01*
X184121500Y-120434856D01*
X184097614Y-120345712D01*
X184074380Y-120305470D01*
X184074380Y-120305469D01*
X184051472Y-120265791D01*
X184051468Y-120265786D01*
X183806819Y-120021137D01*
X183792115Y-119994209D01*
X183775523Y-119968391D01*
X183774631Y-119962190D01*
X183773334Y-119959814D01*
X183770500Y-119933456D01*
X183770500Y-119886544D01*
X183790185Y-119819505D01*
X183806819Y-119798863D01*
X183918666Y-119687016D01*
X184051470Y-119554212D01*
X184097614Y-119474288D01*
X184102208Y-119457144D01*
X184102445Y-119456262D01*
X184112929Y-119417132D01*
X184121500Y-119385144D01*
X184121500Y-118434856D01*
X184097614Y-118345712D01*
X184086067Y-118325712D01*
X184051470Y-118265788D01*
X183806819Y-118021137D01*
X183792115Y-117994209D01*
X183775523Y-117968391D01*
X183774631Y-117962190D01*
X183773334Y-117959814D01*
X183770500Y-117933456D01*
X183770500Y-117886544D01*
X183790185Y-117819505D01*
X183806819Y-117798863D01*
X183922088Y-117683594D01*
X184051470Y-117554212D01*
X184097614Y-117474288D01*
X184100670Y-117462882D01*
X184103107Y-117453789D01*
X184113987Y-117413181D01*
X184121500Y-117385144D01*
X184121500Y-116669912D01*
X184141185Y-116602873D01*
X184147126Y-116594424D01*
X184150508Y-116590016D01*
X184157203Y-116578421D01*
X184222984Y-116464485D01*
X184260500Y-116324475D01*
X184260500Y-116179525D01*
X184222984Y-116039515D01*
X184210868Y-116018530D01*
X184150511Y-115913988D01*
X184150506Y-115913982D01*
X184048017Y-115811493D01*
X184048011Y-115811488D01*
X183922488Y-115739017D01*
X183922489Y-115739017D01*
X183895062Y-115731668D01*
X183782475Y-115701500D01*
X183637525Y-115701500D01*
X183524938Y-115731668D01*
X183497511Y-115739017D01*
X183371988Y-115811488D01*
X183371982Y-115811493D01*
X183318295Y-115865181D01*
X183256972Y-115898666D01*
X183230614Y-115901500D01*
X182829386Y-115901500D01*
X182762347Y-115881815D01*
X182741705Y-115865181D01*
X182688017Y-115811493D01*
X182688011Y-115811488D01*
X182562488Y-115739017D01*
X182562489Y-115739017D01*
X182535062Y-115731668D01*
X182422475Y-115701500D01*
X182277525Y-115701500D01*
X182164938Y-115731668D01*
X182137511Y-115739017D01*
X182011988Y-115811488D01*
X182011982Y-115811493D01*
X181958295Y-115865181D01*
X181896972Y-115898666D01*
X181870614Y-115901500D01*
X176506544Y-115901500D01*
X176439505Y-115881815D01*
X176418863Y-115865181D01*
X176040863Y-115487181D01*
X176007378Y-115425858D01*
X176012362Y-115356166D01*
X176054234Y-115300233D01*
X176119698Y-115275816D01*
X176128544Y-115275500D01*
X176729270Y-115275500D01*
X176759699Y-115272646D01*
X176759701Y-115272646D01*
X176823790Y-115250219D01*
X176887882Y-115227793D01*
X176997150Y-115147150D01*
X177077793Y-115037882D01*
X177077794Y-115037878D01*
X177082135Y-115029667D01*
X177083435Y-115030354D01*
X177091180Y-115019556D01*
X177100889Y-114998297D01*
X177111163Y-114991694D01*
X177118281Y-114981770D01*
X177140007Y-114973157D01*
X177159667Y-114960523D01*
X177178828Y-114957767D01*
X177183233Y-114956022D01*
X177194602Y-114955500D01*
X177215613Y-114955500D01*
X177282652Y-114975185D01*
X177303294Y-114991818D01*
X177381985Y-115070509D01*
X177381987Y-115070510D01*
X177381988Y-115070511D01*
X177507511Y-115142982D01*
X177507512Y-115142982D01*
X177507515Y-115142984D01*
X177647525Y-115180500D01*
X177647528Y-115180500D01*
X177792472Y-115180500D01*
X177792475Y-115180500D01*
X177932485Y-115142984D01*
X178058015Y-115070509D01*
X178160509Y-114968015D01*
X178232984Y-114842485D01*
X178270500Y-114702475D01*
X178270500Y-114557525D01*
X178232984Y-114417515D01*
X178208303Y-114374767D01*
X178160511Y-114291988D01*
X178160506Y-114291982D01*
X178058017Y-114189493D01*
X178058011Y-114189488D01*
X177932488Y-114117017D01*
X177932489Y-114117017D01*
X177916273Y-114112672D01*
X177792475Y-114079500D01*
X177647525Y-114079500D01*
X177523727Y-114112672D01*
X177507511Y-114117017D01*
X177381988Y-114189488D01*
X177303294Y-114268182D01*
X177276363Y-114282886D01*
X177250548Y-114299477D01*
X177244345Y-114300368D01*
X177241970Y-114301666D01*
X177215613Y-114304500D01*
X177198101Y-114304500D01*
X177131062Y-114284815D01*
X177085307Y-114232011D01*
X177081059Y-114221453D01*
X177077793Y-114212118D01*
X176997150Y-114102850D01*
X176887882Y-114022207D01*
X176887880Y-114022206D01*
X176759700Y-113977353D01*
X176729270Y-113974500D01*
X176729266Y-113974500D01*
X176070734Y-113974500D01*
X176070730Y-113974500D01*
X176040300Y-113977353D01*
X176040298Y-113977353D01*
X175912119Y-114022206D01*
X175912117Y-114022207D01*
X175802850Y-114102850D01*
X175722207Y-114212117D01*
X175722206Y-114212119D01*
X175677353Y-114340298D01*
X175677353Y-114340300D01*
X175674500Y-114370730D01*
X175674500Y-114821456D01*
X175654815Y-114888495D01*
X175602011Y-114934250D01*
X175532853Y-114944194D01*
X175469297Y-114915169D01*
X175462819Y-114909137D01*
X174350311Y-113796629D01*
X174330604Y-113770947D01*
X174298470Y-113715288D01*
X174056428Y-113473246D01*
X174022943Y-113411923D01*
X174027927Y-113342231D01*
X174033619Y-113329281D01*
X174035646Y-113325304D01*
X174036048Y-113322770D01*
X174046037Y-113259699D01*
X174050500Y-113231519D01*
X174050499Y-112868482D01*
X174035646Y-112774696D01*
X174021690Y-112747306D01*
X174008794Y-112678637D01*
X174035071Y-112613897D01*
X174044485Y-112603340D01*
X175696008Y-110951819D01*
X175722935Y-110937115D01*
X175748754Y-110920523D01*
X175754954Y-110919631D01*
X175757331Y-110918334D01*
X175783689Y-110915500D01*
X175808959Y-110915500D01*
X175875998Y-110935185D01*
X175896640Y-110951819D01*
X175957140Y-111012319D01*
X175990625Y-111073642D01*
X175985641Y-111143334D01*
X175957140Y-111187681D01*
X175896923Y-111247897D01*
X175896921Y-111247900D01*
X175840419Y-111363478D01*
X175840418Y-111363480D01*
X175840418Y-111363482D01*
X175829500Y-111438418D01*
X175829500Y-111781582D01*
X175840418Y-111856518D01*
X175840418Y-111856519D01*
X175840419Y-111856521D01*
X175896921Y-111972099D01*
X175896923Y-111972102D01*
X175987895Y-112063074D01*
X175987896Y-112063074D01*
X175987898Y-112063076D01*
X176004958Y-112071416D01*
X176016938Y-112082361D01*
X176031703Y-112089104D01*
X176042203Y-112105443D01*
X176056541Y-112118542D01*
X176061094Y-112134838D01*
X176069477Y-112147882D01*
X176074500Y-112182817D01*
X176074500Y-112227404D01*
X176054815Y-112294443D01*
X176002011Y-112340198D01*
X175991456Y-112344445D01*
X175912117Y-112372207D01*
X175802850Y-112452850D01*
X175722207Y-112562117D01*
X175722206Y-112562119D01*
X175677353Y-112690298D01*
X175677353Y-112690300D01*
X175674500Y-112720730D01*
X175674500Y-113229269D01*
X175677353Y-113259699D01*
X175677353Y-113259701D01*
X175722206Y-113387880D01*
X175722207Y-113387882D01*
X175802850Y-113497150D01*
X175912118Y-113577793D01*
X175934561Y-113585646D01*
X176040299Y-113622646D01*
X176070730Y-113625500D01*
X176070734Y-113625500D01*
X176729270Y-113625500D01*
X176759699Y-113622646D01*
X176759701Y-113622646D01*
X176823790Y-113600219D01*
X176887882Y-113577793D01*
X176997150Y-113497150D01*
X177077793Y-113387882D01*
X177100577Y-113322770D01*
X177122646Y-113259701D01*
X177122646Y-113259699D01*
X177125500Y-113229269D01*
X177125500Y-112720730D01*
X177122646Y-112690300D01*
X177122646Y-112690298D01*
X177081235Y-112571954D01*
X177077793Y-112562118D01*
X176997150Y-112452850D01*
X176887882Y-112372207D01*
X176808544Y-112344445D01*
X176789555Y-112330825D01*
X176768297Y-112321117D01*
X176761693Y-112310841D01*
X176751769Y-112303723D01*
X176743157Y-112281999D01*
X176730523Y-112262339D01*
X176727767Y-112243172D01*
X176726022Y-112238770D01*
X176725500Y-112227404D01*
X176725500Y-112182817D01*
X176745185Y-112115778D01*
X176795041Y-112071416D01*
X176812102Y-112063076D01*
X176903076Y-111972102D01*
X176903078Y-111972099D01*
X176946851Y-111882559D01*
X176959582Y-111856518D01*
X176970500Y-111781582D01*
X176970500Y-111438418D01*
X176959582Y-111363482D01*
X176957222Y-111358656D01*
X176903078Y-111247900D01*
X176903076Y-111247897D01*
X176842860Y-111187681D01*
X176809375Y-111126358D01*
X176814359Y-111056666D01*
X176842860Y-111012319D01*
X176903076Y-110952102D01*
X176903078Y-110952099D01*
X176941258Y-110874000D01*
X176959582Y-110836518D01*
X176970500Y-110761582D01*
X176970500Y-110418418D01*
X176959582Y-110343482D01*
X176946287Y-110316287D01*
X176903078Y-110227900D01*
X176903076Y-110227897D01*
X176812102Y-110136923D01*
X176812099Y-110136921D01*
X176696521Y-110080419D01*
X176696519Y-110080418D01*
X176696518Y-110080418D01*
X176621582Y-110069500D01*
X176178418Y-110069500D01*
X176103482Y-110080418D01*
X176103480Y-110080418D01*
X176103478Y-110080419D01*
X175987900Y-110136921D01*
X175987897Y-110136923D01*
X175896640Y-110228181D01*
X175835317Y-110261666D01*
X175808959Y-110264500D01*
X175554647Y-110264500D01*
X175471862Y-110286682D01*
X175471859Y-110286683D01*
X175420584Y-110316287D01*
X175420583Y-110316288D01*
X175397639Y-110329534D01*
X175397636Y-110329536D01*
X173263990Y-112463181D01*
X173202667Y-112496666D01*
X173176309Y-112499500D01*
X172593481Y-112499500D01*
X172541484Y-112507736D01*
X172472191Y-112498780D01*
X172418740Y-112453783D01*
X172414701Y-112447261D01*
X172407474Y-112434744D01*
X172407468Y-112434736D01*
X171224912Y-111252180D01*
X171191427Y-111190857D01*
X171196411Y-111121165D01*
X171238283Y-111065232D01*
X171303747Y-111040815D01*
X171312565Y-111040499D01*
X172697872Y-111040499D01*
X172757483Y-111034091D01*
X172892331Y-110983796D01*
X173007546Y-110897546D01*
X173093796Y-110782331D01*
X173144091Y-110647483D01*
X173150500Y-110587873D01*
X173150499Y-109502228D01*
X173170184Y-109435190D01*
X173186813Y-109414553D01*
X174133951Y-108467416D01*
X174216084Y-108344495D01*
X174272658Y-108207913D01*
X174286412Y-108138768D01*
X174301500Y-108062920D01*
X174301500Y-104017079D01*
X174272659Y-103872092D01*
X174272658Y-103872091D01*
X174272658Y-103872087D01*
X174233809Y-103778297D01*
X174216087Y-103735511D01*
X174216080Y-103735498D01*
X174133952Y-103612585D01*
X174133951Y-103612584D01*
X174029416Y-103508049D01*
X172620838Y-102099470D01*
X172609314Y-102083855D01*
X172608312Y-102084596D01*
X172600547Y-102074075D01*
X172522150Y-101967850D01*
X172412882Y-101887207D01*
X172412880Y-101887206D01*
X172284697Y-101842353D01*
X172278943Y-101841096D01*
X172257960Y-101834516D01*
X172254274Y-101832989D01*
X172218912Y-101818342D01*
X172218910Y-101818341D01*
X172218906Y-101818340D01*
X172073919Y-101789500D01*
X172073917Y-101789500D01*
X171926083Y-101789500D01*
X171926081Y-101789500D01*
X171781089Y-101818341D01*
X171781082Y-101818343D01*
X171742033Y-101834517D01*
X171721054Y-101841097D01*
X171715298Y-101842354D01*
X171587119Y-101887206D01*
X171587117Y-101887207D01*
X171477850Y-101967850D01*
X171397209Y-102077114D01*
X171397207Y-102077118D01*
X171391998Y-102092002D01*
X171378063Y-102119927D01*
X171334919Y-102184499D01*
X171334915Y-102184506D01*
X171278342Y-102321087D01*
X171278340Y-102321093D01*
X171249500Y-102466080D01*
X171249500Y-102466083D01*
X171249500Y-102613917D01*
X171249500Y-102613919D01*
X171249499Y-102613919D01*
X171278340Y-102758906D01*
X171278342Y-102758912D01*
X171315783Y-102849302D01*
X171323252Y-102918772D01*
X171291977Y-102981251D01*
X171248675Y-103011316D01*
X171181130Y-103039294D01*
X171181122Y-103039298D01*
X171129269Y-103073945D01*
X171058204Y-103121428D01*
X171058202Y-103121429D01*
X171058199Y-103121432D01*
X171058198Y-103121432D01*
X170953672Y-103225958D01*
X170953672Y-103225959D01*
X170953669Y-103225962D01*
X170953668Y-103225964D01*
X170937608Y-103250000D01*
X170871538Y-103348882D01*
X170871534Y-103348889D01*
X170814962Y-103485467D01*
X170814960Y-103485473D01*
X170786120Y-103630460D01*
X170786120Y-103630463D01*
X170786120Y-103778297D01*
X170786120Y-103778299D01*
X170786119Y-103778299D01*
X170814960Y-103923286D01*
X170814962Y-103923292D01*
X170871536Y-104059874D01*
X170897344Y-104098500D01*
X170923091Y-104137033D01*
X170943968Y-104203711D01*
X170925483Y-104271091D01*
X170919258Y-104280230D01*
X170906202Y-104297670D01*
X170906202Y-104297671D01*
X170855908Y-104432517D01*
X170849501Y-104492116D01*
X170849500Y-104492135D01*
X170849500Y-105577768D01*
X170840856Y-105607204D01*
X170834333Y-105637194D01*
X170830577Y-105642211D01*
X170829815Y-105644807D01*
X170813182Y-105665449D01*
X170725451Y-105753181D01*
X170664128Y-105786666D01*
X170637769Y-105789500D01*
X168224500Y-105789500D01*
X168157461Y-105769815D01*
X168111706Y-105717011D01*
X168101766Y-105671320D01*
X168101097Y-105671386D01*
X168100531Y-105665645D01*
X168100500Y-105665500D01*
X168100500Y-105665323D01*
X168100499Y-105665321D01*
X168085967Y-105592264D01*
X168085966Y-105592260D01*
X168076283Y-105577768D01*
X168030601Y-105509399D01*
X167947740Y-105454034D01*
X167947739Y-105454033D01*
X167947735Y-105454032D01*
X167874677Y-105439500D01*
X167874674Y-105439500D01*
X166373500Y-105439500D01*
X166306461Y-105419815D01*
X166260706Y-105367011D01*
X166249500Y-105315500D01*
X166249500Y-104014000D01*
X166269185Y-103946961D01*
X166321989Y-103901206D01*
X166373500Y-103890000D01*
X166750000Y-103890000D01*
X166750000Y-102973012D01*
X166807007Y-103005925D01*
X166934174Y-103040000D01*
X167065826Y-103040000D01*
X167192993Y-103005925D01*
X167250000Y-102973012D01*
X167250000Y-103890000D01*
X167897828Y-103890000D01*
X167897844Y-103889999D01*
X167957372Y-103883598D01*
X167957379Y-103883596D01*
X168092086Y-103833354D01*
X168092093Y-103833350D01*
X168207187Y-103747190D01*
X168207190Y-103747187D01*
X168293350Y-103632093D01*
X168293354Y-103632086D01*
X168343596Y-103497379D01*
X168343598Y-103497372D01*
X168349999Y-103437844D01*
X168350000Y-103437827D01*
X168350000Y-102790000D01*
X167433012Y-102790000D01*
X167465925Y-102732993D01*
X167500000Y-102605826D01*
X167500000Y-102474174D01*
X167465925Y-102347007D01*
X167433012Y-102290000D01*
X168350000Y-102290000D01*
X168350000Y-101642172D01*
X168349999Y-101642155D01*
X168343598Y-101582627D01*
X168343596Y-101582620D01*
X168293354Y-101447913D01*
X168293350Y-101447906D01*
X168207190Y-101332812D01*
X168207187Y-101332809D01*
X168092093Y-101246649D01*
X168092086Y-101246645D01*
X167957379Y-101196403D01*
X167957372Y-101196401D01*
X167897844Y-101190000D01*
X167605051Y-101190000D01*
X167538012Y-101170315D01*
X167492257Y-101117511D01*
X167482313Y-101048353D01*
X167511338Y-100984797D01*
X167548756Y-100955515D01*
X167551471Y-100954131D01*
X167576788Y-100941232D01*
X167707062Y-100846582D01*
X170150001Y-100846582D01*
X170156408Y-100917102D01*
X170156409Y-100917107D01*
X170206981Y-101079396D01*
X170294927Y-101224877D01*
X170415122Y-101345072D01*
X170560604Y-101433019D01*
X170560603Y-101433019D01*
X170722894Y-101483590D01*
X170722893Y-101483590D01*
X170793408Y-101489998D01*
X170793426Y-101489999D01*
X171300000Y-101489999D01*
X171306581Y-101489999D01*
X171377102Y-101483591D01*
X171377107Y-101483590D01*
X171539396Y-101433018D01*
X171684877Y-101345072D01*
X171805072Y-101224877D01*
X171893019Y-101079395D01*
X171943590Y-100917106D01*
X171950000Y-100846572D01*
X171950000Y-100790000D01*
X171300000Y-100790000D01*
X171300000Y-101489999D01*
X170793426Y-101489999D01*
X170799999Y-101489998D01*
X170800000Y-101489998D01*
X170800000Y-100790000D01*
X170150001Y-100790000D01*
X170150001Y-100846582D01*
X167707062Y-100846582D01*
X167716928Y-100839414D01*
X167839414Y-100716928D01*
X167941232Y-100576788D01*
X168019873Y-100422445D01*
X168073402Y-100257701D01*
X168077247Y-100233427D01*
X170150000Y-100233427D01*
X170150000Y-100290000D01*
X170800000Y-100290000D01*
X171300000Y-100290000D01*
X171949999Y-100290000D01*
X171949999Y-100233417D01*
X171943591Y-100162897D01*
X171943590Y-100162892D01*
X171893018Y-100000603D01*
X171805072Y-99855122D01*
X171684877Y-99734927D01*
X171539395Y-99646980D01*
X171539396Y-99646980D01*
X171377105Y-99596409D01*
X171377106Y-99596409D01*
X171306572Y-99590000D01*
X171300000Y-99590000D01*
X171300000Y-100290000D01*
X170800000Y-100290000D01*
X170800000Y-99590000D01*
X170799999Y-99589999D01*
X170793436Y-99590000D01*
X170793417Y-99590001D01*
X170722897Y-99596408D01*
X170722892Y-99596409D01*
X170560603Y-99646981D01*
X170415122Y-99734927D01*
X170294927Y-99855122D01*
X170206980Y-100000604D01*
X170156409Y-100162893D01*
X170150000Y-100233427D01*
X168077247Y-100233427D01*
X168100500Y-100086611D01*
X168100500Y-99913389D01*
X168073402Y-99742299D01*
X168019873Y-99577555D01*
X167941232Y-99423212D01*
X167839414Y-99283072D01*
X167716928Y-99160586D01*
X167576788Y-99058768D01*
X167422445Y-98980127D01*
X167257701Y-98926598D01*
X167257699Y-98926597D01*
X167257698Y-98926597D01*
X167126271Y-98905781D01*
X167086611Y-98899500D01*
X166913389Y-98899500D01*
X166873728Y-98905781D01*
X166742302Y-98926597D01*
X166577552Y-98980128D01*
X166423211Y-99058768D01*
X166352009Y-99110500D01*
X166283072Y-99160586D01*
X166283070Y-99160588D01*
X166283069Y-99160588D01*
X166160588Y-99283069D01*
X166160588Y-99283070D01*
X166160586Y-99283072D01*
X166117605Y-99342230D01*
X166058768Y-99423211D01*
X165980128Y-99577552D01*
X165926597Y-99742302D01*
X165926596Y-99742303D01*
X165912642Y-99830414D01*
X165905761Y-99873862D01*
X165904013Y-99884897D01*
X165874084Y-99948032D01*
X165814773Y-99984964D01*
X165781540Y-99989500D01*
X164806041Y-99989500D01*
X164739002Y-99969815D01*
X164718360Y-99953181D01*
X164652102Y-99886923D01*
X164652099Y-99886921D01*
X164536521Y-99830419D01*
X164536519Y-99830418D01*
X164536518Y-99830418D01*
X164461582Y-99819500D01*
X164018418Y-99819500D01*
X163943482Y-99830418D01*
X163943480Y-99830418D01*
X163943478Y-99830419D01*
X163827900Y-99886921D01*
X163827897Y-99886923D01*
X163736923Y-99977897D01*
X163736921Y-99977900D01*
X163680419Y-100093478D01*
X163680418Y-100093480D01*
X163680418Y-100093482D01*
X163669500Y-100168418D01*
X163669500Y-100511582D01*
X163679774Y-100582099D01*
X163680419Y-100586523D01*
X163683261Y-100595720D01*
X163681367Y-100596305D01*
X163691065Y-100653127D01*
X163663717Y-100717422D01*
X163655587Y-100726387D01*
X163549268Y-100832705D01*
X163549261Y-100832714D01*
X163467595Y-100970805D01*
X163427156Y-101110000D01*
X165052844Y-101110000D01*
X165012404Y-100970805D01*
X164957296Y-100877621D01*
X164940113Y-100809897D01*
X164962273Y-100743634D01*
X165016739Y-100699871D01*
X165064028Y-100690500D01*
X165516933Y-100690500D01*
X165583972Y-100710185D01*
X165629727Y-100762989D01*
X165639671Y-100832147D01*
X165620537Y-100877563D01*
X165622593Y-100878750D01*
X165572387Y-100965709D01*
X165572386Y-100965712D01*
X165548500Y-101054856D01*
X165548500Y-105758511D01*
X165528815Y-105825550D01*
X165476011Y-105871305D01*
X165406853Y-105881249D01*
X165392412Y-105878287D01*
X165389475Y-105877500D01*
X165244525Y-105877500D01*
X165115993Y-105911940D01*
X165104511Y-105915017D01*
X164978988Y-105987488D01*
X164978982Y-105987493D01*
X164876493Y-106089982D01*
X164876488Y-106089988D01*
X164804017Y-106215511D01*
X164804016Y-106215515D01*
X164766500Y-106355525D01*
X164766500Y-106500475D01*
X164792726Y-106598350D01*
X164804017Y-106640488D01*
X164876488Y-106766011D01*
X164876493Y-106766017D01*
X164930181Y-106819705D01*
X164963666Y-106881028D01*
X164966500Y-106907386D01*
X164966500Y-107454456D01*
X164946815Y-107521495D01*
X164930181Y-107542137D01*
X162416531Y-110055786D01*
X162416527Y-110055791D01*
X162391078Y-110099872D01*
X162391078Y-110099873D01*
X162370386Y-110135710D01*
X162346500Y-110224856D01*
X162015340Y-110224856D01*
X161989132Y-101610000D01*
X163427156Y-101610000D01*
X163467595Y-101749194D01*
X163549261Y-101887285D01*
X163549268Y-101887294D01*
X163662705Y-102000731D01*
X163662714Y-102000738D01*
X163800808Y-102082406D01*
X163800811Y-102082407D01*
X163954871Y-102127166D01*
X163954877Y-102127167D01*
X163990000Y-102129931D01*
X163990000Y-102129930D01*
X164490000Y-102129930D01*
X164525122Y-102127167D01*
X164525128Y-102127166D01*
X164679188Y-102082407D01*
X164679191Y-102082406D01*
X164817285Y-102000738D01*
X164817294Y-102000731D01*
X164930731Y-101887294D01*
X164930738Y-101887285D01*
X165012404Y-101749194D01*
X165052844Y-101610000D01*
X164490000Y-101610000D01*
X164490000Y-102129930D01*
X163990000Y-102129930D01*
X163990000Y-101610000D01*
X163427156Y-101610000D01*
X161989132Y-101610000D01*
X161954192Y-90124963D01*
X161954386Y-90117641D01*
X161957921Y-90054685D01*
X161972177Y-89800816D01*
X161973733Y-89787012D01*
X162026333Y-89477413D01*
X162029426Y-89463862D01*
X162031475Y-89456751D01*
X162116364Y-89162089D01*
X162120952Y-89148979D01*
X162241128Y-88858842D01*
X162247152Y-88846332D01*
X162399063Y-88571465D01*
X162406455Y-88559703D01*
X162588179Y-88303582D01*
X162596838Y-88292723D01*
X162806100Y-88058555D01*
X162815919Y-88048735D01*
X162959612Y-87920321D01*
X169749500Y-87920321D01*
X169749500Y-90719678D01*
X169764032Y-90792735D01*
X169764033Y-90792739D01*
X169782405Y-90820235D01*
X169819399Y-90875601D01*
X169902260Y-90930966D01*
X169902264Y-90930967D01*
X169975321Y-90945499D01*
X169975324Y-90945500D01*
X169975326Y-90945500D01*
X171024676Y-90945500D01*
X171024677Y-90945499D01*
X171097740Y-90930966D01*
X171180601Y-90875601D01*
X171235966Y-90792740D01*
X171245891Y-90742844D01*
X173500000Y-90742844D01*
X173506401Y-90802372D01*
X173506403Y-90802379D01*
X173556645Y-90937086D01*
X173556649Y-90937093D01*
X173642809Y-91052187D01*
X173642812Y-91052190D01*
X173757906Y-91138350D01*
X173757913Y-91138354D01*
X173892620Y-91188596D01*
X173892627Y-91188598D01*
X173952155Y-91194999D01*
X173952172Y-91195000D01*
X174250000Y-91195000D01*
X174750000Y-91195000D01*
X175047828Y-91195000D01*
X175047844Y-91194999D01*
X175107372Y-91188598D01*
X175107379Y-91188596D01*
X175242086Y-91138354D01*
X175242093Y-91138350D01*
X175357187Y-91052190D01*
X175357190Y-91052187D01*
X175443350Y-90937093D01*
X175443354Y-90937086D01*
X175493596Y-90802379D01*
X175493598Y-90802372D01*
X175499999Y-90742844D01*
X175500000Y-90742827D01*
X175500000Y-89570000D01*
X174750000Y-89570000D01*
X174750000Y-91195000D01*
X174250000Y-91195000D01*
X174250000Y-89570000D01*
X173500000Y-89570000D01*
X173500000Y-90742844D01*
X171245891Y-90742844D01*
X171250500Y-90719674D01*
X171250500Y-89878386D01*
X171270185Y-89811347D01*
X171322989Y-89765592D01*
X171392147Y-89755648D01*
X171455703Y-89784673D01*
X171462181Y-89790705D01*
X171491985Y-89820509D01*
X171491986Y-89820510D01*
X171491988Y-89820511D01*
X171617511Y-89892982D01*
X171617512Y-89892982D01*
X171617515Y-89892984D01*
X171757525Y-89930500D01*
X171757528Y-89930500D01*
X171902472Y-89930500D01*
X171902475Y-89930500D01*
X172042485Y-89892984D01*
X172168015Y-89820509D01*
X172270509Y-89718015D01*
X172342984Y-89592485D01*
X172380500Y-89452475D01*
X172380500Y-89307525D01*
X172342984Y-89167515D01*
X172339856Y-89162098D01*
X172270511Y-89041988D01*
X172270506Y-89041982D01*
X172168017Y-88939493D01*
X172168011Y-88939488D01*
X172042488Y-88867017D01*
X172042489Y-88867017D01*
X172012050Y-88858861D01*
X171902475Y-88829500D01*
X171757525Y-88829500D01*
X171647950Y-88858861D01*
X171617511Y-88867017D01*
X171491988Y-88939488D01*
X171491981Y-88939494D01*
X171462180Y-88969295D01*
X171400856Y-89002780D01*
X171331165Y-88997794D01*
X171275232Y-88955922D01*
X171250816Y-88890457D01*
X171250500Y-88881613D01*
X171250500Y-87920324D01*
X171250047Y-87918048D01*
X171250047Y-87918045D01*
X171250046Y-87918042D01*
X171245891Y-87897155D01*
X173500000Y-87897155D01*
X173500000Y-89070000D01*
X174250000Y-89070000D01*
X174750000Y-89070000D01*
X175500000Y-89070000D01*
X175500000Y-87920321D01*
X177449500Y-87920321D01*
X177449500Y-90719678D01*
X177464032Y-90792735D01*
X177464033Y-90792739D01*
X177482405Y-90820235D01*
X177519399Y-90875601D01*
X177602260Y-90930966D01*
X177602264Y-90930967D01*
X177675321Y-90945499D01*
X177675324Y-90945500D01*
X177675326Y-90945500D01*
X178724676Y-90945500D01*
X178724677Y-90945499D01*
X178797740Y-90930966D01*
X178880601Y-90875601D01*
X178935966Y-90792740D01*
X178945891Y-90742844D01*
X181200000Y-90742844D01*
X181206401Y-90802372D01*
X181206403Y-90802379D01*
X181256645Y-90937086D01*
X181256649Y-90937093D01*
X181342809Y-91052187D01*
X181342812Y-91052190D01*
X181457906Y-91138350D01*
X181457913Y-91138354D01*
X181592620Y-91188596D01*
X181592627Y-91188598D01*
X181652155Y-91194999D01*
X181652172Y-91195000D01*
X181950000Y-91195000D01*
X182450000Y-91195000D01*
X182747828Y-91195000D01*
X182747844Y-91194999D01*
X182807372Y-91188598D01*
X182807379Y-91188596D01*
X182942086Y-91138354D01*
X182942093Y-91138350D01*
X183057187Y-91052190D01*
X183057190Y-91052187D01*
X183143350Y-90937093D01*
X183143354Y-90937086D01*
X183193596Y-90802379D01*
X183193598Y-90802372D01*
X183199999Y-90742844D01*
X183200000Y-90742827D01*
X183200000Y-89570000D01*
X182450000Y-89570000D01*
X182450000Y-91195000D01*
X181950000Y-91195000D01*
X181950000Y-89570000D01*
X181200000Y-89570000D01*
X181200000Y-90742844D01*
X178945891Y-90742844D01*
X178950500Y-90719674D01*
X178950500Y-89910502D01*
X178970185Y-89843463D01*
X179022989Y-89797708D01*
X179092147Y-89787764D01*
X179136495Y-89803113D01*
X179257515Y-89872984D01*
X179397525Y-89910500D01*
X179397528Y-89910500D01*
X179542472Y-89910500D01*
X179542475Y-89910500D01*
X179682485Y-89872984D01*
X179808015Y-89800509D01*
X179910509Y-89698015D01*
X179982984Y-89572485D01*
X180020500Y-89432475D01*
X180020500Y-89287525D01*
X179982984Y-89147515D01*
X179979874Y-89142129D01*
X179910511Y-89021988D01*
X179910506Y-89021982D01*
X179808017Y-88919493D01*
X179808011Y-88919488D01*
X179682488Y-88847017D01*
X179682489Y-88847017D01*
X179671006Y-88843940D01*
X179542475Y-88809500D01*
X179397525Y-88809500D01*
X179268993Y-88843940D01*
X179257511Y-88847017D01*
X179136500Y-88916884D01*
X179068600Y-88933357D01*
X179002573Y-88910505D01*
X178959383Y-88855584D01*
X178950500Y-88809497D01*
X178950500Y-87920324D01*
X178950047Y-87918048D01*
X178950047Y-87918045D01*
X178950046Y-87918042D01*
X178945891Y-87897155D01*
X181200000Y-87897155D01*
X181200000Y-89070000D01*
X181950000Y-89070000D01*
X182450000Y-89070000D01*
X183200000Y-89070000D01*
X183200000Y-87897172D01*
X183199999Y-87897155D01*
X183193598Y-87837627D01*
X183193596Y-87837620D01*
X183143354Y-87702913D01*
X183143350Y-87702906D01*
X183057190Y-87587812D01*
X183057187Y-87587809D01*
X182942093Y-87501649D01*
X182942086Y-87501645D01*
X182807379Y-87451403D01*
X182807372Y-87451401D01*
X182747844Y-87445000D01*
X182450000Y-87445000D01*
X182450000Y-89070000D01*
X181950000Y-89070000D01*
X181950000Y-87445000D01*
X181652155Y-87445000D01*
X181592627Y-87451401D01*
X181592620Y-87451403D01*
X181457913Y-87501645D01*
X181457906Y-87501649D01*
X181342812Y-87587809D01*
X181342809Y-87587812D01*
X181256649Y-87702906D01*
X181256645Y-87702913D01*
X181206403Y-87837620D01*
X181206401Y-87837627D01*
X181200000Y-87897155D01*
X178945891Y-87897155D01*
X178935967Y-87847264D01*
X178935966Y-87847260D01*
X178930760Y-87839469D01*
X178880601Y-87764399D01*
X178825235Y-87727405D01*
X178797739Y-87709033D01*
X178797735Y-87709032D01*
X178724677Y-87694500D01*
X178724674Y-87694500D01*
X177675326Y-87694500D01*
X177675323Y-87694500D01*
X177602264Y-87709032D01*
X177602260Y-87709033D01*
X177519399Y-87764399D01*
X177464033Y-87847260D01*
X177464032Y-87847264D01*
X177449500Y-87920321D01*
X175500000Y-87920321D01*
X175500000Y-87897172D01*
X175499999Y-87897155D01*
X175493598Y-87837627D01*
X175493596Y-87837620D01*
X175443354Y-87702913D01*
X175443350Y-87702906D01*
X175357190Y-87587812D01*
X175357187Y-87587809D01*
X175242093Y-87501649D01*
X175242086Y-87501645D01*
X175107379Y-87451403D01*
X175107372Y-87451401D01*
X175047844Y-87445000D01*
X174750000Y-87445000D01*
X174750000Y-89070000D01*
X174250000Y-89070000D01*
X174250000Y-87445000D01*
X173952155Y-87445000D01*
X173892627Y-87451401D01*
X173892620Y-87451403D01*
X173757913Y-87501645D01*
X173757906Y-87501649D01*
X173642812Y-87587809D01*
X173642809Y-87587812D01*
X173556649Y-87702906D01*
X173556645Y-87702913D01*
X173506403Y-87837620D01*
X173506401Y-87837627D01*
X173500000Y-87897155D01*
X171245891Y-87897155D01*
X171235967Y-87847264D01*
X171235966Y-87847260D01*
X171230760Y-87839469D01*
X171180601Y-87764399D01*
X171125235Y-87727405D01*
X171097739Y-87709033D01*
X171097735Y-87709032D01*
X171024677Y-87694500D01*
X171024674Y-87694500D01*
X169975326Y-87694500D01*
X169975323Y-87694500D01*
X169902264Y-87709032D01*
X169902260Y-87709033D01*
X169819399Y-87764399D01*
X169764033Y-87847260D01*
X169764032Y-87847264D01*
X169749500Y-87920321D01*
X162959612Y-87920321D01*
X163050093Y-87839461D01*
X163060947Y-87830806D01*
X163317084Y-87649065D01*
X163328822Y-87641690D01*
X163603694Y-87489770D01*
X163616202Y-87483747D01*
X163906350Y-87363561D01*
X163919460Y-87358974D01*
X164221224Y-87272035D01*
X164234767Y-87268943D01*
X164544382Y-87216335D01*
X164558182Y-87214780D01*
X164845182Y-87198661D01*
X164874497Y-87197015D01*
X164881450Y-87196820D01*
X198875218Y-87196820D01*
X198882170Y-87197015D01*
G37*
%TD.AperFunction*%
%TD*%
M02*
