%TF.GenerationSoftware,KiCad,Pcbnew,9.0.7*%
%TF.CreationDate,2026-03-30T22:06:36-07:00*%
%TF.ProjectId,tof_mount,746f665f-6d6f-4756-9e74-2e6b69636164,rev?*%
%TF.SameCoordinates,Original*%
%TF.FileFunction,Copper,L2,Bot*%
%TF.FilePolarity,Positive*%
%FSLAX46Y46*%
G04 Gerber Fmt 4.6, Leading zero omitted, Abs format (unit mm)*
G04 Created by KiCad (PCBNEW 9.0.7) date 2026-03-30 22:06:36*
%MOMM*%
%LPD*%
G01*
G04 APERTURE LIST*
%TA.AperFunction,ComponentPad*%
%ADD10R,1.700000X1.700000*%
%TD*%
%TA.AperFunction,ComponentPad*%
%ADD11C,1.700000*%
%TD*%
%TA.AperFunction,ComponentPad*%
%ADD12C,0.700000*%
%TD*%
%TA.AperFunction,ComponentPad*%
%ADD13C,4.400000*%
%TD*%
%TA.AperFunction,HeatsinkPad*%
%ADD14O,2.100000X1.000000*%
%TD*%
%TA.AperFunction,HeatsinkPad*%
%ADD15O,1.800000X1.000000*%
%TD*%
%TA.AperFunction,ViaPad*%
%ADD16C,0.600000*%
%TD*%
%TA.AperFunction,Conductor*%
%ADD17C,0.200000*%
%TD*%
%TA.AperFunction,Conductor*%
%ADD18C,0.150000*%
%TD*%
%TA.AperFunction,Conductor*%
%ADD19C,1.000000*%
%TD*%
G04 APERTURE END LIST*
D10*
%TO.P,J3,1,Pin_1*%
%TO.N,+12V*%
X174110000Y-130000000D03*
D11*
%TO.P,J3,2,Pin_2*%
%TO.N,VCC*%
X176650000Y-130000000D03*
%TO.P,J3,3,Pin_3*%
%TO.N,/PAY*%
X179190000Y-130000000D03*
%TO.P,J3,4,Pin_4*%
%TO.N,/UART_TX*%
X181730000Y-130000000D03*
%TO.P,J3,5,Pin_5*%
%TO.N,/UART_RX*%
X184270000Y-130000000D03*
%TO.P,J3,6,Pin_6*%
%TO.N,/SWIO*%
X186810000Y-130000000D03*
%TO.P,J3,7,Pin_7*%
%TO.N,/~{RST}*%
X189350000Y-130000000D03*
%TO.P,J3,8,Pin_8*%
%TO.N,GND*%
X191890000Y-130000000D03*
%TD*%
D12*
%TO.P,H4,1,1*%
%TO.N,GND*%
X180350000Y-110000000D03*
X180833274Y-108833274D03*
X180833274Y-111166726D03*
X182000000Y-108350000D03*
D13*
X182000000Y-110000000D03*
D12*
X182000000Y-111650000D03*
X183166726Y-108833274D03*
X183166726Y-111166726D03*
X183650000Y-110000000D03*
%TD*%
%TO.P,H1,1,1*%
%TO.N,GND*%
X164350000Y-92000000D03*
X164833274Y-90833274D03*
X164833274Y-93166726D03*
X166000000Y-90350000D03*
D13*
X166000000Y-92000000D03*
D12*
X166000000Y-93650000D03*
X167166726Y-90833274D03*
X167166726Y-93166726D03*
X167650000Y-92000000D03*
%TD*%
D10*
%TO.P,D3,1,K*%
%TO.N,GND*%
X167000000Y-102540000D03*
D11*
%TO.P,D3,2,A*%
%TO.N,/PDIODE*%
X167000000Y-100000000D03*
%TD*%
D14*
%TO.P,J1,S1,SHIELD*%
%TO.N,GND*%
X194875000Y-97320000D03*
D15*
X199075000Y-97320000D03*
D14*
X194875000Y-88680000D03*
D15*
X199075000Y-88680000D03*
%TD*%
D12*
%TO.P,H3,1,1*%
%TO.N,GND*%
X196350000Y-130000000D03*
X196833274Y-128833274D03*
X196833274Y-131166726D03*
X198000000Y-128350000D03*
D13*
X198000000Y-130000000D03*
D12*
X198000000Y-131650000D03*
X199166726Y-128833274D03*
X199166726Y-131166726D03*
X199650000Y-130000000D03*
%TD*%
D10*
%TO.P,L1,1,1*%
%TO.N,+12V*%
X167000000Y-106540000D03*
D11*
%TO.P,L1,2,2*%
%TO.N,Net-(D1-A)*%
X167000000Y-109080000D03*
%TD*%
D12*
%TO.P,H2,1,1*%
%TO.N,GND*%
X164350000Y-130000000D03*
X164833274Y-128833274D03*
X164833274Y-131166726D03*
X166000000Y-128350000D03*
D13*
X166000000Y-130000000D03*
D12*
X166000000Y-131650000D03*
X167166726Y-128833274D03*
X167166726Y-131166726D03*
X167650000Y-130000000D03*
%TD*%
D16*
%TO.N,+5V*%
X171216000Y-115819000D03*
X195050000Y-116100000D03*
%TO.N,GND*%
X182915000Y-125937000D03*
X191250000Y-94500000D03*
X171396000Y-125780000D03*
X174037000Y-116483000D03*
X169621000Y-121459000D03*
X171662000Y-117573000D03*
X179091000Y-128085000D03*
X175700000Y-98120000D03*
X175817000Y-119157000D03*
X181380000Y-117060000D03*
X184780000Y-117270000D03*
X173110000Y-94640000D03*
X169264000Y-107815000D03*
X170375000Y-128750000D03*
X175590000Y-116761000D03*
X165488000Y-121537000D03*
%TO.N,+2V8*%
X177195000Y-122496000D03*
X182350000Y-116252000D03*
X179052500Y-121612500D03*
X185940000Y-115650000D03*
X169498000Y-123357000D03*
X183710000Y-116252000D03*
X178060000Y-119920000D03*
X164987000Y-117828000D03*
%TO.N,/~{RST}*%
X177190000Y-125700000D03*
X173900000Y-126670000D03*
%TO.N,+12V*%
X171536620Y-103704380D03*
X192095000Y-108385000D03*
X165317000Y-106428000D03*
%TO.N,VCC*%
X166770000Y-113002000D03*
%TO.N,/SWIO*%
X172686000Y-121626000D03*
X174399000Y-124895000D03*
%TO.N,/SDA*%
X181684000Y-122380000D03*
X182230000Y-119110000D03*
%TO.N,/SCL*%
X182253000Y-123343000D03*
X182240000Y-120200000D03*
%TO.N,Net-(U3-PC7)*%
X174339000Y-115166000D03*
X170224000Y-98586000D03*
%TO.N,/LED*%
X178060000Y-116900000D03*
X177720000Y-114630000D03*
%TO.N,/BT2*%
X171800000Y-95120000D03*
X171830000Y-89380000D03*
X176285997Y-104960000D03*
X176552838Y-116859615D03*
%TO.N,/BT1*%
X179510000Y-94910000D03*
X179470000Y-89360000D03*
X177040000Y-104960000D03*
X177306824Y-116864695D03*
%TD*%
D17*
%TO.N,+5V*%
X192940138Y-118209862D02*
X195050000Y-116100000D01*
X174190139Y-118209862D02*
X192940138Y-118209862D01*
X171799278Y-115819000D02*
X174190139Y-118209862D01*
X171216000Y-115819000D02*
X171799278Y-115819000D01*
D18*
%TO.N,+2V8*%
X185338000Y-116252000D02*
X183431628Y-116252000D01*
D17*
X164987000Y-117828000D02*
X164987000Y-118846000D01*
X175770000Y-121071000D02*
X177195000Y-122496000D01*
X169498000Y-123357000D02*
X171784000Y-121071000D01*
D18*
X185940000Y-115650000D02*
X185338000Y-116252000D01*
D17*
X171784000Y-121071000D02*
X175770000Y-121071000D01*
X164987000Y-118846000D02*
X169498000Y-123357000D01*
D18*
X178060000Y-119920000D02*
X178060000Y-120620000D01*
X178060000Y-120620000D02*
X179052500Y-121612500D01*
D17*
%TO.N,/~{RST}*%
X176220000Y-126670000D02*
X177190000Y-125700000D01*
X173900000Y-126670000D02*
X176220000Y-126670000D01*
D19*
%TO.N,+12V*%
X195445574Y-128567161D02*
X195445574Y-117055000D01*
D17*
X165317000Y-106428000D02*
X166888000Y-106428000D01*
D19*
X196005000Y-112295000D02*
X192095000Y-108385000D01*
X187414380Y-103704380D02*
X192095000Y-108385000D01*
X171536620Y-103704380D02*
X187414380Y-103704380D01*
X175611000Y-131501000D02*
X192511735Y-131501000D01*
X192511735Y-131501000D02*
X195445574Y-128567161D01*
X195445574Y-117055000D02*
X196005000Y-116495574D01*
D17*
X166888000Y-106428000D02*
X167000000Y-106540000D01*
D19*
X196005000Y-116495574D02*
X196005000Y-112295000D01*
X174110000Y-130000000D02*
X175611000Y-131501000D01*
D17*
%TO.N,VCC*%
X177750000Y-128900000D02*
X177750000Y-122266111D01*
X171857889Y-116374000D02*
X170142000Y-116374000D01*
X170142000Y-116374000D02*
X166770000Y-113002000D01*
X176650000Y-130000000D02*
X177750000Y-128900000D01*
X177750000Y-122266111D02*
X171857889Y-116374000D01*
%TO.N,/SWIO*%
X172686000Y-121626000D02*
X172686000Y-123182000D01*
X172686000Y-123182000D02*
X174399000Y-124895000D01*
%TO.N,/SDA*%
X182230000Y-119110000D02*
X181684000Y-119656000D01*
X181684000Y-119656000D02*
X181684000Y-122380000D01*
%TO.N,/SCL*%
X182253000Y-120213000D02*
X182253000Y-123343000D01*
X182240000Y-120200000D02*
X182253000Y-120213000D01*
%TO.N,Net-(U3-PC7)*%
X174339000Y-115166000D02*
X170224000Y-111051000D01*
X170224000Y-111051000D02*
X170224000Y-98586000D01*
D18*
%TO.N,/LED*%
X178060000Y-114970000D02*
X177720000Y-114630000D01*
X178060000Y-116900000D02*
X178060000Y-114970000D01*
%TO.N,/BT2*%
X171800000Y-95120000D02*
X171800000Y-89410000D01*
X171800000Y-89410000D02*
X171830000Y-89380000D01*
X176889000Y-112730000D02*
X176889000Y-106400000D01*
X176889000Y-105563003D02*
X176285997Y-104960000D01*
X176889000Y-106400000D02*
X176889000Y-105563003D01*
X176889000Y-116523453D02*
X176889000Y-112730000D01*
X176552838Y-116859615D02*
X176889000Y-116523453D01*
%TO.N,/BT1*%
X177306824Y-116864695D02*
X177190000Y-116747871D01*
X179510000Y-89400000D02*
X179470000Y-89360000D01*
X177190000Y-114640000D02*
X177190000Y-105110000D01*
X177190000Y-105110000D02*
X177040000Y-104960000D01*
X177190000Y-116747871D02*
X177190000Y-114640000D01*
X179510000Y-94910000D02*
X179510000Y-89400000D01*
%TD*%
%TA.AperFunction,Conductor*%
%TO.N,GND*%
G36*
X194614408Y-117133787D02*
G01*
X194670341Y-117175659D01*
X194694758Y-117241123D01*
X194695074Y-117249969D01*
X194695074Y-128204930D01*
X194675389Y-128271969D01*
X194658755Y-128292611D01*
X193364735Y-129586630D01*
X193303412Y-129620115D01*
X193233720Y-129615131D01*
X193177787Y-129573259D01*
X193159123Y-129537266D01*
X193141096Y-129481784D01*
X193044624Y-129292449D01*
X193005270Y-129238282D01*
X193005269Y-129238282D01*
X192372962Y-129870589D01*
X192355925Y-129807007D01*
X192290099Y-129692993D01*
X192197007Y-129599901D01*
X192082993Y-129534075D01*
X192019409Y-129517037D01*
X192651716Y-128884728D01*
X192597550Y-128845375D01*
X192408217Y-128748904D01*
X192206129Y-128683242D01*
X191996246Y-128650000D01*
X191783754Y-128650000D01*
X191573872Y-128683242D01*
X191573869Y-128683242D01*
X191371782Y-128748904D01*
X191182439Y-128845380D01*
X191128282Y-128884727D01*
X191128282Y-128884728D01*
X191760591Y-129517037D01*
X191697007Y-129534075D01*
X191582993Y-129599901D01*
X191489901Y-129692993D01*
X191424075Y-129807007D01*
X191407037Y-129870591D01*
X190774728Y-129238282D01*
X190774727Y-129238282D01*
X190735380Y-129292439D01*
X190638904Y-129481783D01*
X190606760Y-129580712D01*
X190567322Y-129638388D01*
X190502964Y-129665586D01*
X190434117Y-129653671D01*
X190382642Y-129606427D01*
X190370898Y-129580712D01*
X190369873Y-129577555D01*
X190291232Y-129423212D01*
X190189414Y-129283072D01*
X190066928Y-129160586D01*
X189926788Y-129058768D01*
X189772445Y-128980127D01*
X189607701Y-128926598D01*
X189607699Y-128926597D01*
X189607698Y-128926597D01*
X189476271Y-128905781D01*
X189436611Y-128899500D01*
X189263389Y-128899500D01*
X189223728Y-128905781D01*
X189092302Y-128926597D01*
X188927552Y-128980128D01*
X188773211Y-129058768D01*
X188695529Y-129115208D01*
X188633072Y-129160586D01*
X188633070Y-129160588D01*
X188633069Y-129160588D01*
X188510588Y-129283069D01*
X188510588Y-129283070D01*
X188510586Y-129283072D01*
X188466859Y-129343256D01*
X188408768Y-129423211D01*
X188330128Y-129577552D01*
X188276597Y-129742302D01*
X188276597Y-129742304D01*
X188249500Y-129913389D01*
X188249500Y-130086611D01*
X188276598Y-130257701D01*
X188330127Y-130422445D01*
X188367851Y-130496484D01*
X188405414Y-130570205D01*
X188418310Y-130638875D01*
X188392033Y-130703615D01*
X188334927Y-130743872D01*
X188294929Y-130750500D01*
X187865071Y-130750500D01*
X187798032Y-130730815D01*
X187752277Y-130678011D01*
X187742333Y-130608853D01*
X187754586Y-130570205D01*
X187790357Y-130500000D01*
X187829873Y-130422445D01*
X187883402Y-130257701D01*
X187910500Y-130086611D01*
X187910500Y-129913389D01*
X187883402Y-129742299D01*
X187829873Y-129577555D01*
X187751232Y-129423212D01*
X187649414Y-129283072D01*
X187526928Y-129160586D01*
X187386788Y-129058768D01*
X187232445Y-128980127D01*
X187067701Y-128926598D01*
X187067699Y-128926597D01*
X187067698Y-128926597D01*
X186936271Y-128905781D01*
X186896611Y-128899500D01*
X186723389Y-128899500D01*
X186683728Y-128905781D01*
X186552302Y-128926597D01*
X186387552Y-128980128D01*
X186233211Y-129058768D01*
X186155529Y-129115208D01*
X186093072Y-129160586D01*
X186093070Y-129160588D01*
X186093069Y-129160588D01*
X185970588Y-129283069D01*
X185970588Y-129283070D01*
X185970586Y-129283072D01*
X185926859Y-129343256D01*
X185868768Y-129423211D01*
X185790128Y-129577552D01*
X185736597Y-129742302D01*
X185736597Y-129742304D01*
X185709500Y-129913389D01*
X185709500Y-130086611D01*
X185736598Y-130257701D01*
X185790127Y-130422445D01*
X185827851Y-130496484D01*
X185865414Y-130570205D01*
X185878310Y-130638875D01*
X185852033Y-130703615D01*
X185794927Y-130743872D01*
X185754929Y-130750500D01*
X185325071Y-130750500D01*
X185258032Y-130730815D01*
X185212277Y-130678011D01*
X185202333Y-130608853D01*
X185214586Y-130570205D01*
X185250357Y-130500000D01*
X185289873Y-130422445D01*
X185343402Y-130257701D01*
X185370500Y-130086611D01*
X185370500Y-129913389D01*
X185343402Y-129742299D01*
X185289873Y-129577555D01*
X185211232Y-129423212D01*
X185109414Y-129283072D01*
X184986928Y-129160586D01*
X184846788Y-129058768D01*
X184692445Y-128980127D01*
X184527701Y-128926598D01*
X184527699Y-128926597D01*
X184527698Y-128926597D01*
X184396271Y-128905781D01*
X184356611Y-128899500D01*
X184183389Y-128899500D01*
X184143728Y-128905781D01*
X184012302Y-128926597D01*
X183847552Y-128980128D01*
X183693211Y-129058768D01*
X183615529Y-129115208D01*
X183553072Y-129160586D01*
X183553070Y-129160588D01*
X183553069Y-129160588D01*
X183430588Y-129283069D01*
X183430588Y-129283070D01*
X183430586Y-129283072D01*
X183386859Y-129343256D01*
X183328768Y-129423211D01*
X183250128Y-129577552D01*
X183196597Y-129742302D01*
X183196597Y-129742304D01*
X183169500Y-129913389D01*
X183169500Y-130086611D01*
X183196598Y-130257701D01*
X183250127Y-130422445D01*
X183287851Y-130496484D01*
X183325414Y-130570205D01*
X183338310Y-130638875D01*
X183312033Y-130703615D01*
X183254927Y-130743872D01*
X183214929Y-130750500D01*
X182785071Y-130750500D01*
X182718032Y-130730815D01*
X182672277Y-130678011D01*
X182662333Y-130608853D01*
X182674586Y-130570205D01*
X182710357Y-130500000D01*
X182749873Y-130422445D01*
X182803402Y-130257701D01*
X182830500Y-130086611D01*
X182830500Y-129913389D01*
X182803402Y-129742299D01*
X182749873Y-129577555D01*
X182671232Y-129423212D01*
X182569414Y-129283072D01*
X182446928Y-129160586D01*
X182306788Y-129058768D01*
X182152445Y-128980127D01*
X181987701Y-128926598D01*
X181987699Y-128926597D01*
X181987698Y-128926597D01*
X181856271Y-128905781D01*
X181816611Y-128899500D01*
X181643389Y-128899500D01*
X181603728Y-128905781D01*
X181472302Y-128926597D01*
X181307552Y-128980128D01*
X181153211Y-129058768D01*
X181075529Y-129115208D01*
X181013072Y-129160586D01*
X181013070Y-129160588D01*
X181013069Y-129160588D01*
X180890588Y-129283069D01*
X180890588Y-129283070D01*
X180890586Y-129283072D01*
X180846859Y-129343256D01*
X180788768Y-129423211D01*
X180710128Y-129577552D01*
X180656597Y-129742302D01*
X180656597Y-129742304D01*
X180629500Y-129913389D01*
X180629500Y-130086611D01*
X180656598Y-130257701D01*
X180710127Y-130422445D01*
X180747851Y-130496484D01*
X180785414Y-130570205D01*
X180798310Y-130638875D01*
X180772033Y-130703615D01*
X180714927Y-130743872D01*
X180674929Y-130750500D01*
X180245071Y-130750500D01*
X180178032Y-130730815D01*
X180132277Y-130678011D01*
X180122333Y-130608853D01*
X180134586Y-130570205D01*
X180170357Y-130500000D01*
X180209873Y-130422445D01*
X180263402Y-130257701D01*
X180290500Y-130086611D01*
X180290500Y-129913389D01*
X180263402Y-129742299D01*
X180209873Y-129577555D01*
X180131232Y-129423212D01*
X180029414Y-129283072D01*
X179906928Y-129160586D01*
X179766788Y-129058768D01*
X179612445Y-128980127D01*
X179447701Y-128926598D01*
X179447699Y-128926597D01*
X179447698Y-128926597D01*
X179316271Y-128905781D01*
X179276611Y-128899500D01*
X179103389Y-128899500D01*
X179063728Y-128905781D01*
X178932302Y-128926597D01*
X178767552Y-128980128D01*
X178613211Y-129058768D01*
X178535529Y-129115208D01*
X178473072Y-129160586D01*
X178473070Y-129160588D01*
X178473069Y-129160588D01*
X178350588Y-129283069D01*
X178350588Y-129283070D01*
X178350586Y-129283072D01*
X178306859Y-129343256D01*
X178248768Y-129423211D01*
X178170128Y-129577552D01*
X178116597Y-129742302D01*
X178116597Y-129742304D01*
X178089500Y-129913389D01*
X178089500Y-130086611D01*
X178116598Y-130257701D01*
X178170127Y-130422445D01*
X178207851Y-130496484D01*
X178245414Y-130570205D01*
X178258310Y-130638875D01*
X178232033Y-130703615D01*
X178174927Y-130743872D01*
X178134929Y-130750500D01*
X177705071Y-130750500D01*
X177638032Y-130730815D01*
X177592277Y-130678011D01*
X177582333Y-130608853D01*
X177594586Y-130570205D01*
X177630357Y-130500000D01*
X177669873Y-130422445D01*
X177723402Y-130257701D01*
X177750500Y-130086611D01*
X177750500Y-129913389D01*
X177723402Y-129742299D01*
X177669873Y-129577555D01*
X177669869Y-129577547D01*
X177668401Y-129573029D01*
X177666406Y-129503188D01*
X177698648Y-129447033D01*
X178030470Y-129115212D01*
X178076614Y-129035288D01*
X178091394Y-128980127D01*
X178100500Y-128946144D01*
X178100500Y-122219967D01*
X178076614Y-122130823D01*
X178076611Y-122130817D01*
X178030473Y-122050905D01*
X178030470Y-122050902D01*
X178030469Y-122050899D01*
X177965212Y-121985642D01*
X177005251Y-121025681D01*
X175906650Y-119927079D01*
X175827096Y-119847525D01*
X177509500Y-119847525D01*
X177509500Y-119992475D01*
X177547016Y-120132485D01*
X177547017Y-120132488D01*
X177619488Y-120258011D01*
X177619493Y-120258017D01*
X177698181Y-120336705D01*
X177731666Y-120398028D01*
X177734500Y-120424386D01*
X177734500Y-120662852D01*
X177756682Y-120745640D01*
X177778108Y-120782750D01*
X177799535Y-120819862D01*
X177799537Y-120819864D01*
X178465681Y-121486008D01*
X178499166Y-121547331D01*
X178502000Y-121573689D01*
X178502000Y-121684975D01*
X178539516Y-121824985D01*
X178539517Y-121824988D01*
X178611988Y-121950511D01*
X178611990Y-121950513D01*
X178611991Y-121950515D01*
X178714485Y-122053009D01*
X178714486Y-122053010D01*
X178714488Y-122053011D01*
X178840011Y-122125482D01*
X178840012Y-122125482D01*
X178840015Y-122125484D01*
X178980025Y-122163000D01*
X178980028Y-122163000D01*
X179124972Y-122163000D01*
X179124975Y-122163000D01*
X179264985Y-122125484D01*
X179390515Y-122053009D01*
X179493009Y-121950515D01*
X179565484Y-121824985D01*
X179603000Y-121684975D01*
X179603000Y-121540025D01*
X179565484Y-121400015D01*
X179493009Y-121274485D01*
X179390515Y-121171991D01*
X179390513Y-121171990D01*
X179390511Y-121171988D01*
X179264988Y-121099517D01*
X179264989Y-121099517D01*
X179253506Y-121096440D01*
X179124975Y-121062000D01*
X179013689Y-121062000D01*
X178946650Y-121042315D01*
X178926008Y-121025681D01*
X178421819Y-120521492D01*
X178407115Y-120494564D01*
X178390523Y-120468746D01*
X178389631Y-120462545D01*
X178388334Y-120460169D01*
X178385500Y-120433811D01*
X178385500Y-120424386D01*
X178405185Y-120357347D01*
X178421819Y-120336705D01*
X178500509Y-120258015D01*
X178572984Y-120132485D01*
X178610500Y-119992475D01*
X178610500Y-119847525D01*
X178572984Y-119707515D01*
X178516600Y-119609856D01*
X178500511Y-119581988D01*
X178500506Y-119581982D01*
X178398017Y-119479493D01*
X178398011Y-119479488D01*
X178272488Y-119407017D01*
X178272489Y-119407017D01*
X178261006Y-119403940D01*
X178132475Y-119369500D01*
X177987525Y-119369500D01*
X177858993Y-119403940D01*
X177847511Y-119407017D01*
X177721988Y-119479488D01*
X177721982Y-119479493D01*
X177619493Y-119581982D01*
X177619488Y-119581988D01*
X177547017Y-119707511D01*
X177547016Y-119707515D01*
X177509500Y-119847525D01*
X175827096Y-119847525D01*
X174751614Y-118772043D01*
X174718129Y-118710720D01*
X174723113Y-118641028D01*
X174764985Y-118585095D01*
X174830449Y-118560678D01*
X174839295Y-118560362D01*
X181701752Y-118560362D01*
X181768791Y-118580047D01*
X181814546Y-118632851D01*
X181824490Y-118702009D01*
X181795465Y-118765565D01*
X181789513Y-118771956D01*
X181789488Y-118771988D01*
X181717017Y-118897511D01*
X181717016Y-118897515D01*
X181679500Y-119037525D01*
X181679500Y-119037527D01*
X181679500Y-119113456D01*
X181659815Y-119180495D01*
X181643181Y-119201137D01*
X181403531Y-119440786D01*
X181403527Y-119440791D01*
X181357387Y-119520709D01*
X181357386Y-119520712D01*
X181333500Y-119609856D01*
X181333500Y-121900614D01*
X181313815Y-121967653D01*
X181297181Y-121988295D01*
X181243493Y-122041982D01*
X181243488Y-122041988D01*
X181171017Y-122167511D01*
X181171016Y-122167515D01*
X181133500Y-122307525D01*
X181133500Y-122452475D01*
X181171016Y-122592485D01*
X181171017Y-122592488D01*
X181243488Y-122718011D01*
X181243490Y-122718013D01*
X181243491Y-122718015D01*
X181345985Y-122820509D01*
X181345986Y-122820510D01*
X181345988Y-122820511D01*
X181471511Y-122892982D01*
X181471512Y-122892982D01*
X181471515Y-122892984D01*
X181611525Y-122930500D01*
X181611528Y-122930500D01*
X181640720Y-122930500D01*
X181707759Y-122950185D01*
X181753514Y-123002989D01*
X181763458Y-123072147D01*
X181748107Y-123116500D01*
X181740017Y-123130511D01*
X181740016Y-123130515D01*
X181702500Y-123270525D01*
X181702500Y-123415475D01*
X181740016Y-123555485D01*
X181740017Y-123555488D01*
X181812488Y-123681011D01*
X181812490Y-123681013D01*
X181812491Y-123681015D01*
X181914985Y-123783509D01*
X181914986Y-123783510D01*
X181914988Y-123783511D01*
X182040511Y-123855982D01*
X182040512Y-123855982D01*
X182040515Y-123855984D01*
X182180525Y-123893500D01*
X182180528Y-123893500D01*
X182325472Y-123893500D01*
X182325475Y-123893500D01*
X182465485Y-123855984D01*
X182591015Y-123783509D01*
X182693509Y-123681015D01*
X182765984Y-123555485D01*
X182803500Y-123415475D01*
X182803500Y-123270525D01*
X182765984Y-123130515D01*
X182759329Y-123118989D01*
X182693511Y-123004988D01*
X182693506Y-123004982D01*
X182639819Y-122951295D01*
X182606334Y-122889972D01*
X182603500Y-122863614D01*
X182603500Y-120666386D01*
X182623185Y-120599347D01*
X182639819Y-120578705D01*
X182648382Y-120570142D01*
X182680509Y-120538015D01*
X182752984Y-120412485D01*
X182790500Y-120272475D01*
X182790500Y-120127525D01*
X182752984Y-119987515D01*
X182680509Y-119861985D01*
X182578015Y-119759491D01*
X182578013Y-119759490D01*
X182578011Y-119759488D01*
X182577608Y-119759256D01*
X182577335Y-119758970D01*
X182571566Y-119754543D01*
X182572256Y-119753643D01*
X182529393Y-119708688D01*
X182516172Y-119640081D01*
X182542141Y-119575216D01*
X182564126Y-119553492D01*
X182568004Y-119550514D01*
X182568015Y-119550509D01*
X182670509Y-119448015D01*
X182742984Y-119322485D01*
X182780500Y-119182475D01*
X182780500Y-119037525D01*
X182742984Y-118897515D01*
X182670542Y-118772043D01*
X182670511Y-118771988D01*
X182665562Y-118765539D01*
X182666586Y-118764752D01*
X182637082Y-118710720D01*
X182642066Y-118641028D01*
X182683938Y-118585095D01*
X182749402Y-118560678D01*
X182758248Y-118560362D01*
X192986280Y-118560362D01*
X192986282Y-118560362D01*
X193075426Y-118536476D01*
X193155350Y-118490332D01*
X194483393Y-117162287D01*
X194544716Y-117128803D01*
X194614408Y-117133787D01*
G37*
%TD.AperFunction*%
%TA.AperFunction,Conductor*%
G36*
X198882170Y-87197015D02*
G01*
X199199179Y-87214817D01*
X199212977Y-87216371D01*
X199522578Y-87268973D01*
X199536133Y-87272067D01*
X199837895Y-87359001D01*
X199851020Y-87363594D01*
X200141138Y-87483764D01*
X200153667Y-87489797D01*
X200428516Y-87641700D01*
X200440290Y-87649098D01*
X200696410Y-87830824D01*
X200707264Y-87839480D01*
X200941427Y-88048739D01*
X200951258Y-88058570D01*
X201160517Y-88292733D01*
X201169177Y-88303591D01*
X201229286Y-88388307D01*
X201350901Y-88559709D01*
X201358299Y-88571483D01*
X201510202Y-88846332D01*
X201516235Y-88858861D01*
X201636405Y-89148979D01*
X201640998Y-89162104D01*
X201727932Y-89463866D01*
X201731026Y-89477423D01*
X201783626Y-89787012D01*
X201785183Y-89800830D01*
X201802985Y-90117861D01*
X201803179Y-90124411D01*
X201803180Y-90124719D01*
X201803180Y-90145851D01*
X201803248Y-90145946D01*
X201803312Y-90165422D01*
X201803309Y-90165430D01*
X201803312Y-90165447D01*
X201924488Y-129996323D01*
X201924294Y-130003653D01*
X201906501Y-130320488D01*
X201904944Y-130334306D01*
X201852343Y-130643894D01*
X201849249Y-130657451D01*
X201762313Y-130959212D01*
X201757720Y-130972337D01*
X201637548Y-131262458D01*
X201631515Y-131274986D01*
X201479610Y-131549839D01*
X201472211Y-131561613D01*
X201290500Y-131817710D01*
X201281831Y-131828582D01*
X201072574Y-132062741D01*
X201062741Y-132072574D01*
X200828582Y-132281831D01*
X200817710Y-132290500D01*
X200561613Y-132472211D01*
X200549839Y-132479610D01*
X200274986Y-132631515D01*
X200262458Y-132637548D01*
X199972337Y-132757720D01*
X199959212Y-132762313D01*
X199657451Y-132849249D01*
X199643894Y-132852343D01*
X199334306Y-132904944D01*
X199320488Y-132906501D01*
X199003472Y-132924305D01*
X198996519Y-132924500D01*
X165003481Y-132924500D01*
X164996528Y-132924305D01*
X164679511Y-132906501D01*
X164665693Y-132904944D01*
X164356105Y-132852343D01*
X164342548Y-132849249D01*
X164040787Y-132762313D01*
X164027662Y-132757720D01*
X163737541Y-132637548D01*
X163725013Y-132631515D01*
X163636998Y-132582871D01*
X163450156Y-132479607D01*
X163438391Y-132472214D01*
X163182285Y-132290497D01*
X163171417Y-132281831D01*
X163105203Y-132222659D01*
X162937256Y-132072572D01*
X162927425Y-132062741D01*
X162718164Y-131828576D01*
X162709504Y-131817716D01*
X162527782Y-131561604D01*
X162520395Y-131549848D01*
X162368480Y-131274979D01*
X162362454Y-131262465D01*
X162242279Y-130972337D01*
X162237686Y-130959212D01*
X162150750Y-130657451D01*
X162147656Y-130643894D01*
X162135136Y-130570205D01*
X162095053Y-130334296D01*
X162093499Y-130320498D01*
X162075695Y-130003472D01*
X162075501Y-129996930D01*
X162075500Y-129996628D01*
X162075500Y-129975469D01*
X162075429Y-129975371D01*
X162075375Y-129959157D01*
X162075365Y-129955930D01*
X162075368Y-129955921D01*
X162075365Y-129955905D01*
X162038249Y-117755525D01*
X164436500Y-117755525D01*
X164436500Y-117900475D01*
X164474016Y-118040485D01*
X164474017Y-118040488D01*
X164546488Y-118166011D01*
X164546493Y-118166017D01*
X164600181Y-118219705D01*
X164633666Y-118281028D01*
X164636500Y-118307386D01*
X164636500Y-118892144D01*
X164647867Y-118934568D01*
X164647868Y-118934568D01*
X164647868Y-118934569D01*
X164660386Y-118981288D01*
X164660388Y-118981291D01*
X164706527Y-119061208D01*
X164706529Y-119061211D01*
X164706530Y-119061212D01*
X166817311Y-121171993D01*
X168911181Y-123265862D01*
X168944666Y-123327185D01*
X168947500Y-123353543D01*
X168947500Y-123429475D01*
X168985016Y-123569485D01*
X168985017Y-123569488D01*
X169057488Y-123695011D01*
X169057490Y-123695013D01*
X169057491Y-123695015D01*
X169159985Y-123797509D01*
X169159986Y-123797510D01*
X169159988Y-123797511D01*
X169285511Y-123869982D01*
X169285512Y-123869982D01*
X169285515Y-123869984D01*
X169425525Y-123907500D01*
X169425528Y-123907500D01*
X169570472Y-123907500D01*
X169570475Y-123907500D01*
X169710485Y-123869984D01*
X169836015Y-123797509D01*
X169938509Y-123695015D01*
X170010984Y-123569485D01*
X170048500Y-123429475D01*
X170048500Y-123353543D01*
X170068185Y-123286505D01*
X170084819Y-123265863D01*
X171892863Y-121457819D01*
X171919790Y-121443115D01*
X171945609Y-121426523D01*
X171951809Y-121425631D01*
X171954186Y-121424334D01*
X171980544Y-121421500D01*
X172011500Y-121421500D01*
X172078539Y-121441185D01*
X172124294Y-121493989D01*
X172135500Y-121545500D01*
X172135500Y-121553525D01*
X172135500Y-121698475D01*
X172173016Y-121838485D01*
X172173017Y-121838488D01*
X172245488Y-121964011D01*
X172245493Y-121964017D01*
X172299181Y-122017705D01*
X172332666Y-122079028D01*
X172335500Y-122105386D01*
X172335500Y-123228143D01*
X172353994Y-123297165D01*
X172353994Y-123297166D01*
X172359384Y-123317284D01*
X172359385Y-123317286D01*
X172405527Y-123397208D01*
X172405531Y-123397213D01*
X173812181Y-124803863D01*
X173845666Y-124865186D01*
X173848500Y-124891544D01*
X173848500Y-124967475D01*
X173882184Y-125093183D01*
X173886017Y-125107488D01*
X173958488Y-125233011D01*
X173958490Y-125233013D01*
X173958491Y-125233015D01*
X174060985Y-125335509D01*
X174060986Y-125335510D01*
X174060988Y-125335511D01*
X174186511Y-125407982D01*
X174186512Y-125407982D01*
X174186515Y-125407984D01*
X174326525Y-125445500D01*
X174326528Y-125445500D01*
X174471472Y-125445500D01*
X174471475Y-125445500D01*
X174611485Y-125407984D01*
X174737015Y-125335509D01*
X174839509Y-125233015D01*
X174911984Y-125107485D01*
X174949500Y-124967475D01*
X174949500Y-124822525D01*
X174911984Y-124682515D01*
X174839509Y-124556985D01*
X174737015Y-124454491D01*
X174737013Y-124454490D01*
X174737011Y-124454488D01*
X174611488Y-124382017D01*
X174611489Y-124382017D01*
X174600006Y-124378940D01*
X174471475Y-124344500D01*
X174471472Y-124344500D01*
X174395544Y-124344500D01*
X174328505Y-124324815D01*
X174307863Y-124308181D01*
X173072819Y-123073137D01*
X173039334Y-123011814D01*
X173036500Y-122985456D01*
X173036500Y-122105386D01*
X173056185Y-122038347D01*
X173072819Y-122017705D01*
X173126509Y-121964015D01*
X173198984Y-121838485D01*
X173236500Y-121698475D01*
X173236500Y-121553525D01*
X173236500Y-121545500D01*
X173256185Y-121478461D01*
X173308989Y-121432706D01*
X173360500Y-121421500D01*
X175573456Y-121421500D01*
X175640495Y-121441185D01*
X175661137Y-121457819D01*
X176608181Y-122404862D01*
X176641666Y-122466185D01*
X176644500Y-122492543D01*
X176644500Y-122568475D01*
X176682016Y-122708485D01*
X176682017Y-122708488D01*
X176754488Y-122834011D01*
X176754490Y-122834013D01*
X176754491Y-122834015D01*
X176856985Y-122936509D01*
X176856986Y-122936510D01*
X176856988Y-122936511D01*
X176982511Y-123008982D01*
X176982512Y-123008982D01*
X176982515Y-123008984D01*
X177122525Y-123046500D01*
X177122528Y-123046500D01*
X177275500Y-123046500D01*
X177342539Y-123066185D01*
X177388294Y-123118989D01*
X177399500Y-123170500D01*
X177399500Y-125026144D01*
X177379815Y-125093183D01*
X177327011Y-125138938D01*
X177270602Y-125147396D01*
X177270602Y-125149500D01*
X177262475Y-125149500D01*
X177117525Y-125149500D01*
X176988993Y-125183940D01*
X176977511Y-125187017D01*
X176851988Y-125259488D01*
X176851982Y-125259493D01*
X176749493Y-125361982D01*
X176749488Y-125361988D01*
X176677017Y-125487511D01*
X176677016Y-125487515D01*
X176639500Y-125627525D01*
X176639500Y-125627527D01*
X176639500Y-125703456D01*
X176619815Y-125770495D01*
X176603181Y-125791137D01*
X176111137Y-126283181D01*
X176049814Y-126316666D01*
X176023456Y-126319500D01*
X174379386Y-126319500D01*
X174312347Y-126299815D01*
X174291705Y-126283181D01*
X174238017Y-126229493D01*
X174238011Y-126229488D01*
X174112488Y-126157017D01*
X174112489Y-126157017D01*
X174101006Y-126153940D01*
X173972475Y-126119500D01*
X173827525Y-126119500D01*
X173698993Y-126153940D01*
X173687511Y-126157017D01*
X173561988Y-126229488D01*
X173561982Y-126229493D01*
X173459493Y-126331982D01*
X173459488Y-126331988D01*
X173387017Y-126457511D01*
X173387016Y-126457515D01*
X173349500Y-126597525D01*
X173349500Y-126742475D01*
X173387016Y-126882485D01*
X173387017Y-126882488D01*
X173459488Y-127008011D01*
X173459490Y-127008013D01*
X173459491Y-127008015D01*
X173561985Y-127110509D01*
X173561986Y-127110510D01*
X173561988Y-127110511D01*
X173687511Y-127182982D01*
X173687512Y-127182982D01*
X173687515Y-127182984D01*
X173827525Y-127220500D01*
X173827528Y-127220500D01*
X173972472Y-127220500D01*
X173972475Y-127220500D01*
X174112485Y-127182984D01*
X174238015Y-127110509D01*
X174291705Y-127056819D01*
X174353028Y-127023334D01*
X174379386Y-127020500D01*
X176266142Y-127020500D01*
X176266144Y-127020500D01*
X176355288Y-126996614D01*
X176435212Y-126950470D01*
X177098863Y-126286819D01*
X177125410Y-126272322D01*
X177150747Y-126255779D01*
X177157544Y-126254776D01*
X177160186Y-126253334D01*
X177185645Y-126250503D01*
X177186059Y-126250500D01*
X177262475Y-126250500D01*
X177264600Y-126249930D01*
X177274601Y-126249858D01*
X177301106Y-126257432D01*
X177328343Y-126261678D01*
X177334222Y-126266896D01*
X177341781Y-126269056D01*
X177359982Y-126289756D01*
X177380602Y-126308055D01*
X177382799Y-126315705D01*
X177387918Y-126321527D01*
X177391749Y-126346868D01*
X177399500Y-126373855D01*
X177399500Y-128703455D01*
X177379815Y-128770494D01*
X177363181Y-128791137D01*
X177202969Y-128951348D01*
X177141646Y-128984832D01*
X177076970Y-128981597D01*
X176907698Y-128926597D01*
X176776271Y-128905781D01*
X176736611Y-128899500D01*
X176563389Y-128899500D01*
X176523728Y-128905781D01*
X176392302Y-128926597D01*
X176227552Y-128980128D01*
X176073211Y-129058768D01*
X175995529Y-129115208D01*
X175933072Y-129160586D01*
X175933070Y-129160588D01*
X175933069Y-129160588D01*
X175810588Y-129283069D01*
X175810588Y-129283070D01*
X175810586Y-129283072D01*
X175766859Y-129343256D01*
X175708768Y-129423211D01*
X175630128Y-129577552D01*
X175576597Y-129742302D01*
X175549500Y-129913389D01*
X175549500Y-130078770D01*
X175543261Y-130100015D01*
X175541682Y-130122104D01*
X175533609Y-130132887D01*
X175529815Y-130145809D01*
X175513081Y-130160308D01*
X175499810Y-130178037D01*
X175487189Y-130182744D01*
X175477011Y-130191564D01*
X175455093Y-130194715D01*
X175434346Y-130202454D01*
X175421185Y-130199591D01*
X175407853Y-130201508D01*
X175387709Y-130192308D01*
X175366073Y-130187602D01*
X175348347Y-130174333D01*
X175344297Y-130172483D01*
X175337819Y-130166451D01*
X175246819Y-130075451D01*
X175213334Y-130014128D01*
X175210500Y-129987770D01*
X175210500Y-129125323D01*
X175210499Y-129125321D01*
X175195967Y-129052264D01*
X175195966Y-129052260D01*
X175170716Y-129014470D01*
X175140601Y-128969399D01*
X175057740Y-128914034D01*
X175057739Y-128914033D01*
X175057735Y-128914032D01*
X174984677Y-128899500D01*
X174984674Y-128899500D01*
X173235326Y-128899500D01*
X173235323Y-128899500D01*
X173162264Y-128914032D01*
X173162260Y-128914033D01*
X173079399Y-128969399D01*
X173024033Y-129052260D01*
X173024032Y-129052264D01*
X173009500Y-129125321D01*
X173009500Y-130874678D01*
X173024032Y-130947735D01*
X173024033Y-130947739D01*
X173040469Y-130972337D01*
X173079399Y-131030601D01*
X173162260Y-131085966D01*
X173162264Y-131085967D01*
X173235321Y-131100499D01*
X173235324Y-131100500D01*
X173235326Y-131100500D01*
X174097770Y-131100500D01*
X174164809Y-131120185D01*
X174185451Y-131136819D01*
X174610246Y-131561613D01*
X175028049Y-131979416D01*
X175132584Y-132083951D01*
X175132587Y-132083953D01*
X175132588Y-132083954D01*
X175255503Y-132166083D01*
X175255506Y-132166085D01*
X175283529Y-132177692D01*
X175312080Y-132189518D01*
X175392088Y-132222659D01*
X175508241Y-132245763D01*
X175531380Y-132250365D01*
X175537081Y-132251500D01*
X175537082Y-132251500D01*
X192585655Y-132251500D01*
X192683197Y-132232096D01*
X192730648Y-132222658D01*
X192867230Y-132166084D01*
X192916464Y-132133186D01*
X192990151Y-132083952D01*
X196028526Y-129045577D01*
X196069114Y-128984832D01*
X196094965Y-128946144D01*
X196110658Y-128922656D01*
X196110659Y-128922654D01*
X196167230Y-128786078D01*
X196167232Y-128786074D01*
X196187687Y-128683242D01*
X196196074Y-128641081D01*
X196196074Y-117417230D01*
X196215759Y-117350191D01*
X196232393Y-117329549D01*
X196587947Y-116973995D01*
X196587952Y-116973990D01*
X196615950Y-116932087D01*
X196655084Y-116873519D01*
X196655086Y-116873514D01*
X196655090Y-116873509D01*
X196670084Y-116851069D01*
X196726658Y-116714487D01*
X196738596Y-116654470D01*
X196755500Y-116569494D01*
X196755500Y-112221079D01*
X196726659Y-112076092D01*
X196726658Y-112076091D01*
X196726658Y-112076087D01*
X196670084Y-111939505D01*
X196637186Y-111890270D01*
X196637185Y-111890268D01*
X196587956Y-111816589D01*
X196587952Y-111816584D01*
X192569097Y-107797728D01*
X192569074Y-107797707D01*
X187892801Y-103121432D01*
X187892794Y-103121426D01*
X187819109Y-103072192D01*
X187819109Y-103072193D01*
X187769871Y-103039293D01*
X187633297Y-102982723D01*
X187633287Y-102982720D01*
X187488300Y-102953880D01*
X187488298Y-102953880D01*
X171462702Y-102953880D01*
X171462700Y-102953880D01*
X171317712Y-102982720D01*
X171317702Y-102982723D01*
X171181131Y-103039292D01*
X171181118Y-103039299D01*
X171058204Y-103121428D01*
X171058200Y-103121431D01*
X170953671Y-103225960D01*
X170953668Y-103225964D01*
X170871539Y-103348878D01*
X170871534Y-103348887D01*
X170813061Y-103490056D01*
X170769220Y-103544459D01*
X170702926Y-103566524D01*
X170635227Y-103549245D01*
X170587616Y-103498108D01*
X170574500Y-103442603D01*
X170574500Y-99065386D01*
X170594185Y-98998347D01*
X170610819Y-98977705D01*
X170664509Y-98924015D01*
X170736984Y-98798485D01*
X170774500Y-98658475D01*
X170774500Y-98513525D01*
X170736984Y-98373515D01*
X170706086Y-98319999D01*
X170664511Y-98247988D01*
X170664506Y-98247982D01*
X170562017Y-98145493D01*
X170562011Y-98145488D01*
X170436488Y-98073017D01*
X170436489Y-98073017D01*
X170425006Y-98069940D01*
X170296475Y-98035500D01*
X170151525Y-98035500D01*
X170022993Y-98069940D01*
X170011511Y-98073017D01*
X169885988Y-98145488D01*
X169885982Y-98145493D01*
X169783493Y-98247982D01*
X169783488Y-98247988D01*
X169711017Y-98373511D01*
X169711016Y-98373515D01*
X169673500Y-98513525D01*
X169673500Y-98658475D01*
X169711016Y-98798485D01*
X169711017Y-98798488D01*
X169783488Y-98924011D01*
X169783493Y-98924017D01*
X169837181Y-98977705D01*
X169870666Y-99039028D01*
X169873500Y-99065386D01*
X169873500Y-111097143D01*
X169897386Y-111186287D01*
X169897387Y-111186290D01*
X169943527Y-111266208D01*
X169943531Y-111266213D01*
X173752181Y-115074863D01*
X173785666Y-115136186D01*
X173788500Y-115162544D01*
X173788500Y-115238475D01*
X173808198Y-115311988D01*
X173826017Y-115378488D01*
X173898488Y-115504011D01*
X173898490Y-115504013D01*
X173898491Y-115504015D01*
X174000985Y-115606509D01*
X174000986Y-115606510D01*
X174000988Y-115606511D01*
X174126511Y-115678982D01*
X174126512Y-115678982D01*
X174126515Y-115678984D01*
X174266525Y-115716500D01*
X174266528Y-115716500D01*
X174411472Y-115716500D01*
X174411475Y-115716500D01*
X174551485Y-115678984D01*
X174677015Y-115606509D01*
X174779509Y-115504015D01*
X174851984Y-115378485D01*
X174889500Y-115238475D01*
X174889500Y-115093525D01*
X174851984Y-114953515D01*
X174836760Y-114927147D01*
X174779511Y-114827988D01*
X174779506Y-114827982D01*
X174677017Y-114725493D01*
X174677011Y-114725488D01*
X174551488Y-114653017D01*
X174551489Y-114653017D01*
X174540006Y-114649940D01*
X174411475Y-114615500D01*
X174411472Y-114615500D01*
X174335544Y-114615500D01*
X174268505Y-114595815D01*
X174247863Y-114579181D01*
X170610819Y-110942137D01*
X170577334Y-110880814D01*
X170574500Y-110854456D01*
X170574500Y-103966156D01*
X170594185Y-103899117D01*
X170646989Y-103853362D01*
X170716147Y-103843418D01*
X170779703Y-103872443D01*
X170813061Y-103918704D01*
X170871532Y-104059868D01*
X170871539Y-104059881D01*
X170953668Y-104182795D01*
X170953671Y-104182799D01*
X171058200Y-104287328D01*
X171058204Y-104287331D01*
X171181118Y-104369460D01*
X171181131Y-104369467D01*
X171317702Y-104426036D01*
X171317707Y-104426038D01*
X171317711Y-104426038D01*
X171317712Y-104426039D01*
X171462699Y-104454880D01*
X171462702Y-104454880D01*
X175727192Y-104454880D01*
X175794231Y-104474565D01*
X175839986Y-104527369D01*
X175849930Y-104596527D01*
X175834579Y-104640878D01*
X175773013Y-104747515D01*
X175735497Y-104887525D01*
X175735497Y-105032475D01*
X175773013Y-105172484D01*
X175773014Y-105172488D01*
X175845485Y-105298011D01*
X175845487Y-105298013D01*
X175845488Y-105298015D01*
X175947982Y-105400509D01*
X175947983Y-105400510D01*
X175947985Y-105400511D01*
X176073508Y-105472982D01*
X176073509Y-105472982D01*
X176073512Y-105472984D01*
X176213522Y-105510500D01*
X176213525Y-105510500D01*
X176324808Y-105510500D01*
X176354248Y-105519144D01*
X176384235Y-105525668D01*
X176389250Y-105529422D01*
X176391847Y-105530185D01*
X176412489Y-105546819D01*
X176527181Y-105661511D01*
X176560666Y-105722834D01*
X176563500Y-105749192D01*
X176563500Y-116191690D01*
X176543815Y-116258729D01*
X176491011Y-116304484D01*
X176471597Y-116311463D01*
X176381704Y-116335551D01*
X176340349Y-116346632D01*
X176214826Y-116419103D01*
X176214820Y-116419108D01*
X176112331Y-116521597D01*
X176112326Y-116521603D01*
X176039855Y-116647126D01*
X176039854Y-116647130D01*
X176002338Y-116787140D01*
X176002338Y-116932090D01*
X176013567Y-116973995D01*
X176039855Y-117072103D01*
X176112326Y-117197626D01*
X176112328Y-117197628D01*
X176112329Y-117197630D01*
X176214823Y-117300124D01*
X176214824Y-117300125D01*
X176214826Y-117300126D01*
X176340349Y-117372597D01*
X176340350Y-117372597D01*
X176340353Y-117372599D01*
X176480363Y-117410115D01*
X176480366Y-117410115D01*
X176625310Y-117410115D01*
X176625313Y-117410115D01*
X176765323Y-117372599D01*
X176765325Y-117372597D01*
X176765327Y-117372597D01*
X176765328Y-117372596D01*
X176776981Y-117365868D01*
X176863432Y-117315955D01*
X176931329Y-117299482D01*
X176987428Y-117315953D01*
X177094339Y-117377679D01*
X177234349Y-117415195D01*
X177234352Y-117415195D01*
X177379296Y-117415195D01*
X177379299Y-117415195D01*
X177519309Y-117377679D01*
X177519311Y-117377677D01*
X177519313Y-117377677D01*
X177519314Y-117377676D01*
X177586537Y-117338865D01*
X177590851Y-117336373D01*
X177658751Y-117319900D01*
X177713548Y-117338865D01*
X177714946Y-117336445D01*
X177847511Y-117412982D01*
X177847512Y-117412982D01*
X177847515Y-117412984D01*
X177987525Y-117450500D01*
X177987528Y-117450500D01*
X178132472Y-117450500D01*
X178132475Y-117450500D01*
X178272485Y-117412984D01*
X178398015Y-117340509D01*
X178500509Y-117238015D01*
X178572984Y-117112485D01*
X178610500Y-116972475D01*
X178610500Y-116827525D01*
X178572984Y-116687515D01*
X178553905Y-116654470D01*
X178500511Y-116561988D01*
X178500510Y-116561987D01*
X178500509Y-116561985D01*
X178421818Y-116483294D01*
X178407113Y-116456363D01*
X178390523Y-116430548D01*
X178389631Y-116424345D01*
X178388334Y-116421970D01*
X178385500Y-116395613D01*
X178385500Y-116179525D01*
X181799500Y-116179525D01*
X181799500Y-116324475D01*
X181827923Y-116430548D01*
X181837017Y-116464488D01*
X181909488Y-116590011D01*
X181909490Y-116590013D01*
X181909491Y-116590015D01*
X182011985Y-116692509D01*
X182011986Y-116692510D01*
X182011988Y-116692511D01*
X182137511Y-116764982D01*
X182137512Y-116764982D01*
X182137515Y-116764984D01*
X182277525Y-116802500D01*
X182277528Y-116802500D01*
X182422472Y-116802500D01*
X182422475Y-116802500D01*
X182562485Y-116764984D01*
X182688015Y-116692509D01*
X182790509Y-116590015D01*
X182862984Y-116464485D01*
X182887508Y-116372957D01*
X182923872Y-116313300D01*
X182986719Y-116282771D01*
X183056094Y-116291066D01*
X183109972Y-116335551D01*
X183111216Y-116337425D01*
X183121958Y-116353934D01*
X183128310Y-116377638D01*
X183171163Y-116451862D01*
X183212720Y-116493419D01*
X183219797Y-116504295D01*
X183220352Y-116506147D01*
X183223250Y-116509924D01*
X183269488Y-116590011D01*
X183269490Y-116590013D01*
X183269491Y-116590015D01*
X183371985Y-116692509D01*
X183371986Y-116692510D01*
X183371988Y-116692511D01*
X183497511Y-116764982D01*
X183497512Y-116764982D01*
X183497515Y-116764984D01*
X183637525Y-116802500D01*
X183637528Y-116802500D01*
X183782472Y-116802500D01*
X183782475Y-116802500D01*
X183922485Y-116764984D01*
X184048015Y-116692509D01*
X184126706Y-116613818D01*
X184188030Y-116580334D01*
X184214387Y-116577500D01*
X185380851Y-116577500D01*
X185380853Y-116577500D01*
X185463639Y-116555318D01*
X185537862Y-116512465D01*
X185813506Y-116236818D01*
X185874829Y-116203334D01*
X185901188Y-116200500D01*
X186012472Y-116200500D01*
X186012475Y-116200500D01*
X186152485Y-116162984D01*
X186278015Y-116090509D01*
X186380509Y-115988015D01*
X186452984Y-115862485D01*
X186490500Y-115722475D01*
X186490500Y-115577525D01*
X186452984Y-115437515D01*
X186449904Y-115432181D01*
X186380511Y-115311988D01*
X186380506Y-115311982D01*
X186278017Y-115209493D01*
X186278011Y-115209488D01*
X186152488Y-115137017D01*
X186152489Y-115137017D01*
X186141006Y-115133940D01*
X186012475Y-115099500D01*
X185867525Y-115099500D01*
X185738993Y-115133940D01*
X185727511Y-115137017D01*
X185601988Y-115209488D01*
X185601982Y-115209493D01*
X185499493Y-115311982D01*
X185499488Y-115311988D01*
X185427017Y-115437511D01*
X185427016Y-115437515D01*
X185389500Y-115577525D01*
X185389500Y-115577527D01*
X185389500Y-115688811D01*
X185380855Y-115718251D01*
X185374332Y-115748238D01*
X185370577Y-115753253D01*
X185369815Y-115755850D01*
X185353181Y-115776492D01*
X185239492Y-115890181D01*
X185178169Y-115923666D01*
X185151811Y-115926500D01*
X184214387Y-115926500D01*
X184147348Y-115906815D01*
X184126706Y-115890182D01*
X184099009Y-115862485D01*
X184048015Y-115811491D01*
X184048012Y-115811489D01*
X184048011Y-115811488D01*
X183922488Y-115739017D01*
X183922489Y-115739017D01*
X183911006Y-115735940D01*
X183782475Y-115701500D01*
X183637525Y-115701500D01*
X183508993Y-115735940D01*
X183497511Y-115739017D01*
X183371988Y-115811488D01*
X183371982Y-115811493D01*
X183269493Y-115913982D01*
X183269488Y-115913988D01*
X183223247Y-115994078D01*
X183219796Y-115999705D01*
X183212719Y-116010580D01*
X183171163Y-116052138D01*
X183128310Y-116126362D01*
X183121958Y-116150065D01*
X183111217Y-116166574D01*
X183099035Y-116177009D01*
X183090689Y-116190701D01*
X183073050Y-116199268D01*
X183058155Y-116212029D01*
X183042267Y-116214221D01*
X183027841Y-116221229D01*
X183008367Y-116218900D01*
X182988941Y-116221581D01*
X182974391Y-116214836D01*
X182958466Y-116212932D01*
X182943342Y-116200444D01*
X182925550Y-116192197D01*
X182916956Y-116178656D01*
X182904589Y-116168445D01*
X182889492Y-116135385D01*
X182888109Y-116133206D01*
X182888113Y-116132366D01*
X182887508Y-116131042D01*
X182862984Y-116039515D01*
X182848588Y-116014581D01*
X182790511Y-115913988D01*
X182790506Y-115913982D01*
X182688017Y-115811493D01*
X182688011Y-115811488D01*
X182562488Y-115739017D01*
X182562489Y-115739017D01*
X182551006Y-115735940D01*
X182422475Y-115701500D01*
X182277525Y-115701500D01*
X182148993Y-115735940D01*
X182137511Y-115739017D01*
X182011988Y-115811488D01*
X182011982Y-115811493D01*
X181909493Y-115913982D01*
X181909488Y-115913988D01*
X181837017Y-116039511D01*
X181837016Y-116039515D01*
X181799500Y-116179525D01*
X178385500Y-116179525D01*
X178385500Y-115022855D01*
X178385501Y-115022842D01*
X178385501Y-114927148D01*
X178385501Y-114927147D01*
X178363318Y-114844362D01*
X178339039Y-114802309D01*
X178320465Y-114770138D01*
X178306819Y-114756492D01*
X178273334Y-114695169D01*
X178270500Y-114668811D01*
X178270500Y-114557527D01*
X178270500Y-114557525D01*
X178232984Y-114417515D01*
X178160509Y-114291985D01*
X178058015Y-114189491D01*
X178058013Y-114189490D01*
X178058011Y-114189488D01*
X177932488Y-114117017D01*
X177932489Y-114117017D01*
X177921006Y-114113940D01*
X177792475Y-114079500D01*
X177647525Y-114079500D01*
X177639500Y-114079500D01*
X177572461Y-114059815D01*
X177526706Y-114007011D01*
X177515500Y-113955500D01*
X177515500Y-105270634D01*
X177532113Y-105208634D01*
X177532351Y-105208221D01*
X177552984Y-105172485D01*
X177590500Y-105032475D01*
X177590500Y-104887525D01*
X177552984Y-104747515D01*
X177491417Y-104640879D01*
X177474945Y-104572981D01*
X177497797Y-104506954D01*
X177552718Y-104463763D01*
X177598805Y-104454880D01*
X187052150Y-104454880D01*
X187119189Y-104474565D01*
X187139831Y-104491199D01*
X191507707Y-108859074D01*
X191507728Y-108859097D01*
X195218181Y-112569549D01*
X195251666Y-112630872D01*
X195254500Y-112657230D01*
X195254500Y-115425500D01*
X195234815Y-115492539D01*
X195182011Y-115538294D01*
X195130500Y-115549500D01*
X195122475Y-115549500D01*
X194977525Y-115549500D01*
X194848993Y-115583940D01*
X194837511Y-115587017D01*
X194711988Y-115659488D01*
X194711982Y-115659493D01*
X194609493Y-115761982D01*
X194609488Y-115761988D01*
X194537017Y-115887511D01*
X194537016Y-115887515D01*
X194499500Y-116027525D01*
X194499500Y-116027527D01*
X194499500Y-116103456D01*
X194479815Y-116170495D01*
X194463181Y-116191137D01*
X192831275Y-117823043D01*
X192769952Y-117856528D01*
X192743594Y-117859362D01*
X174386683Y-117859362D01*
X174319644Y-117839677D01*
X174299002Y-117823043D01*
X173168470Y-116692511D01*
X172014490Y-115538530D01*
X172014489Y-115538529D01*
X172014486Y-115538527D01*
X171934568Y-115492387D01*
X171934567Y-115492386D01*
X171934566Y-115492386D01*
X171845422Y-115468500D01*
X171845421Y-115468500D01*
X171695386Y-115468500D01*
X171628347Y-115448815D01*
X171607705Y-115432181D01*
X171554017Y-115378493D01*
X171554011Y-115378488D01*
X171428488Y-115306017D01*
X171428489Y-115306017D01*
X171417006Y-115302940D01*
X171288475Y-115268500D01*
X171143525Y-115268500D01*
X171014993Y-115302940D01*
X171003511Y-115306017D01*
X170877988Y-115378488D01*
X170877982Y-115378493D01*
X170775493Y-115480982D01*
X170775488Y-115480988D01*
X170703017Y-115606511D01*
X170703016Y-115606515D01*
X170665500Y-115746525D01*
X170665500Y-115746527D01*
X170665500Y-115899500D01*
X170662949Y-115908185D01*
X170664238Y-115917147D01*
X170653259Y-115941187D01*
X170645815Y-115966539D01*
X170638974Y-115972466D01*
X170635213Y-115980703D01*
X170612978Y-115994992D01*
X170593011Y-116012294D01*
X170582496Y-116014581D01*
X170576435Y-116018477D01*
X170541500Y-116023500D01*
X170338544Y-116023500D01*
X170271505Y-116003815D01*
X170250863Y-115987181D01*
X167356819Y-113093137D01*
X167323334Y-113031814D01*
X167320500Y-113005456D01*
X167320500Y-112929527D01*
X167320500Y-112929525D01*
X167282984Y-112789515D01*
X167210509Y-112663985D01*
X167108015Y-112561491D01*
X167108013Y-112561490D01*
X167108011Y-112561488D01*
X166982488Y-112489017D01*
X166982489Y-112489017D01*
X166971006Y-112485940D01*
X166842475Y-112451500D01*
X166697525Y-112451500D01*
X166568993Y-112485940D01*
X166557511Y-112489017D01*
X166431988Y-112561488D01*
X166431982Y-112561493D01*
X166329493Y-112663982D01*
X166329488Y-112663988D01*
X166257017Y-112789511D01*
X166257016Y-112789515D01*
X166219500Y-112929525D01*
X166219500Y-113074475D01*
X166224501Y-113093137D01*
X166257017Y-113214488D01*
X166329488Y-113340011D01*
X166329490Y-113340013D01*
X166329491Y-113340015D01*
X166431985Y-113442509D01*
X166431986Y-113442510D01*
X166431988Y-113442511D01*
X166557511Y-113514982D01*
X166557512Y-113514982D01*
X166557515Y-113514984D01*
X166697525Y-113552500D01*
X166773456Y-113552500D01*
X166840495Y-113572185D01*
X166861137Y-113588819D01*
X169926788Y-116654470D01*
X169992674Y-116692509D01*
X170006712Y-116700614D01*
X170095856Y-116724500D01*
X171661345Y-116724500D01*
X171728384Y-116744185D01*
X171749026Y-116760819D01*
X173698927Y-118710720D01*
X175497027Y-120508819D01*
X175530512Y-120570142D01*
X175525528Y-120639834D01*
X175483656Y-120695767D01*
X175418192Y-120720184D01*
X175409346Y-120720500D01*
X171737856Y-120720500D01*
X171648712Y-120744386D01*
X171648709Y-120744387D01*
X171568791Y-120790527D01*
X171568786Y-120790531D01*
X169589137Y-122770181D01*
X169562209Y-122784884D01*
X169536391Y-122801477D01*
X169530190Y-122802368D01*
X169527814Y-122803666D01*
X169501456Y-122806500D01*
X169494543Y-122806500D01*
X169427504Y-122786815D01*
X169406862Y-122770181D01*
X165373819Y-118737137D01*
X165340334Y-118675814D01*
X165337500Y-118649456D01*
X165337500Y-118307386D01*
X165357185Y-118240347D01*
X165373819Y-118219705D01*
X165427509Y-118166015D01*
X165499984Y-118040485D01*
X165537500Y-117900475D01*
X165537500Y-117755525D01*
X165499984Y-117615515D01*
X165427509Y-117489985D01*
X165325015Y-117387491D01*
X165325013Y-117387490D01*
X165325011Y-117387488D01*
X165199488Y-117315017D01*
X165199489Y-117315017D01*
X165188006Y-117311940D01*
X165059475Y-117277500D01*
X164914525Y-117277500D01*
X164785993Y-117311940D01*
X164774511Y-117315017D01*
X164648988Y-117387488D01*
X164648982Y-117387493D01*
X164546493Y-117489982D01*
X164546488Y-117489988D01*
X164474017Y-117615511D01*
X164474016Y-117615515D01*
X164436500Y-117755525D01*
X162038249Y-117755525D01*
X162011594Y-108993389D01*
X165899500Y-108993389D01*
X165899500Y-109166611D01*
X165926598Y-109337701D01*
X165980127Y-109502445D01*
X166058768Y-109656788D01*
X166160586Y-109796928D01*
X166283072Y-109919414D01*
X166423212Y-110021232D01*
X166577555Y-110099873D01*
X166742299Y-110153402D01*
X166913389Y-110180500D01*
X166913390Y-110180500D01*
X167086610Y-110180500D01*
X167086611Y-110180500D01*
X167257701Y-110153402D01*
X167422445Y-110099873D01*
X167576788Y-110021232D01*
X167716928Y-109919414D01*
X167839414Y-109796928D01*
X167941232Y-109656788D01*
X168019873Y-109502445D01*
X168073402Y-109337701D01*
X168100500Y-109166611D01*
X168100500Y-108993389D01*
X168073402Y-108822299D01*
X168019873Y-108657555D01*
X167941232Y-108503212D01*
X167839414Y-108363072D01*
X167716928Y-108240586D01*
X167576788Y-108138768D01*
X167422445Y-108060127D01*
X167257701Y-108006598D01*
X167257699Y-108006597D01*
X167257698Y-108006597D01*
X167126271Y-107985781D01*
X167086611Y-107979500D01*
X166913389Y-107979500D01*
X166873728Y-107985781D01*
X166742302Y-108006597D01*
X166577552Y-108060128D01*
X166423211Y-108138768D01*
X166343256Y-108196859D01*
X166283072Y-108240586D01*
X166283070Y-108240588D01*
X166283069Y-108240588D01*
X166160588Y-108363069D01*
X166160588Y-108363070D01*
X166160586Y-108363072D01*
X166116859Y-108423256D01*
X166058768Y-108503211D01*
X165980128Y-108657552D01*
X165926597Y-108822302D01*
X165900212Y-108988894D01*
X165899500Y-108993389D01*
X162011594Y-108993389D01*
X162003569Y-106355525D01*
X164766500Y-106355525D01*
X164766500Y-106500475D01*
X164804016Y-106640485D01*
X164804017Y-106640488D01*
X164876488Y-106766011D01*
X164876490Y-106766013D01*
X164876491Y-106766015D01*
X164978985Y-106868509D01*
X164978986Y-106868510D01*
X164978988Y-106868511D01*
X165104511Y-106940982D01*
X165104512Y-106940982D01*
X165104515Y-106940984D01*
X165244525Y-106978500D01*
X165244528Y-106978500D01*
X165389472Y-106978500D01*
X165389475Y-106978500D01*
X165529485Y-106940984D01*
X165655015Y-106868509D01*
X165687819Y-106835705D01*
X165749142Y-106802220D01*
X165818834Y-106807204D01*
X165874767Y-106849076D01*
X165899184Y-106914540D01*
X165899500Y-106923386D01*
X165899500Y-107414678D01*
X165914032Y-107487735D01*
X165914033Y-107487739D01*
X165914034Y-107487740D01*
X165969399Y-107570601D01*
X166052260Y-107625966D01*
X166052264Y-107625967D01*
X166125321Y-107640499D01*
X166125324Y-107640500D01*
X166125326Y-107640500D01*
X167874676Y-107640500D01*
X167874677Y-107640499D01*
X167947740Y-107625966D01*
X168030601Y-107570601D01*
X168085966Y-107487740D01*
X168100500Y-107414674D01*
X168100500Y-105665326D01*
X168100500Y-105665323D01*
X168100499Y-105665321D01*
X168085967Y-105592264D01*
X168085966Y-105592260D01*
X168030601Y-105509399D01*
X167947740Y-105454034D01*
X167947739Y-105454033D01*
X167947735Y-105454032D01*
X167874677Y-105439500D01*
X167874674Y-105439500D01*
X166125326Y-105439500D01*
X166125323Y-105439500D01*
X166052264Y-105454032D01*
X166052260Y-105454033D01*
X165969399Y-105509399D01*
X165914033Y-105592260D01*
X165914032Y-105592264D01*
X165899500Y-105665321D01*
X165899500Y-105932614D01*
X165879815Y-105999653D01*
X165827011Y-106045408D01*
X165757853Y-106055352D01*
X165694297Y-106026327D01*
X165687819Y-106020295D01*
X165655017Y-105987493D01*
X165655011Y-105987488D01*
X165529488Y-105915017D01*
X165529489Y-105915017D01*
X165518006Y-105911940D01*
X165389475Y-105877500D01*
X165244525Y-105877500D01*
X165115993Y-105911940D01*
X165104511Y-105915017D01*
X164978988Y-105987488D01*
X164978982Y-105987493D01*
X164876493Y-106089982D01*
X164876488Y-106089988D01*
X164804017Y-106215511D01*
X164804016Y-106215515D01*
X164766500Y-106355525D01*
X162003569Y-106355525D01*
X161998677Y-104747513D01*
X161992567Y-102739015D01*
X161989230Y-101642155D01*
X165650000Y-101642155D01*
X165650000Y-102290000D01*
X166566988Y-102290000D01*
X166534075Y-102347007D01*
X166500000Y-102474174D01*
X166500000Y-102605826D01*
X166534075Y-102732993D01*
X166566988Y-102790000D01*
X165650000Y-102790000D01*
X165650000Y-103437844D01*
X165656401Y-103497372D01*
X165656403Y-103497379D01*
X165706645Y-103632086D01*
X165706649Y-103632093D01*
X165792809Y-103747187D01*
X165792812Y-103747190D01*
X165907906Y-103833350D01*
X165907913Y-103833354D01*
X166042620Y-103883596D01*
X166042627Y-103883598D01*
X166102155Y-103889999D01*
X166102172Y-103890000D01*
X166750000Y-103890000D01*
X166750000Y-102973012D01*
X166807007Y-103005925D01*
X166934174Y-103040000D01*
X167065826Y-103040000D01*
X167192993Y-103005925D01*
X167250000Y-102973012D01*
X167250000Y-103890000D01*
X167897828Y-103890000D01*
X167897844Y-103889999D01*
X167957372Y-103883598D01*
X167957379Y-103883596D01*
X168092086Y-103833354D01*
X168092093Y-103833350D01*
X168207187Y-103747190D01*
X168207190Y-103747187D01*
X168293350Y-103632093D01*
X168293354Y-103632086D01*
X168343596Y-103497379D01*
X168343598Y-103497372D01*
X168349999Y-103437844D01*
X168350000Y-103437827D01*
X168350000Y-102790000D01*
X167433012Y-102790000D01*
X167465925Y-102732993D01*
X167500000Y-102605826D01*
X167500000Y-102474174D01*
X167465925Y-102347007D01*
X167433012Y-102290000D01*
X168350000Y-102290000D01*
X168350000Y-101642172D01*
X168349999Y-101642155D01*
X168343598Y-101582627D01*
X168343596Y-101582620D01*
X168293354Y-101447913D01*
X168293350Y-101447906D01*
X168207190Y-101332812D01*
X168207187Y-101332809D01*
X168092093Y-101246649D01*
X168092086Y-101246645D01*
X167957379Y-101196403D01*
X167957372Y-101196401D01*
X167897844Y-101190000D01*
X167605051Y-101190000D01*
X167538012Y-101170315D01*
X167492257Y-101117511D01*
X167482313Y-101048353D01*
X167511338Y-100984797D01*
X167548756Y-100955515D01*
X167551471Y-100954131D01*
X167576788Y-100941232D01*
X167716928Y-100839414D01*
X167839414Y-100716928D01*
X167941232Y-100576788D01*
X168019873Y-100422445D01*
X168073402Y-100257701D01*
X168100500Y-100086611D01*
X168100500Y-99913389D01*
X168073402Y-99742299D01*
X168019873Y-99577555D01*
X167941232Y-99423212D01*
X167839414Y-99283072D01*
X167716928Y-99160586D01*
X167576788Y-99058768D01*
X167422445Y-98980127D01*
X167257701Y-98926598D01*
X167257699Y-98926597D01*
X167257698Y-98926597D01*
X167126271Y-98905781D01*
X167086611Y-98899500D01*
X166913389Y-98899500D01*
X166873728Y-98905781D01*
X166742302Y-98926597D01*
X166577552Y-98980128D01*
X166423211Y-99058768D01*
X166343256Y-99116859D01*
X166283072Y-99160586D01*
X166283070Y-99160588D01*
X166283069Y-99160588D01*
X166160588Y-99283069D01*
X166160588Y-99283070D01*
X166160586Y-99283072D01*
X166116859Y-99343256D01*
X166058768Y-99423211D01*
X165980128Y-99577552D01*
X165926597Y-99742302D01*
X165899500Y-99913389D01*
X165899500Y-100086611D01*
X165926598Y-100257701D01*
X165980127Y-100422445D01*
X166058768Y-100576788D01*
X166160586Y-100716928D01*
X166283072Y-100839414D01*
X166423212Y-100941232D01*
X166446213Y-100952951D01*
X166451244Y-100955515D01*
X166502040Y-101003490D01*
X166518835Y-101071311D01*
X166496297Y-101137446D01*
X166441582Y-101180897D01*
X166394949Y-101190000D01*
X166102155Y-101190000D01*
X166042627Y-101196401D01*
X166042620Y-101196403D01*
X165907913Y-101246645D01*
X165907906Y-101246649D01*
X165792812Y-101332809D01*
X165792809Y-101332812D01*
X165706649Y-101447906D01*
X165706645Y-101447913D01*
X165656403Y-101582620D01*
X165656401Y-101582627D01*
X165650000Y-101642155D01*
X161989230Y-101642155D01*
X161989221Y-101639228D01*
X161981371Y-99058768D01*
X161975320Y-97070000D01*
X193355138Y-97070000D01*
X194158012Y-97070000D01*
X194140795Y-97079940D01*
X194084940Y-97135795D01*
X194045444Y-97204204D01*
X194025000Y-97280504D01*
X194025000Y-97359496D01*
X194045444Y-97435796D01*
X194084940Y-97504205D01*
X194140795Y-97560060D01*
X194158012Y-97570000D01*
X193355138Y-97570000D01*
X193363430Y-97611690D01*
X193363430Y-97611692D01*
X193438807Y-97793671D01*
X193438814Y-97793684D01*
X193548248Y-97957462D01*
X193548251Y-97957466D01*
X193687533Y-98096748D01*
X193687537Y-98096751D01*
X193851315Y-98206185D01*
X193851328Y-98206192D01*
X194033306Y-98281569D01*
X194033318Y-98281572D01*
X194226504Y-98319999D01*
X194226508Y-98320000D01*
X194625000Y-98320000D01*
X194625000Y-97620000D01*
X195125000Y-97620000D01*
X195125000Y-98320000D01*
X195523492Y-98320000D01*
X195523495Y-98319999D01*
X195716681Y-98281572D01*
X195716693Y-98281569D01*
X195898671Y-98206192D01*
X195898684Y-98206185D01*
X196062462Y-98096751D01*
X196062466Y-98096748D01*
X196201748Y-97957466D01*
X196201751Y-97957462D01*
X196311185Y-97793684D01*
X196311192Y-97793671D01*
X196386569Y-97611692D01*
X196386569Y-97611690D01*
X196394862Y-97570000D01*
X195591988Y-97570000D01*
X195609205Y-97560060D01*
X195665060Y-97504205D01*
X195704556Y-97435796D01*
X195725000Y-97359496D01*
X195725000Y-97280504D01*
X195704556Y-97204204D01*
X195665060Y-97135795D01*
X195609205Y-97079940D01*
X195591988Y-97070000D01*
X196394862Y-97070000D01*
X197705138Y-97070000D01*
X198508012Y-97070000D01*
X198490795Y-97079940D01*
X198434940Y-97135795D01*
X198395444Y-97204204D01*
X198375000Y-97280504D01*
X198375000Y-97359496D01*
X198395444Y-97435796D01*
X198434940Y-97504205D01*
X198490795Y-97560060D01*
X198508012Y-97570000D01*
X197705138Y-97570000D01*
X197713430Y-97611690D01*
X197713430Y-97611692D01*
X197788807Y-97793671D01*
X197788814Y-97793684D01*
X197898248Y-97957462D01*
X197898251Y-97957466D01*
X198037533Y-98096748D01*
X198037537Y-98096751D01*
X198201315Y-98206185D01*
X198201328Y-98206192D01*
X198383306Y-98281569D01*
X198383318Y-98281572D01*
X198576504Y-98319999D01*
X198576508Y-98320000D01*
X198825000Y-98320000D01*
X198825000Y-97620000D01*
X199325000Y-97620000D01*
X199325000Y-98320000D01*
X199573492Y-98320000D01*
X199573495Y-98319999D01*
X199766681Y-98281572D01*
X199766693Y-98281569D01*
X199948671Y-98206192D01*
X199948684Y-98206185D01*
X200112462Y-98096751D01*
X200112466Y-98096748D01*
X200251748Y-97957466D01*
X200251751Y-97957462D01*
X200361185Y-97793684D01*
X200361192Y-97793671D01*
X200436569Y-97611692D01*
X200436569Y-97611690D01*
X200444862Y-97570000D01*
X199641988Y-97570000D01*
X199659205Y-97560060D01*
X199715060Y-97504205D01*
X199754556Y-97435796D01*
X199775000Y-97359496D01*
X199775000Y-97280504D01*
X199754556Y-97204204D01*
X199715060Y-97135795D01*
X199659205Y-97079940D01*
X199641988Y-97070000D01*
X200444862Y-97070000D01*
X200436569Y-97028309D01*
X200436569Y-97028307D01*
X200361192Y-96846328D01*
X200361185Y-96846315D01*
X200251751Y-96682537D01*
X200251748Y-96682533D01*
X200112466Y-96543251D01*
X200112462Y-96543248D01*
X199948684Y-96433814D01*
X199948671Y-96433807D01*
X199766693Y-96358430D01*
X199766681Y-96358427D01*
X199573495Y-96320000D01*
X199325000Y-96320000D01*
X199325000Y-97020000D01*
X198825000Y-97020000D01*
X198825000Y-96320000D01*
X198576504Y-96320000D01*
X198383318Y-96358427D01*
X198383306Y-96358430D01*
X198201328Y-96433807D01*
X198201315Y-96433814D01*
X198037537Y-96543248D01*
X198037533Y-96543251D01*
X197898251Y-96682533D01*
X197898248Y-96682537D01*
X197788814Y-96846315D01*
X197788807Y-96846328D01*
X197713430Y-97028307D01*
X197713430Y-97028309D01*
X197705138Y-97070000D01*
X196394862Y-97070000D01*
X196386569Y-97028309D01*
X196386569Y-97028307D01*
X196311192Y-96846328D01*
X196311185Y-96846315D01*
X196201751Y-96682537D01*
X196201748Y-96682533D01*
X196062466Y-96543251D01*
X196062462Y-96543248D01*
X195898675Y-96433808D01*
X195896938Y-96432880D01*
X195896198Y-96432153D01*
X195893613Y-96430426D01*
X195893940Y-96429935D01*
X195847093Y-96383918D01*
X195831633Y-96315780D01*
X195855465Y-96250100D01*
X195857017Y-96248033D01*
X195858706Y-96245829D01*
X195858715Y-96245821D01*
X195935008Y-96113678D01*
X195974500Y-95966293D01*
X195974500Y-95813707D01*
X195935008Y-95666322D01*
X195915760Y-95632984D01*
X195858717Y-95534182D01*
X195858712Y-95534176D01*
X195750823Y-95426287D01*
X195750817Y-95426282D01*
X195618681Y-95349993D01*
X195618682Y-95349993D01*
X195606595Y-95346754D01*
X195471293Y-95310500D01*
X195318707Y-95310500D01*
X195183404Y-95346754D01*
X195171318Y-95349993D01*
X195039182Y-95426282D01*
X195039176Y-95426287D01*
X194931287Y-95534176D01*
X194931282Y-95534182D01*
X194854993Y-95666318D01*
X194854992Y-95666322D01*
X194815500Y-95813707D01*
X194815500Y-95966293D01*
X194854992Y-96113678D01*
X194854993Y-96113681D01*
X194931282Y-96245817D01*
X194931284Y-96245819D01*
X194931285Y-96245821D01*
X195039179Y-96353715D01*
X195063000Y-96367468D01*
X195111215Y-96418034D01*
X195125000Y-96474855D01*
X195125000Y-97020000D01*
X194625000Y-97020000D01*
X194625000Y-96320000D01*
X194226504Y-96320000D01*
X194033318Y-96358427D01*
X194033306Y-96358430D01*
X193851328Y-96433807D01*
X193851315Y-96433814D01*
X193687537Y-96543248D01*
X193687533Y-96543251D01*
X193548251Y-96682533D01*
X193548248Y-96682537D01*
X193438814Y-96846315D01*
X193438807Y-96846328D01*
X193363430Y-97028307D01*
X193363430Y-97028309D01*
X193355138Y-97070000D01*
X161975320Y-97070000D01*
X161971475Y-95805957D01*
X161969168Y-95047525D01*
X171249500Y-95047525D01*
X171249500Y-95192475D01*
X171264383Y-95248017D01*
X171287017Y-95332488D01*
X171359488Y-95458011D01*
X171359490Y-95458013D01*
X171359491Y-95458015D01*
X171461985Y-95560509D01*
X171461986Y-95560510D01*
X171461988Y-95560511D01*
X171587511Y-95632982D01*
X171587512Y-95632982D01*
X171587515Y-95632984D01*
X171727525Y-95670500D01*
X171727528Y-95670500D01*
X171872472Y-95670500D01*
X171872475Y-95670500D01*
X172012485Y-95632984D01*
X172138015Y-95560509D01*
X172240509Y-95458015D01*
X172312984Y-95332485D01*
X172350500Y-95192475D01*
X172350500Y-95047525D01*
X172312984Y-94907515D01*
X172272576Y-94837527D01*
X172240511Y-94781988D01*
X172240510Y-94781987D01*
X172240509Y-94781985D01*
X172161818Y-94703294D01*
X172128334Y-94641970D01*
X172125500Y-94615613D01*
X172125500Y-89914281D01*
X172145185Y-89847242D01*
X172163433Y-89827421D01*
X172162268Y-89826256D01*
X172215500Y-89773024D01*
X172270509Y-89718015D01*
X172342984Y-89592485D01*
X172380500Y-89452475D01*
X172380500Y-89307525D01*
X172375141Y-89287525D01*
X178919500Y-89287525D01*
X178919500Y-89432475D01*
X178955912Y-89568363D01*
X178957017Y-89572488D01*
X179029488Y-89698011D01*
X179029490Y-89698013D01*
X179029491Y-89698015D01*
X179131985Y-89800509D01*
X179131988Y-89800511D01*
X179135988Y-89803580D01*
X179177190Y-89860008D01*
X179184500Y-89901955D01*
X179184500Y-94405613D01*
X179164815Y-94472652D01*
X179148182Y-94493294D01*
X179069488Y-94571988D01*
X178997017Y-94697511D01*
X178992583Y-94714055D01*
X178959500Y-94837525D01*
X178959500Y-94982475D01*
X178976931Y-95047527D01*
X178997017Y-95122488D01*
X179069488Y-95248011D01*
X179069490Y-95248013D01*
X179069491Y-95248015D01*
X179171985Y-95350509D01*
X179171986Y-95350510D01*
X179171988Y-95350511D01*
X179297511Y-95422982D01*
X179297512Y-95422982D01*
X179297515Y-95422984D01*
X179437525Y-95460500D01*
X179437528Y-95460500D01*
X179582472Y-95460500D01*
X179582475Y-95460500D01*
X179722485Y-95422984D01*
X179848015Y-95350509D01*
X179950509Y-95248015D01*
X180022984Y-95122485D01*
X180060500Y-94982475D01*
X180060500Y-94837525D01*
X180022984Y-94697515D01*
X179950509Y-94571985D01*
X179871818Y-94493294D01*
X179838334Y-94431970D01*
X179835500Y-94405613D01*
X179835500Y-89824386D01*
X179855185Y-89757347D01*
X179871819Y-89736705D01*
X179890513Y-89718011D01*
X179910509Y-89698015D01*
X179982984Y-89572485D01*
X180020500Y-89432475D01*
X180020500Y-89287525D01*
X179982984Y-89147515D01*
X179922054Y-89041982D01*
X179910511Y-89021988D01*
X179910506Y-89021982D01*
X179808017Y-88919493D01*
X179808011Y-88919488D01*
X179682488Y-88847017D01*
X179682489Y-88847017D01*
X179671006Y-88843940D01*
X179542475Y-88809500D01*
X179397525Y-88809500D01*
X179268993Y-88843940D01*
X179257511Y-88847017D01*
X179131988Y-88919488D01*
X179131982Y-88919493D01*
X179029493Y-89021982D01*
X179029488Y-89021988D01*
X178957017Y-89147511D01*
X178957016Y-89147515D01*
X178919500Y-89287525D01*
X172375141Y-89287525D01*
X172342984Y-89167515D01*
X172339856Y-89162098D01*
X172270511Y-89041988D01*
X172270506Y-89041982D01*
X172168017Y-88939493D01*
X172168011Y-88939488D01*
X172042488Y-88867017D01*
X172042489Y-88867017D01*
X172012050Y-88858861D01*
X171902475Y-88829500D01*
X171757525Y-88829500D01*
X171647950Y-88858861D01*
X171617511Y-88867017D01*
X171491988Y-88939488D01*
X171491982Y-88939493D01*
X171389493Y-89041982D01*
X171389488Y-89041988D01*
X171317017Y-89167511D01*
X171317016Y-89167515D01*
X171279500Y-89307525D01*
X171279500Y-89452475D01*
X171310989Y-89569992D01*
X171317017Y-89592488D01*
X171389488Y-89718011D01*
X171389493Y-89718017D01*
X171438181Y-89766705D01*
X171471666Y-89828028D01*
X171474500Y-89854386D01*
X171474500Y-94615613D01*
X171454815Y-94682652D01*
X171438182Y-94703294D01*
X171359488Y-94781988D01*
X171287017Y-94907511D01*
X171287016Y-94907515D01*
X171249500Y-95047525D01*
X161969168Y-95047525D01*
X161969144Y-95039775D01*
X161967215Y-94405613D01*
X161954192Y-90124963D01*
X161954386Y-90117641D01*
X161959099Y-90033707D01*
X161972177Y-89800816D01*
X161973733Y-89787012D01*
X162026333Y-89477413D01*
X162029426Y-89463862D01*
X162031475Y-89456751D01*
X162116364Y-89162089D01*
X162120952Y-89148979D01*
X162241128Y-88858842D01*
X162247152Y-88846332D01*
X162399063Y-88571465D01*
X162406455Y-88559703D01*
X162488570Y-88443970D01*
X162498482Y-88430000D01*
X193355138Y-88430000D01*
X194158012Y-88430000D01*
X194140795Y-88439940D01*
X194084940Y-88495795D01*
X194045444Y-88564204D01*
X194025000Y-88640504D01*
X194025000Y-88719496D01*
X194045444Y-88795796D01*
X194084940Y-88864205D01*
X194140795Y-88920060D01*
X194158012Y-88930000D01*
X193355138Y-88930000D01*
X193363430Y-88971690D01*
X193363430Y-88971692D01*
X193438807Y-89153671D01*
X193438814Y-89153684D01*
X193548248Y-89317462D01*
X193548251Y-89317466D01*
X193687533Y-89456748D01*
X193687537Y-89456751D01*
X193851315Y-89566185D01*
X193851328Y-89566192D01*
X194033306Y-89641569D01*
X194033318Y-89641572D01*
X194226504Y-89679999D01*
X194226508Y-89680000D01*
X194625000Y-89680000D01*
X194625000Y-88980000D01*
X195125000Y-88980000D01*
X195125000Y-89525144D01*
X195105315Y-89592183D01*
X195063003Y-89632530D01*
X195039179Y-89646285D01*
X195039176Y-89646287D01*
X194931287Y-89754176D01*
X194931282Y-89754182D01*
X194854993Y-89886318D01*
X194854992Y-89886322D01*
X194815500Y-90033707D01*
X194815500Y-90186293D01*
X194854992Y-90333678D01*
X194854993Y-90333681D01*
X194931282Y-90465817D01*
X194931284Y-90465819D01*
X194931285Y-90465821D01*
X195039179Y-90573715D01*
X195039180Y-90573716D01*
X195039182Y-90573717D01*
X195171318Y-90650006D01*
X195171319Y-90650006D01*
X195171322Y-90650008D01*
X195318707Y-90689500D01*
X195318710Y-90689500D01*
X195471290Y-90689500D01*
X195471293Y-90689500D01*
X195618678Y-90650008D01*
X195750821Y-90573715D01*
X195858715Y-90465821D01*
X195935008Y-90333678D01*
X195974500Y-90186293D01*
X195974500Y-90033707D01*
X195935008Y-89886322D01*
X195858715Y-89754179D01*
X195858711Y-89754175D01*
X195857018Y-89751968D01*
X195856165Y-89749763D01*
X195854651Y-89747140D01*
X195855059Y-89746903D01*
X195831820Y-89686800D01*
X195845856Y-89618355D01*
X195894667Y-89568363D01*
X195896955Y-89567109D01*
X195898687Y-89566183D01*
X196062462Y-89456751D01*
X196062466Y-89456748D01*
X196201748Y-89317466D01*
X196201751Y-89317462D01*
X196311185Y-89153684D01*
X196311192Y-89153671D01*
X196386569Y-88971692D01*
X196386569Y-88971690D01*
X196394862Y-88930000D01*
X195591988Y-88930000D01*
X195609205Y-88920060D01*
X195665060Y-88864205D01*
X195704556Y-88795796D01*
X195725000Y-88719496D01*
X195725000Y-88640504D01*
X195704556Y-88564204D01*
X195665060Y-88495795D01*
X195609205Y-88439940D01*
X195591988Y-88430000D01*
X196394862Y-88430000D01*
X197705138Y-88430000D01*
X198508012Y-88430000D01*
X198490795Y-88439940D01*
X198434940Y-88495795D01*
X198395444Y-88564204D01*
X198375000Y-88640504D01*
X198375000Y-88719496D01*
X198395444Y-88795796D01*
X198434940Y-88864205D01*
X198490795Y-88920060D01*
X198508012Y-88930000D01*
X197705138Y-88930000D01*
X197713430Y-88971690D01*
X197713430Y-88971692D01*
X197788807Y-89153671D01*
X197788814Y-89153684D01*
X197898248Y-89317462D01*
X197898251Y-89317466D01*
X198037533Y-89456748D01*
X198037537Y-89456751D01*
X198201315Y-89566185D01*
X198201328Y-89566192D01*
X198383306Y-89641569D01*
X198383318Y-89641572D01*
X198576504Y-89679999D01*
X198576508Y-89680000D01*
X198825000Y-89680000D01*
X198825000Y-88980000D01*
X199325000Y-88980000D01*
X199325000Y-89680000D01*
X199573492Y-89680000D01*
X199573495Y-89679999D01*
X199766681Y-89641572D01*
X199766693Y-89641569D01*
X199948671Y-89566192D01*
X199948684Y-89566185D01*
X200112462Y-89456751D01*
X200112466Y-89456748D01*
X200251748Y-89317466D01*
X200251751Y-89317462D01*
X200361185Y-89153684D01*
X200361192Y-89153671D01*
X200436569Y-88971692D01*
X200436569Y-88971690D01*
X200444862Y-88930000D01*
X199641988Y-88930000D01*
X199659205Y-88920060D01*
X199715060Y-88864205D01*
X199754556Y-88795796D01*
X199775000Y-88719496D01*
X199775000Y-88640504D01*
X199754556Y-88564204D01*
X199715060Y-88495795D01*
X199659205Y-88439940D01*
X199641988Y-88430000D01*
X200444862Y-88430000D01*
X200436569Y-88388309D01*
X200436569Y-88388307D01*
X200361192Y-88206328D01*
X200361185Y-88206315D01*
X200251751Y-88042537D01*
X200251748Y-88042533D01*
X200112466Y-87903251D01*
X200112462Y-87903248D01*
X199948684Y-87793814D01*
X199948671Y-87793807D01*
X199766693Y-87718430D01*
X199766681Y-87718427D01*
X199573495Y-87680000D01*
X199325000Y-87680000D01*
X199325000Y-88380000D01*
X198825000Y-88380000D01*
X198825000Y-87680000D01*
X198576504Y-87680000D01*
X198383318Y-87718427D01*
X198383306Y-87718430D01*
X198201328Y-87793807D01*
X198201315Y-87793814D01*
X198037537Y-87903248D01*
X198037533Y-87903251D01*
X197898251Y-88042533D01*
X197898248Y-88042537D01*
X197788814Y-88206315D01*
X197788807Y-88206328D01*
X197713430Y-88388307D01*
X197713430Y-88388309D01*
X197705138Y-88430000D01*
X196394862Y-88430000D01*
X196386569Y-88388309D01*
X196386569Y-88388307D01*
X196311192Y-88206328D01*
X196311185Y-88206315D01*
X196201751Y-88042537D01*
X196201748Y-88042533D01*
X196062466Y-87903251D01*
X196062462Y-87903248D01*
X195898684Y-87793814D01*
X195898671Y-87793807D01*
X195716693Y-87718430D01*
X195716681Y-87718427D01*
X195523495Y-87680000D01*
X195125000Y-87680000D01*
X195125000Y-88380000D01*
X194625000Y-88380000D01*
X194625000Y-87680000D01*
X194226504Y-87680000D01*
X194033318Y-87718427D01*
X194033306Y-87718430D01*
X193851328Y-87793807D01*
X193851315Y-87793814D01*
X193687537Y-87903248D01*
X193687533Y-87903251D01*
X193548251Y-88042533D01*
X193548248Y-88042537D01*
X193438814Y-88206315D01*
X193438807Y-88206328D01*
X193363430Y-88388307D01*
X193363430Y-88388309D01*
X193355138Y-88430000D01*
X162498482Y-88430000D01*
X162588189Y-88303568D01*
X162596838Y-88292723D01*
X162806100Y-88058555D01*
X162815919Y-88048735D01*
X163050093Y-87839461D01*
X163060947Y-87830806D01*
X163317084Y-87649065D01*
X163328822Y-87641690D01*
X163603694Y-87489770D01*
X163616202Y-87483747D01*
X163906350Y-87363561D01*
X163919460Y-87358974D01*
X164221224Y-87272035D01*
X164234767Y-87268943D01*
X164544382Y-87216335D01*
X164558182Y-87214780D01*
X164845182Y-87198661D01*
X164874497Y-87197015D01*
X164881450Y-87196820D01*
X198875218Y-87196820D01*
X198882170Y-87197015D01*
G37*
%TD.AperFunction*%
%TD*%
M02*
