M48
; DRILL file KiCad 10.0.1 date 2026-04-21T18:00:48
; FORMAT={-:-/ absolute / metric / decimal}
; #@! TF.CreationDate,2026-04-21T18:00:48-07:00
; #@! TF.GenerationSoftware,Kicad,Pcbnew,10.0.1
; #@! TF.FileFunction,Plated,1,4,PTH
FMAT,2
METRIC
; #@! TA.AperFunction,Plated,PTH,ViaDrill
T1C0.400
; #@! TA.AperFunction,Plated,PTH,ComponentDrill
T2C1.000
; #@! TA.AperFunction,Plated,PTH,ComponentDrill
T3C1.300
%
G90
G05
T1
X134.75Y-115.0
X134.75Y-118.5
X136.0Y-74.5
X137.25Y-71.0
X137.25Y-105.0
X140.25Y-109.25
X140.5Y-106.25
X141.75Y-113.0
X141.75Y-122.75
X143.75Y-111.5
T2
X118.73Y-75.87
X118.73Y-78.41
X118.73Y-80.95
X118.73Y-83.49
X118.73Y-86.03
X118.73Y-88.57
X118.73Y-91.11
X118.73Y-93.65
X118.73Y-96.19
X118.73Y-98.73
X118.73Y-101.27
X118.73Y-103.81
X118.73Y-106.35
X118.73Y-108.89
X118.73Y-111.43
X118.73Y-113.97
X118.73Y-116.51
X118.73Y-119.05
X118.73Y-121.59
X118.73Y-124.13
X121.27Y-75.87
X121.27Y-78.41
X121.27Y-80.95
X121.27Y-83.49
X121.27Y-86.03
X121.27Y-88.57
X121.27Y-91.11
X121.27Y-93.65
X121.27Y-96.19
X121.27Y-98.73
X121.27Y-101.27
X121.27Y-103.81
X121.27Y-106.35
X121.27Y-108.89
X121.27Y-111.43
X121.27Y-113.97
X121.27Y-116.51
X121.27Y-119.05
X121.27Y-121.59
X121.27Y-124.13
X144.25Y-116.42
X144.25Y-118.96
X144.25Y-121.5
X144.25Y-124.04
T3
X140.417Y-77.465
X140.417Y-82.545
X140.417Y-93.965
X140.417Y-99.045
M30
